<svg width="43" height="42" viewBox="0 0 43 42" fill="none" xmlns="http://www.w3.org/2000/svg">
<path d="M39.3931 23.476L36.9345 12.7063C37.273 12.5399 37.5698 12.2998 37.8032 12.0036C38.0366 11.7074 38.2006 11.3626 38.2831 10.9946C38.3656 10.6266 38.3646 10.2448 38.28 9.87732C38.1955 9.50981 38.0296 9.16593 37.7946 8.871C37.5596 8.57607 37.2614 8.33759 36.922 8.17313C36.5827 8.00867 36.2107 7.9224 35.8336 7.92068C35.4565 7.91896 35.0838 8.00183 34.743 8.16319C34.4021 8.32456 34.1018 8.5603 33.8641 8.85308L23.9103 4.06159C23.9909 3.6933 23.988 3.31162 23.9017 2.94462C23.8154 2.57762 23.6479 2.23464 23.4115 1.94091C23.1751 1.64719 22.8759 1.41019 22.5359 1.24736C22.1958 1.08453 21.8236 1 21.4466 1C21.0696 1 20.6974 1.08453 20.3573 1.24736C20.0173 1.41019 19.7181 1.64719 19.4817 1.94091C19.2453 2.23464 19.0778 2.57762 18.9915 2.94462C18.9052 3.31162 18.9023 3.6933 18.9829 4.06159L9.0291 8.85308C8.79167 8.55979 8.49145 8.32352 8.15058 8.16168C7.8097 7.99984 7.43685 7.91655 7.05951 7.91795C6.68217 7.91935 6.30995 8.0054 5.97029 8.16977C5.63062 8.33414 5.33216 8.57263 5.09692 8.86766C4.86167 9.1627 4.69562 9.50676 4.61101 9.8745C4.5264 10.2422 4.52538 10.6243 4.60804 10.9925C4.69069 11.3606 4.85491 11.7056 5.08859 12.0019C5.32227 12.2981 5.61945 12.5382 5.95824 12.7044L3.50015 23.476C3.12311 23.4793 2.7516 23.567 2.41296 23.7329C2.07433 23.8987 1.77718 24.1383 1.54338 24.4341C1.30958 24.7299 1.14509 25.0744 1.062 25.4422C0.97891 25.81 0.979341 26.1917 1.06326 26.5593C1.14718 26.9269 1.31245 27.271 1.54692 27.5663C1.78138 27.8616 2.07907 28.1005 2.41808 28.2656C2.75709 28.4306 3.12879 28.5176 3.50584 28.52C3.88288 28.5224 4.25568 28.4403 4.59678 28.2796L11.4849 36.9173C11.2513 37.2139 11.0874 37.5592 11.0051 37.9277C10.9229 38.2962 10.9244 38.6784 11.0095 39.0462C11.0947 39.4141 11.2614 39.758 11.4973 40.0529C11.7331 40.3477 12.0322 40.5858 12.3723 40.7496C12.7125 40.9134 13.0851 40.9987 13.4626 40.9993C13.8402 40.9999 14.213 40.9158 14.5537 40.753C14.8944 40.5903 15.1942 40.3531 15.431 40.0591C15.6678 39.765 15.8355 39.4216 15.9218 39.054H26.97C27.0562 39.4216 27.2239 39.7652 27.4606 40.0593C27.6974 40.3535 27.9972 40.5907 28.3379 40.7535C28.6785 40.9163 29.0514 41.0005 29.429 41C29.8066 40.9994 30.1792 40.9141 30.5195 40.7503C30.8597 40.5865 31.1587 40.3484 31.3946 40.0536C31.6305 39.7588 31.7972 39.4147 31.8824 39.0469C31.9676 38.679 31.9691 38.2967 31.8868 37.9282C31.8045 37.5597 31.6405 37.2144 31.4069 36.9177L38.2969 28.2796C38.638 28.4403 39.0108 28.5224 39.3879 28.52C39.765 28.5176 40.1367 28.4306 40.4757 28.2655C40.8147 28.1005 41.1124 27.8615 41.3469 27.5662C41.5813 27.2708 41.7466 26.9267 41.8305 26.5591C41.9144 26.1915 41.9147 25.8097 41.8316 25.4419C41.7485 25.0741 41.5839 24.7296 41.3501 24.4338C41.1162 24.138 40.819 23.8985 40.4803 23.7327C40.1417 23.5669 39.7701 23.4792 39.3931 23.476ZM35.8234 9.07773C36.0932 9.07764 36.357 9.15757 36.5814 9.30742C36.8059 9.45727 36.9808 9.67031 37.0841 9.91958C37.1875 10.1689 37.2145 10.4432 37.1619 10.7079C37.1094 10.9725 36.9795 11.2157 36.7887 11.4065C36.5979 11.5973 36.3548 11.7273 36.0902 11.78C35.8255 11.8327 35.5512 11.8057 35.3019 11.7024C35.0526 11.5992 34.8395 11.4243 34.6895 11.2C34.5396 10.9756 34.4596 10.7118 34.4596 10.442C34.46 10.0804 34.6038 9.73364 34.8594 9.47788C35.1151 9.22213 35.4618 9.07822 35.8234 9.07773ZM21.4466 2.15416C21.7164 2.15406 21.9803 2.234 22.2047 2.38385C22.4291 2.5337 22.604 2.74673 22.7073 2.99601C22.8107 3.24529 22.8378 3.51961 22.7852 3.78428C22.7326 4.04895 22.6027 4.29208 22.4119 4.48292C22.2211 4.67377 21.978 4.80374 21.7134 4.85642C21.4487 4.9091 21.1744 4.88211 20.9251 4.77887C20.6758 4.67562 20.4627 4.50076 20.3128 4.2764C20.1628 4.05204 20.0828 3.78826 20.0828 3.51841C20.0832 3.15678 20.227 2.81007 20.4826 2.55431C20.7383 2.29856 21.085 2.15465 21.4466 2.15416ZM19.485 5.10499C19.7211 5.3974 20.0196 5.63327 20.3587 5.79532C20.6978 5.95736 21.0689 6.04146 21.4447 6.04146C21.8206 6.04146 22.1916 5.95736 22.5307 5.79532C22.8698 5.63327 23.1684 5.3974 23.4045 5.10499L33.3597 9.8988C33.2789 10.2657 33.2811 10.6461 33.3662 11.0121C33.4512 11.3781 33.617 11.7204 33.8513 12.0141C34.0857 12.3078 34.3827 12.5454 34.7206 12.7096C35.0586 12.8738 35.429 12.9604 35.8047 12.9631L38.2628 23.7329C37.9256 23.8985 37.6296 24.1373 37.3965 24.432C37.1634 24.7267 36.9991 25.0697 36.9156 25.436C36.8321 25.8023 36.8314 26.1826 36.9137 26.5492C36.996 26.9158 37.1592 27.2593 37.3913 27.5548L30.5027 36.1938C30.163 36.0332 29.7916 35.9505 29.4158 35.9518C29.0399 35.9531 28.6691 36.0384 28.3305 36.2015C27.9919 36.3645 27.694 36.6012 27.4586 36.8942C27.2232 37.1871 27.0562 37.529 26.97 37.8948H15.9232C15.837 37.529 15.67 37.1871 15.4346 36.8942C15.1992 36.6012 14.9013 36.3645 14.5627 36.2015C14.2241 36.0384 13.8533 35.9531 13.4774 35.9518C13.1016 35.9505 12.7302 36.0332 12.3905 36.1938L5.50193 27.5562C5.73403 27.2607 5.89718 26.9172 5.97949 26.5506C6.06179 26.184 6.06115 25.8037 5.97762 25.4374C5.89409 25.0711 5.72978 24.7281 5.4967 24.4334C5.26361 24.1387 4.96764 23.8999 4.63041 23.7343L7.0885 12.9631C7.46437 12.9605 7.8349 12.8739 8.17298 12.7096C8.51107 12.5453 8.80816 12.3075 9.04253 12.0137C9.27689 11.7198 9.44261 11.3773 9.52757 11.0111C9.61252 10.645 9.61455 10.2644 9.53352 9.8974L19.485 5.10499ZM7.06982 9.07773C7.33974 9.07745 7.60368 9.15725 7.82824 9.30703C8.05279 9.45681 8.22787 9.66984 8.33132 9.91915C8.43476 10.1685 8.46193 10.4429 8.40937 10.7076C8.35681 10.9724 8.22689 11.2156 8.03606 11.4065C7.84523 11.5974 7.60206 11.7274 7.33732 11.78C7.07258 11.8327 6.79817 11.8056 6.54882 11.7023C6.29947 11.5989 6.08638 11.4239 5.93653 11.1994C5.78667 10.9749 5.70678 10.711 5.70696 10.4411C5.70758 10.0797 5.85135 9.73341 6.10679 9.47788C6.36223 9.22236 6.70852 9.07847 7.06982 9.07773ZM2.15737 25.999C2.15728 25.7291 2.23723 25.4653 2.3871 25.2409C2.53697 25.0165 2.75003 24.8415 2.99934 24.7382C3.24864 24.6349 3.52298 24.6078 3.78767 24.6605C4.05235 24.7131 4.29548 24.843 4.48631 25.0339C4.67713 25.2247 4.80707 25.4678 4.8597 25.7325C4.91232 25.9972 4.88527 26.2715 4.78195 26.5208C4.67863 26.7701 4.5037 26.9832 4.27928 27.1331C4.05486 27.2829 3.79103 27.3629 3.52116 27.3628C3.15961 27.3623 2.81302 27.2185 2.55736 26.9628C2.30171 26.7072 2.15787 26.3606 2.15737 25.999ZM13.468 39.8387C13.1981 39.8387 12.9344 39.7587 12.71 39.6088C12.4857 39.4589 12.3108 39.2458 12.2075 38.9965C12.1043 38.7472 12.0773 38.4729 12.1299 38.2083C12.1826 37.9436 12.3125 37.7005 12.5033 37.5097C12.6941 37.319 12.9372 37.189 13.2018 37.1364C13.4664 37.0837 13.7408 37.1108 13.99 37.214C14.2393 37.3173 14.4524 37.4921 14.6023 37.7165C14.7522 37.9408 14.8322 38.2046 14.8322 38.4744C14.8318 38.8361 14.688 39.1829 14.4322 39.4387C14.1765 39.6945 13.8297 39.8383 13.468 39.8387ZM29.4252 39.8387C29.1553 39.839 28.8914 39.7593 28.6668 39.6097C28.4422 39.46 28.267 39.247 28.1635 38.9978C28.06 38.7485 28.0327 38.4742 28.0851 38.2094C28.1375 37.9446 28.2673 37.7014 28.458 37.5104C28.6488 37.3194 28.8918 37.1893 29.1565 37.1365C29.4212 37.0837 29.6956 37.1106 29.945 37.2138C30.1944 37.317 30.4076 37.4919 30.5576 37.7163C30.7076 37.9407 30.7876 38.2045 30.7876 38.4744C30.7873 38.8358 30.6437 39.1823 30.3883 39.438C30.1329 39.6937 29.7866 39.8378 29.4252 39.8387ZM39.3734 27.3628C39.1036 27.3629 38.8397 27.2829 38.6153 27.1331C38.3909 26.9832 38.216 26.7701 38.1127 26.5208C38.0093 26.2715 37.9823 25.9972 38.0349 25.7325C38.0875 25.4678 38.2175 25.2247 38.4083 25.0339C38.5991 24.843 38.8423 24.7131 39.1069 24.6605C39.3716 24.6078 39.646 24.6349 39.8953 24.7382C40.1446 24.8415 40.3576 25.0165 40.5075 25.2409C40.6574 25.4653 40.7373 25.7291 40.7372 25.999C40.7367 26.3604 40.593 26.7068 40.3376 26.9625C40.0821 27.2181 39.7358 27.3621 39.3744 27.3628H39.3734ZM14.1709 20.677C14.4832 20.677 14.7939 20.6328 15.0938 20.5457C15.0966 20.5723 15.0989 20.5985 15.1022 20.6256C15.1124 20.7208 15.1379 20.8137 15.1778 20.9007C15.1166 20.9435 15.0639 20.9975 15.0228 21.0599C14.9164 21.1813 14.7854 21.2785 14.6384 21.3451C14.4915 21.4117 14.332 21.4462 14.1706 21.4462C14.0093 21.4462 13.8498 21.4117 13.7028 21.3451C13.5559 21.2785 13.4248 21.1813 13.3185 21.0599C13.2699 20.985 13.2047 20.9222 13.1279 20.8766C13.0511 20.831 12.9648 20.8038 12.8757 20.797C12.235 20.742 11.5897 20.8138 10.9767 21.0083C10.3637 21.2028 9.79507 21.5162 9.30326 21.9305C9.29205 21.9399 9.28131 21.9492 9.27103 21.959C8.3019 22.8814 7.95068 24.4507 8.19682 26.7566C8.209 26.874 8.24478 26.9878 8.302 27.0911C8.35923 27.1944 8.43671 27.285 8.52982 27.3577C9.90062 28.4319 11.7992 28.954 14.1723 28.9013C14.2813 28.9038 14.3893 28.905 14.4964 28.905C14.7519 28.905 15.0018 28.8975 15.246 28.884C15.0743 29.8274 15.0511 30.7918 15.1774 31.7423C15.1896 31.8598 15.2253 31.9736 15.2826 32.0769C15.3398 32.1801 15.4173 32.2708 15.5104 32.3434C16.8807 33.4177 18.7797 33.9398 21.1524 33.8847C21.2607 33.887 21.3677 33.8884 21.4742 33.8884C23.6978 33.8884 25.4866 33.3686 26.7948 32.3411C26.8879 32.2685 26.9653 32.1779 27.0225 32.0747C27.0798 31.9715 27.1156 31.8578 27.1278 31.7405C27.2574 30.7732 27.2309 29.7915 27.0494 28.8326C27.4983 28.88 27.9495 28.9034 28.401 28.9027C28.5075 28.9027 28.6154 28.9027 28.7237 28.8989C31.0964 28.9512 32.9954 28.4319 34.3662 27.3577C34.4593 27.285 34.5368 27.1944 34.594 27.0911C34.6512 26.9878 34.687 26.874 34.6992 26.7566C34.9463 24.4507 34.595 22.88 33.625 21.959C33.6147 21.9492 33.604 21.9399 33.5927 21.9305C33.1006 21.5159 32.5316 21.2023 31.9182 21.0078C31.3048 20.8133 30.6591 20.7417 30.0179 20.797C29.9289 20.8038 29.8426 20.831 29.7658 20.8766C29.689 20.9222 29.6237 20.985 29.5752 21.0599C29.4688 21.1813 29.3378 21.2785 29.1908 21.3451C29.0439 21.4117 28.8844 21.4462 28.723 21.4462C28.5617 21.4462 28.4022 21.4117 28.2552 21.3451C28.1083 21.2785 27.9772 21.1813 27.8709 21.0599C27.8222 20.9851 27.757 20.9224 27.6802 20.8768C27.6034 20.8312 27.5172 20.8039 27.4281 20.797C27.2908 20.7867 27.1554 20.783 27.0213 20.7825C27.0359 20.7312 27.0459 20.6787 27.0512 20.6256C27.0648 20.4971 27.0764 20.371 27.0867 20.2463C27.6595 20.5698 28.3153 20.7162 28.9713 20.6671C29.6273 20.618 30.254 20.3755 30.7723 19.9703C31.2905 19.5651 31.677 19.0154 31.8829 18.3907C32.0888 17.7659 32.1049 17.0941 31.9292 16.4602C31.7534 15.8263 31.3937 15.2587 30.8955 14.8291C30.3973 14.3996 29.7829 14.1274 29.13 14.0469C28.4771 13.9664 27.815 14.0812 27.2274 14.3769C26.6398 14.6725 26.1529 15.1357 25.8285 15.708C24.8519 14.9317 23.6151 14.559 22.3723 14.6665C22.2833 14.6731 22.197 14.7003 22.1202 14.7458C22.0433 14.7914 21.9781 14.854 21.9295 14.9289C21.8232 15.0503 21.6922 15.1475 21.5452 15.2141C21.3982 15.2808 21.2387 15.3152 21.0774 15.3152C20.916 15.3152 20.7566 15.2808 20.6096 15.2141C20.4626 15.1475 20.3316 15.0503 20.2253 14.9289C20.1766 14.8541 20.1114 14.7914 20.0346 14.7459C19.9578 14.7004 19.8715 14.6732 19.7825 14.6665C18.751 14.5753 17.7174 14.8167 16.8331 15.3554C16.493 14.9013 16.0425 14.5416 15.5244 14.3107C15.0062 14.0797 14.4376 13.985 13.8725 14.0357C13.3075 14.0864 12.7648 14.2807 12.296 14.6002C11.8272 14.9196 11.4478 15.3537 11.194 15.861C10.9402 16.3684 10.8203 16.9323 10.8458 17.499C10.8712 18.0657 11.0412 18.6166 11.3395 19.0991C11.6378 19.5817 12.0545 19.98 12.5501 20.2561C13.0456 20.5323 13.6036 20.6772 14.1709 20.677ZM20.2211 25.5296C21.0386 25.7692 21.917 25.6844 22.6735 25.2928C22.6712 25.4479 22.6735 25.6076 22.6782 25.7706C22.6012 25.7734 22.5241 25.7772 22.4447 25.7832C22.3557 25.79 22.2694 25.8171 22.1926 25.8627C22.1158 25.9082 22.0506 25.9708 22.0019 26.0457C21.8956 26.1671 21.7645 26.2643 21.6176 26.3309C21.4706 26.3975 21.3111 26.432 21.1498 26.432C20.9884 26.432 20.829 26.3975 20.682 26.3309C20.535 26.2643 20.404 26.1671 20.2977 26.0457C20.272 26.0068 20.2419 25.9711 20.208 25.9392C20.2159 25.7991 20.2197 25.6632 20.2211 25.5296ZM23.3195 22.3355C23.3195 22.7643 23.1923 23.1836 22.954 23.5402C22.7157 23.8968 22.3771 24.1748 21.9808 24.3389C21.5846 24.503 21.1486 24.546 20.7279 24.4623C20.3072 24.3786 19.9209 24.1721 19.6176 23.8688C19.3143 23.5656 19.1078 23.1792 19.0241 22.7585C18.9404 22.3379 18.9834 21.9018 19.1475 21.5056C19.3116 21.1094 19.5896 20.7707 19.9462 20.5324C20.3028 20.2941 20.7221 20.1669 21.151 20.1669C21.7259 20.1676 22.2771 20.3962 22.6837 20.8028C23.0902 21.2093 23.3189 21.7605 23.3195 22.3355ZM14.1839 27.742H14.1578C12.107 27.7887 10.4877 27.3763 9.33595 26.516C9.15614 24.6973 9.39714 23.4522 10.0529 22.8132C10.7475 22.2275 11.633 21.9172 12.5413 21.9413C12.9768 22.3666 13.5614 22.6048 14.1702 22.6048C14.7789 22.6048 15.3635 22.3666 15.799 21.9413H15.8238C16.5512 21.9528 17.2563 22.1946 17.8377 22.632C17.8774 23.0726 18.0046 23.5009 18.2119 23.8917C18.4192 24.2825 18.7025 24.628 19.045 24.908C19.064 25.1987 19.0676 25.4902 19.0558 25.7814C18.0351 25.8595 17.0648 26.2559 16.2815 26.9149C16.2703 26.9242 16.2595 26.9336 16.2488 26.9439C16.0232 27.1609 15.8314 27.4106 15.6799 27.6846C15.1829 27.7349 14.6833 27.7541 14.1839 27.742ZM25.9859 31.5023C24.8346 32.3626 23.2149 32.7755 21.1645 32.7278H21.1379C19.0894 32.7745 17.4678 32.3626 16.3165 31.5023C16.1367 29.6808 16.3777 28.4379 17.033 27.799C17.728 27.2138 18.6136 26.9039 19.5219 26.928C19.9573 27.3537 20.5422 27.5921 21.1512 27.5921C21.7602 27.5921 22.345 27.3537 22.7805 26.928C23.689 26.9034 24.5749 27.2138 25.2694 27.8C25.9247 28.438 26.1638 29.6836 25.9859 31.5023ZM28.7223 22.6054C29.025 22.6125 29.3259 22.5572 29.6062 22.4429C29.8866 22.3287 30.1404 22.1579 30.3519 21.9413C31.2611 21.9159 32.1478 22.2263 32.8427 22.8132C33.4965 23.4522 33.7394 24.6969 33.5596 26.516C32.4055 27.3763 30.7876 27.7892 28.7354 27.742H28.7093C27.9942 27.7641 27.2786 27.7172 26.5725 27.6019C26.4298 27.3614 26.2551 27.1414 26.0531 26.9481C26.0429 26.9378 26.0321 26.9284 26.0209 26.9191C25.3925 26.3936 24.6436 26.032 23.8412 25.8668C23.8057 25.2859 23.8435 24.7028 23.9537 24.1313V24.1257C24.1642 23.7979 24.3151 23.4355 24.3993 23.0552C24.4604 22.9691 24.5289 22.8885 24.6039 22.8142C25.2985 22.2284 26.184 21.9181 27.0923 21.9422C27.304 22.1587 27.5579 22.3292 27.8383 22.4433C28.1188 22.5574 28.4197 22.6126 28.7223 22.6054ZM28.7223 15.1793C29.1512 15.1793 29.5705 15.3065 29.9271 15.5448C30.2837 15.783 30.5616 16.1217 30.7258 16.518C30.8899 16.9142 30.9329 17.3502 30.8492 17.7709C30.7655 18.1915 30.559 18.5779 30.2557 18.8812C29.9524 19.1845 29.566 19.391 29.1454 19.4747C28.7247 19.5583 28.2887 19.5154 27.8925 19.3513C27.4962 19.1871 27.1576 18.9092 26.9193 18.5526C26.681 18.196 26.5538 17.7767 26.5538 17.3478C26.5549 16.7732 26.7838 16.2225 27.1903 15.8163C27.5968 15.4102 28.1477 15.1818 28.7223 15.1812V15.1793ZM19.4476 15.8121C19.8832 16.2379 20.4681 16.4763 21.0772 16.4763C21.6863 16.4763 22.2712 16.2379 22.7067 15.8121C23.6151 15.7884 24.5007 16.0987 25.1956 16.6841C25.2787 16.7655 25.3537 16.8547 25.4198 16.9503C25.4034 17.0835 25.3949 17.2174 25.3946 17.3515C25.394 18.0161 25.5935 18.6655 25.9672 19.2151C25.9701 19.6066 25.9517 19.9979 25.9121 20.3874C25.4191 20.7521 24.8684 21.0315 24.283 21.2141C24.0504 20.5653 23.622 20.0049 23.0571 19.6101C22.4922 19.2154 21.8186 19.0058 21.1295 19.0104C20.4403 19.0149 19.7696 19.2334 19.2099 19.6356C18.6503 20.0378 18.2294 20.6039 18.0054 21.2556C17.3706 21.0734 16.7735 20.7792 16.2422 20.3869C16.2278 20.2403 16.217 20.1067 16.2086 19.9792C16.7404 19.5684 17.135 19.0058 17.3401 18.3659C17.5453 17.726 17.5514 17.0389 17.3576 16.3955C17.9784 15.9924 18.7077 15.7888 19.4476 15.8121ZM14.1699 15.183C14.5988 15.183 15.0181 15.3102 15.3747 15.5485C15.7313 15.7868 16.0093 16.1254 16.1734 16.5217C16.3375 16.9179 16.3805 17.354 16.2968 17.7746C16.2131 18.1953 16.0066 18.5816 15.7033 18.8849C15.4 19.1882 15.0136 19.3947 14.593 19.4784C14.1723 19.5621 13.7363 19.5191 13.3401 19.355C12.9438 19.1909 12.6052 18.9129 12.3669 18.5563C12.1286 18.1997 12.0014 17.7804 12.0014 17.3515C12.0015 16.7761 12.2301 16.2243 12.6369 15.8173C13.0437 15.4103 13.5954 15.1815 14.1709 15.1812L14.1699 15.183ZM21.0772 14.5464C21.7353 14.5465 22.3788 14.3514 22.9261 13.9858C23.4734 13.6202 23.9 13.1005 24.1519 12.4925C24.4039 11.8844 24.4698 11.2153 24.3415 10.5698C24.2131 9.92422 23.8962 9.33123 23.4309 8.86579C22.9655 8.40035 22.3725 8.08337 21.727 7.95493C21.0815 7.82649 20.4124 7.89236 19.8043 8.14421C19.1962 8.39607 18.6764 8.82259 18.3107 9.36985C17.9451 9.9171 17.7499 10.5605 17.7499 11.2187C17.7509 12.1009 18.1017 12.9467 18.7255 13.5705C19.3492 14.1943 20.195 14.5453 21.0772 14.5464ZM21.0772 9.05017C21.5061 9.05017 21.9253 9.17735 22.2819 9.41563C22.6385 9.65391 22.9165 9.99259 23.0806 10.3888C23.2447 10.7851 23.2877 11.2211 23.204 11.6417C23.1203 12.0624 22.9138 12.4488 22.6105 12.7521C22.3073 13.0553 21.9209 13.2619 21.5002 13.3455C21.0796 13.4292 20.6436 13.3863 20.2473 13.2221C19.8511 13.058 19.5124 12.7801 19.2741 12.4235C19.0358 12.0668 18.9086 11.6476 18.9086 11.2187C18.9093 10.6438 19.1379 10.0925 19.5445 9.686C19.951 9.27946 20.5022 9.05079 21.0772 9.05017Z" fill="black" stroke="black" stroke-width="0.7"/>
</svg>
