<svg width="57" height="42" viewBox="0 0 57 42" fill="none" xmlns="http://www.w3.org/2000/svg">
<path d="M55.0791 11.9063L30.3242 1.35156C29.229 0.882812 28.122 0.882812 27.0267 1.35156L2.2719 11.9063C1.50051 12.2344 1 13.0547 1 14C1 14.9453 1.50051 15.7656 2.2719 16.0938L12.3411 20.3906V33.2422C12.3411 34.8906 13.0536 36.3125 14.2018 36.9453C18.5769 39.3594 24.3887 40.9922 28.6696 41C32.9505 40.9844 38.7623 39.3594 43.1374 36.9453C44.2857 36.3125 44.9982 34.8906 44.9982 33.2422V20.3828L49.1024 18.6328V25.5703C48.066 26.0156 47.3064 27.2891 47.3064 28.8125C47.3064 29.7656 47.6008 30.625 48.0719 31.2422C47.6008 31.8594 47.3064 32.7188 47.3064 33.6719V38.7109C47.3064 39.8594 48.013 40.7891 48.8727 40.7891H50.8924C51.758 40.7891 52.4588 39.8594 52.4588 38.7109V33.6719C52.4588 32.7188 52.1643 31.8594 51.6933 31.2422C52.1643 30.625 52.4588 29.7656 52.4588 28.8125C52.4588 27.2891 51.6992 26.0156 50.6628 25.5703V17.9609L55.0614 16.0859C55.8328 15.7578 56.3333 14.9375 56.3333 13.9922C56.3333 13.0469 55.8505 12.2344 55.0791 11.9063ZM48.8845 38.7188V33.6797C48.8845 32.9453 49.3379 32.3437 49.8914 32.3437C50.4449 32.3437 50.8983 32.9453 50.8983 33.6797V38.7188H48.8845ZM49.8914 30.1563C49.3379 30.1563 48.8845 29.5547 48.8845 28.8203C48.8845 28.0859 49.3379 27.4844 49.8914 27.4844C50.4449 27.4844 50.8983 28.0859 50.8983 28.8203C50.9042 29.5547 50.4508 30.1563 49.8914 30.1563ZM43.4377 33.2422C43.4377 34.0469 43.1021 34.7187 42.5427 35.0234C38.3384 37.3437 32.7679 38.9063 28.6814 38.9219C24.5889 38.9063 19.0185 37.3437 14.8142 35.0234C14.2548 34.7109 13.9192 34.0469 13.9192 33.2422V21.0547L27.0326 26.6484C27.5803 26.8828 28.1279 27 28.6814 27C29.2349 27 29.7825 26.8828 30.3301 26.6484L43.4436 21.0547V33.2422H43.4377ZM54.5962 14.1094L49.2967 16.3672L28.7756 12.9609C28.3457 12.8906 27.9512 13.2969 27.8982 13.8672C27.8452 14.4375 28.1514 14.9609 28.5813 15.0313L45.7519 17.8828L29.8414 24.6641C29.0641 24.9922 28.281 24.9922 27.5037 24.6641L2.75474 14.1094C2.66642 14.0703 2.61342 14.0313 2.58987 14C2.61931 13.9688 2.67231 13.9219 2.75474 13.8906L27.5096 3.33594C28.2869 3.00781 29.07 3.00781 29.8473 3.33594L54.6021 13.8906C54.6905 13.9297 54.7435 13.9688 54.767 14C54.7376 14.0313 54.6846 14.0703 54.5962 14.1094Z" fill="#151517" stroke="#151517" stroke-width="0.2"/>
</svg>
