<svg width="44" height="32" viewBox="0 0 44 32" fill="none" xmlns="http://www.w3.org/2000/svg">
<path d="M33.2032 25.3514H33.2077V16.2591L23.2934 20.4882L33.2032 25.3514ZM33.2032 25.3514V25.4514M33.2032 25.3514V25.4514M33.2032 25.4514C33.2032 26.0434 32.9568 26.5181 32.5691 26.7292L32.5687 26.7295M33.2032 25.4514L32.5687 26.7295M32.5687 26.7295C29.3577 28.5016 25.1036 29.6939 21.99 29.7059C18.872 29.6939 14.618 28.5017 11.4071 26.7297C11.0181 26.5123 10.7723 26.0426 10.7723 25.4514V16.2591M32.5687 26.7295L10.7723 16.2591M10.7723 16.2591L20.6866 20.4882L10.7723 16.2591ZM21.99 20.7658C21.5511 20.7658 21.1179 20.6727 20.6867 20.4882L21.99 20.7658ZM21.99 20.7658C22.4289 20.7658 22.862 20.6727 23.2933 20.4882L21.99 20.7658ZM21.9808 31.4991L21.9813 31.4991C25.2826 31.487 29.7547 30.2356 33.1212 28.3781C34.0422 27.8705 34.5995 26.7405 34.5995 25.4514V15.6587L37.5461 14.4023V19.5051C36.7374 19.8884 36.1692 20.8876 36.1692 22.0553C36.1692 22.7756 36.3825 23.4314 36.7316 23.9181C36.3825 24.4048 36.1692 25.0606 36.1692 25.7809V29.6441C36.1692 30.1042 36.3106 30.5241 36.5426 30.8312C36.7746 31.1383 37.102 31.3374 37.47 31.3374H39.0185C39.3885 31.3374 39.716 31.1384 39.9476 30.8311C40.1791 30.5239 40.3193 30.104 40.3193 29.6441V25.7809C40.3193 25.0606 40.1059 24.4048 39.7568 23.9181C40.1059 23.4314 40.3193 22.7756 40.3193 22.0553C40.3193 20.8876 39.751 19.8884 38.9424 19.5051V13.8019L42.2538 12.3903C42.8875 12.1208 43.2898 11.4517 43.2898 10.6931C43.2898 9.93559 42.902 9.2718 42.2674 9.00186L23.2888 0.910019C22.424 0.539889 21.5469 0.539889 20.6821 0.910019L1.70355 9.00186C1.06985 9.27142 0.667578 9.94047 0.667578 10.6991C0.667578 11.4577 1.06985 12.1268 1.70355 12.3963L9.36239 15.6646V25.4514C9.36239 26.7405 9.91973 27.8705 10.8406 28.3781C14.2071 30.2356 18.6792 31.4931 21.9808 31.4991ZM38.923 22.0613L38.923 22.0621C38.9251 22.3235 38.8453 22.5577 38.7196 22.7244C38.594 22.891 38.4272 22.9855 38.251 22.9855C38.0774 22.9855 37.9116 22.8914 37.7857 22.7244C37.6599 22.5575 37.579 22.323 37.579 22.0613C37.579 21.7997 37.6599 21.5652 37.7857 21.3983C37.9116 21.2313 38.0774 21.1371 38.251 21.1371C38.4246 21.1371 38.5904 21.2313 38.7163 21.3983C38.8421 21.5652 38.923 21.7997 38.923 22.0613ZM22.0786 9.80382L22.0783 9.80379L22.8401 18.7829C22.2692 19.0238 21.6971 19.0238 21.1262 18.7828C21.1261 18.7828 21.126 18.7828 21.126 18.7827L2.17118 10.6991L21.1305 2.61543C21.1306 2.6154 21.1307 2.61536 21.1307 2.61533C21.7016 2.3744 22.2738 2.3744 22.8447 2.61533C22.8448 2.61536 22.8449 2.6154 22.8449 2.61543L41.802 10.6981L37.7827 12.4105L22.0786 9.80382ZM34.7227 13.7184L22.8404 18.7827L21.9132 11.4897L21.8968 11.5884L21.8969 11.5884C21.8969 11.5884 21.897 11.5884 21.8971 11.5884L34.7227 13.7184ZM37.579 29.5501V25.7869C37.579 25.5252 37.6599 25.2907 37.7857 25.1238C37.9116 24.9568 38.0774 24.8626 38.251 24.8626C38.4246 24.8626 38.5904 24.9568 38.7163 25.1238C38.8421 25.2907 38.923 25.5252 38.923 25.7869V29.5501H37.579Z" fill="black" stroke="black" stroke-width="0.2"/>
</svg>
