<svg width="57" height="42" viewBox="0 0 57 42" fill="none" xmlns="http://www.w3.org/2000/svg">
<path d="M43.3377 33.1422H43.3436V21.2061L30.3695 26.7404L43.3377 33.1422ZM43.3377 33.1422V33.2422M43.3377 33.1422V33.2422M43.3377 33.2422C43.3377 34.0219 43.013 34.6534 42.4949 34.9356L42.4944 34.9359M43.3377 33.2422L42.4944 34.9359M42.4944 34.9359C38.3024 37.2494 32.7485 38.8062 28.6814 38.8219C24.6085 38.8062 19.0549 37.2495 14.863 34.9361C14.3434 34.6459 14.0192 34.0211 14.0192 33.2422V21.2061M42.4944 34.9359L14.0192 21.2061M14.0192 21.2061L26.9933 26.7404L14.0192 21.2061ZM28.7917 12.8622L28.792 12.8623L49.2843 16.2638L54.5558 14.0179C54.556 14.0178 54.5562 14.0177 54.5564 14.0176C54.5711 14.0111 54.5845 14.0047 54.5966 13.9985C54.5862 13.9933 54.5748 13.9879 54.5622 13.9823C54.562 13.9822 54.5619 13.9822 54.5617 13.9821L29.8084 3.42806C29.8083 3.42803 29.8082 3.428 29.8082 3.42797C29.0559 3.11047 28.301 3.11047 27.5487 3.42797C27.5486 3.428 27.5486 3.42803 27.5485 3.42806L2.79396 13.9826L2.79022 13.9842L2.79019 13.9841C2.77791 13.9888 2.76648 13.9939 2.75587 13.9992C2.76739 14.0051 2.78026 14.0113 2.79458 14.0177C2.79478 14.0177 2.79499 14.0178 2.79519 14.0179L27.5426 24.5719C27.5427 24.572 27.5427 24.572 27.5428 24.572C28.295 24.8895 29.05 24.8895 29.8022 24.5721L28.7917 12.8622ZM28.7917 12.8622C28.5386 12.8208 28.301 12.9213 28.1238 13.1042M28.7917 12.8622L28.1238 13.1042M28.6814 27.1C28.1133 27.1 27.5524 26.9796 26.9934 26.7404L28.6814 27.1ZM28.6814 27.1C29.2495 27.1 29.8104 26.9796 30.3694 26.7404L28.6814 27.1ZM28.1238 13.1042C27.9471 13.2866 27.827 13.5529 27.7987 13.8579M28.1238 13.1042L27.7987 13.8579M27.7987 13.8579C27.7703 14.1629 27.8377 14.4574 27.9724 14.6873M27.7987 13.8579L27.9724 14.6873M27.9724 14.6873C28.1068 14.9166 28.3133 15.0887 28.5649 15.1299L27.9724 14.6873ZM28.6694 41.1L28.67 41.1C32.9701 41.0843 38.7983 39.4537 43.1857 37.0329C44.3745 36.3777 45.0982 34.9159 45.0982 33.2422V20.4489L49.0024 18.7842V25.5055C47.9517 25.993 47.2064 27.2895 47.2064 28.8125C47.2064 29.7549 47.4883 30.6112 47.9472 31.2422C47.4883 31.8731 47.2064 32.7294 47.2064 33.6719V38.7109C47.2064 39.305 47.389 39.8461 47.6874 40.241C47.9857 40.6357 48.4045 40.8891 48.8727 40.8891H50.8924C51.3635 40.8891 51.7824 40.6358 52.0801 40.2409C52.3777 39.8459 52.5588 39.3048 52.5588 38.7109V33.6719C52.5588 32.7294 52.2769 31.8731 51.818 31.2422C52.2769 30.6112 52.5588 29.7549 52.5588 28.8125C52.5588 27.2895 51.8135 25.993 50.7628 25.5055V18.027L55.1006 16.178C55.9143 15.8318 56.4333 14.9714 56.4333 13.9922C56.4333 13.0141 55.9328 12.1607 55.1182 11.8142L30.3636 1.25963C29.2432 0.780124 28.1078 0.780124 26.9874 1.25963L2.23275 11.8142C1.41906 12.1604 0.9 13.0208 0.9 14C0.9 14.9792 1.41906 15.8397 2.23275 16.1858L12.2411 20.4567V33.2422C12.2411 34.9159 12.9647 36.3777 14.1535 37.0329C18.5408 39.4537 24.369 41.0922 28.6694 41.1ZM50.7983 28.8203L50.7983 28.8211C50.8011 29.1682 50.6952 29.4803 50.527 29.7035C50.3588 29.9266 50.1329 30.0563 49.8914 30.0563C49.6533 30.0563 49.4287 29.927 49.2603 29.7035C49.0919 29.4801 48.9845 29.1676 48.9845 28.8203C48.9845 28.473 49.0919 28.1606 49.2603 27.9371C49.4287 27.7136 49.6533 27.5844 49.8914 27.5844C50.1296 27.5844 50.3541 27.7136 50.5226 27.9371C50.691 28.1606 50.7983 28.473 50.7983 28.8203ZM45.3972 17.9253L29.8025 24.5719L28.5651 15.1299L45.3972 17.9253ZM48.9845 38.6188V33.6797C48.9845 33.3324 49.0919 33.0199 49.2603 32.7965C49.4287 32.573 49.6533 32.4437 49.8914 32.4437C50.1296 32.4437 50.3541 32.573 50.5226 32.7965C50.691 33.0199 50.7983 33.3324 50.7983 33.6797V38.6188H48.9845Z" fill="black" stroke="black" stroke-width="0.2"/>
</svg>
