<svg width="42" height="42" viewBox="0 0 42 42" fill="none" xmlns="http://www.w3.org/2000/svg">
<path d="M15.4147 11.5209L15.4147 11.5208L15.4101 11.5192C15.0064 11.3732 14.741 10.9648 14.741 10.509V7.7369C14.741 7.13682 15.2285 6.65078 15.8271 6.65078H38.644C39.2441 6.65078 39.7301 7.13826 39.7301 7.7369V7.73709L39.7335 10.509C39.7335 10.5091 39.7335 10.5092 39.7335 10.5092C39.7335 10.9552 39.4761 11.3303 39.0574 11.5219C37.7595 12.0233 35.2124 12.8189 31.124 13.1227C30.8134 12.0989 29.8899 11.3403 28.7516 11.3403H25.7229C24.5847 11.3403 23.6612 12.0989 23.3505 13.1227C19.2563 12.8186 16.6668 12.0214 15.4147 11.5209ZM38.6894 4.72998H32.1022V3.72881C32.1022 2.15328 30.799 0.85 29.2234 0.85H25.3001C23.7246 0.85 22.4213 2.15328 22.4213 3.72881V4.72998H15.8307C14.1717 4.72998 12.8236 6.07516 12.8236 7.69545V10.4676C12.8236 11.4732 13.3333 12.3915 14.1464 12.9378V20.2352C14.1464 20.7445 14.5967 21.1948 15.1061 21.1948C15.6103 21.1948 16.0657 20.7911 16.0657 20.2352V13.7432C17.6359 14.2337 19.9756 14.7489 23.2297 15C23.2582 16.3369 24.3373 17.3982 25.6815 17.3982H28.7102C30.0544 17.3982 31.1335 16.3369 31.1619 15C34.4159 14.749 36.7557 14.2353 38.326 13.7434V21.6848C38.326 22.189 38.7297 22.6444 39.2856 22.6444C39.7949 22.6444 40.2452 22.1941 40.2452 21.6848L40.2469 12.9798C41.0575 12.4378 41.5697 11.5582 41.5697 10.5094V7.74122C41.657 6.07631 40.3068 4.72998 38.6894 4.72998ZM24.339 3.72881C24.339 3.7288 24.339 3.7288 24.339 3.72879C24.339 3.2151 24.7834 2.76927 25.2985 2.76927H29.2218C29.7355 2.76927 30.1813 3.2137 30.1813 3.72881V4.72998H24.3391L24.339 3.72881ZM29.3282 14.9871C29.3282 15.2934 29.0914 15.5618 28.7535 15.5618H25.7248C25.4186 15.5618 25.1501 15.325 25.1501 14.9871V13.836C25.1501 13.5297 25.387 13.2613 25.7248 13.2613H28.7535C29.0598 13.2613 29.3282 13.4981 29.3282 13.836V14.9871Z" fill="#151517" stroke="#151517" stroke-width="0.3"/>
<path d="M37.7533 24.1755L37.7546 24.1752C38.8745 23.862 40.0873 24.2175 40.8102 25.0779L40.8155 25.0842L40.8153 25.0843C41.3469 25.7924 41.577 26.6029 41.3974 27.4203C41.261 28.2299 40.7672 28.9507 40.0451 29.3562C40.0448 29.3564 40.0444 29.3566 40.0441 29.3568L25.6313 37.7565C25.6312 37.7565 25.6311 37.7566 25.631 37.7566C24.6689 38.3239 23.6179 38.5869 22.5697 38.5869C21.8776 38.5869 21.175 38.5008 20.5126 38.2357L15.3556 36.403C14.8815 36.2459 14.6435 35.6848 14.7908 35.1951L14.7919 35.1914L14.792 35.1914C14.9439 34.7294 15.5 34.4266 16.0101 34.628L21.1689 36.4613L21.1691 36.4614C22.3212 36.8728 23.5965 36.7495 24.6688 36.1312L24.6692 36.131L39.1696 27.818L39.1767 27.814L39.1768 27.8141C39.3863 27.7087 39.5707 27.4534 39.6072 27.2019C39.6468 26.9276 39.604 26.636 39.427 26.423L39.424 26.4193L39.424 26.4193C39.1607 26.0809 38.7118 25.9353 38.3495 26.0443L38.3482 26.0447L28.7039 28.8496C28.0844 29.4545 27.2904 29.8041 26.4498 29.8041H26.2365H26.2269L26.2269 29.8038L18.8919 29.3339L18.8877 29.3337L18.8877 29.3336C18.3474 29.2838 17.9316 28.8378 17.9841 28.3168C18.0356 27.7629 18.4902 27.4133 18.9864 27.4133H18.996L18.996 27.4136L26.3311 27.8834L26.3361 27.8837L26.3361 27.8838C26.7018 27.9195 27.0703 27.7794 27.3362 27.4908C27.3406 27.4797 27.3459 27.4692 27.352 27.4593C27.3565 27.4521 27.3613 27.4455 27.366 27.4397V27.4162L27.4099 27.3722C27.5865 27.1956 27.6642 26.9409 27.6642 26.6687C27.6642 26.3541 27.5868 26.0922 27.4006 25.8683L27.3941 25.8604L27.3887 25.8518C27.205 25.5576 26.9098 25.4061 26.5612 25.3667L26.5608 25.3666L18.0746 24.3854L18.0744 24.3853C16.6569 24.2192 15.2402 24.511 14.0345 25.2601L14.0318 25.2617L14.0318 25.2617L11.7326 26.6243C11.2783 26.9225 10.6728 26.7745 10.4152 26.3185C10.1177 25.8634 10.2672 25.2572 10.7252 25.0009L13.025 23.6381C14.5905 22.6808 16.4583 22.2911 18.2811 22.508C18.2812 22.5081 18.2813 22.5081 18.2814 22.5081L26.7654 23.4891C26.7657 23.4891 26.766 23.4891 26.7662 23.4892C27.6169 23.5785 28.4218 24.0251 28.9177 24.7001C28.9179 24.7003 28.918 24.7004 28.9182 24.7006L28.7973 24.7894C29.1672 25.2832 29.3787 25.9352 29.3929 26.5943L37.7533 24.1755ZM37.7533 24.1755L29.5418 26.5512L37.7533 24.1755Z" fill="#151517" stroke="#151517" stroke-width="0.3"/>
<path d="M5.66616 25.381L5.66615 25.3809L5.66403 25.3819L2.25316 26.9591C1.02135 27.5071 0.526204 28.9629 1.06846 30.1853L1.06844 30.1853L1.06952 30.1876L5.50401 39.7398C5.77734 40.3308 6.2755 40.7844 6.86579 41.0113L6.86573 41.0115L6.87245 41.0137C7.14298 41.1033 7.41377 41.1496 7.68761 41.1496C8.05582 41.1496 8.37471 41.0575 8.68481 40.9241L8.68483 40.9242L8.68849 40.9225L12.1004 39.3448L12.0374 39.2087L12.1004 39.3448C12.6914 39.0715 13.145 38.5733 13.3719 37.9831C13.6013 37.3863 13.553 36.7044 13.2832 36.1174L13.2832 36.1173L8.89278 26.5667C8.89265 26.5664 8.89252 26.5661 8.89238 26.5658C8.34446 25.3339 6.88856 24.8387 5.66616 25.381ZM11.5957 37.3375L11.7411 37.3746L11.5957 37.3375C11.5664 37.4525 11.4789 37.5507 11.3347 37.6225L7.92474 39.1992L7.92471 39.1992L7.92061 39.2012C7.79291 39.2651 7.67103 39.2651 7.54334 39.2012L7.52893 39.194L7.51331 39.19C7.39832 39.1607 7.30012 39.0731 7.2283 38.9289L2.79285 29.3796L2.7929 29.3796L2.7911 29.376C2.66543 29.1234 2.7822 28.8241 3.06361 28.6816L6.47315 27.105L6.4732 27.1051L6.47832 27.1025C6.52545 27.0784 6.57205 27.0755 6.7084 27.0755C6.92215 27.0755 7.10408 27.1809 7.16249 27.3561L7.16517 27.3642L7.16874 27.3718L11.5974 36.9115C11.6328 37.0558 11.6317 37.1963 11.5957 37.3375Z" fill="#151517" stroke="#151517" stroke-width="0.3"/>
<path d="M8.02162 34.9874L8.02161 34.9874C7.34726 35.2775 7.05636 36.0502 7.39 36.7244C7.68138 37.396 8.45234 37.6852 9.1253 37.3521C9.79748 37.0605 10.0866 36.2884 9.75213 35.615C9.45899 34.9841 8.68808 34.7008 8.02162 34.9874Z" fill="#151517" stroke="#151517" stroke-width="0.3"/>
</svg>
