<svg width="42" height="42" viewBox="0 0 42 42" fill="none" xmlns="http://www.w3.org/2000/svg">
<path d="M38.6894 4.87998H31.9522V3.72881C31.9522 2.23612 30.7161 1 29.2234 1H25.3001C23.8074 1 22.5713 2.23612 22.5713 3.72881V4.87998H15.8307C14.2531 4.87998 12.9736 6.15943 12.9736 7.69545V10.4676C12.9736 11.4488 13.4851 12.3434 14.2964 12.8566V20.2352C14.2964 20.6617 14.6796 21.0448 15.106 21.0448C15.5325 21.0448 15.9157 20.7033 15.9157 20.2352V13.5381C17.4933 14.0495 19.9239 14.6043 23.3791 14.8609V14.9458C23.3791 16.2253 24.402 17.2482 25.6815 17.2482H28.7102C29.9896 17.2482 31.0125 16.2253 31.0125 14.9458V14.8609C34.4677 14.6043 36.8984 14.0512 38.476 13.5381V21.6848C38.476 22.1113 38.8175 22.4944 39.2856 22.4944C39.7121 22.4944 40.0952 22.1113 40.0952 21.6848L40.0969 12.8984C40.9065 12.3869 41.4197 11.534 41.4197 10.5094V7.73724C41.5047 6.1596 40.2254 4.87998 38.6894 4.87998ZM24.189 3.72881C24.189 3.13242 24.7004 2.61927 25.2985 2.61927H29.2218C29.8182 2.61927 30.3313 3.13071 30.3313 3.72881V4.87998H24.1891L24.189 3.72881ZM29.4782 14.9871C29.4782 15.3703 29.18 15.7118 28.7535 15.7118H25.7248C25.3416 15.7118 25.0001 15.4136 25.0001 14.9871V13.836C25.0001 13.4528 25.2983 13.1113 25.7248 13.1113H28.7535C29.1367 13.1113 29.4782 13.4095 29.4782 13.836V14.9871ZM39.8835 10.509C39.8835 11.0205 39.5853 11.447 39.1155 11.6602C37.7928 12.1716 35.1922 12.983 31.0123 13.2812C30.7558 12.2583 29.8612 11.4903 28.7516 11.4903H25.7229C24.6134 11.4903 23.7188 12.2583 23.4622 13.2812C19.2823 12.983 16.6385 12.1716 15.359 11.6602C14.8892 11.4903 14.591 11.0205 14.591 10.509V7.7369C14.591 7.05385 15.1458 6.50078 15.8271 6.50078H38.644C39.3271 6.50078 39.8801 7.05555 39.8801 7.7369L39.8835 10.509Z" fill="#151517" stroke="#151517" stroke-width="0.3"/>
<path d="M37.795 24.3196L29.3937 26.7502V26.6653C29.3937 25.9822 29.1804 25.3009 28.7973 24.7894C28.3275 24.1497 27.5612 23.7232 26.7498 23.6383L18.2636 22.657C16.4728 22.4438 14.6385 22.827 13.1023 23.7666L10.8 25.131C10.4168 25.3442 10.2886 25.8556 10.5435 26.2405C10.7567 26.6237 11.2681 26.7519 11.653 26.4971L13.9553 25.1327C15.1915 24.3646 16.6425 24.0664 18.0919 24.2364L26.578 25.2176C26.9612 25.2609 27.3027 25.4309 27.516 25.7724C27.7292 26.0289 27.8142 26.3271 27.8142 26.6687C27.8142 26.9669 27.7292 27.2651 27.516 27.4783C27.516 27.5216 27.4727 27.5216 27.4727 27.5633C27.1744 27.9048 26.748 28.0747 26.3215 28.0331L18.9864 27.5633C18.5599 27.5633 18.1768 27.8615 18.1334 28.3313C18.0901 28.7578 18.4316 29.1409 18.9014 29.1843L26.2365 29.6541H26.4498C27.2594 29.6541 28.0274 29.3125 28.6255 28.7161L38.3063 25.9007C38.7328 25.7724 39.2442 25.944 39.5424 26.3272C39.7556 26.5837 39.7989 26.9236 39.7556 27.2235C39.7123 27.5217 39.4991 27.8198 39.2442 27.9481L24.7438 36.2611C23.6342 36.9009 22.3131 37.0292 21.1186 36.6027L15.9573 34.7684C15.5309 34.5985 15.061 34.8534 14.9345 35.2383C14.8062 35.6647 15.0194 36.1346 15.4043 36.2611L20.5656 38.0954C21.2053 38.3519 21.8884 38.4369 22.5697 38.4369C23.5926 38.4369 24.6172 38.1803 25.5551 37.6272L39.9707 29.2259C40.6537 28.8428 41.1218 28.1597 41.2501 27.3917C41.42 26.6237 41.2068 25.8557 40.6953 25.1744C40.0123 24.3614 38.8612 24.0214 37.795 24.3196Z" fill="#151517" stroke="#151517" stroke-width="0.3"/>
<path d="M8.7557 26.6276C8.24426 25.4765 6.87986 25.0066 5.72699 25.5181L2.31512 27.0957C1.16395 27.6072 0.694139 28.9716 1.20558 30.1244L5.64015 39.6768C5.89671 40.2316 6.36483 40.6581 6.9196 40.8713C7.17616 40.9563 7.43104 40.9996 7.68761 40.9996C8.02913 40.9996 8.32734 40.9146 8.62554 40.7863L12.0374 39.2087C12.5922 38.9521 13.0187 38.484 13.2319 37.9292C13.4451 37.3745 13.4018 36.7348 13.1469 36.18L8.7557 26.6276ZM11.7411 37.3746C11.6978 37.5445 11.5712 37.6728 11.3996 37.7577L7.9877 39.3354C7.81777 39.4204 7.64618 39.4204 7.47626 39.3354C7.30633 39.2921 7.17805 39.1655 7.09309 38.9939L2.65681 29.4428C2.48688 29.1013 2.65681 28.7181 2.99833 28.5465L6.41019 26.9688C6.49516 26.9255 6.58012 26.9255 6.7084 26.9255C6.96496 26.9255 7.21984 27.0538 7.30479 27.3087L11.7394 36.8611C11.7844 37.0343 11.7844 37.2047 11.7411 37.3746Z" fill="#151517" stroke="#151517" stroke-width="0.3"/>
<path d="M8.08089 35.1252C7.48449 35.3818 7.22792 36.0632 7.52612 36.6613C7.78267 37.2577 8.46404 37.5142 9.06214 37.216C9.65854 36.9595 9.91511 36.2781 9.61691 35.68C9.36035 35.1252 8.67732 34.8687 8.08089 35.1252Z" fill="#151517" stroke="#151517" stroke-width="0.3"/>
</svg>
