<svg width="36" height="42" viewBox="0 0 36 42" fill="none" xmlns="http://www.w3.org/2000/svg">
<path d="M20.0434 25.19C26.7353 25.19 32.1781 19.7633 32.1781 13.095C32.1781 6.42501 26.7353 1 20.0434 1C13.3515 1 7.90867 6.42671 7.90867 13.095C7.90867 19.765 13.3532 25.19 20.0434 25.19ZM20.0434 2.33375C25.996 2.33375 30.8404 7.16185 30.8404 13.0954C30.8404 19.029 25.9964 23.8571 20.0434 23.8571C14.0903 23.8571 9.24636 19.029 9.24636 13.0954C9.24636 7.16185 14.0903 2.33375 20.0434 2.33375Z" fill="#151517"/>
<path d="M20.6838 17.0852H19.4029C18.4833 17.0852 17.7375 16.3402 17.7375 15.4252C17.7375 15.0569 17.4382 14.7585 17.0686 14.7585C16.6991 14.7585 16.3998 15.0569 16.3998 15.4252C16.3998 17.0669 17.7342 18.4018 19.3778 18.4168V19.8701C19.3778 20.2384 19.6771 20.5368 20.0467 20.5368C20.4162 20.5368 20.7155 20.2384 20.7155 19.8701V18.4168C22.3575 18.4001 23.6885 17.0668 23.6885 15.4252C23.6885 13.7735 22.3408 12.4319 20.6854 12.4319H19.4046C18.4849 12.4319 17.7392 11.6869 17.7392 10.7719C17.7392 9.85695 18.4866 9.11195 19.4046 9.11195H20.035C20.04 9.11195 20.0433 9.11529 20.0484 9.11529C20.0517 9.11529 20.0567 9.11195 20.0617 9.11195H20.6871C21.6067 9.11195 22.3525 9.85695 22.3525 10.7719C22.3525 11.1403 22.6518 11.4386 23.0214 11.4386C23.3909 11.4386 23.6902 11.1403 23.6902 10.7719C23.6902 9.13192 22.3592 7.79694 20.7172 7.7803V6.33033C20.7172 5.962 20.4179 5.66367 20.0483 5.66367C19.6788 5.66367 19.3795 5.962 19.3795 6.33033V7.77863C17.7358 7.79363 16.4015 9.12864 16.4015 10.7703C16.4015 12.4219 17.7492 13.7635 19.4046 13.7635H20.6854C21.6051 13.7635 22.3508 14.5085 22.3508 15.4235C22.3508 16.3385 21.6034 17.0835 20.6854 17.0835L20.6838 17.0852Z" fill="#151517"/>
<path d="M7.56622 40.805C7.69163 40.93 7.86218 41 8.03944 41H8.0478C8.22839 40.9983 8.39894 40.9233 8.52436 40.7933L11.5693 37.6101L22.1103 37.6451C22.8895 37.65 23.652 37.4317 24.3125 37.0217L33.5728 31.2853C34.7667 30.5453 35.1396 28.9719 34.4021 27.777C33.6999 26.6386 32.2668 26.2336 31.0679 26.8336L23.4197 30.6653C23.4214 30.6253 23.4231 30.5853 23.4231 30.5436C23.4231 29.307 22.5786 28.2536 21.3697 27.9803L10.8655 25.607C9.9776 25.407 9.06295 25.6703 8.41919 26.312L1.19564 33.5119C0.934787 33.7719 0.934787 34.1936 1.19564 34.4552L7.56622 40.805ZM9.36707 27.2568C9.68478 26.9401 10.1346 26.8101 10.571 26.9101L21.0752 29.2834C21.6705 29.4168 22.0869 29.9367 22.0869 30.5451C22.0869 30.9117 21.9364 31.2517 21.6655 31.4984C21.3946 31.7467 21.0435 31.8667 20.6756 31.8334L14.2294 31.2701C13.8582 31.2367 13.5371 31.5084 13.5054 31.8767C13.4736 32.2434 13.7462 32.5667 14.114 32.5984L20.5602 33.1617C21.1337 33.2117 21.7106 33.0701 22.1939 32.7684C22.2206 32.7584 22.2474 32.7484 22.2725 32.7351L31.6714 28.0251C32.2433 27.7385 32.9289 27.9318 33.265 28.4751C33.6178 29.0451 33.4389 29.7985 32.8687 30.1518L23.6084 35.8883C23.1603 36.1666 22.6152 36.3116 22.1169 36.3099L11.2882 36.2733C11.1076 36.2583 10.9287 36.3466 10.8016 36.4799L8.02922 39.3766L2.61808 33.9831L9.36991 27.2547L9.36707 27.2568Z" fill="#151517"/>
<path d="M20.0434 25.19C26.7353 25.19 32.1781 19.7633 32.1781 13.095C32.1781 6.42501 26.7353 1 20.0434 1C13.3515 1 7.90867 6.42671 7.90867 13.095C7.90867 19.765 13.3532 25.19 20.0434 25.19ZM20.0434 2.33375C25.996 2.33375 30.8404 7.16185 30.8404 13.0954C30.8404 19.029 25.9964 23.8571 20.0434 23.8571C14.0903 23.8571 9.24636 19.029 9.24636 13.0954C9.24636 7.16185 14.0903 2.33375 20.0434 2.33375Z" stroke="#151517"/>
<path d="M20.6838 17.0852H19.4029C18.4833 17.0852 17.7375 16.3402 17.7375 15.4252C17.7375 15.0569 17.4382 14.7585 17.0686 14.7585C16.6991 14.7585 16.3998 15.0569 16.3998 15.4252C16.3998 17.0669 17.7342 18.4018 19.3778 18.4168V19.8701C19.3778 20.2384 19.6771 20.5368 20.0467 20.5368C20.4162 20.5368 20.7155 20.2384 20.7155 19.8701V18.4168C22.3575 18.4001 23.6885 17.0668 23.6885 15.4252C23.6885 13.7735 22.3408 12.4319 20.6854 12.4319H19.4046C18.4849 12.4319 17.7392 11.6869 17.7392 10.7719C17.7392 9.85695 18.4866 9.11195 19.4046 9.11195H20.035C20.04 9.11195 20.0433 9.11529 20.0484 9.11529C20.0517 9.11529 20.0567 9.11195 20.0617 9.11195H20.6871C21.6067 9.11195 22.3525 9.85695 22.3525 10.7719C22.3525 11.1403 22.6518 11.4386 23.0214 11.4386C23.3909 11.4386 23.6902 11.1403 23.6902 10.7719C23.6902 9.13192 22.3592 7.79694 20.7172 7.7803V6.33033C20.7172 5.962 20.4179 5.66367 20.0483 5.66367C19.6788 5.66367 19.3795 5.962 19.3795 6.33033V7.77863C17.7358 7.79363 16.4015 9.12864 16.4015 10.7703C16.4015 12.4219 17.7492 13.7635 19.4046 13.7635H20.6854C21.6051 13.7635 22.3508 14.5085 22.3508 15.4235C22.3508 16.3385 21.6034 17.0835 20.6854 17.0835L20.6838 17.0852Z" stroke="#151517"/>
<path d="M7.56622 40.805C7.69163 40.93 7.86218 41 8.03944 41H8.0478C8.22839 40.9983 8.39894 40.9233 8.52436 40.7933L11.5693 37.6101L22.1103 37.6451C22.8895 37.65 23.652 37.4317 24.3125 37.0217L33.5728 31.2853C34.7667 30.5453 35.1396 28.9719 34.4021 27.777C33.6999 26.6386 32.2668 26.2336 31.0679 26.8336L23.4197 30.6653C23.4214 30.6253 23.4231 30.5853 23.4231 30.5436C23.4231 29.307 22.5786 28.2536 21.3697 27.9803L10.8655 25.607C9.9776 25.407 9.06295 25.6703 8.41919 26.312L1.19564 33.5119C0.934787 33.7719 0.934787 34.1936 1.19564 34.4552L7.56622 40.805ZM9.36707 27.2568C9.68478 26.9401 10.1346 26.8101 10.571 26.9101L21.0752 29.2834C21.6705 29.4168 22.0869 29.9367 22.0869 30.5451C22.0869 30.9117 21.9364 31.2517 21.6655 31.4984C21.3946 31.7467 21.0435 31.8667 20.6756 31.8334L14.2294 31.2701C13.8582 31.2367 13.5371 31.5084 13.5054 31.8767C13.4736 32.2434 13.7462 32.5667 14.114 32.5984L20.5602 33.1617C21.1337 33.2117 21.7106 33.0701 22.1939 32.7684C22.2206 32.7584 22.2474 32.7484 22.2725 32.7351L31.6714 28.0251C32.2433 27.7385 32.9289 27.9318 33.265 28.4751C33.6178 29.0451 33.4389 29.7985 32.8687 30.1518L23.6084 35.8883C23.1603 36.1666 22.6152 36.3116 22.1169 36.3099L11.2882 36.2733C11.1076 36.2583 10.9287 36.3466 10.8016 36.4799L8.02922 39.3766L2.61808 33.9831L9.36991 27.2547L9.36707 27.2568Z" stroke="#151517"/>
</svg>
