<svg width="39" height="42" viewBox="0 0 39 42" fill="none" xmlns="http://www.w3.org/2000/svg">
<mask id="path-1-outside-1_3_89" maskUnits="userSpaceOnUse" x="0" y="0" width="39" height="42" fill="black">
<rect fill="white" width="39" height="42"/>
<path d="M1.66667 41H9.64267C10.0111 41 10.3093 40.7018 10.3093 40.3333V35.1724H16.6911C17.0596 35.1724 17.3578 34.8742 17.3578 34.5058V29.3449H23.7396C24.108 29.3449 24.4062 29.0467 24.4062 28.6782V23.5182H30.788C31.1564 23.5182 31.4547 23.22 31.4547 22.8516V17.6907H37.3551C37.7236 17.6907 38.0218 17.3924 38.0218 17.024C38.0218 16.6556 37.7236 16.3573 37.3551 16.3573H30.788C30.4196 16.3573 30.1213 16.6556 30.1213 17.024V22.1849H23.7391C23.3707 22.1849 23.0724 22.4831 23.0724 22.8516V28.012H20.3502C21.3507 27.896 22.1658 27.0862 22.2498 26.0613L22.688 20.74C22.7662 19.7938 22.2013 18.8956 21.3151 18.5556L17.592 17.1276L17.6769 14.5493C17.884 14.768 18.1418 14.9298 18.432 15.0218L22.6973 16.3711C22.8716 16.4267 23.0524 16.4547 23.2347 16.4547C24.0804 16.4547 24.8147 15.8507 24.9804 15.0187C25.1578 14.1298 24.6124 13.2444 23.712 12.9596L20.0302 11.7951L18.9676 10.4356C18.7982 10.2191 18.632 9.992 18.464 9.76311C18.0284 9.16978 17.5751 8.56178 17.0284 8.04711C18.5769 7.65289 19.7271 6.25067 19.7271 4.58089C19.7271 2.60622 18.1213 1 16.1467 1C14.172 1 12.5662 2.60622 12.5662 4.58044C12.5662 5.65867 13.0471 6.62444 13.8036 7.28133C13.5409 7.35422 13.2791 7.46578 13.0796 7.64667L8.41022 11.1484C8.05911 11.412 7.81867 11.7938 7.73333 12.2236L6.73778 17.2009C6.55378 18.12 7.088 19.0444 7.95422 19.3044C8.124 19.3556 8.29867 19.3813 8.47333 19.3813C9.31822 19.3813 10.0516 18.7796 10.2169 17.9507L11.0893 13.588L11.9413 12.9489L11.7649 18.3196C11.7551 18.6138 11.7898 18.9062 11.868 19.1893C11.9822 19.6009 12.0013 19.9733 11.924 20.296C10.5396 26.0982 9.52489 30.2378 9.32444 30.9C8.94444 31.856 9.29378 32.9462 10.1636 33.5036C10.4933 33.7151 10.872 33.828 11.2618 33.8391H9.64222C9.27378 33.8391 8.97555 34.1373 8.97555 34.5058V39.6667H1.66667C1.29822 39.6667 1 39.9649 1 40.3333C1 40.7018 1.29822 41 1.66667 41ZM16.1467 2.33333C17.3858 2.33333 18.3938 3.34133 18.3938 4.58044C18.3938 5.81956 17.3858 6.82756 16.1467 6.82756C14.9076 6.82756 13.8996 5.81956 13.8996 4.58044C13.8996 3.34133 14.9076 2.33333 16.1467 2.33333ZM10.5689 31.38C10.5769 31.3613 10.5836 31.3422 10.5898 31.3231C10.8782 30.4009 12.6769 22.8867 13.2209 20.6058C13.3511 20.0609 13.328 19.464 13.1524 18.8329C13.1102 18.6809 13.092 18.5236 13.0969 18.364L13.3191 11.6036C13.3276 11.3471 13.1884 11.1089 12.9609 10.9902C12.864 10.94 12.7582 10.9151 12.6529 10.9151C12.5116 10.9151 12.3707 10.9604 12.2529 11.0484L10.0849 12.6747C9.95378 12.7733 9.86311 12.9164 9.83111 13.0773L8.90889 17.6898C8.85822 17.9418 8.59511 18.1049 8.33689 18.028C8.12578 17.9644 7.99422 17.7111 8.044 17.4627L9.03956 12.4849C9.06089 12.3769 9.12133 12.2813 9.20933 12.2156L13.9084 8.69156C13.9338 8.67244 13.9476 8.66089 13.9702 8.63822C14.0547 8.57556 14.3107 8.51867 14.7427 8.46711C15.2093 8.41378 15.6031 8.55289 16.0227 8.92622C16.5209 9.36889 16.9618 9.97022 17.3889 10.552C17.5649 10.792 17.74 11.0302 17.9169 11.2569L19.1067 12.7787C19.1898 12.8844 19.3027 12.9631 19.4311 13.0036L23.3098 14.2302C23.5524 14.3071 23.7156 14.5436 23.6724 14.7573C23.6098 15.0716 23.3142 15.1684 23.0991 15.1L18.8329 13.7507C18.7467 13.7231 18.6716 13.6711 18.616 13.6L17.5951 12.2942C17.4222 12.0729 17.1302 11.9849 16.8631 12.0711C16.5964 12.1582 16.4129 12.4027 16.4036 12.6831L16.2431 17.5587C16.2338 17.8427 16.4053 18.1013 16.6707 18.2031L20.8369 19.8009C21.1738 19.9302 21.388 20.2716 21.3582 20.6311L20.92 25.9524C20.8809 26.4298 20.4084 26.7836 19.9396 26.6849C19.5427 26.6013 19.2604 26.1924 19.2964 25.7533L19.6382 21.6058C19.6627 21.3107 19.4893 21.0347 19.2124 20.9289L18.4133 20.6231C17.6702 20.3387 16.9271 20.0547 16.1858 19.7658C16.0782 19.724 15.9676 19.7027 15.8564 19.7027C14.9511 19.7027 14.7711 20.8364 14.652 21.5867C14.636 21.6884 14.6236 21.7733 14.6107 21.8271L14.1724 23.6618C13.9293 24.676 13.6849 25.6902 13.4387 26.704C13.1369 27.9467 12.8342 29.1893 12.5133 30.4271C12.4724 30.5849 12.4356 30.7547 12.3978 30.9293C12.3013 31.376 12.2018 31.8373 12.0111 32.1347C11.776 32.5009 11.2516 32.6182 10.8822 32.3822C10.5489 32.1667 10.4169 31.7458 10.5689 31.38ZM13.1347 32.8529C13.4551 32.3529 13.5862 31.7453 13.7022 31.2098C13.736 31.0533 13.7684 30.9013 13.8049 30.76C14.1271 29.5156 14.4316 28.2667 14.7347 27.0178C14.9813 26.0027 15.2258 24.9871 15.4693 23.9716L15.908 22.1356C15.9262 22.06 15.9462 21.9396 15.9693 21.7951C15.9907 21.6596 16.0356 21.3778 16.0902 21.1582C16.7053 21.3964 17.3213 21.632 17.9373 21.8676L18.2684 21.9947L17.968 25.6436C17.876 26.7582 18.6062 27.7667 19.6658 27.9893C19.7378 28.0044 19.8107 28.0044 19.8822 28.012H16.6898C16.3213 28.012 16.0231 28.3102 16.0231 28.6787V33.8396H11.392C12.1022 33.8164 12.7502 33.4538 13.1347 32.8529Z"/>
</mask>
<path d="M1.66667 41H9.64267C10.0111 41 10.3093 40.7018 10.3093 40.3333V35.1724H16.6911C17.0596 35.1724 17.3578 34.8742 17.3578 34.5058V29.3449H23.7396C24.108 29.3449 24.4062 29.0467 24.4062 28.6782V23.5182H30.788C31.1564 23.5182 31.4547 23.22 31.4547 22.8516V17.6907H37.3551C37.7236 17.6907 38.0218 17.3924 38.0218 17.024C38.0218 16.6556 37.7236 16.3573 37.3551 16.3573H30.788C30.4196 16.3573 30.1213 16.6556 30.1213 17.024V22.1849H23.7391C23.3707 22.1849 23.0724 22.4831 23.0724 22.8516V28.012H20.3502C21.3507 27.896 22.1658 27.0862 22.2498 26.0613L22.688 20.74C22.7662 19.7938 22.2013 18.8956 21.3151 18.5556L17.592 17.1276L17.6769 14.5493C17.884 14.768 18.1418 14.9298 18.432 15.0218L22.6973 16.3711C22.8716 16.4267 23.0524 16.4547 23.2347 16.4547C24.0804 16.4547 24.8147 15.8507 24.9804 15.0187C25.1578 14.1298 24.6124 13.2444 23.712 12.9596L20.0302 11.7951L18.9676 10.4356C18.7982 10.2191 18.632 9.992 18.464 9.76311C18.0284 9.16978 17.5751 8.56178 17.0284 8.04711C18.5769 7.65289 19.7271 6.25067 19.7271 4.58089C19.7271 2.60622 18.1213 1 16.1467 1C14.172 1 12.5662 2.60622 12.5662 4.58044C12.5662 5.65867 13.0471 6.62444 13.8036 7.28133C13.5409 7.35422 13.2791 7.46578 13.0796 7.64667L8.41022 11.1484C8.05911 11.412 7.81867 11.7938 7.73333 12.2236L6.73778 17.2009C6.55378 18.12 7.088 19.0444 7.95422 19.3044C8.124 19.3556 8.29867 19.3813 8.47333 19.3813C9.31822 19.3813 10.0516 18.7796 10.2169 17.9507L11.0893 13.588L11.9413 12.9489L11.7649 18.3196C11.7551 18.6138 11.7898 18.9062 11.868 19.1893C11.9822 19.6009 12.0013 19.9733 11.924 20.296C10.5396 26.0982 9.52489 30.2378 9.32444 30.9C8.94444 31.856 9.29378 32.9462 10.1636 33.5036C10.4933 33.7151 10.872 33.828 11.2618 33.8391H9.64222C9.27378 33.8391 8.97555 34.1373 8.97555 34.5058V39.6667H1.66667C1.29822 39.6667 1 39.9649 1 40.3333C1 40.7018 1.29822 41 1.66667 41ZM16.1467 2.33333C17.3858 2.33333 18.3938 3.34133 18.3938 4.58044C18.3938 5.81956 17.3858 6.82756 16.1467 6.82756C14.9076 6.82756 13.8996 5.81956 13.8996 4.58044C13.8996 3.34133 14.9076 2.33333 16.1467 2.33333ZM10.5689 31.38C10.5769 31.3613 10.5836 31.3422 10.5898 31.3231C10.8782 30.4009 12.6769 22.8867 13.2209 20.6058C13.3511 20.0609 13.328 19.464 13.1524 18.8329C13.1102 18.6809 13.092 18.5236 13.0969 18.364L13.3191 11.6036C13.3276 11.3471 13.1884 11.1089 12.9609 10.9902C12.864 10.94 12.7582 10.9151 12.6529 10.9151C12.5116 10.9151 12.3707 10.9604 12.2529 11.0484L10.0849 12.6747C9.95378 12.7733 9.86311 12.9164 9.83111 13.0773L8.90889 17.6898C8.85822 17.9418 8.59511 18.1049 8.33689 18.028C8.12578 17.9644 7.99422 17.7111 8.044 17.4627L9.03956 12.4849C9.06089 12.3769 9.12133 12.2813 9.20933 12.2156L13.9084 8.69156C13.9338 8.67244 13.9476 8.66089 13.9702 8.63822C14.0547 8.57556 14.3107 8.51867 14.7427 8.46711C15.2093 8.41378 15.6031 8.55289 16.0227 8.92622C16.5209 9.36889 16.9618 9.97022 17.3889 10.552C17.5649 10.792 17.74 11.0302 17.9169 11.2569L19.1067 12.7787C19.1898 12.8844 19.3027 12.9631 19.4311 13.0036L23.3098 14.2302C23.5524 14.3071 23.7156 14.5436 23.6724 14.7573C23.6098 15.0716 23.3142 15.1684 23.0991 15.1L18.8329 13.7507C18.7467 13.7231 18.6716 13.6711 18.616 13.6L17.5951 12.2942C17.4222 12.0729 17.1302 11.9849 16.8631 12.0711C16.5964 12.1582 16.4129 12.4027 16.4036 12.6831L16.2431 17.5587C16.2338 17.8427 16.4053 18.1013 16.6707 18.2031L20.8369 19.8009C21.1738 19.9302 21.388 20.2716 21.3582 20.6311L20.92 25.9524C20.8809 26.4298 20.4084 26.7836 19.9396 26.6849C19.5427 26.6013 19.2604 26.1924 19.2964 25.7533L19.6382 21.6058C19.6627 21.3107 19.4893 21.0347 19.2124 20.9289L18.4133 20.6231C17.6702 20.3387 16.9271 20.0547 16.1858 19.7658C16.0782 19.724 15.9676 19.7027 15.8564 19.7027C14.9511 19.7027 14.7711 20.8364 14.652 21.5867C14.636 21.6884 14.6236 21.7733 14.6107 21.8271L14.1724 23.6618C13.9293 24.676 13.6849 25.6902 13.4387 26.704C13.1369 27.9467 12.8342 29.1893 12.5133 30.4271C12.4724 30.5849 12.4356 30.7547 12.3978 30.9293C12.3013 31.376 12.2018 31.8373 12.0111 32.1347C11.776 32.5009 11.2516 32.6182 10.8822 32.3822C10.5489 32.1667 10.4169 31.7458 10.5689 31.38ZM13.1347 32.8529C13.4551 32.3529 13.5862 31.7453 13.7022 31.2098C13.736 31.0533 13.7684 30.9013 13.8049 30.76C14.1271 29.5156 14.4316 28.2667 14.7347 27.0178C14.9813 26.0027 15.2258 24.9871 15.4693 23.9716L15.908 22.1356C15.9262 22.06 15.9462 21.9396 15.9693 21.7951C15.9907 21.6596 16.0356 21.3778 16.0902 21.1582C16.7053 21.3964 17.3213 21.632 17.9373 21.8676L18.2684 21.9947L17.968 25.6436C17.876 26.7582 18.6062 27.7667 19.6658 27.9893C19.7378 28.0044 19.8107 28.0044 19.8822 28.012H16.6898C16.3213 28.012 16.0231 28.3102 16.0231 28.6787V33.8396H11.392C12.1022 33.8164 12.7502 33.4538 13.1347 32.8529Z" fill="black"/>
<path d="M1.66667 41H9.64267C10.0111 41 10.3093 40.7018 10.3093 40.3333V35.1724H16.6911C17.0596 35.1724 17.3578 34.8742 17.3578 34.5058V29.3449H23.7396C24.108 29.3449 24.4062 29.0467 24.4062 28.6782V23.5182H30.788C31.1564 23.5182 31.4547 23.22 31.4547 22.8516V17.6907H37.3551C37.7236 17.6907 38.0218 17.3924 38.0218 17.024C38.0218 16.6556 37.7236 16.3573 37.3551 16.3573H30.788C30.4196 16.3573 30.1213 16.6556 30.1213 17.024V22.1849H23.7391C23.3707 22.1849 23.0724 22.4831 23.0724 22.8516V28.012H20.3502C21.3507 27.896 22.1658 27.0862 22.2498 26.0613L22.688 20.74C22.7662 19.7938 22.2013 18.8956 21.3151 18.5556L17.592 17.1276L17.6769 14.5493C17.884 14.768 18.1418 14.9298 18.432 15.0218L22.6973 16.3711C22.8716 16.4267 23.0524 16.4547 23.2347 16.4547C24.0804 16.4547 24.8147 15.8507 24.9804 15.0187C25.1578 14.1298 24.6124 13.2444 23.712 12.9596L20.0302 11.7951L18.9676 10.4356C18.7982 10.2191 18.632 9.992 18.464 9.76311C18.0284 9.16978 17.5751 8.56178 17.0284 8.04711C18.5769 7.65289 19.7271 6.25067 19.7271 4.58089C19.7271 2.60622 18.1213 1 16.1467 1C14.172 1 12.5662 2.60622 12.5662 4.58044C12.5662 5.65867 13.0471 6.62444 13.8036 7.28133C13.5409 7.35422 13.2791 7.46578 13.0796 7.64667L8.41022 11.1484C8.05911 11.412 7.81867 11.7938 7.73333 12.2236L6.73778 17.2009C6.55378 18.12 7.088 19.0444 7.95422 19.3044C8.124 19.3556 8.29867 19.3813 8.47333 19.3813C9.31822 19.3813 10.0516 18.7796 10.2169 17.9507L11.0893 13.588L11.9413 12.9489L11.7649 18.3196C11.7551 18.6138 11.7898 18.9062 11.868 19.1893C11.9822 19.6009 12.0013 19.9733 11.924 20.296C10.5396 26.0982 9.52489 30.2378 9.32444 30.9C8.94444 31.856 9.29378 32.9462 10.1636 33.5036C10.4933 33.7151 10.872 33.828 11.2618 33.8391H9.64222C9.27378 33.8391 8.97555 34.1373 8.97555 34.5058V39.6667H1.66667C1.29822 39.6667 1 39.9649 1 40.3333C1 40.7018 1.29822 41 1.66667 41ZM16.1467 2.33333C17.3858 2.33333 18.3938 3.34133 18.3938 4.58044C18.3938 5.81956 17.3858 6.82756 16.1467 6.82756C14.9076 6.82756 13.8996 5.81956 13.8996 4.58044C13.8996 3.34133 14.9076 2.33333 16.1467 2.33333ZM10.5689 31.38C10.5769 31.3613 10.5836 31.3422 10.5898 31.3231C10.8782 30.4009 12.6769 22.8867 13.2209 20.6058C13.3511 20.0609 13.328 19.464 13.1524 18.8329C13.1102 18.6809 13.092 18.5236 13.0969 18.364L13.3191 11.6036C13.3276 11.3471 13.1884 11.1089 12.9609 10.9902C12.864 10.94 12.7582 10.9151 12.6529 10.9151C12.5116 10.9151 12.3707 10.9604 12.2529 11.0484L10.0849 12.6747C9.95378 12.7733 9.86311 12.9164 9.83111 13.0773L8.90889 17.6898C8.85822 17.9418 8.59511 18.1049 8.33689 18.028C8.12578 17.9644 7.99422 17.7111 8.044 17.4627L9.03956 12.4849C9.06089 12.3769 9.12133 12.2813 9.20933 12.2156L13.9084 8.69156C13.9338 8.67244 13.9476 8.66089 13.9702 8.63822C14.0547 8.57556 14.3107 8.51867 14.7427 8.46711C15.2093 8.41378 15.6031 8.55289 16.0227 8.92622C16.5209 9.36889 16.9618 9.97022 17.3889 10.552C17.5649 10.792 17.74 11.0302 17.9169 11.2569L19.1067 12.7787C19.1898 12.8844 19.3027 12.9631 19.4311 13.0036L23.3098 14.2302C23.5524 14.3071 23.7156 14.5436 23.6724 14.7573C23.6098 15.0716 23.3142 15.1684 23.0991 15.1L18.8329 13.7507C18.7467 13.7231 18.6716 13.6711 18.616 13.6L17.5951 12.2942C17.4222 12.0729 17.1302 11.9849 16.8631 12.0711C16.5964 12.1582 16.4129 12.4027 16.4036 12.6831L16.2431 17.5587C16.2338 17.8427 16.4053 18.1013 16.6707 18.2031L20.8369 19.8009C21.1738 19.9302 21.388 20.2716 21.3582 20.6311L20.92 25.9524C20.8809 26.4298 20.4084 26.7836 19.9396 26.6849C19.5427 26.6013 19.2604 26.1924 19.2964 25.7533L19.6382 21.6058C19.6627 21.3107 19.4893 21.0347 19.2124 20.9289L18.4133 20.6231C17.6702 20.3387 16.9271 20.0547 16.1858 19.7658C16.0782 19.724 15.9676 19.7027 15.8564 19.7027C14.9511 19.7027 14.7711 20.8364 14.652 21.5867C14.636 21.6884 14.6236 21.7733 14.6107 21.8271L14.1724 23.6618C13.9293 24.676 13.6849 25.6902 13.4387 26.704C13.1369 27.9467 12.8342 29.1893 12.5133 30.4271C12.4724 30.5849 12.4356 30.7547 12.3978 30.9293C12.3013 31.376 12.2018 31.8373 12.0111 32.1347C11.776 32.5009 11.2516 32.6182 10.8822 32.3822C10.5489 32.1667 10.4169 31.7458 10.5689 31.38ZM13.1347 32.8529C13.4551 32.3529 13.5862 31.7453 13.7022 31.2098C13.736 31.0533 13.7684 30.9013 13.8049 30.76C14.1271 29.5156 14.4316 28.2667 14.7347 27.0178C14.9813 26.0027 15.2258 24.9871 15.4693 23.9716L15.908 22.1356C15.9262 22.06 15.9462 21.9396 15.9693 21.7951C15.9907 21.6596 16.0356 21.3778 16.0902 21.1582C16.7053 21.3964 17.3213 21.632 17.9373 21.8676L18.2684 21.9947L17.968 25.6436C17.876 26.7582 18.6062 27.7667 19.6658 27.9893C19.7378 28.0044 19.8107 28.0044 19.8822 28.012H16.6898C16.3213 28.012 16.0231 28.3102 16.0231 28.6787V33.8396H11.392C12.1022 33.8164 12.7502 33.4538 13.1347 32.8529Z" stroke="black" stroke-width="0.4" mask="url(#path-1-outside-1_3_89)"/>
</svg>
