<svg width="58" height="40" viewBox="0 0 58 40" fill="none" xmlns="http://www.w3.org/2000/svg">
<path d="M5.42846 8.26187C5.42617 10.8764 6.67729 13.3351 8.79459 14.8729C10.9096 16.4105 13.6341 16.8413 16.1201 16.0301C18.6087 15.219 20.5564 13.2667 21.3584 10.7759C22.1604 8.28739 21.7227 5.56289 20.1783 3.45269C20.1439 3.39541 20.105 3.3427 20.0591 3.29458C18.4253 1.16127 15.8475 -0.0280182 13.1642 0.11177C10.4808 0.251559 8.0405 1.70429 6.63815 3.99347C6.60378 4.0393 6.57628 4.08971 6.55108 4.14012C5.81553 5.38895 5.42846 6.81143 5.42846 8.26187ZM13.5905 14.5773C11.4045 14.5796 9.37428 13.4476 8.22171 11.5916C7.06915 9.7332 6.95916 7.412 7.93299 5.45273C10.7446 5.47564 11.5351 5.9683 11.7459 6.18828C11.8147 6.25244 11.8513 6.34409 11.8399 6.43804C11.8261 6.6901 11.9178 6.93757 12.0919 7.12091C12.2661 7.30425 12.5067 7.40734 12.7587 7.40734H12.7656C16.0195 7.38443 18.2055 6.82761 19.372 5.71169V5.71398C20.2336 7.66627 20.0502 9.92336 18.8839 11.7132C17.7176 13.5006 15.7261 14.5773 13.5905 14.5773ZM18.3292 4.0823C17.7815 4.93698 16.1065 5.44798 13.5057 5.54424V5.54653C13.4026 5.31051 13.2559 5.09512 13.0772 4.90953C12.3943 4.19921 11.1661 3.79134 9.26882 3.65842L9.26653 3.65613C10.5131 2.48291 12.1813 1.86422 13.8906 1.94669C15.6001 2.0269 17.2017 2.79909 18.3314 4.08459L18.3292 4.0823ZM42.3848 16.6439C43.2578 16.6393 44.1263 16.5866 44.9924 16.4858H44.9993C46.3765 16.3712 47.7124 15.9725 48.9245 15.3126C49.8938 14.7214 50.5766 13.759 50.8103 12.6499C51.5367 9.68708 49.8983 5.49624 48.6151 3.40146C47.5679 1.42166 45.563 0.136173 43.3288 0.0101696C41.0947 -0.115834 38.9568 0.935894 37.6942 2.78512C37.6598 2.82407 37.63 2.86532 37.6025 2.90885C37.3229 3.2984 37.0755 3.70858 36.8647 4.13709C36.2621 5.34697 35.7808 6.61645 35.4325 7.92253C35.4188 7.96377 35.4073 8.00502 35.4004 8.04627C35.1919 8.85743 35.0522 9.68466 34.9857 10.5187C34.7657 12.1044 35.2928 13.7015 36.4133 14.8426C37.6529 16.0388 39.6578 16.6439 42.3848 16.6439ZM49.0187 12.2077C48.8973 12.8378 48.5192 13.3901 47.9739 13.7292C46.984 14.2517 45.8978 14.5656 44.7819 14.655C41.3218 15.0468 38.8677 14.655 37.6875 13.5138C36.9679 12.7485 36.6472 11.6921 36.8167 10.6564C36.858 10.15 36.929 9.64814 37.0321 9.15094C38.62 9.24947 40.1439 8.49787 41.0329 7.17571C41.725 7.634 42.4765 7.99602 43.2671 8.24809C44.0279 8.4864 44.8184 8.60784 45.6135 8.60556C46.6492 8.59868 47.6758 8.41078 48.6474 8.05103C49.1148 9.38233 49.241 10.8122 49.0187 12.2077ZM38.5055 4.97365L38.5033 4.97136C38.8424 5.34715 39.1976 5.7069 39.5711 6.04602C39.1563 6.78385 38.3864 7.25132 37.5386 7.28341C37.8113 6.49284 38.1343 5.71834 38.5078 4.96907L38.5055 4.97365ZM42.7539 1.84586C42.818 1.84586 42.8845 1.84127 42.9486 1.84127V1.83898C44.6627 1.89169 46.2185 2.84953 47.0366 4.35729C47.4124 4.98513 47.7401 5.6382 48.0196 6.31415C44.9445 7.42319 42.1673 6.4608 39.5666 3.39027C40.3801 2.46912 41.5281 1.91231 42.7563 1.84356L42.7539 1.84586ZM47.1443 17.8151L39.878 17.8128C38.1365 17.8105 36.4248 18.2688 34.9147 19.1372C33.4047 20.0057 32.1513 21.2591 31.2805 22.7669H25.8223C24.9516 21.2591 23.6982 20.008 22.1881 19.1372C20.6781 18.2687 18.9664 17.8105 17.2249 17.8128H9.95625C7.31652 17.8151 4.78677 18.8646 2.91931 20.7321C1.05179 22.5996 0.00228777 25.1294 0 27.769V34.8816C0 35.1566 0.123739 35.4178 0.336842 35.5942C2.00732 36.9439 3.93667 37.9384 6.00587 38.5136C6.15023 38.6006 6.31521 38.6442 6.48249 38.6442H6.49166C8.43251 39.13 10.4283 39.3683 12.4311 39.3522C12.8527 39.3522 13.2789 39.343 13.712 39.3247C16.0149 39.4393 18.3224 39.1964 20.5518 38.6075C21.1705 38.8916 21.8075 39.1299 22.4606 39.3178C22.5958 39.398 22.7493 39.4415 22.9074 39.4438C24.4312 39.8219 25.9985 40.0075 27.5682 39.9938C27.8981 39.9938 28.2304 39.9869 28.5695 39.9731C31.184 40.1221 33.7963 39.65 36.1931 38.596C38.2027 39.1184 40.2741 39.3727 42.3501 39.3522C42.7717 39.3522 43.2002 39.343 43.6333 39.3247C48.7684 39.5286 53.1792 38.2408 56.7428 35.5003C56.9696 35.3261 57.1025 35.0557 57.1025 34.7716V27.7687C57.1003 25.1289 56.0508 22.5992 54.1832 20.7317C52.318 18.8642 49.786 17.8147 47.1463 17.8124L47.1443 17.8151ZM1.84236 32.8651H5.56133V36.4351C4.22545 35.9654 2.9697 35.2917 1.84236 34.4347V32.8651ZM13.7487 37.4823H13.6708H13.6731C11.5696 37.5969 9.45916 37.425 7.40345 36.9736V27.941C7.40345 27.4323 6.991 27.0199 6.4823 27.0199C5.9736 27.0199 5.56115 27.4323 5.56115 27.941V31.023H1.84218V27.7692C1.84676 23.2894 5.47639 19.6599 9.95613 19.6552H17.2248C19.8164 19.6529 22.2499 20.8903 23.7713 22.987C20.1875 23.8531 17.6624 27.0565 17.6577 30.7437V36.2981C17.6577 36.5754 17.7814 36.8366 17.9945 37.0107C18.0839 37.0841 18.1756 37.1528 18.2672 37.2216C16.7732 37.4644 15.2611 37.5511 13.7487 37.4823ZM21.9999 37.2188L22.0022 37.2165C21.1086 36.8774 20.2676 36.4168 19.5 35.8485V34.9251H22.0022L21.9999 37.2188ZM28.6063 38.1308H28.5284H28.5307C26.9588 38.2133 25.3845 38.0918 23.8424 37.771V30.8784C23.8424 30.3697 23.4322 29.9573 22.9236 29.9573C22.4149 29.9573 22.0024 30.3697 22.0024 30.8784V33.085H19.5002V30.7455C19.5025 27.3565 22.2499 24.6113 25.6367 24.6066H31.3149C34.7016 24.6112 37.4467 27.3564 37.4514 30.7455V33.085H34.9491V30.8784C34.9491 30.3697 34.5367 29.9573 34.028 29.9573C33.5193 29.9573 33.1068 30.3697 33.1068 30.8784V37.7136C31.6334 38.0618 30.1188 38.2016 28.6064 38.1283L28.6063 38.1308ZM34.9487 34.9274H37.4509V35.7477C36.6719 36.3022 35.8332 36.7628 34.9487 37.1226V34.9274ZM43.6721 37.4824C43.6469 37.4801 43.6217 37.4801 43.5965 37.4824C41.9123 37.5671 40.2258 37.4801 38.56 37.2211C38.686 37.1295 38.812 37.0378 38.9358 36.9439C39.1626 36.7697 39.2955 36.4993 39.2955 36.2129V30.7433C39.2909 27.1068 36.83 23.931 33.308 23.0165C34.8272 20.9037 37.2722 19.6503 39.8774 19.6549H47.1461C51.6258 19.6595 55.2553 23.2891 55.26 27.7689V31.0227H51.5411V27.9407C51.5411 27.432 51.1286 27.0196 50.6199 27.0196C50.1112 27.0196 49.6988 27.432 49.6988 27.9407V36.8982C47.7304 37.3863 45.6998 37.5832 43.6721 37.4824ZM51.5432 36.316V32.8651H55.2622V34.3087C54.1165 35.1382 52.8654 35.8142 51.5409 36.316H51.5432ZM28.4755 21.3211C31.1359 21.3211 33.5327 19.7171 34.5498 17.2607C35.5695 14.8043 35.0058 11.9744 33.1268 10.093C31.2456 8.21171 28.4157 7.65027 25.9591 8.66768C23.5004 9.68509 21.8986 12.0842 21.8986 14.7443C21.9032 18.374 24.8435 21.3165 28.4755 21.3211ZM28.4755 10.0108C30.3888 10.0085 32.1166 11.1633 32.8498 12.9324C33.5831 14.7013 33.1775 16.7385 31.8233 18.0927C30.469 19.4469 28.432 19.8525 26.6629 19.1193C24.8939 18.386 23.7413 16.6583 23.7413 14.7449C23.7436 12.1304 25.861 10.0131 28.4755 10.0108Z" fill="#151517"/>
</svg>
