<svg width="47" height="42" viewBox="0 0 47 42" fill="none" xmlns="http://www.w3.org/2000/svg">
<path d="M35.6484 0.96212C31.1073 -0.400365 26.2671 2.2296 23.067 5.35998C18.4755 1.17579 13.527 -0.131852 8.70115 1.58307C5.28815 2.64782 2.59794 5.10615 1.12358 8.51028C-4.53492 23.0702 12.5195 34.7421 22.4073 40.9484C22.7875 41.1913 23.2705 41.1968 23.6543 40.9612C32.4285 35.8728 44.228 26.8071 45.9524 16.2741C46.6011 13.0469 45.9902 4.06524 35.6484 0.96212ZM23.0522 38.5194C17.1234 34.7169 10.1677 30.1363 5.80132 23.7187H12.3894C12.7912 23.7187 13.1642 23.5123 13.3841 23.1726L14.3914 21.6019L16.5033 25.2619C17.0007 26.1934 18.491 25.9578 18.6838 24.9167L20.0479 18.711L22.2229 30.2772C22.4121 31.4844 24.2105 31.5812 24.5223 30.3977L27.2379 21.2146L28.3624 23.1323C28.5768 23.4976 28.9642 23.7204 29.3823 23.7204H40.2486C36.3111 29.6489 29.822 34.3283 23.0522 38.5194ZM43.631 15.7867C43.2238 17.7446 42.5498 19.5801 41.6596 21.315H30.0548L27.896 17.6312C27.413 16.7418 25.9966 16.9171 25.7408 17.8997L23.6414 24.9971L21.3006 12.5467C21.1961 11.9879 20.7168 11.5788 20.1545 11.5697C19.5905 11.5587 19.1021 11.9532 18.9796 12.5102L17.0244 21.4063L15.4656 18.7069C15.0566 17.9453 13.8925 17.9198 13.4492 18.6595L11.7445 21.3168L4.34176 21.315C0.496282 15.4505 2.27304 5.95365 9.41808 3.87306C14.0834 1.97182 19.34 4.77529 22.2288 7.85817C22.6829 8.31111 23.4109 8.31842 23.874 7.87461C27.4528 4.45018 30.7416 2.36267 35.1564 3.31053C40.665 4.49586 44.7031 10.4464 43.631 15.7867Z" fill="#151517"/>
</svg>
