<svg width="62" height="42" viewBox="0 0 62 42" fill="none" xmlns="http://www.w3.org/2000/svg">
<path d="M52.8854 29.4699H49.6826C49.3298 29.4699 49.042 29.1822 49.042 28.8294V22.4237C49.042 22.0709 49.3298 21.7832 49.6826 21.7832H52.8854C53.2382 21.7832 53.526 22.0709 53.526 22.4237V28.8294C53.526 29.1822 53.2382 29.4699 52.8854 29.4699ZM50.3231 28.1888H52.2448V23.0643H50.3231V28.1888Z" fill="#151517"/>
<path d="M31.1063 17.9398C28.987 17.9398 27.263 16.2158 27.263 14.0965C27.263 11.9771 28.987 10.2531 31.1063 10.2531C33.2257 10.2531 34.9497 11.9771 34.9497 14.0965C34.9497 16.2158 33.2257 17.9398 31.1063 17.9398ZM31.1063 11.5342C29.6901 11.5342 28.5441 12.6802 28.5441 14.0965C28.5441 15.5127 29.6901 16.6587 31.1063 16.6587C32.5226 16.6587 33.6686 15.5127 33.6686 14.0965C33.6686 12.6802 32.5226 11.5342 31.1063 11.5342Z" fill="#151517"/>
<path d="M41.3553 38.4378H20.8574C20.5046 38.4378 20.2168 38.15 20.2168 37.7972V11.9448C20.2168 11.7346 20.3194 11.542 20.4921 11.4194L30.2279 4.60315C30.338 4.52559 30.4656 4.48805 30.5933 4.48805H31.6192C31.7543 4.48805 31.8819 4.52558 31.9845 4.60315L41.7204 11.4194C41.893 11.542 41.9956 11.7321 41.9956 11.9448V37.7972C41.9956 38.15 41.7081 38.4378 41.3553 38.4378ZM40.7147 37.1566V12.2773L31.4138 5.76917H30.7933L21.4923 12.2773V37.1566H40.7147Z" fill="#151517"/>
<path d="M30.5927 5.77105C30.31 5.77105 30.0672 5.59089 29.9847 5.32316C29.9021 5.05292 29.9972 4.76517 30.2274 4.60503L30.7403 4.24722C30.958 4.09458 31.2533 4.09458 31.476 4.24722L31.9889 4.60503C32.2191 4.76517 32.3167 5.05292 32.2316 5.32316C32.149 5.5934 31.8988 5.77105 31.6236 5.77105H30.5927Z" fill="#151517"/>
<path d="M20.857 17.2994H1.64023C1.41503 17.2994 1.20985 17.1843 1.09475 16.9992C0.979649 16.814 0.967139 16.5763 1.06973 16.3786L6.83477 4.84086C6.94487 4.62317 7.16756 4.48805 7.40527 4.48805H26.1218C26.4046 4.48805 26.6473 4.66821 26.7298 4.93595C26.8124 5.20618 26.7173 5.49393 26.4871 5.65408L18.9733 10.9137C18.8057 11.0363 18.7031 11.2339 18.7031 11.4391C18.7031 11.5742 18.7406 11.7018 18.8182 11.8094C18.9133 11.9446 19.0609 12.0396 19.2286 12.0722C19.4012 12.0972 19.5689 12.0647 19.709 11.9621L20.4846 11.4166C20.6823 11.2815 20.94 11.264 21.1502 11.3716C21.3604 11.4817 21.4955 11.6993 21.4955 11.9421V16.6562C21.4955 17.009 21.2078 17.2968 20.855 17.2968L20.857 17.2994ZM2.67858 16.0183H20.2165V13.1558C19.8462 13.3409 19.4283 13.406 19.0129 13.3359C18.5075 13.2459 18.0646 12.9656 17.7693 12.5427C17.5391 12.2099 17.424 11.8321 17.424 11.4417C17.424 10.8212 17.7318 10.2307 18.2372 9.86538L24.0848 5.77182L7.80308 5.76932L2.67858 16.0183Z" fill="#151517"/>
<path d="M19.3485 13.3599C19.2384 13.3599 19.1234 13.3474 19.0082 13.3274C18.5028 13.2373 18.0599 12.9571 17.7647 12.5342C17.5345 12.2014 17.4194 11.8236 17.4194 11.4332C17.4194 10.8127 17.7271 10.2222 18.2326 9.85684L30.7363 1.11447C30.954 0.961842 31.2492 0.961842 31.4719 1.11447L43.9705 9.85684C44.8287 10.4724 45.0415 11.6684 44.4434 12.5342C44.0856 13.0471 43.4951 13.3474 42.8671 13.3474C42.4642 13.3474 42.0789 13.2248 41.7586 12.9946L31.1067 5.53781L20.4472 12.9991C20.1194 13.2293 19.7365 13.3519 19.3462 13.3519L19.3485 13.3599ZM31.1041 2.42518L18.9713 10.9126C18.8036 11.0352 18.701 11.2329 18.701 11.4381C18.701 11.5732 18.7385 11.7008 18.8161 11.8084C18.9112 11.9435 19.0588 12.0386 19.2265 12.0711C19.3991 12.0961 19.5668 12.0636 19.7069 11.961L30.7316 4.24163C30.9493 4.08899 31.2445 4.08899 31.4672 4.24163L42.4919 11.961C42.7621 12.1537 43.1825 12.0886 43.3876 11.8009C43.5928 11.5056 43.5228 11.1103 43.2275 10.9051L31.1017 2.42538L31.1041 2.42518Z" fill="#151517"/>
<path d="M60.5702 17.3017H41.3533C41.0005 17.3017 40.7128 17.014 40.7128 16.6612V11.947C40.7128 11.7093 40.8479 11.4916 41.0581 11.3765C41.2683 11.2664 41.526 11.2865 41.7237 11.4216L42.4993 11.9671C42.7696 12.1597 43.1899 12.0947 43.3951 11.8069C43.6003 11.5117 43.5302 11.1163 43.235 10.9112L35.7282 5.65908C35.498 5.49894 35.4005 5.21119 35.4855 4.94095C35.5681 4.67071 35.8183 4.49306 36.0936 4.49306H54.8101C55.0528 4.49306 55.2705 4.62818 55.3806 4.84586L61.1456 16.376C61.2482 16.5736 61.2357 16.8113 61.1206 16.9965C61.0055 17.1817 60.8003 17.2968 60.5751 17.2968L60.5702 17.3017ZM41.9939 16.0206H59.5318L54.4073 5.77166H38.1179L43.9655 9.86522C44.8237 10.4808 45.0364 11.6768 44.4384 12.5426C44.0806 13.0555 43.49 13.3558 42.862 13.3558C42.5543 13.3558 42.254 13.2857 41.9913 13.1506V16.0131L41.9939 16.0206Z" fill="#151517"/>
<path d="M20.8574 34.5944H4.2028C3.84999 34.5944 3.56224 34.3066 3.56224 33.9538V16.6587C3.56224 16.3059 3.84999 16.0181 4.2028 16.0181H20.8574C21.2102 16.0181 21.4979 16.3059 21.4979 16.6587V33.9538C21.4979 34.3066 21.2102 34.5944 20.8574 34.5944ZM4.84336 33.3133H20.2168V17.2993H4.84336V33.3133Z" fill="#151517"/>
<path d="M58.0099 34.5944H41.3553C41.0025 34.5944 40.7147 34.3066 40.7147 33.9538V16.6587C40.7147 16.3059 41.0025 16.0181 41.3553 16.0181H58.0099C58.3627 16.0181 58.6504 16.3059 58.6504 16.6587V33.9538C58.6504 34.3066 58.3627 34.5944 58.0099 34.5944ZM41.9959 33.3133H57.3693V17.2993H41.9959V33.3133Z" fill="#151517"/>
<path d="M41.9959 41H20.2168C19.864 41 19.5763 40.7122 19.5763 40.3594V37.7972C19.5763 37.4444 19.864 37.1566 20.2168 37.1566H41.9959C42.3487 37.1566 42.6364 37.4444 42.6364 37.7972V40.3594C42.6364 40.7122 42.3487 41 41.9959 41ZM20.8574 39.7189H41.3553V38.4378H20.8574V39.7189Z" fill="#151517"/>
<path d="M60.5721 37.1566H41.3553C41.0025 37.1566 40.7147 36.8689 40.7147 36.5161V33.9538C40.7147 33.601 41.0025 33.3133 41.3553 33.3133H60.5721C60.9249 33.3133 61.2127 33.601 61.2127 33.9538V36.5161C61.2127 36.8689 60.9249 37.1566 60.5721 37.1566ZM41.9959 35.8755H59.9316V34.5944H41.9959V35.8755Z" fill="#151517"/>
<path d="M20.8574 37.1566H1.64056C1.28775 37.1566 1 36.8689 1 36.5161V33.9538C1 33.601 1.28775 33.3133 1.64056 33.3133H20.8574C21.2102 33.3133 21.4979 33.601 21.4979 33.9538V36.5161C21.4979 36.8689 21.2102 37.1566 20.8574 37.1566ZM2.28112 35.8755H20.2168V34.5944H2.28112V35.8755Z" fill="#151517"/>
<path d="M35.5903 38.4378H26.6224C26.2696 38.4378 25.9819 38.15 25.9819 37.7972V22.4237C25.9819 22.0709 26.2696 21.7832 26.6224 21.7832H35.5903C35.9431 21.7832 36.2308 22.0709 36.2308 22.4237V37.7972C36.2308 38.15 35.9431 38.4378 35.5903 38.4378ZM27.263 37.1566H34.9497V23.0643H27.263V37.1566Z" fill="#151517"/>
<path d="M12.5301 29.4699H9.32729C8.97448 29.4699 8.68672 29.1822 8.68672 28.8294V22.4237C8.68672 22.0709 8.97448 21.7832 9.32729 21.7832H12.5301C12.8829 21.7832 13.1706 22.0709 13.1706 22.4237V28.8294C13.1706 29.1822 12.8829 29.4699 12.5301 29.4699ZM9.96785 28.1888H11.8895V23.0643H9.96785V28.1888Z" fill="#151517"/>
<path d="M15.7329 29.4699H12.5301C12.1773 29.4699 11.8895 29.1822 11.8895 28.8294V22.4237C11.8895 22.0709 12.1773 21.7832 12.5301 21.7832H15.7329C16.0857 21.7832 16.3734 22.0709 16.3734 22.4237V28.8294C16.3734 29.1822 16.0857 29.4699 15.7329 29.4699ZM13.1706 28.1888H15.0923V23.0643H13.1706V28.1888Z" fill="#151517"/>
<path d="M49.6826 29.4699H46.4798C46.127 29.4699 45.8392 29.1822 45.8392 28.8294V22.4237C45.8392 22.0709 46.127 21.7832 46.4798 21.7832H49.6826C50.0354 21.7832 50.3231 22.0709 50.3231 22.4237V28.8294C50.3231 29.1822 50.0354 29.4699 49.6826 29.4699ZM47.1203 28.1888H49.042V23.0643H47.1203V28.1888Z" fill="#151517"/>
<path d="M49.6826 29.4699H52.8854C53.2382 29.4699 53.526 29.1822 53.526 28.8294V22.4237C53.526 22.0709 53.2382 21.7832 52.8854 21.7832H49.6826M49.6826 29.4699C49.3298 29.4699 49.042 29.1822 49.042 28.8294V22.4237C49.042 22.0709 49.3298 21.7832 49.6826 21.7832M49.6826 29.4699H46.4798C46.127 29.4699 45.8392 29.1822 45.8392 28.8294V22.4237C45.8392 22.0709 46.127 21.7832 46.4798 21.7832H49.6826M49.6826 29.4699C50.0354 29.4699 50.3231 29.1822 50.3231 28.8294V22.4237C50.3231 22.0709 50.0354 21.7832 49.6826 21.7832M41.3553 38.4378H20.8574M41.3553 38.4378C41.7081 38.4378 41.9956 38.15 41.9956 37.7972V11.9448C41.9956 11.7321 41.893 11.542 41.7204 11.4194L31.9845 4.60315C31.8819 4.52558 31.7543 4.48805 31.6192 4.48805H30.5933C30.4656 4.48805 30.338 4.52559 30.2279 4.60315L20.4921 11.4194C20.3194 11.542 20.2168 11.7346 20.2168 11.9448V37.7972C20.2168 38.15 20.5046 38.4378 20.8574 38.4378M41.3553 38.4378V39.7189H20.8574V38.4378M21.4979 33.9538V16.6587C21.4979 16.3059 21.2102 16.0181 20.8574 16.0181H4.2028C3.84999 16.0181 3.56224 16.3059 3.56224 16.6587V33.9538C3.56224 34.3066 3.84999 34.5944 4.2028 34.5944H20.8574C21.2102 34.5944 21.4979 34.3066 21.4979 33.9538ZM21.4979 33.9538C21.4979 33.601 21.2102 33.3133 20.8574 33.3133H1.64056C1.28775 33.3133 1 33.601 1 33.9538V36.5161C1 36.8689 1.28775 37.1566 1.64056 37.1566H20.8574C21.2102 37.1566 21.4979 36.8689 21.4979 36.5161V33.9538ZM40.7147 33.9538C40.7147 34.3066 41.0025 34.5944 41.3553 34.5944H58.0099C58.3627 34.5944 58.6504 34.3066 58.6504 33.9538V16.6587C58.6504 16.3059 58.3627 16.0181 58.0099 16.0181H41.3553C41.0025 16.0181 40.7147 16.3059 40.7147 16.6587V33.9538ZM40.7147 33.9538V36.5161C40.7147 36.8689 41.0025 37.1566 41.3553 37.1566H60.5721C60.9249 37.1566 61.2127 36.8689 61.2127 36.5161V33.9538C61.2127 33.601 60.9249 33.3133 60.5721 33.3133H41.3553C41.0025 33.3133 40.7147 33.601 40.7147 33.9538ZM12.5301 29.4699H9.32729C8.97448 29.4699 8.68672 29.1822 8.68672 28.8294V22.4237C8.68672 22.0709 8.97448 21.7832 9.32729 21.7832H12.5301M12.5301 29.4699C12.8829 29.4699 13.1706 29.1822 13.1706 28.8294V22.4237C13.1706 22.0709 12.8829 21.7832 12.5301 21.7832M12.5301 29.4699H15.7329C16.0857 29.4699 16.3734 29.1822 16.3734 28.8294V22.4237C16.3734 22.0709 16.0857 21.7832 15.7329 21.7832H12.5301M12.5301 29.4699C12.1773 29.4699 11.8895 29.1822 11.8895 28.8294V22.4237C11.8895 22.0709 12.1773 21.7832 12.5301 21.7832M50.3231 28.1888H52.2448V23.0643H50.3231V28.1888ZM31.1063 17.9398C28.987 17.9398 27.263 16.2158 27.263 14.0965C27.263 11.9771 28.987 10.2531 31.1063 10.2531C33.2257 10.2531 34.9497 11.9771 34.9497 14.0965C34.9497 16.2158 33.2257 17.9398 31.1063 17.9398ZM31.1063 11.5342C29.6901 11.5342 28.5441 12.6802 28.5441 14.0965C28.5441 15.5127 29.6901 16.6587 31.1063 16.6587C32.5226 16.6587 33.6686 15.5127 33.6686 14.0965C33.6686 12.6802 32.5226 11.5342 31.1063 11.5342ZM40.7147 37.1566V12.2773L31.4138 5.76917H30.7933L21.4923 12.2773V37.1566H40.7147ZM30.5927 5.77105C30.31 5.77105 30.0672 5.59089 29.9847 5.32316C29.9021 5.05292 29.9972 4.76517 30.2274 4.60503L30.7403 4.24722C30.958 4.09458 31.2533 4.09458 31.476 4.24722L31.9889 4.60503C32.2191 4.76517 32.3167 5.05292 32.2316 5.32316C32.149 5.5934 31.8988 5.77105 31.6236 5.77105H30.5927ZM20.857 17.2994H1.64023C1.41503 17.2994 1.20985 17.1843 1.09475 16.9992C0.979649 16.814 0.967139 16.5763 1.06973 16.3786L6.83477 4.84086C6.94487 4.62317 7.16756 4.48805 7.40527 4.48805H26.1218C26.4046 4.48805 26.6473 4.66821 26.7298 4.93595C26.8124 5.20618 26.7173 5.49393 26.4871 5.65408L18.9733 10.9137C18.8057 11.0363 18.7031 11.2339 18.7031 11.4391C18.7031 11.5742 18.7406 11.7018 18.8182 11.8094C18.9133 11.9446 19.0609 12.0396 19.2286 12.0722C19.4012 12.0972 19.5689 12.0647 19.709 11.9621L20.4846 11.4166C20.6823 11.2815 20.94 11.264 21.1502 11.3716C21.3604 11.4817 21.4955 11.6993 21.4955 11.9421V16.6562C21.4955 17.009 21.2078 17.2968 20.855 17.2968L20.857 17.2994ZM2.67858 16.0183H20.2165V13.1558C19.8462 13.3409 19.4283 13.406 19.0129 13.3359C18.5075 13.2459 18.0646 12.9656 17.7693 12.5427C17.5391 12.2099 17.424 11.8321 17.424 11.4417C17.424 10.8212 17.7318 10.2307 18.2372 9.86538L24.0848 5.77182L7.80308 5.76932L2.67858 16.0183ZM19.3485 13.3599C19.2384 13.3599 19.1234 13.3474 19.0082 13.3274C18.5028 13.2373 18.0599 12.9571 17.7647 12.5342C17.5345 12.2014 17.4194 11.8236 17.4194 11.4332C17.4194 10.8127 17.7271 10.2222 18.2326 9.85684L30.7363 1.11447C30.954 0.961842 31.2492 0.961842 31.4719 1.11447L43.9705 9.85684C44.8287 10.4724 45.0415 11.6684 44.4434 12.5342C44.0856 13.0471 43.4951 13.3474 42.8671 13.3474C42.4642 13.3474 42.0789 13.2248 41.7586 12.9946L31.1067 5.53781L20.4472 12.9991C20.1194 13.2293 19.7365 13.3519 19.3462 13.3519L19.3485 13.3599ZM31.1041 2.42518L18.9713 10.9126C18.8036 11.0352 18.701 11.2329 18.701 11.4381C18.701 11.5732 18.7385 11.7008 18.8161 11.8084C18.9112 11.9435 19.0588 12.0386 19.2265 12.0711C19.3991 12.0961 19.5668 12.0636 19.7069 11.961L30.7316 4.24163C30.9493 4.08899 31.2445 4.08899 31.4672 4.24163L42.4919 11.961C42.7621 12.1537 43.1825 12.0886 43.3876 11.8009C43.5928 11.5056 43.5228 11.1103 43.2275 10.9051L31.1017 2.42538L31.1041 2.42518ZM60.5702 17.3017H41.3533C41.0005 17.3017 40.7128 17.014 40.7128 16.6612V11.947C40.7128 11.7093 40.8479 11.4916 41.0581 11.3765C41.2683 11.2664 41.526 11.2865 41.7237 11.4216L42.4993 11.9671C42.7696 12.1597 43.1899 12.0947 43.3951 11.8069C43.6003 11.5117 43.5302 11.1163 43.235 10.9112L35.7282 5.65908C35.498 5.49894 35.4005 5.21119 35.4855 4.94095C35.5681 4.67071 35.8183 4.49306 36.0936 4.49306H54.8101C55.0528 4.49306 55.2705 4.62818 55.3806 4.84586L61.1456 16.376C61.2482 16.5736 61.2357 16.8113 61.1206 16.9965C61.0055 17.1817 60.8003 17.2968 60.5751 17.2968L60.5702 17.3017ZM41.9939 16.0206H59.5318L54.4073 5.77166H38.1179L43.9655 9.86522C44.8237 10.4808 45.0364 11.6768 44.4384 12.5426C44.0806 13.0555 43.49 13.3558 42.862 13.3558C42.5543 13.3558 42.254 13.2857 41.9913 13.1506V16.0131L41.9939 16.0206ZM4.84336 33.3133H20.2168V17.2993H4.84336V33.3133ZM41.9959 33.3133H57.3693V17.2993H41.9959V33.3133ZM41.9959 41H20.2168C19.864 41 19.5763 40.7122 19.5763 40.3594V37.7972C19.5763 37.4444 19.864 37.1566 20.2168 37.1566H41.9959C42.3487 37.1566 42.6364 37.4444 42.6364 37.7972V40.3594C42.6364 40.7122 42.3487 41 41.9959 41ZM41.9959 35.8755H59.9316V34.5944H41.9959V35.8755ZM2.28112 35.8755H20.2168V34.5944H2.28112V35.8755ZM35.5903 38.4378H26.6224C26.2696 38.4378 25.9819 38.15 25.9819 37.7972V22.4237C25.9819 22.0709 26.2696 21.7832 26.6224 21.7832H35.5903C35.9431 21.7832 36.2308 22.0709 36.2308 22.4237V37.7972C36.2308 38.15 35.9431 38.4378 35.5903 38.4378ZM27.263 37.1566H34.9497V23.0643H27.263V37.1566ZM9.96785 28.1888H11.8895V23.0643H9.96785V28.1888ZM13.1706 28.1888H15.0923V23.0643H13.1706V28.1888ZM47.1203 28.1888H49.042V23.0643H47.1203V28.1888Z" stroke="#151517" stroke-width="0.2"/>
</svg>
