<svg width="62" height="42" viewBox="0 0 62 42" fill="none" xmlns="http://www.w3.org/2000/svg">
<mask id="path-1-outside-1_3_85" maskUnits="userSpaceOnUse" x="0" y="0" width="62" height="42" fill="black">
<rect fill="white" width="62" height="42"/>
<path d="M52.8854 29.4699H49.6826C49.3298 29.4699 49.042 29.1822 49.042 28.8294V22.4237C49.042 22.0709 49.3298 21.7832 49.6826 21.7832H52.8854C53.2382 21.7832 53.526 22.0709 53.526 22.4237V28.8294C53.526 29.1822 53.2382 29.4699 52.8854 29.4699ZM50.3232 28.1888H52.2448V23.0643H50.3232V28.1888Z"/>
<path d="M31.1063 17.9398C28.987 17.9398 27.263 16.2158 27.263 14.0965C27.263 11.9771 28.987 10.2531 31.1063 10.2531C33.2257 10.2531 34.9497 11.9771 34.9497 14.0965C34.9497 16.2158 33.2257 17.9398 31.1063 17.9398ZM31.1063 11.5342C29.6901 11.5342 28.5441 12.6802 28.5441 14.0965C28.5441 15.5127 29.6901 16.6587 31.1063 16.6587C32.5226 16.6587 33.6686 15.5127 33.6686 14.0965C33.6686 12.6802 32.5226 11.5342 31.1063 11.5342Z"/>
<path d="M41.3553 38.4378H20.8574C20.5046 38.4378 20.2168 38.15 20.2168 37.7972V11.9448C20.2168 11.7346 20.3194 11.542 20.4921 11.4194L30.2279 4.60315C30.338 4.52559 30.4656 4.48805 30.5933 4.48805H31.6192C31.7543 4.48805 31.8819 4.52558 31.9845 4.60315L41.7204 11.4194C41.893 11.542 41.9956 11.7321 41.9956 11.9448V37.7972C41.9956 38.15 41.7081 38.4378 41.3553 38.4378ZM40.7147 37.1566V12.2773L31.4138 5.76917H30.7933L21.4923 12.2773V37.1566H40.7147Z"/>
<path d="M30.5927 5.77105C30.31 5.77105 30.0672 5.59089 29.9847 5.32316C29.9021 5.05292 29.9972 4.76517 30.2274 4.60503L30.7403 4.24722C30.958 4.09458 31.2533 4.09458 31.476 4.24722L31.9889 4.60503C32.2191 4.76517 32.3167 5.05292 32.2316 5.32316C32.149 5.5934 31.8988 5.77105 31.6236 5.77105H30.5927Z"/>
<path d="M20.857 17.2994H1.64023C1.41503 17.2994 1.20985 17.1843 1.09475 16.9992C0.979649 16.814 0.967139 16.5763 1.06973 16.3786L6.83477 4.84086C6.94487 4.62317 7.16756 4.48805 7.40527 4.48805H26.1218C26.4046 4.48805 26.6473 4.66821 26.7298 4.93595C26.8124 5.20618 26.7173 5.49393 26.4871 5.65408L18.9733 10.9137C18.8057 11.0363 18.7031 11.2339 18.7031 11.4391C18.7031 11.5742 18.7406 11.7018 18.8182 11.8094C18.9133 11.9446 19.0609 12.0396 19.2286 12.0722C19.4012 12.0972 19.5689 12.0647 19.709 11.9621L20.4846 11.4166C20.6823 11.2815 20.94 11.264 21.1502 11.3716C21.3604 11.4817 21.4955 11.6993 21.4955 11.9421V16.6562C21.4955 17.009 21.2078 17.2968 20.855 17.2968L20.857 17.2994ZM2.67858 16.0183H20.2165V13.1558C19.8462 13.3409 19.4283 13.406 19.0129 13.3359C18.5075 13.2459 18.0646 12.9656 17.7693 12.5427C17.5391 12.2099 17.424 11.8321 17.424 11.4417C17.424 10.8212 17.7318 10.2307 18.2372 9.86538L24.0848 5.77182L7.80308 5.76932L2.67858 16.0183Z"/>
<path d="M19.3485 13.3599C19.2384 13.3599 19.1234 13.3474 19.0082 13.3274C18.5028 13.2373 18.0599 12.9571 17.7647 12.5342C17.5345 12.2014 17.4194 11.8236 17.4194 11.4332C17.4194 10.8127 17.7271 10.2222 18.2326 9.85684L30.7363 1.11447C30.954 0.961842 31.2492 0.961842 31.4719 1.11447L43.9705 9.85684C44.8288 10.4724 45.0415 11.6684 44.4434 12.5342C44.0856 13.0471 43.4951 13.3474 42.8671 13.3474C42.4642 13.3474 42.0789 13.2248 41.7586 12.9946L31.1067 5.53781L20.4472 12.9991C20.1194 13.2293 19.7365 13.3519 19.3462 13.3519L19.3485 13.3599ZM31.1041 2.42518L18.9713 10.9126C18.8036 11.0352 18.701 11.2329 18.701 11.4381C18.701 11.5732 18.7386 11.7008 18.8161 11.8084C18.9112 11.9435 19.0588 12.0386 19.2265 12.0711C19.3991 12.0961 19.5668 12.0636 19.7069 11.961L30.7316 4.24163C30.9493 4.08899 31.2445 4.08899 31.4672 4.24163L42.4919 11.961C42.7621 12.1537 43.1825 12.0886 43.3876 11.8009C43.5928 11.5056 43.5228 11.1103 43.2275 10.9051L31.1017 2.42538L31.1041 2.42518Z"/>
<path d="M60.5702 17.3017H41.3533C41.0005 17.3017 40.7128 17.014 40.7128 16.6612V11.947C40.7128 11.7093 40.8479 11.4916 41.0581 11.3765C41.2683 11.2664 41.526 11.2865 41.7237 11.4216L42.4993 11.9671C42.7696 12.1597 43.1899 12.0947 43.3951 11.8069C43.6003 11.5117 43.5302 11.1163 43.235 10.9112L35.7282 5.65908C35.498 5.49894 35.4005 5.21119 35.4855 4.94095C35.5681 4.67071 35.8183 4.49306 36.0936 4.49306H54.8101C55.0528 4.49306 55.2705 4.62818 55.3806 4.84586L61.1456 16.376C61.2482 16.5736 61.2357 16.8113 61.1206 16.9965C61.0055 17.1817 60.8003 17.2968 60.5751 17.2968L60.5702 17.3017ZM41.9939 16.0206H59.5318L54.4073 5.77166H38.1179L43.9655 9.86522C44.8237 10.4808 45.0364 11.6768 44.4384 12.5426C44.0806 13.0555 43.49 13.3558 42.862 13.3558C42.5543 13.3558 42.254 13.2857 41.9913 13.1506V16.0131L41.9939 16.0206Z"/>
<path d="M20.8574 34.5944H4.2028C3.84999 34.5944 3.56224 34.3066 3.56224 33.9538V16.6587C3.56224 16.3059 3.84999 16.0181 4.2028 16.0181H20.8574C21.2102 16.0181 21.4979 16.3059 21.4979 16.6587V33.9538C21.4979 34.3066 21.2102 34.5944 20.8574 34.5944ZM4.84336 33.3133H20.2168V17.2993H4.84336V33.3133Z"/>
<path d="M58.0099 34.5944H41.3553C41.0025 34.5944 40.7147 34.3066 40.7147 33.9538V16.6587C40.7147 16.3059 41.0025 16.0181 41.3553 16.0181H58.0099C58.3627 16.0181 58.6504 16.3059 58.6504 16.6587V33.9538C58.6504 34.3066 58.3627 34.5944 58.0099 34.5944ZM41.9959 33.3133H57.3693V17.2993H41.9959V33.3133Z"/>
<path d="M41.9959 41H20.2168C19.864 41 19.5763 40.7122 19.5763 40.3594V37.7972C19.5763 37.4444 19.864 37.1566 20.2168 37.1566H41.9959C42.3487 37.1566 42.6364 37.4444 42.6364 37.7972V40.3594C42.6364 40.7122 42.3487 41 41.9959 41ZM20.8574 39.7189H41.3553V38.4378H20.8574V39.7189Z"/>
<path d="M60.5721 37.1566H41.3553C41.0025 37.1566 40.7147 36.8689 40.7147 36.5161V33.9538C40.7147 33.601 41.0025 33.3133 41.3553 33.3133H60.5721C60.9249 33.3133 61.2127 33.601 61.2127 33.9538V36.5161C61.2127 36.8689 60.9249 37.1566 60.5721 37.1566ZM41.9959 35.8755H59.9316V34.5944H41.9959V35.8755Z"/>
<path d="M20.8574 37.1566H1.64056C1.28775 37.1566 1 36.8689 1 36.5161V33.9538C1 33.601 1.28775 33.3133 1.64056 33.3133H20.8574C21.2102 33.3133 21.4979 33.601 21.4979 33.9538V36.5161C21.4979 36.8689 21.2102 37.1566 20.8574 37.1566ZM2.28112 35.8755H20.2168V34.5944H2.28112V35.8755Z"/>
<path d="M35.5903 38.4378H26.6224C26.2696 38.4378 25.9819 38.15 25.9819 37.7972V22.4237C25.9819 22.0709 26.2696 21.7832 26.6224 21.7832H35.5903C35.9431 21.7832 36.2308 22.0709 36.2308 22.4237V37.7972C36.2308 38.15 35.9431 38.4378 35.5903 38.4378ZM27.263 37.1566H34.9497V23.0643H27.263V37.1566Z"/>
<path d="M12.5301 29.4699H9.32728C8.97448 29.4699 8.68672 29.1822 8.68672 28.8294V22.4237C8.68672 22.0709 8.97448 21.7832 9.32728 21.7832H12.5301C12.8829 21.7832 13.1706 22.0709 13.1706 22.4237V28.8294C13.1706 29.1822 12.8829 29.4699 12.5301 29.4699ZM9.96785 28.1888H11.8895V23.0643H9.96785V28.1888Z"/>
<path d="M15.7329 29.4699H12.5301C12.1773 29.4699 11.8895 29.1822 11.8895 28.8294V22.4237C11.8895 22.0709 12.1773 21.7832 12.5301 21.7832H15.7329C16.0857 21.7832 16.3734 22.0709 16.3734 22.4237V28.8294C16.3734 29.1822 16.0857 29.4699 15.7329 29.4699ZM13.1706 28.1888H15.0923V23.0643H13.1706V28.1888Z"/>
<path d="M49.6826 29.4699H46.4798C46.127 29.4699 45.8392 29.1822 45.8392 28.8294V22.4237C45.8392 22.0709 46.127 21.7832 46.4798 21.7832H49.6826C50.0354 21.7832 50.3232 22.0709 50.3232 22.4237V28.8294C50.3232 29.1822 50.0354 29.4699 49.6826 29.4699ZM47.1203 28.1888H49.042V23.0643H47.1203V28.1888Z"/>
</mask>
<path d="M52.8854 29.4699H49.6826C49.3298 29.4699 49.042 29.1822 49.042 28.8294V22.4237C49.042 22.0709 49.3298 21.7832 49.6826 21.7832H52.8854C53.2382 21.7832 53.526 22.0709 53.526 22.4237V28.8294C53.526 29.1822 53.2382 29.4699 52.8854 29.4699ZM50.3232 28.1888H52.2448V23.0643H50.3232V28.1888Z" fill="black"/>
<path d="M31.1063 17.9398C28.987 17.9398 27.263 16.2158 27.263 14.0965C27.263 11.9771 28.987 10.2531 31.1063 10.2531C33.2257 10.2531 34.9497 11.9771 34.9497 14.0965C34.9497 16.2158 33.2257 17.9398 31.1063 17.9398ZM31.1063 11.5342C29.6901 11.5342 28.5441 12.6802 28.5441 14.0965C28.5441 15.5127 29.6901 16.6587 31.1063 16.6587C32.5226 16.6587 33.6686 15.5127 33.6686 14.0965C33.6686 12.6802 32.5226 11.5342 31.1063 11.5342Z" fill="black"/>
<path d="M41.3553 38.4378H20.8574C20.5046 38.4378 20.2168 38.15 20.2168 37.7972V11.9448C20.2168 11.7346 20.3194 11.542 20.4921 11.4194L30.2279 4.60315C30.338 4.52559 30.4656 4.48805 30.5933 4.48805H31.6192C31.7543 4.48805 31.8819 4.52558 31.9845 4.60315L41.7204 11.4194C41.893 11.542 41.9956 11.7321 41.9956 11.9448V37.7972C41.9956 38.15 41.7081 38.4378 41.3553 38.4378ZM40.7147 37.1566V12.2773L31.4138 5.76917H30.7933L21.4923 12.2773V37.1566H40.7147Z" fill="black"/>
<path d="M30.5927 5.77105C30.31 5.77105 30.0672 5.59089 29.9847 5.32316C29.9021 5.05292 29.9972 4.76517 30.2274 4.60503L30.7403 4.24722C30.958 4.09458 31.2533 4.09458 31.476 4.24722L31.9889 4.60503C32.2191 4.76517 32.3167 5.05292 32.2316 5.32316C32.149 5.5934 31.8988 5.77105 31.6236 5.77105H30.5927Z" fill="black"/>
<path d="M20.857 17.2994H1.64023C1.41503 17.2994 1.20985 17.1843 1.09475 16.9992C0.979649 16.814 0.967139 16.5763 1.06973 16.3786L6.83477 4.84086C6.94487 4.62317 7.16756 4.48805 7.40527 4.48805H26.1218C26.4046 4.48805 26.6473 4.66821 26.7298 4.93595C26.8124 5.20618 26.7173 5.49393 26.4871 5.65408L18.9733 10.9137C18.8057 11.0363 18.7031 11.2339 18.7031 11.4391C18.7031 11.5742 18.7406 11.7018 18.8182 11.8094C18.9133 11.9446 19.0609 12.0396 19.2286 12.0722C19.4012 12.0972 19.5689 12.0647 19.709 11.9621L20.4846 11.4166C20.6823 11.2815 20.94 11.264 21.1502 11.3716C21.3604 11.4817 21.4955 11.6993 21.4955 11.9421V16.6562C21.4955 17.009 21.2078 17.2968 20.855 17.2968L20.857 17.2994ZM2.67858 16.0183H20.2165V13.1558C19.8462 13.3409 19.4283 13.406 19.0129 13.3359C18.5075 13.2459 18.0646 12.9656 17.7693 12.5427C17.5391 12.2099 17.424 11.8321 17.424 11.4417C17.424 10.8212 17.7318 10.2307 18.2372 9.86538L24.0848 5.77182L7.80308 5.76932L2.67858 16.0183Z" fill="black"/>
<path d="M19.3485 13.3599C19.2384 13.3599 19.1234 13.3474 19.0082 13.3274C18.5028 13.2373 18.0599 12.9571 17.7647 12.5342C17.5345 12.2014 17.4194 11.8236 17.4194 11.4332C17.4194 10.8127 17.7271 10.2222 18.2326 9.85684L30.7363 1.11447C30.954 0.961842 31.2492 0.961842 31.4719 1.11447L43.9705 9.85684C44.8288 10.4724 45.0415 11.6684 44.4434 12.5342C44.0856 13.0471 43.4951 13.3474 42.8671 13.3474C42.4642 13.3474 42.0789 13.2248 41.7586 12.9946L31.1067 5.53781L20.4472 12.9991C20.1194 13.2293 19.7365 13.3519 19.3462 13.3519L19.3485 13.3599ZM31.1041 2.42518L18.9713 10.9126C18.8036 11.0352 18.701 11.2329 18.701 11.4381C18.701 11.5732 18.7386 11.7008 18.8161 11.8084C18.9112 11.9435 19.0588 12.0386 19.2265 12.0711C19.3991 12.0961 19.5668 12.0636 19.7069 11.961L30.7316 4.24163C30.9493 4.08899 31.2445 4.08899 31.4672 4.24163L42.4919 11.961C42.7621 12.1537 43.1825 12.0886 43.3876 11.8009C43.5928 11.5056 43.5228 11.1103 43.2275 10.9051L31.1017 2.42538L31.1041 2.42518Z" fill="black"/>
<path d="M60.5702 17.3017H41.3533C41.0005 17.3017 40.7128 17.014 40.7128 16.6612V11.947C40.7128 11.7093 40.8479 11.4916 41.0581 11.3765C41.2683 11.2664 41.526 11.2865 41.7237 11.4216L42.4993 11.9671C42.7696 12.1597 43.1899 12.0947 43.3951 11.8069C43.6003 11.5117 43.5302 11.1163 43.235 10.9112L35.7282 5.65908C35.498 5.49894 35.4005 5.21119 35.4855 4.94095C35.5681 4.67071 35.8183 4.49306 36.0936 4.49306H54.8101C55.0528 4.49306 55.2705 4.62818 55.3806 4.84586L61.1456 16.376C61.2482 16.5736 61.2357 16.8113 61.1206 16.9965C61.0055 17.1817 60.8003 17.2968 60.5751 17.2968L60.5702 17.3017ZM41.9939 16.0206H59.5318L54.4073 5.77166H38.1179L43.9655 9.86522C44.8237 10.4808 45.0364 11.6768 44.4384 12.5426C44.0806 13.0555 43.49 13.3558 42.862 13.3558C42.5543 13.3558 42.254 13.2857 41.9913 13.1506V16.0131L41.9939 16.0206Z" fill="black"/>
<path d="M20.8574 34.5944H4.2028C3.84999 34.5944 3.56224 34.3066 3.56224 33.9538V16.6587C3.56224 16.3059 3.84999 16.0181 4.2028 16.0181H20.8574C21.2102 16.0181 21.4979 16.3059 21.4979 16.6587V33.9538C21.4979 34.3066 21.2102 34.5944 20.8574 34.5944ZM4.84336 33.3133H20.2168V17.2993H4.84336V33.3133Z" fill="black"/>
<path d="M58.0099 34.5944H41.3553C41.0025 34.5944 40.7147 34.3066 40.7147 33.9538V16.6587C40.7147 16.3059 41.0025 16.0181 41.3553 16.0181H58.0099C58.3627 16.0181 58.6504 16.3059 58.6504 16.6587V33.9538C58.6504 34.3066 58.3627 34.5944 58.0099 34.5944ZM41.9959 33.3133H57.3693V17.2993H41.9959V33.3133Z" fill="black"/>
<path d="M41.9959 41H20.2168C19.864 41 19.5763 40.7122 19.5763 40.3594V37.7972C19.5763 37.4444 19.864 37.1566 20.2168 37.1566H41.9959C42.3487 37.1566 42.6364 37.4444 42.6364 37.7972V40.3594C42.6364 40.7122 42.3487 41 41.9959 41ZM20.8574 39.7189H41.3553V38.4378H20.8574V39.7189Z" fill="black"/>
<path d="M60.5721 37.1566H41.3553C41.0025 37.1566 40.7147 36.8689 40.7147 36.5161V33.9538C40.7147 33.601 41.0025 33.3133 41.3553 33.3133H60.5721C60.9249 33.3133 61.2127 33.601 61.2127 33.9538V36.5161C61.2127 36.8689 60.9249 37.1566 60.5721 37.1566ZM41.9959 35.8755H59.9316V34.5944H41.9959V35.8755Z" fill="black"/>
<path d="M20.8574 37.1566H1.64056C1.28775 37.1566 1 36.8689 1 36.5161V33.9538C1 33.601 1.28775 33.3133 1.64056 33.3133H20.8574C21.2102 33.3133 21.4979 33.601 21.4979 33.9538V36.5161C21.4979 36.8689 21.2102 37.1566 20.8574 37.1566ZM2.28112 35.8755H20.2168V34.5944H2.28112V35.8755Z" fill="black"/>
<path d="M35.5903 38.4378H26.6224C26.2696 38.4378 25.9819 38.15 25.9819 37.7972V22.4237C25.9819 22.0709 26.2696 21.7832 26.6224 21.7832H35.5903C35.9431 21.7832 36.2308 22.0709 36.2308 22.4237V37.7972C36.2308 38.15 35.9431 38.4378 35.5903 38.4378ZM27.263 37.1566H34.9497V23.0643H27.263V37.1566Z" fill="black"/>
<path d="M12.5301 29.4699H9.32728C8.97448 29.4699 8.68672 29.1822 8.68672 28.8294V22.4237C8.68672 22.0709 8.97448 21.7832 9.32728 21.7832H12.5301C12.8829 21.7832 13.1706 22.0709 13.1706 22.4237V28.8294C13.1706 29.1822 12.8829 29.4699 12.5301 29.4699ZM9.96785 28.1888H11.8895V23.0643H9.96785V28.1888Z" fill="black"/>
<path d="M15.7329 29.4699H12.5301C12.1773 29.4699 11.8895 29.1822 11.8895 28.8294V22.4237C11.8895 22.0709 12.1773 21.7832 12.5301 21.7832H15.7329C16.0857 21.7832 16.3734 22.0709 16.3734 22.4237V28.8294C16.3734 29.1822 16.0857 29.4699 15.7329 29.4699ZM13.1706 28.1888H15.0923V23.0643H13.1706V28.1888Z" fill="black"/>
<path d="M49.6826 29.4699H46.4798C46.127 29.4699 45.8392 29.1822 45.8392 28.8294V22.4237C45.8392 22.0709 46.127 21.7832 46.4798 21.7832H49.6826C50.0354 21.7832 50.3232 22.0709 50.3232 22.4237V28.8294C50.3232 29.1822 50.0354 29.4699 49.6826 29.4699ZM47.1203 28.1888H49.042V23.0643H47.1203V28.1888Z" fill="black"/>
<path d="M41.3553 38.3378H20.8574V38.5378H41.3553V38.3378ZM50.3232 28.1888H50.1231V28.3888H50.3232V28.1888ZM52.2448 28.1888V28.3888H52.4448V28.1888H52.2448ZM52.2448 23.0643H52.4448V22.8643H52.2448V23.0643ZM50.3232 23.0643V22.8643H50.1231V23.0643H50.3232ZM41.3553 38.4378V38.2378H41.1553V38.4378H41.3553ZM20.8574 38.4378H21.0574V38.2378H20.8574V38.4378ZM20.4921 11.4194L20.3773 11.2555L20.3763 11.2563L20.4921 11.4194ZM30.2279 4.60315L30.3426 4.76699L30.3431 4.76665L30.2279 4.60315ZM31.9845 4.60315L31.8638 4.76279L31.8698 4.76699L31.9845 4.60315ZM41.7204 11.4194L41.8362 11.2563L41.8351 11.2555L41.7204 11.4194ZM40.7147 37.1566V37.3566H40.9147V37.1566H40.7147ZM40.7147 12.2773H40.9147V12.1731L40.8294 12.1134L40.7147 12.2773ZM31.4138 5.76917L31.5285 5.60531L31.4768 5.56917H31.4138V5.76917ZM30.7933 5.76917V5.56917H30.7302L30.6786 5.60531L30.7933 5.76917ZM21.4923 12.2773L21.3777 12.1134L21.2923 12.1731V12.2773H21.4923ZM21.4923 37.1566H21.2923V37.3566H21.4923V37.1566ZM29.9847 5.32316L29.7934 5.3816L29.7936 5.3821L29.9847 5.32316ZM30.2274 4.60503L30.3416 4.76921L30.3418 4.76906L30.2274 4.60503ZM30.7403 4.24722L30.8548 4.41125L30.8552 4.41097L30.7403 4.24722ZM31.476 4.24722L31.5904 4.08318L31.589 4.08225L31.476 4.24722ZM31.9889 4.60503L31.8745 4.76906L31.8747 4.76921L31.9889 4.60503ZM32.2316 5.32316L32.0408 5.2631L32.0403 5.26471L32.2316 5.32316ZM20.857 17.2994V17.4994H21.2616L21.0159 17.178L20.857 17.2994ZM1.09475 16.9992L1.26461 16.8936L1.26461 16.8936L1.09475 16.9992ZM1.06973 16.3786L1.24727 16.4708L1.24864 16.468L1.06973 16.3786ZM6.83477 4.84086L6.6563 4.75059L6.65586 4.75147L6.83477 4.84086ZM26.7298 4.93595L26.9211 4.8775L26.921 4.877L26.7298 4.93595ZM26.4871 5.65408L26.3729 5.4899L26.3724 5.49023L26.4871 5.65408ZM18.9733 10.9137L18.8586 10.7498L18.8553 10.7522L18.9733 10.9137ZM18.8182 11.8094L18.9818 11.6943L18.9804 11.6925L18.8182 11.8094ZM19.2286 12.0722L19.1904 12.2687L19.1999 12.2701L19.2286 12.0722ZM19.709 11.9621L19.5939 11.7984L19.5908 11.8007L19.709 11.9621ZM20.4846 11.4166L20.3718 11.2515L20.3696 11.253L20.4846 11.4166ZM21.1502 11.3716L21.2431 11.1944L21.2414 11.1935L21.1502 11.3716ZM20.855 17.2968V17.0968H20.4504L20.6961 17.4182L20.855 17.2968ZM2.67858 16.0183L2.49969 15.9289L2.35497 16.2183H2.67858V16.0183ZM20.2165 16.0183V16.2183H20.4165V16.0183H20.2165ZM20.2165 13.1558H20.4165V12.8322L20.127 12.9769L20.2165 13.1558ZM19.0129 13.3359L18.9778 13.5328L18.9797 13.5332L19.0129 13.3359ZM17.7693 12.5427L17.6049 12.6565L17.6054 12.6572L17.7693 12.5427ZM18.2372 9.86538L18.1225 9.70152L18.1201 9.70329L18.2372 9.86538ZM24.0848 5.77182L24.1995 5.93566L24.7192 5.57192L24.0849 5.57182L24.0848 5.77182ZM7.80308 5.76932L7.80311 5.56932L7.67949 5.5693L7.6242 5.67987L7.80308 5.76932ZM19.3485 13.3599V13.5599H19.6165L19.5403 13.3031L19.3485 13.3599ZM19.0082 13.3274L18.9732 13.5243L18.974 13.5244L19.0082 13.3274ZM17.7647 12.5342L17.6002 12.648L17.6007 12.6487L17.7647 12.5342ZM18.2326 9.85684L18.1179 9.69291L18.1154 9.69475L18.2326 9.85684ZM30.7363 1.11447L30.8509 1.27838L30.8511 1.27823L30.7363 1.11447ZM31.4719 1.11447L31.5866 0.95058L31.585 0.949509L31.4719 1.11447ZM43.9705 9.85684L44.0871 9.69431L44.0852 9.69296L43.9705 9.85684ZM44.4434 12.5342L44.6075 12.6486L44.608 12.6479L44.4434 12.5342ZM41.7586 12.9946L41.8753 12.8322L41.8733 12.8307L41.7586 12.9946ZM31.1067 5.53781L31.2214 5.37397L31.1067 5.29368L30.992 5.37396L31.1067 5.53781ZM20.4472 12.9991L20.3325 12.8352L20.3322 12.8354L20.4472 12.9991ZM19.3462 13.3519V13.1519H19.0782L19.1544 13.4087L19.3462 13.3519ZM31.1041 2.42518L31.2188 2.58906L31.8279 2.16292L31.0872 2.2259L31.1041 2.42518ZM18.9713 10.9126L18.8566 10.7487L18.8532 10.7512L18.9713 10.9126ZM18.8161 11.8084L18.9797 11.6933L18.9784 11.6914L18.8161 11.8084ZM19.2265 12.0711L19.1883 12.2677L19.1978 12.2691L19.2265 12.0711ZM19.7069 11.961L19.5922 11.7972L19.5887 11.7997L19.7069 11.961ZM30.7316 4.24163L30.8463 4.40546L30.8464 4.40539L30.7316 4.24163ZM31.4672 4.24163L31.5819 4.07779L31.5803 4.07666L31.4672 4.24163ZM42.4919 11.961L42.608 11.7982L42.6066 11.7972L42.4919 11.961ZM43.3876 11.8009L43.5505 11.917L43.5519 11.915L43.3876 11.8009ZM43.2275 10.9051L43.1129 11.069L43.1134 11.0694L43.2275 10.9051ZM31.1017 2.42538L31.0848 2.2261L30.5346 2.27287L30.9871 2.58928L31.1017 2.42538ZM60.5702 17.3017V17.5017H60.6531L60.7117 17.443L60.5702 17.3017ZM41.0581 11.3765L40.9653 11.1994L40.962 11.2011L41.0581 11.3765ZM41.7237 11.4216L41.8388 11.258L41.8365 11.2565L41.7237 11.4216ZM42.4993 11.9671L42.6155 11.8042L42.6144 11.8035L42.4993 11.9671ZM43.3951 11.8069L43.558 11.923L43.5593 11.9211L43.3951 11.8069ZM43.235 10.9112L43.1203 11.075L43.1208 11.0754L43.235 10.9112ZM35.7282 5.65908L35.8429 5.49521L35.8424 5.4949L35.7282 5.65908ZM35.4855 4.94095L35.6763 5.00101L35.6768 4.99939L35.4855 4.94095ZM55.3806 4.84586L55.5595 4.75642L55.5591 4.7556L55.3806 4.84586ZM61.1456 16.376L60.9667 16.4654L60.9681 16.4681L61.1456 16.376ZM61.1206 16.9965L61.2905 17.1021V17.1021L61.1206 16.9965ZM60.5751 17.2968V17.0968H60.4922L60.4336 17.1555L60.5751 17.2968ZM41.9939 16.0206L41.8052 16.087L41.8522 16.2206H41.9939V16.0206ZM59.5318 16.0206V16.2206H59.8554L59.7107 15.9312L59.5318 16.0206ZM54.4073 5.77166L54.5862 5.68222L54.5309 5.57166H54.4073V5.77166ZM38.1179 5.77166V5.57166H37.4834L38.0032 5.9355L38.1179 5.77166ZM43.9655 9.86522L44.0821 9.70269L44.0802 9.70138L43.9655 9.86522ZM44.4384 12.5426L44.6024 12.657L44.603 12.6562L44.4384 12.5426ZM41.9913 13.1506L42.0827 12.9727L41.7913 12.8228V13.1506H41.9913ZM41.9913 16.0131H41.7913V16.0473L41.8026 16.0795L41.9913 16.0131ZM4.84336 33.3133H4.64336V33.5133H4.84336V33.3133ZM20.2168 33.3133V33.5133H20.4168V33.3133H20.2168ZM20.2168 17.2993H20.4168V17.0993H20.2168V17.2993ZM4.84336 17.2993V17.0993H4.64336V17.2993H4.84336ZM41.9959 33.3133H41.7959V33.5133H41.9959V33.3133ZM57.3693 33.3133V33.5133H57.5693V33.3133H57.3693ZM57.3693 17.2993H57.5693V17.0993H57.3693V17.2993ZM41.9959 17.2993V17.0993H41.7959V17.2993H41.9959ZM20.8574 39.7189H20.6574V39.9189H20.8574V39.7189ZM41.3553 39.7189V39.9189H41.5553V39.7189H41.3553ZM41.9959 35.8755H41.7959V36.0755H41.9959V35.8755ZM59.9316 35.8755V36.0755H60.1316V35.8755H59.9316ZM59.9316 34.5944H60.1316V34.3944H59.9316V34.5944ZM41.9959 34.5944V34.3944H41.7959V34.5944H41.9959ZM2.28112 35.8755H2.08112V36.0755H2.28112V35.8755ZM20.2168 35.8755V36.0755H20.4168V35.8755H20.2168ZM20.2168 34.5944H20.4168V34.3944H20.2168V34.5944ZM2.28112 34.5944V34.3944H2.08112V34.5944H2.28112ZM27.263 37.1566H27.063V37.3566H27.263V37.1566ZM34.9497 37.1566V37.3566H35.1497V37.1566H34.9497ZM34.9497 23.0643H35.1497V22.8643H34.9497V23.0643ZM27.263 23.0643V22.8643H27.063V23.0643H27.263ZM9.96785 28.1888H9.76785V28.3888H9.96785V28.1888ZM11.8895 28.1888V28.3888H12.0895V28.1888H11.8895ZM11.8895 23.0643H12.0895V22.8643H11.8895V23.0643ZM9.96785 23.0643V22.8643H9.76785V23.0643H9.96785ZM13.1706 28.1888H12.9706V28.3888H13.1706V28.1888ZM15.0923 28.1888V28.3888H15.2923V28.1888H15.0923ZM15.0923 23.0643H15.2923V22.8643H15.0923V23.0643ZM13.1706 23.0643V22.8643H12.9706V23.0643H13.1706ZM47.1203 28.1888H46.9203V28.3888H47.1203V28.1888ZM49.042 28.1888V28.3888H49.242V28.1888H49.042ZM49.042 23.0643H49.242V22.8643H49.042V23.0643ZM47.1203 23.0643V22.8643H46.9203V23.0643H47.1203ZM52.8854 29.2699H49.6826V29.6699H52.8854V29.2699ZM49.6826 29.2699C49.4402 29.2699 49.242 29.0717 49.242 28.8294H48.842C48.842 29.2926 49.2193 29.6699 49.6826 29.6699V29.2699ZM49.242 28.8294V22.4237H48.842V28.8294H49.242ZM49.242 22.4237C49.242 22.1814 49.4402 21.9832 49.6826 21.9832V21.5832C49.2193 21.5832 48.842 21.9605 48.842 22.4237H49.242ZM49.6826 21.9832H52.8854V21.5832H49.6826V21.9832ZM52.8854 21.9832C53.1277 21.9832 53.326 22.1814 53.326 22.4237H53.726C53.726 21.9605 53.3487 21.5832 52.8854 21.5832V21.9832ZM53.326 22.4237V28.8294H53.726V22.4237H53.326ZM53.326 28.8294C53.326 29.0717 53.1277 29.2699 52.8854 29.2699V29.6699C53.3487 29.6699 53.726 29.2926 53.726 28.8294H53.326ZM50.3232 28.3888H52.2448V27.9888H50.3232V28.3888ZM52.4448 28.1888V23.0643H52.0448V28.1888H52.4448ZM52.2448 22.8643H50.3232V23.2643H52.2448V22.8643ZM50.1231 23.0643V28.1888H50.5232V23.0643H50.1231ZM31.1063 17.7398C29.0974 17.7398 27.463 16.1054 27.463 14.0965H27.063C27.063 16.3263 28.8765 18.1398 31.1063 18.1398V17.7398ZM27.463 14.0965C27.463 12.0876 29.0974 10.4531 31.1063 10.4531V10.0531C28.8765 10.0531 27.063 11.8666 27.063 14.0965H27.463ZM31.1063 10.4531C33.1152 10.4531 34.7497 12.0876 34.7497 14.0965H35.1497C35.1497 11.8666 33.3362 10.0531 31.1063 10.0531V10.4531ZM34.7497 14.0965C34.7497 16.1054 33.1152 17.7398 31.1063 17.7398V18.1398C33.3362 18.1398 35.1497 16.3263 35.1497 14.0965H34.7497ZM31.1063 11.3342C29.5797 11.3342 28.3441 12.5698 28.3441 14.0965H28.7441C28.7441 12.7907 29.8006 11.7342 31.1063 11.7342V11.3342ZM28.3441 14.0965C28.3441 15.6231 29.5797 16.8587 31.1063 16.8587V16.4587C29.8006 16.4587 28.7441 15.4022 28.7441 14.0965H28.3441ZM31.1063 16.8587C32.633 16.8587 33.8686 15.6231 33.8686 14.0965H33.4686C33.4686 15.4022 32.4121 16.4587 31.1063 16.4587V16.8587ZM33.8686 14.0965C33.8686 12.5698 32.633 11.3342 31.1063 11.3342V11.7342C32.4121 11.7342 33.4686 12.7907 33.4686 14.0965H33.8686ZM20.8574 38.2378C20.615 38.2378 20.4168 38.0396 20.4168 37.7972H20.0168C20.0168 38.2605 20.3941 38.6378 20.8574 38.6378V38.2378ZM20.4168 37.7972V11.9448H20.0168V37.7972H20.4168ZM20.4168 11.9448C20.4168 11.8017 20.4861 11.6689 20.6079 11.5824L20.3763 11.2563C20.1527 11.4151 20.0168 11.6676 20.0168 11.9448H20.4168ZM20.6068 11.5832L30.3426 4.76699L30.1132 4.43932L20.3773 11.2555L20.6068 11.5832ZM30.3431 4.76665C30.418 4.71389 30.505 4.68805 30.5933 4.68805V4.28805C30.4263 4.28805 30.258 4.33729 30.1127 4.43965L30.3431 4.76665ZM30.5933 4.68805H31.6192V4.28805H30.5933V4.68805ZM31.6192 4.68805C31.7176 4.68805 31.8011 4.71521 31.8639 4.76268L32.1051 4.44363C31.9627 4.33596 31.791 4.28805 31.6192 4.28805V4.68805ZM31.8698 4.76699L41.6057 11.5832L41.8351 11.2555L32.0992 4.43932L31.8698 4.76699ZM41.6046 11.5824C41.7267 11.6691 41.7956 11.7996 41.7956 11.9448H42.1956C42.1956 11.6646 42.0594 11.4148 41.8362 11.2563L41.6046 11.5824ZM41.7956 11.9448V37.7972H42.1956V11.9448H41.7956ZM41.7956 37.7972C41.7956 38.0397 41.5976 38.2378 41.3553 38.2378V38.6378C41.8187 38.6378 42.1956 38.2604 42.1956 37.7972H41.7956ZM40.9147 37.1566V12.2773H40.5147V37.1566H40.9147ZM40.8294 12.1134L31.5285 5.60531L31.2991 5.93304L40.6001 12.4411L40.8294 12.1134ZM31.4138 5.56917H30.7933V5.96917H31.4138V5.56917ZM30.6786 5.60531L21.3777 12.1134L21.607 12.4411L30.9079 5.93304L30.6786 5.60531ZM21.2923 12.2773V37.1566H21.6923V12.2773H21.2923ZM30.5927 5.57105C30.3977 5.57105 30.2325 5.44813 30.1758 5.26421L29.7936 5.3821C29.902 5.73366 30.2222 5.97105 30.5927 5.97105V5.57105ZM30.1759 5.26471C30.1179 5.07461 30.1852 4.87802 30.3416 4.76921L30.1132 4.44085C29.8092 4.65232 29.6863 5.03122 29.7934 5.3816L30.1759 5.26471ZM30.3418 4.76906L30.8548 4.41125L30.6259 4.08318L30.113 4.44099L30.3418 4.76906ZM30.8552 4.41097C31.0032 4.3072 31.2076 4.30572 31.3629 4.41218L31.589 4.08225C31.299 3.88344 30.9129 3.88196 30.6255 4.08346L30.8552 4.41097ZM31.3615 4.41125L31.8745 4.76906L32.1033 4.44099L31.5904 4.08318L31.3615 4.41125ZM31.8747 4.76921C32.0323 4.87886 32.0999 5.07543 32.0408 5.2631L32.4224 5.38321C32.5335 5.03041 32.4059 4.65147 32.1031 4.44084L31.8747 4.76921ZM32.0403 5.26471C31.9842 5.44855 31.8133 5.57105 31.6236 5.57105V5.97105C31.9843 5.97105 32.3139 5.73825 32.4229 5.3816L32.0403 5.26471ZM20.857 17.0994H1.64023V17.4994H20.857V17.0994ZM1.64023 17.0994C1.48358 17.0994 1.3429 17.0195 1.26461 16.8936L0.924893 17.1048C1.07679 17.3491 1.34649 17.4994 1.64023 17.4994V17.0994ZM1.26461 16.8936C1.18595 16.7671 1.17787 16.6044 1.24725 16.4708L0.892213 16.2865C0.756411 16.5482 0.773343 16.861 0.924895 17.1048L1.26461 16.8936ZM1.24864 16.468L7.01368 4.93026L6.65586 4.75147L0.89082 16.2892L1.24864 16.468ZM7.01324 4.93113C7.08933 4.78068 7.24305 4.68805 7.40527 4.68805V4.28805C7.09207 4.28805 6.80041 4.46566 6.6563 4.7506L7.01324 4.93113ZM7.40527 4.68805H26.1218V4.28805H7.40527V4.68805ZM26.1218 4.68805C26.3168 4.68805 26.482 4.81097 26.5387 4.99489L26.921 4.877C26.8125 4.52545 26.4923 4.28805 26.1218 4.28805V4.68805ZM26.5386 4.99439C26.5967 5.18449 26.5293 5.38108 26.3729 5.4899L26.6013 5.81826C26.9053 5.60678 27.0282 5.22788 26.9211 4.8775L26.5386 4.99439ZM26.3724 5.49023L18.8587 10.7498L19.088 11.0775L26.6018 5.81792L26.3724 5.49023ZM18.8553 10.7522C18.6377 10.9114 18.5031 11.1682 18.5031 11.4391H18.9031C18.9031 11.2996 18.9737 11.1612 19.0914 11.0751L18.8553 10.7522ZM18.5031 11.4391C18.5031 11.612 18.5515 11.7814 18.656 11.9264L18.9804 11.6925C18.9298 11.6222 18.9031 11.5365 18.9031 11.4391H18.5031ZM18.6546 11.9245C18.7802 12.103 18.9733 12.2264 19.1905 12.2685L19.2667 11.8758C19.1485 11.8529 19.0464 11.7862 18.9818 11.6943L18.6546 11.9245ZM19.1999 12.2701C19.4163 12.3015 19.6386 12.2615 19.8271 12.1234L19.5908 11.8007C19.4991 11.8678 19.3861 11.8929 19.2573 11.8742L19.1999 12.2701ZM19.824 12.1257L20.5997 11.5802L20.3696 11.253L19.5939 11.7985L19.824 12.1257ZM20.5975 11.5817C20.7358 11.4872 20.9153 11.476 21.0591 11.5496L21.2414 11.1935C20.9647 11.0519 20.6288 11.0758 20.3718 11.2515L20.5975 11.5817ZM21.0574 11.5487C21.2026 11.6248 21.2955 11.7748 21.2955 11.9421H21.6955C21.6955 11.6239 21.5182 11.3385 21.2431 11.1944L21.0574 11.5487ZM21.2955 11.9421V16.6562H21.6955V11.9421H21.2955ZM21.2955 16.6562C21.2955 16.8985 21.0973 17.0968 20.855 17.0968V17.4968C21.3183 17.4968 21.6955 17.1195 21.6955 16.6562H21.2955ZM20.6961 17.4182L20.6981 17.4209L21.0159 17.178L21.0139 17.1753L20.6961 17.4182ZM2.67858 16.2183H20.2165V15.8183H2.67858V16.2183ZM20.4165 16.0183V13.1558H20.0165V16.0183H20.4165ZM20.127 12.9769C19.7942 13.1433 19.4192 13.2016 19.0462 13.1387L18.9797 13.5332C19.4373 13.6104 19.8981 13.5386 20.3059 13.3347L20.127 12.9769ZM19.048 13.139C18.5942 13.0582 18.1979 12.8072 17.9333 12.4282L17.6054 12.6572C17.9313 13.1241 18.4208 13.4336 18.9778 13.5328L19.048 13.139ZM17.9338 12.429C17.7269 12.1298 17.624 11.7917 17.624 11.4417H17.224C17.224 11.8725 17.3514 12.2901 17.6049 12.6565L17.9338 12.429ZM17.624 11.4417C17.624 10.8869 17.8998 10.3561 18.3544 10.0275L18.1201 9.70329C17.5638 10.1053 17.224 10.7555 17.224 11.4417H17.624ZM18.3519 10.0292L24.1995 5.93566L23.9702 5.60798L18.1225 9.70154L18.3519 10.0292ZM24.0849 5.57182L7.80311 5.56932L7.80305 5.96932L24.0848 5.97182L24.0849 5.57182ZM7.6242 5.67987L2.49969 15.9289L2.85746 16.1078L7.98197 5.85876L7.6242 5.67987ZM19.3485 13.1599C19.253 13.1599 19.1498 13.149 19.0425 13.1304L18.974 13.5244C19.0969 13.5458 19.2239 13.5599 19.3485 13.5599V13.1599ZM19.0433 13.1305C18.5895 13.0496 18.1932 12.7986 17.9287 12.4197L17.6007 12.6487C17.9266 13.1155 18.4161 13.425 18.9732 13.5243L19.0433 13.1305ZM17.9291 12.4204C17.7222 12.1212 17.6194 11.7831 17.6194 11.4332H17.2194C17.2194 11.864 17.3467 12.2816 17.6002 12.648L17.9291 12.4204ZM17.6194 11.4332C17.6194 10.8783 17.8951 10.3475 18.3497 10.0189L18.1154 9.69475C17.5592 10.0968 17.2194 10.747 17.2194 11.4332H17.6194ZM18.3472 10.0208L30.8509 1.27838L30.6217 0.950565L18.118 9.69293L18.3472 10.0208ZM30.8511 1.27823C30.9991 1.17446 31.2035 1.17298 31.3588 1.27944L31.585 0.949509C31.295 0.750701 30.9088 0.749223 30.6215 0.950717L30.8511 1.27823ZM31.3573 1.27836L43.8559 10.0207L44.0852 9.69296L31.5865 0.950587L31.3573 1.27836ZM43.854 10.0194C44.6245 10.572 44.8143 11.6455 44.2789 12.4205L44.608 12.6479C45.2687 11.6914 45.033 10.3728 44.0871 9.69432L43.854 10.0194ZM44.2794 12.4198C43.9601 12.8776 43.4316 13.1474 42.8671 13.1474V13.5474C43.5586 13.5474 44.2112 13.2167 44.6075 12.6486L44.2794 12.4198ZM42.8671 13.1474C42.5051 13.1474 42.1608 13.0374 41.8753 12.8322L41.6419 13.157C41.9969 13.4122 42.4233 13.5474 42.8671 13.5474V13.1474ZM41.8733 12.8307L31.2214 5.37397L30.992 5.70166L41.6439 13.1584L41.8733 12.8307ZM30.992 5.37396L20.3325 12.8352L20.5618 13.1629L31.2214 5.70166L30.992 5.37396ZM20.3322 12.8354C20.0372 13.0426 19.6943 13.1519 19.3462 13.1519V13.5519C19.7787 13.5519 20.2015 13.4159 20.5621 13.1627L20.3322 12.8354ZM19.1544 13.4087L19.1568 13.4168L19.5403 13.3031L19.5379 13.295L19.1544 13.4087ZM30.9895 2.2613L18.8566 10.7487L19.0859 11.0765L31.2188 2.58906L30.9895 2.2613ZM18.8532 10.7512C18.6356 10.9103 18.501 11.1672 18.501 11.4381H18.901C18.901 11.2986 18.9716 11.1601 19.0893 11.074L18.8532 10.7512ZM18.501 11.4381C18.501 11.6109 18.5494 11.7804 18.6539 11.9254L18.9784 11.6914C18.9277 11.6212 18.901 11.5355 18.901 11.4381H18.501ZM18.6526 11.9235C18.7781 12.1019 18.9712 12.2253 19.1884 12.2675L19.2646 11.8748C19.1464 11.8519 19.0443 11.7851 18.9797 11.6933L18.6526 11.9235ZM19.1978 12.2691C19.4142 12.3004 19.6365 12.2604 19.825 12.1224L19.5887 11.7997C19.497 11.8668 19.384 11.8919 19.2552 11.8732L19.1978 12.2691ZM19.8216 12.1249L30.8463 4.40546L30.6169 4.0778L19.5922 11.7972L19.8216 12.1249ZM30.8464 4.40539C30.9944 4.30161 31.1988 4.30014 31.3541 4.40659L31.5803 4.07666C31.2902 3.87785 30.9041 3.87638 30.6168 4.07787L30.8464 4.40539ZM31.3525 4.40546L42.3772 12.1249L42.6066 11.7972L31.5819 4.0778L31.3525 4.40546ZM42.3758 12.1239C42.737 12.3814 43.282 12.2936 43.5505 11.917L43.2248 11.6848C43.083 11.8837 42.7872 11.926 42.608 11.7982L42.3758 12.1239ZM43.5519 11.915C43.8197 11.5296 43.7281 11.0094 43.3416 10.7409L43.1134 11.0694C43.3174 11.2111 43.3659 11.4817 43.2234 11.6868L43.5519 11.915ZM43.3421 10.7412L31.2163 2.26148L30.9871 2.58928L43.1129 11.069L43.3421 10.7412ZM31.1186 2.62466L31.1211 2.62446L31.0872 2.2259L31.0848 2.2261L31.1186 2.62466ZM60.5702 17.1017H41.3533V17.5017H60.5702V17.1017ZM41.3533 17.1017C41.111 17.1017 40.9128 16.9035 40.9128 16.6612H40.5128C40.5128 17.1245 40.8901 17.5017 41.3533 17.5017V17.1017ZM40.9128 16.6612V11.947H40.5128V16.6612H40.9128ZM40.9128 11.947C40.9128 11.7862 41.0046 11.6339 41.1541 11.552L40.962 11.2011C40.6912 11.3494 40.5128 11.6324 40.5128 11.947H40.9128ZM41.1509 11.5537C41.2923 11.4796 41.4711 11.4912 41.6108 11.5867L41.8365 11.2565C41.5809 11.0817 41.2442 11.0533 40.9653 11.1994L41.1509 11.5537ZM41.6086 11.5852L42.3843 12.1307L42.6144 11.8035L41.8387 11.258L41.6086 11.5852ZM42.3832 12.1299C42.7445 12.3875 43.2894 12.2997 43.558 11.923L43.2323 11.6908C43.0905 11.8897 42.7947 11.932 42.6155 11.8042L42.3832 12.1299ZM43.5593 11.9211C43.8272 11.5356 43.7356 11.0155 43.3491 10.7469L43.1208 11.0754C43.3249 11.2172 43.3734 11.4877 43.2309 11.6928L43.5593 11.9211ZM43.3496 10.7473L35.8429 5.49521L35.6136 5.82296L43.1203 11.075L43.3496 10.7473ZM35.8424 5.4949C35.6848 5.38524 35.6172 5.18868 35.6763 5.001L35.2948 4.88089C35.1837 5.2337 35.3112 5.61264 35.614 5.82326L35.8424 5.4949ZM35.6768 4.99939C35.733 4.81556 35.9038 4.69306 36.0936 4.69306V4.29306C35.7328 4.29306 35.4032 4.52586 35.2943 4.8825L35.6768 4.99939ZM36.0936 4.69306H54.8101V4.29306H36.0936V4.69306ZM54.8101 4.69306C54.9764 4.69306 55.1256 4.7849 55.2021 4.93613L55.5591 4.7556C55.4154 4.47146 55.1292 4.29306 54.8101 4.29306V4.69306ZM55.2017 4.93531L60.9668 16.4654L61.3245 16.2865L55.5595 4.75642L55.2017 4.93531ZM60.9681 16.4681C61.0375 16.6018 61.0294 16.7644 60.9508 16.8909L61.2905 17.1021C61.442 16.8583 61.459 16.5455 61.3232 16.2838L60.9681 16.4681ZM60.9508 16.8909C60.8725 17.0169 60.7318 17.0968 60.5751 17.0968V17.4968C60.8689 17.4968 61.1386 17.3465 61.2905 17.1021L60.9508 16.8909ZM60.4336 17.1555L60.4286 17.1605L60.7117 17.443L60.7167 17.438L60.4336 17.1555ZM41.9939 16.2206H59.5318V15.8206H41.9939V16.2206ZM59.7107 15.9312L54.5862 5.68222L54.2284 5.8611L59.3529 16.1101L59.7107 15.9312ZM54.4073 5.57166H38.1179V5.97166H54.4073V5.57166ZM38.0032 5.9355L43.8508 10.0291L44.0802 9.70138L38.2326 5.60781L38.0032 5.9355ZM43.8489 10.0277C44.6195 10.5804 44.8092 11.6538 44.2738 12.4289L44.603 12.6562C45.2637 11.6997 45.028 10.3811 44.0821 9.7027L43.8489 10.0277ZM44.2744 12.4282C43.955 12.886 43.4265 13.1558 42.862 13.1558V13.5558C43.5536 13.5558 44.2062 13.2251 44.6024 12.657L44.2744 12.4282ZM42.862 13.1558C42.5842 13.1558 42.3156 13.0925 42.0827 12.9727L41.8998 13.3285C42.1924 13.4789 42.5243 13.5558 42.862 13.5558V13.1558ZM41.7913 13.1506V16.0131H42.1913V13.1506H41.7913ZM41.8026 16.0795L41.8052 16.087L42.1826 15.9543L42.1799 15.9468L41.8026 16.0795ZM20.8574 34.3944H4.2028V34.7944H20.8574V34.3944ZM4.2028 34.3944C3.96045 34.3944 3.76224 34.1962 3.76224 33.9538H3.36224C3.36224 34.4171 3.73954 34.7944 4.2028 34.7944V34.3944ZM3.76224 33.9538V16.6587H3.36224V33.9538H3.76224ZM3.76224 16.6587C3.76224 16.4164 3.96045 16.2181 4.2028 16.2181V15.8181C3.73954 15.8181 3.36224 16.1954 3.36224 16.6587H3.76224ZM4.2028 16.2181H20.8574V15.8181H4.2028V16.2181ZM20.8574 16.2181C21.0997 16.2181 21.2979 16.4164 21.2979 16.6587H21.6979C21.6979 16.1954 21.3206 15.8181 20.8574 15.8181V16.2181ZM21.2979 16.6587V33.9538H21.6979V16.6587H21.2979ZM21.2979 33.9538C21.2979 34.1962 21.0997 34.3944 20.8574 34.3944V34.7944C21.3206 34.7944 21.6979 34.4171 21.6979 33.9538H21.2979ZM4.84336 33.5133H20.2168V33.1133H4.84336V33.5133ZM20.4168 33.3133V17.2993H20.0168V33.3133H20.4168ZM20.2168 17.0993H4.84336V17.4993H20.2168V17.0993ZM4.64336 17.2993V33.3133H5.04336V17.2993H4.64336ZM58.0099 34.3944H41.3553V34.7944H58.0099V34.3944ZM41.3553 34.3944C41.113 34.3944 40.9147 34.1962 40.9147 33.9538H40.5147C40.5147 34.4171 40.892 34.7944 41.3553 34.7944V34.3944ZM40.9147 33.9538V16.6587H40.5147V33.9538H40.9147ZM40.9147 16.6587C40.9147 16.4164 41.113 16.2181 41.3553 16.2181V15.8181C40.892 15.8181 40.5147 16.1954 40.5147 16.6587H40.9147ZM41.3553 16.2181H58.0099V15.8181H41.3553V16.2181ZM58.0099 16.2181C58.2522 16.2181 58.4504 16.4164 58.4504 16.6587H58.8504C58.8504 16.1954 58.4731 15.8181 58.0099 15.8181V16.2181ZM58.4504 16.6587V33.9538H58.8504V16.6587H58.4504ZM58.4504 33.9538C58.4504 34.1962 58.2522 34.3944 58.0099 34.3944V34.7944C58.4731 34.7944 58.8504 34.4171 58.8504 33.9538H58.4504ZM41.9959 33.5133H57.3693V33.1133H41.9959V33.5133ZM57.5693 33.3133V17.2993H57.1693V33.3133H57.5693ZM57.3693 17.0993H41.9959V17.4993H57.3693V17.0993ZM41.7959 17.2993V33.3133H42.1959V17.2993H41.7959ZM41.9959 40.8H20.2168V41.2H41.9959V40.8ZM20.2168 40.8C19.9745 40.8 19.7763 40.6018 19.7763 40.3594H19.3763C19.3763 40.8227 19.7535 41.2 20.2168 41.2V40.8ZM19.7763 40.3594V37.7972H19.3763V40.3594H19.7763ZM19.7763 37.7972C19.7763 37.5548 19.9745 37.3566 20.2168 37.3566V36.9566C19.7535 36.9566 19.3763 37.3339 19.3763 37.7972H19.7763ZM20.2168 37.3566H41.9959V36.9566H20.2168V37.3566ZM41.9959 37.3566C42.2382 37.3566 42.4364 37.5548 42.4364 37.7972H42.8364C42.8364 37.3339 42.4591 36.9566 41.9959 36.9566V37.3566ZM42.4364 37.7972V40.3594H42.8364V37.7972H42.4364ZM42.4364 40.3594C42.4364 40.6018 42.2382 40.8 41.9959 40.8V41.2C42.4591 41.2 42.8364 40.8227 42.8364 40.3594H42.4364ZM20.8574 39.9189H41.3553V39.5189H20.8574V39.9189ZM41.5553 39.7189V38.4378H41.1553V39.7189H41.5553ZM20.6574 38.4378V39.7189H21.0574V38.4378H20.6574ZM60.5721 36.9566H41.3553V37.3566H60.5721V36.9566ZM41.3553 36.9566C41.113 36.9566 40.9147 36.7584 40.9147 36.5161H40.5147C40.5147 36.9793 40.892 37.3566 41.3553 37.3566V36.9566ZM40.9147 36.5161V33.9538H40.5147V36.5161H40.9147ZM40.9147 33.9538C40.9147 33.7115 41.113 33.5133 41.3553 33.5133V33.1133C40.892 33.1133 40.5147 33.4906 40.5147 33.9538H40.9147ZM41.3553 33.5133H60.5721V33.1133H41.3553V33.5133ZM60.5721 33.5133C60.8145 33.5133 61.0127 33.7115 61.0127 33.9538H61.4127C61.4127 33.4906 61.0354 33.1133 60.5721 33.1133V33.5133ZM61.0127 33.9538V36.5161H61.4127V33.9538H61.0127ZM61.0127 36.5161C61.0127 36.7584 60.8145 36.9566 60.5721 36.9566V37.3566C61.0354 37.3566 61.4127 36.9793 61.4127 36.5161H61.0127ZM41.9959 36.0755H59.9316V35.6755H41.9959V36.0755ZM60.1316 35.8755V34.5944H59.7316V35.8755H60.1316ZM59.9316 34.3944H41.9959V34.7944H59.9316V34.3944ZM41.7959 34.5944V35.8755H42.1959V34.5944H41.7959ZM20.8574 36.9566H1.64056V37.3566H20.8574V36.9566ZM1.64056 36.9566C1.39821 36.9566 1.2 36.7584 1.2 36.5161H0.8C0.8 36.9793 1.1773 37.3566 1.64056 37.3566V36.9566ZM1.2 36.5161V33.9538H0.8V36.5161H1.2ZM1.2 33.9538C1.2 33.7115 1.39821 33.5133 1.64056 33.5133V33.1133C1.1773 33.1133 0.8 33.4906 0.8 33.9538H1.2ZM1.64056 33.5133H20.8574V33.1133H1.64056V33.5133ZM20.8574 33.5133C21.0997 33.5133 21.2979 33.7115 21.2979 33.9538H21.6979C21.6979 33.4906 21.3206 33.1133 20.8574 33.1133V33.5133ZM21.2979 33.9538V36.5161H21.6979V33.9538H21.2979ZM21.2979 36.5161C21.2979 36.7584 21.0997 36.9566 20.8574 36.9566V37.3566C21.3206 37.3566 21.6979 36.9793 21.6979 36.5161H21.2979ZM2.28112 36.0755H20.2168V35.6755H2.28112V36.0755ZM20.4168 35.8755V34.5944H20.0168V35.8755H20.4168ZM20.2168 34.3944H2.28112V34.7944H20.2168V34.3944ZM2.08112 34.5944V35.8755H2.48112V34.5944H2.08112ZM35.5903 38.2378H26.6224V38.6378H35.5903V38.2378ZM26.6224 38.2378C26.3801 38.2378 26.1819 38.0396 26.1819 37.7972H25.7819C25.7819 38.2605 26.1592 38.6378 26.6224 38.6378V38.2378ZM26.1819 37.7972V22.4237H25.7819V37.7972H26.1819ZM26.1819 22.4237C26.1819 22.1814 26.3801 21.9832 26.6224 21.9832V21.5832C26.1592 21.5832 25.7819 21.9605 25.7819 22.4237H26.1819ZM26.6224 21.9832H35.5903V21.5832H26.6224V21.9832ZM35.5903 21.9832C35.8326 21.9832 36.0308 22.1814 36.0308 22.4237H36.4308C36.4308 21.9605 36.0535 21.5832 35.5903 21.5832V21.9832ZM36.0308 22.4237V37.7972H36.4308V22.4237H36.0308ZM36.0308 37.7972C36.0308 38.0396 35.8326 38.2378 35.5903 38.2378V38.6378C36.0535 38.6378 36.4308 38.2605 36.4308 37.7972H36.0308ZM27.263 37.3566H34.9497V36.9566H27.263V37.3566ZM35.1497 37.1566V23.0643H34.7497V37.1566H35.1497ZM34.9497 22.8643H27.263V23.2643H34.9497V22.8643ZM27.063 23.0643V37.1566H27.463V23.0643H27.063ZM12.5301 29.2699H9.32728V29.6699H12.5301V29.2699ZM9.32728 29.2699C9.08493 29.2699 8.88672 29.0717 8.88672 28.8294H8.48672C8.48672 29.2926 8.86402 29.6699 9.32728 29.6699V29.2699ZM8.88672 28.8294V22.4237H8.48672V28.8294H8.88672ZM8.88672 22.4237C8.88672 22.1814 9.08493 21.9832 9.32728 21.9832V21.5832C8.86402 21.5832 8.48672 21.9605 8.48672 22.4237H8.88672ZM9.32728 21.9832H12.5301V21.5832H9.32728V21.9832ZM12.5301 21.9832C12.7724 21.9832 12.9706 22.1814 12.9706 22.4237H13.3706C13.3706 21.9605 12.9934 21.5832 12.5301 21.5832V21.9832ZM12.9706 22.4237V28.8294H13.3706V22.4237H12.9706ZM12.9706 28.8294C12.9706 29.0717 12.7724 29.2699 12.5301 29.2699V29.6699C12.9934 29.6699 13.3706 29.2926 13.3706 28.8294H12.9706ZM9.96785 28.3888H11.8895V27.9888H9.96785V28.3888ZM12.0895 28.1888V23.0643H11.6895V28.1888H12.0895ZM11.8895 22.8643H9.96785V23.2643H11.8895V22.8643ZM9.76785 23.0643V28.1888H10.1678V23.0643H9.76785ZM15.7329 29.2699H12.5301V29.6699H15.7329V29.2699ZM12.5301 29.2699C12.2877 29.2699 12.0895 29.0717 12.0895 28.8294H11.6895C11.6895 29.2926 12.0668 29.6699 12.5301 29.6699V29.2699ZM12.0895 28.8294V22.4237H11.6895V28.8294H12.0895ZM12.0895 22.4237C12.0895 22.1814 12.2877 21.9832 12.5301 21.9832V21.5832C12.0668 21.5832 11.6895 21.9605 11.6895 22.4237H12.0895ZM12.5301 21.9832H15.7329V21.5832H12.5301V21.9832ZM15.7329 21.9832C15.9752 21.9832 16.1734 22.1814 16.1734 22.4237H16.5734C16.5734 21.9605 16.1962 21.5832 15.7329 21.5832V21.9832ZM16.1734 22.4237V28.8294H16.5734V22.4237H16.1734ZM16.1734 28.8294C16.1734 29.0717 15.9752 29.2699 15.7329 29.2699V29.6699C16.1962 29.6699 16.5734 29.2926 16.5734 28.8294H16.1734ZM13.1706 28.3888H15.0923V27.9888H13.1706V28.3888ZM15.2923 28.1888V23.0643H14.8923V28.1888H15.2923ZM15.0923 22.8643H13.1706V23.2643H15.0923V22.8643ZM12.9706 23.0643V28.1888H13.3706V23.0643H12.9706ZM49.6826 29.2699H46.4798V29.6699H49.6826V29.2699ZM46.4798 29.2699C46.2374 29.2699 46.0392 29.0717 46.0392 28.8294H45.6392C45.6392 29.2926 46.0165 29.6699 46.4798 29.6699V29.2699ZM46.0392 28.8294V22.4237H45.6392V28.8294H46.0392ZM46.0392 22.4237C46.0392 22.1814 46.2374 21.9832 46.4798 21.9832V21.5832C46.0165 21.5832 45.6392 21.9605 45.6392 22.4237H46.0392ZM46.4798 21.9832H49.6826V21.5832H46.4798V21.9832ZM49.6826 21.9832C49.9249 21.9832 50.1231 22.1814 50.1231 22.4237H50.5232C50.5232 21.9605 50.1459 21.5832 49.6826 21.5832V21.9832ZM50.1231 22.4237V28.8294H50.5232V22.4237H50.1231ZM50.1231 28.8294C50.1231 29.0717 49.9249 29.2699 49.6826 29.2699V29.6699C50.1459 29.6699 50.5232 29.2926 50.5232 28.8294H50.1231ZM47.1203 28.3888H49.042V27.9888H47.1203V28.3888ZM49.242 28.1888V23.0643H48.842V28.1888H49.242ZM49.042 22.8643H47.1203V23.2643H49.042V22.8643ZM46.9203 23.0643V28.1888H47.3203V23.0643H46.9203ZM21.4923 37.3566H40.7147V36.9566H21.4923V37.3566ZM31.6236 5.57105H30.5927V5.97105H31.6236V5.57105Z" fill="black" mask="url(#path-1-outside-1_3_85)"/>
</svg>
