<svg width="48" height="42" viewBox="0 0 48 42" fill="none" xmlns="http://www.w3.org/2000/svg">
<path d="M44.5991 9.92004H30.4699C29.3076 9.92004 28.3434 10.784 28.1853 11.9033H18.0346V7.50347C19.1461 7.29132 19.9888 6.31232 19.9888 5.13999V3.40626C19.9888 2.07945 18.9094 1 17.5826 1H7.11794C5.79118 1 4.71181 2.07945 4.71181 3.40626V5.13999C4.71181 6.31234 5.55456 7.2914 6.666 7.50349V21.4045C5.55454 21.6166 4.71181 22.5956 4.71181 23.768V25.5017C4.71181 26.8285 5.7912 27.908 7.11794 27.908H17.5825C18.9094 27.908 19.9888 26.8285 19.9888 25.5017V23.768C19.9888 22.5956 19.146 21.6166 18.0346 21.4045V16.9101H28.1853C28.3434 18.0295 29.3076 18.8934 30.4699 18.8934H44.5991C45.8714 18.8934 46.9066 17.8582 46.9066 16.5857V12.2275C46.9066 10.9552 45.8715 9.92004 44.5991 9.92004ZM7.94846 21.3617V7.54625H16.7521V21.3617H7.94846ZM5.99427 5.13997V3.40623C5.99427 2.78657 6.49835 2.28244 7.11794 2.28244H17.5825C18.2022 2.28244 18.7063 2.78657 18.7063 3.40623V5.13997C18.7063 5.75963 18.2022 6.26376 17.5825 6.26376H7.11794C6.49835 6.26379 5.99427 5.75963 5.99427 5.13997ZM18.7064 23.768V25.5017C18.7064 26.1214 18.2022 26.6255 17.5826 26.6255H7.11794C6.49835 26.6255 5.99427 26.1214 5.99427 25.5017V23.768C5.99427 23.1483 6.49835 22.6442 7.11794 22.6442H17.5825C18.2022 22.6442 18.7064 23.1483 18.7064 23.768ZM18.0346 13.1858H28.1624V15.6276H18.0346V13.1858ZM45.6241 16.5857C45.6241 17.151 45.1643 17.6109 44.5991 17.6109H30.4699C29.9047 17.6109 29.4448 17.151 29.4448 16.5857V12.2275C29.4448 11.6623 29.9047 11.2025 30.4699 11.2025H44.5991C45.1643 11.2025 45.6241 11.6623 45.6241 12.2275V16.5857Z" fill="#151517"/>
<path d="M21.94 35.3148H21.3203V34.2223C21.3203 32.8955 20.241 31.8161 18.9142 31.8161H5.78641C4.4596 31.8161 3.38015 32.8955 3.38015 34.2223V35.3148H2.76064C1.79002 35.3148 1.00021 36.1045 1 37.0752C1 37.0752 1 37.0753 1 37.0752V39.2395C1 39.2395 1 39.2396 1 39.2395C1.00021 40.2102 1.79002 41 2.76064 41H21.94C22.9107 41 23.7005 40.2103 23.7005 39.2395V37.0754C23.7005 36.1046 22.9107 35.3148 21.94 35.3148ZM4.66261 34.2223C4.66261 33.6027 5.16675 33.0985 5.78641 33.0985H18.9142C19.5338 33.0985 20.0379 33.6027 20.0379 34.2223V35.3148H4.66261V34.2223ZM22.418 39.2395C22.418 39.5031 22.2036 39.7175 21.94 39.7175H2.76064C2.49704 39.7175 2.28251 39.503 2.28246 39.2394V37.0755C2.28251 36.8118 2.49702 36.5973 2.76064 36.5973H21.94C22.2035 36.5973 22.418 36.8117 22.418 37.0753V39.2395Z" fill="#151517"/>
<path d="M1 37.0752C1.00021 36.1045 1.79002 35.3148 2.76064 35.3148H3.38015V34.2223C3.38015 32.8955 4.4596 31.8161 5.78641 31.8161H18.9142C20.241 31.8161 21.3203 32.8955 21.3203 34.2223V35.3148H21.94C22.9107 35.3148 23.7005 36.1046 23.7005 37.0754V39.2395C23.7005 40.2103 22.9107 41 21.94 41H2.76064C1.79002 41 1.00021 40.2102 1 39.2395M1 37.0752C1 37.0753 1 37.0752 1 37.0752ZM1 37.0752V39.2395M1 39.2395C1 39.2396 1 39.2395 1 39.2395ZM44.5991 9.92004H30.4699C29.3076 9.92004 28.3434 10.784 28.1853 11.9033H18.0346V7.50347C19.1461 7.29132 19.9888 6.31232 19.9888 5.13999V3.40626C19.9888 2.07945 18.9094 1 17.5826 1H7.11794C5.79118 1 4.71181 2.07945 4.71181 3.40626V5.13999C4.71181 6.31234 5.55456 7.2914 6.666 7.50349V21.4045C5.55454 21.6166 4.71181 22.5956 4.71181 23.768V25.5017C4.71181 26.8285 5.7912 27.908 7.11794 27.908H17.5825C18.9094 27.908 19.9888 26.8285 19.9888 25.5017V23.768C19.9888 22.5956 19.146 21.6166 18.0346 21.4045V16.9101H28.1853C28.3434 18.0295 29.3076 18.8934 30.4699 18.8934H44.5991C45.8714 18.8934 46.9066 17.8582 46.9066 16.5857V12.2275C46.9066 10.9552 45.8715 9.92004 44.5991 9.92004ZM7.94846 21.3617V7.54625H16.7521V21.3617H7.94846ZM5.99427 5.13997V3.40623C5.99427 2.78657 6.49835 2.28244 7.11794 2.28244H17.5825C18.2022 2.28244 18.7063 2.78657 18.7063 3.40623V5.13997C18.7063 5.75963 18.2022 6.26376 17.5825 6.26376H7.11794C6.49835 6.26379 5.99427 5.75963 5.99427 5.13997ZM18.7064 23.768V25.5017C18.7064 26.1214 18.2022 26.6255 17.5826 26.6255H7.11794C6.49835 26.6255 5.99427 26.1214 5.99427 25.5017V23.768C5.99427 23.1483 6.49835 22.6442 7.11794 22.6442H17.5825C18.2022 22.6442 18.7064 23.1483 18.7064 23.768ZM18.0346 13.1858H28.1624V15.6276H18.0346V13.1858ZM45.6241 16.5857C45.6241 17.151 45.1643 17.6109 44.5991 17.6109H30.4699C29.9047 17.6109 29.4448 17.151 29.4448 16.5857V12.2275C29.4448 11.6623 29.9047 11.2025 30.4699 11.2025H44.5991C45.1643 11.2025 45.6241 11.6623 45.6241 12.2275V16.5857ZM4.66261 34.2223C4.66261 33.6027 5.16675 33.0985 5.78641 33.0985H18.9142C19.5338 33.0985 20.0379 33.6027 20.0379 34.2223V35.3148H4.66261V34.2223ZM22.418 39.2395C22.418 39.5031 22.2036 39.7175 21.94 39.7175H2.76064C2.49704 39.7175 2.28251 39.503 2.28246 39.2394V37.0755C2.28251 36.8118 2.49702 36.5973 2.76064 36.5973H21.94C22.2035 36.5973 22.418 36.8117 22.418 37.0753V39.2395Z" stroke="#151517" stroke-width="0.4"/>
</svg>
