<svg width="48" height="42" viewBox="0 0 48 42" fill="none" xmlns="http://www.w3.org/2000/svg">
<path d="M7.11794 6.06376H7.11793C6.60884 6.06378 6.19427 5.6492 6.19427 5.13997V3.40623C6.19427 2.89701 6.60883 2.48244 7.11794 2.48244H17.5825C18.0917 2.48244 18.5063 2.89703 18.5063 3.40623V5.13997C18.5063 5.64917 18.0917 6.06376 17.5825 6.06376H7.11794ZM44.5991 9.72004H30.4699C29.2666 9.72004 28.2594 10.5715 28.0177 11.7033H18.2346V7.66345C19.3571 7.37323 20.1888 6.35246 20.1888 5.13999V3.40626C20.1888 1.96899 19.0198 0.8 17.5826 0.8H7.11794C5.68071 0.8 4.51181 1.969 4.51181 3.40626V5.13999C4.51181 6.35247 5.34349 7.3733 6.466 7.66348V21.2445C5.34347 21.5347 4.51181 22.5555 4.51181 23.768V25.5017C4.51181 26.939 5.68074 28.108 7.11794 28.108H17.5825C19.0198 28.108 20.1888 26.939 20.1888 25.5017V23.768C20.1888 22.5555 19.3571 21.5347 18.2346 21.2445V17.1101H28.0177C28.2594 18.242 29.2666 19.0934 30.4699 19.0934H44.5991C45.9819 19.0934 47.1066 17.9686 47.1066 16.5857V12.2275C47.1066 10.8447 45.9819 9.72004 44.5991 9.72004ZM8.14846 21.1617V7.74625H16.5521V21.1617H8.14846ZM18.5064 23.768V25.5017C18.5064 26.0109 18.0918 26.4255 17.5826 26.4255H7.11794C6.60883 26.4255 6.19427 26.0109 6.19427 25.5017V23.768C6.19427 23.2587 6.60883 22.8442 7.11794 22.8442H17.5825C18.0918 22.8442 18.5064 23.2588 18.5064 23.768ZM18.2346 13.3858H27.9624V15.4276H18.2346V13.3858ZM45.4241 16.5857C45.4241 17.0406 45.0538 17.4109 44.5991 17.4109H30.4699C30.0152 17.4109 29.6448 17.0406 29.6448 16.5857V12.2275C29.6448 11.7728 30.0151 11.4025 30.4699 11.4025H44.5991C45.0538 11.4025 45.4241 11.7728 45.4241 12.2275V16.5857ZM21.94 35.1148H21.5203V34.2223C21.5203 32.7851 20.3514 31.6161 18.9142 31.6161H5.78641C4.34914 31.6161 3.18015 32.785 3.18015 34.2223V35.1148H2.76064C1.67957 35.1148 0.800229 35.9941 0.8 37.0752V39.2395C0.800229 40.3206 1.67955 41.2 2.76064 41.2H21.94C23.0212 41.2 23.9005 40.3207 23.9005 39.2395V37.0754C23.9005 35.9941 23.0212 35.1148 21.94 35.1148ZM4.86261 34.2223C4.86261 33.7131 5.2772 33.2985 5.78641 33.2985H18.9142C19.4233 33.2985 19.8379 33.7131 19.8379 34.2223V35.1148H4.86261V34.2223ZM22.218 39.2395C22.218 39.3926 22.0931 39.5175 21.94 39.5175H2.76064C2.6075 39.5175 2.48249 39.3926 2.48246 39.2393V37.0755C2.48249 36.9222 2.60751 36.7973 2.76064 36.7973H21.94C22.0931 36.7973 22.218 36.9222 22.218 37.0753V39.2395Z" fill="#151517" stroke="#151517" stroke-width="0.4"/>
</svg>
