<svg width="37" height="42" viewBox="0 0 37 42" fill="none" xmlns="http://www.w3.org/2000/svg">
<path fill-rule="evenodd" clip-rule="evenodd" d="M12.7467 16.7746C11.7556 16.1496 10.5824 15.7889 9.32705 15.7889C5.78242 15.7889 2.90376 18.6675 2.90376 22.214C2.90376 24.6194 4.22874 26.7194 6.18946 27.8195C3.14664 29.0588 1 32.0463 1 35.5356V40.2857C1 40.6804 1.31785 41 1.71428 41H16.9394C17.334 41 17.6536 40.6804 17.6536 40.2857V35.5356C17.6536 34.5534 17.484 33.6106 17.1715 32.7338H35.5001C35.8965 32.7338 36.2144 32.4142 36.2144 32.0195V1.71428C36.2144 1.31964 35.8965 1 35.5001 1H13.4609C13.0662 1 12.7466 1.31964 12.7466 1.71428L12.7467 16.7746ZM9.32527 28.6388H9.32884C13.1395 28.6388 16.2253 31.7245 16.2253 35.5352V39.5709H2.42875V35.5352C2.42875 31.7245 5.51632 28.6388 9.32527 28.6388ZM31.7718 31.3048H34.7861V2.42815H14.1754V17.9979C15.1558 19.1265 15.7522 20.6015 15.7522 22.214C15.7522 24.6193 14.4254 26.7193 12.4647 27.8194C14.1611 28.5105 15.5808 29.7444 16.5022 31.3051H17.1897V27.9159C17.1897 24.932 18.9843 22.3657 21.554 21.2393C19.9236 20.2464 18.8326 18.4554 18.8326 16.411C18.8326 16.0539 18.8683 15.7038 18.9308 15.3663L17.9968 9.05368C17.954 8.77332 18.0825 8.49651 18.3218 8.34474C18.5611 8.19296 18.8683 8.19832 19.104 8.35903L22.0682 10.3679L23.8557 7.15725C23.9825 6.93047 24.2218 6.7894 24.4808 6.7894C24.7397 6.7894 24.9789 6.93046 25.104 7.15725L26.8915 10.3679L29.8576 8.35903C30.0915 8.19832 30.3986 8.19296 30.6397 8.34474C30.879 8.49653 31.0057 8.77331 30.9647 9.05368L30.0307 15.3663C30.0325 15.3735 30.0325 15.3806 30.0343 15.3878C30.095 15.7181 30.1272 16.061 30.1272 16.411C30.1272 18.4556 29.0379 20.2467 27.4075 21.2393C29.9754 22.3661 31.7718 24.9321 31.7718 27.9158L31.7718 31.3048ZM30.3432 27.9155V31.3048H18.6185V27.9155C18.6185 24.6798 21.2417 22.055 24.479 22.055H24.4826C27.7183 22.055 30.3432 24.68 30.3432 27.9155ZM9.32709 27.2102C6.56999 27.2102 4.33237 24.9709 4.33237 22.2136C4.33237 19.4563 6.56985 17.2171 9.32709 17.2171C12.0843 17.2171 14.3236 19.4563 14.3236 22.2136C14.3236 24.9709 12.0844 27.2102 9.32709 27.2102ZM28.6911 16.1638H20.2678C20.2643 16.246 20.2607 16.3263 20.2607 16.4102C20.2607 18.737 22.1518 20.6263 24.4803 20.6263C26.8089 20.6263 28.6982 18.737 28.6982 16.4102C28.6982 16.3263 28.6965 16.246 28.6911 16.1638ZM28.6786 14.7353H20.2823L19.6466 10.4531L21.9127 11.9888C22.0787 12.1013 22.2841 12.1388 22.4787 12.0924C22.6734 12.046 22.8394 11.9192 22.9377 11.746L24.4805 8.97279L26.0234 11.746C26.1198 11.9192 26.2876 12.046 26.4823 12.0924C26.6769 12.1388 26.8823 12.1013 27.0466 11.9888L29.3126 10.4531L28.6786 14.7353Z" fill="#151517" stroke="#151517" stroke-width="0.5"/>
</svg>
