<svg width="37" height="42" viewBox="0 0 37 42" fill="none" xmlns="http://www.w3.org/2000/svg">
<path d="M36.0442 15.4184L36.0607 15.4021V16.24C36.0607 20.5141 35.2433 23.5164 33.3558 25.8939C31.4418 28.3154 30.599 30.9802 30.7626 34.0596C30.7626 34.0596 30.7626 34.0597 30.7626 34.0597L31.0551 39.529C31.0551 39.5292 31.0551 39.5294 31.0551 39.5296C31.0823 40.0057 30.9133 40.4641 30.5858 40.8092C30.2588 41.1609 29.809 41.35 29.3321 41.35H15.1625C14.2775 41.35 13.5386 40.6854 13.4459 39.806L13.4458 39.8056L13.1752 37.2068L36.0442 15.4184ZM36.0442 15.4184C35.885 11.3747 34.5444 7.86233 32.1239 5.24292L32.1238 5.2428C29.3333 2.22563 25.2952 0.65 20.4699 0.65C15.6445 0.65 11.6062 2.22745 8.81606 5.24274L8.81601 5.24279C6.27631 7.98844 4.92882 11.7119 4.88044 16.0032L0.924455 23.2431L0.924026 23.2438C0.548364 23.9356 0.557394 24.7595 0.960728 25.4403L0.960958 25.4407C1.36346 26.1182 2.0812 26.5282 2.87082 26.5282H4.87458V31.5715C4.87458 33.1553 6.16276 34.4434 7.74646 34.4434H10.1876C11.7175 34.4434 13.008 35.6219 13.1751 37.2063L36.0442 15.4184ZM2.53794 24.5032L2.23821 24.6839L2.53794 24.5032C2.46613 24.3841 2.46196 24.2508 2.53241 24.1195C2.53256 24.1192 2.53271 24.1189 2.53286 24.1186L6.59742 16.6818C6.677 16.5411 6.71059 16.387 6.71062 16.2409C6.71309 12.033 8.07169 8.60141 10.451 6.22268C12.8302 3.84396 16.2617 2.48654 20.4695 2.48654C24.6773 2.48654 28.1101 3.8451 30.49 6.22502C32.8699 8.60493 34.2284 12.0376 34.2284 16.2455C34.2284 20.1635 33.5046 22.7686 31.9284 24.7606C29.7266 27.5379 28.7488 30.6233 28.9383 34.1594L29.2248 39.5171L15.27 39.5137L15.0091 37.008L15.009 37.0076C14.7454 34.5017 12.6804 32.6004 10.1973 32.6004H7.7561C7.18276 32.6004 6.71569 32.1334 6.71569 31.56V25.6136C6.71569 25.1059 6.30512 24.6954 5.79744 24.6954H2.87541C2.73233 24.6954 2.61327 24.6281 2.53794 24.5032Z" fill="#151517" stroke="#151517" stroke-width="0.7"/>
<path d="M24.6772 8.07258C23.2897 8.32133 21.5767 9.14627 20.4703 10.7229C19.3668 9.1453 17.6498 8.31916 16.2606 8.07228L16.2605 8.07226C14.4062 7.74325 12.5356 8.30786 11.1356 9.61166L11.1353 9.61197C9.5015 11.1373 8.72575 13.397 8.98681 15.7932C9.4219 19.8569 12.2048 23.2862 13.7908 24.9451L13.7908 24.9451C14.891 26.0955 16.1016 27.121 17.239 27.8948C18.3668 28.6622 19.4566 29.2056 20.311 29.3522L20.3127 29.3524C20.3574 29.3599 20.4107 29.3656 20.4644 29.3656C20.5133 29.3656 20.5708 29.3584 20.5909 29.3558C20.5938 29.3555 20.5959 29.3552 20.5972 29.3551L20.6075 29.3539L20.6177 29.3522C21.472 29.2056 22.5631 28.6623 23.6916 27.8949C24.8298 27.121 26.0405 26.0955 27.1382 24.9448C28.7245 23.2857 31.5072 19.8564 31.942 15.7929L31.942 15.7927C32.1977 13.3928 31.4278 11.1383 29.7939 9.61237C28.4002 8.3027 26.5322 7.73796 24.6772 8.07243L24.6772 8.07258ZM25.8225 23.6777L25.8222 23.678C24.7586 24.7904 23.6614 25.6987 22.6936 26.3582C21.7641 26.9916 20.9799 27.3778 20.4714 27.5107C19.9631 27.3778 19.1788 26.9916 18.2494 26.3582C17.2816 25.6987 16.1843 24.7904 15.1206 23.678C13.6537 22.1426 11.1877 19.0813 10.8126 15.5974C10.616 13.75 11.1995 12.0617 12.3913 10.9497C13.1993 10.1981 14.1744 9.80797 15.2041 9.80797C15.4443 9.80797 15.6939 9.8311 15.9415 9.87626L15.9415 9.87628L15.945 9.87688C16.0821 9.90045 16.8256 10.0501 17.6196 10.5281C18.408 11.0026 19.2348 11.7924 19.5865 13.1028C19.6916 13.5081 20.0613 13.7858 20.4714 13.7858C20.8872 13.7858 21.2516 13.5091 21.3563 13.1026C21.7081 11.7923 22.5349 11.0025 23.3228 10.528C24.1165 10.0501 24.8591 9.90039 24.995 9.87678L24.9958 9.87663C26.2969 9.6474 27.5505 10.0238 28.5485 10.95C29.7403 12.0607 30.3268 13.7473 30.1302 15.5974C29.7566 19.0864 27.2938 22.1427 25.8225 23.6777Z" fill="#151517" stroke="#151517" stroke-width="0.7"/>
<path d="M20.3155 15.2727L19.5084 18.2892L19.2352 17.2729L19.235 17.2723C19.1374 16.9117 18.8265 16.6399 18.4491 16.5989C18.0741 16.5581 17.712 16.7511 17.5376 17.0862L17.5373 17.0869L16.8483 18.4176H13.6483C13.1406 18.4176 12.7301 18.8282 12.7301 19.3359C12.7301 19.8436 13.1406 20.2541 13.6483 20.2541H17.4059C17.6568 20.2541 17.8943 20.1517 18.0658 19.9746L18.6259 22.071C18.7309 22.4764 19.1007 22.7541 19.5109 22.7541C19.9267 22.7541 20.2911 22.4774 20.3958 22.0709L21.2021 19.0576L21.9954 22.0232C21.9954 22.0234 21.9955 22.0236 21.9955 22.0237C21.9955 22.0237 21.9955 22.0238 21.9956 22.0238C22.0996 22.4144 22.4433 22.6834 22.8393 22.7048L22.8393 22.7049L22.8464 22.7051C23.2429 22.7185 23.6106 22.4791 23.7435 22.0924L24.3964 20.2574H27.295C27.8027 20.2574 28.2133 19.8469 28.2133 19.3392C28.2133 18.8285 27.8048 18.4158 27.295 18.4158H23.7493C23.4585 18.4158 23.1943 18.5524 23.0248 18.7727L22.0854 15.2723C21.9803 14.8671 21.6105 14.5895 21.2005 14.5895C20.7916 14.5895 20.4208 14.8644 20.3155 15.2727Z" fill="#151517" stroke="#151517" stroke-width="0.7"/>
</svg>
