<svg width="37" height="42" viewBox="0 0 37 42" fill="none" xmlns="http://www.w3.org/2000/svg">
<path d="M35.7102 16.2404C35.7102 11.9231 34.3804 8.20058 31.8669 5.48045C29.155 2.54836 25.2176 1 20.4699 1C15.7222 1 11.7845 2.55013 9.07295 5.48045C6.58473 8.17045 5.25987 11.8374 5.22962 16.0941L1.23159 23.4109C0.91384 23.996 0.922245 24.6886 1.26186 25.2619C1.60147 25.8336 2.20503 26.1782 2.87082 26.1782H5.22458V31.5715C5.22458 32.962 6.35606 34.0934 7.74646 34.0934H10.1876C11.9042 34.0934 13.3383 35.4149 13.5232 37.1701L13.7939 39.7693C13.8679 40.4704 14.4563 41 15.1625 41H29.3321C29.7154 41 30.0718 40.8487 30.3307 40.5696C30.593 40.2939 30.7275 39.929 30.7056 39.5491L30.4131 34.0783C30.245 30.9142 31.1142 28.1655 33.0812 25.6769C34.902 23.3837 35.7107 20.4699 35.7107 16.24L35.7102 16.2404ZM29.2878 34.1407L29.5803 39.6115C29.5854 39.7057 29.5417 39.7662 29.5165 39.7931C29.4912 39.8234 29.4307 39.8671 29.3399 39.8671L15.172 39.8637C15.0476 39.8637 14.9434 39.7729 14.9316 39.6435L14.6609 37.0442C14.4155 34.7107 12.4955 32.9504 10.1973 32.9504H7.7561C6.98947 32.9504 6.36569 32.3267 6.36569 31.56V25.6136C6.36569 25.2992 6.11182 25.0454 5.79744 25.0454H2.87541C2.6081 25.0454 2.37606 24.9126 2.23821 24.6839C2.10035 24.4553 2.09699 24.1896 2.22476 23.9526L6.29169 16.5114C6.33876 16.429 6.36062 16.3349 6.36062 16.2407C6.36566 7.67147 11.9003 2.13654 20.4695 2.13654C29.0388 2.13654 34.5784 7.67621 34.5784 16.2455C34.5784 20.2048 33.8471 22.8999 32.2029 24.9778C30.0542 27.688 29.1029 30.6894 29.2878 34.1407Z" fill="#151517" stroke="#151517" stroke-width="0.7"/>
<path d="M24.7401 8.41688C23.2942 8.67579 21.4819 9.59544 20.4697 11.3775C19.4627 9.59544 17.6469 8.67413 16.1994 8.41688C14.4559 8.10753 12.6956 8.63712 11.3741 9.8678C9.8291 11.3103 9.0843 13.4572 9.33479 15.7557C9.75678 19.6982 12.4686 23.0557 14.0438 24.7032C16.2126 26.9712 18.8117 28.7399 20.3702 29.0072C20.4005 29.0123 20.4341 29.0156 20.4644 29.0156C20.4946 29.0156 20.5283 29.0106 20.5585 29.0072C22.117 28.7399 24.7213 26.9712 26.885 24.7032C28.4603 23.0556 31.1721 19.6981 31.594 15.7557C31.8394 13.4523 31.0997 11.3105 29.5546 9.8678C28.2398 8.63208 26.483 8.10247 24.7393 8.41688H24.7401ZM30.4782 15.6347C30.0915 19.246 27.5562 22.3747 26.0752 23.9199C23.9148 26.1794 21.6115 27.6169 20.4714 27.8708C19.3315 27.6169 17.0282 26.1794 14.8676 23.9199C13.3915 22.3748 10.8528 19.241 10.4646 15.6347C10.2578 13.6928 10.8698 11.8905 12.1526 10.6937C13.0218 9.88501 14.081 9.45797 15.2041 9.45797C15.4663 9.45797 15.737 9.48319 16.0043 9.53194C16.3271 9.58743 19.1634 10.1725 19.925 13.0138C19.9889 13.2626 20.2176 13.4358 20.4714 13.4358C20.7303 13.4358 20.9539 13.2643 21.0178 13.0138C21.7794 10.1725 24.6157 9.58742 24.9351 9.53194C26.3473 9.28312 27.7108 9.69503 28.7868 10.6937C30.0696 11.889 30.685 13.6897 30.4782 15.6347Z" fill="#151517" stroke="#151517" stroke-width="0.7"/>
<path d="M27.295 18.7658H23.7493C23.5088 18.7658 23.297 18.9171 23.2163 19.1441L22.9574 19.872L21.7469 15.3614C21.683 15.1126 21.4544 14.9395 21.2005 14.9395C20.9466 14.9395 20.718 15.1109 20.6541 15.3614L19.5092 19.6402L18.8972 17.3638C18.8367 17.1402 18.6433 16.9721 18.4113 16.9468C18.1793 16.9216 17.9557 17.041 17.8481 17.2478L17.0613 18.7676H13.6483C13.3339 18.7676 13.0801 19.0215 13.0801 19.3359C13.0801 19.6503 13.3339 19.9041 13.6483 19.9041H17.4059C17.6161 19.9041 17.8111 19.7881 17.9103 19.5981L18.186 19.0685L18.9645 21.9821C19.0283 22.2309 19.257 22.4041 19.5109 22.4041C19.7698 22.4041 19.9934 22.2326 20.0572 21.9821L21.2022 17.7033L22.3337 21.9334C22.3976 22.1738 22.6094 22.3419 22.8582 22.3553C23.1071 22.3638 23.3324 22.2141 23.4131 21.9771L24.1494 19.9074H27.295C27.6094 19.9074 27.8633 19.6536 27.8633 19.3392C27.8633 19.0198 27.6094 18.7658 27.295 18.7658Z" fill="#151517" stroke="#151517" stroke-width="0.7"/>
</svg>
