<svg width="37" height="42" viewBox="0 0 37 42" fill="none" xmlns="http://www.w3.org/2000/svg">
<path d="M36.0442 15.4184L36.0607 15.4021V16.24C36.0607 20.5141 35.2433 23.5164 33.3558 25.8939C31.4418 28.3154 30.599 30.9802 30.7626 34.0596C30.7626 34.0596 30.7626 34.0597 30.7626 34.0597L31.0551 39.529C31.0551 39.5292 31.0551 39.5294 31.0551 39.5296C31.0823 40.0057 30.9133 40.4641 30.5858 40.8092C30.2588 41.1609 29.809 41.35 29.3321 41.35H15.1625C14.2775 41.35 13.5386 40.6854 13.4459 39.806L13.4458 39.8056L13.1752 37.2068L36.0442 15.4184ZM36.0442 15.4184C35.885 11.3747 34.5444 7.86233 32.1239 5.24292L32.1238 5.2428C29.3333 2.22563 25.2952 0.65 20.4699 0.65C15.6445 0.65 11.6062 2.22745 8.81606 5.24274L8.81601 5.24279C6.27631 7.98844 4.92882 11.7119 4.88044 16.0032L0.924455 23.2431L0.924026 23.2438C0.548364 23.9356 0.557394 24.7595 0.960728 25.4403L0.960958 25.4407C1.36346 26.1182 2.0812 26.5282 2.87082 26.5282H4.87458V31.5715C4.87458 33.1553 6.16276 34.4434 7.74646 34.4434H10.1876C11.7175 34.4434 13.008 35.6219 13.1751 37.2063L36.0442 15.4184ZM2.53794 24.5032L2.23821 24.6839L2.53794 24.5032C2.46613 24.3841 2.46196 24.2508 2.53241 24.1195C2.53256 24.1192 2.53271 24.1189 2.53286 24.1186L6.59742 16.6818C6.677 16.5411 6.71059 16.387 6.71062 16.2409C6.71309 12.033 8.07169 8.60141 10.451 6.22268C12.8302 3.84396 16.2617 2.48654 20.4695 2.48654C24.6773 2.48654 28.1101 3.8451 30.49 6.22502C32.8699 8.60493 34.2284 12.0376 34.2284 16.2455C34.2284 20.1635 33.5046 22.7686 31.9284 24.7606C29.7266 27.5379 28.7488 30.6233 28.9383 34.1594L29.2248 39.5171L15.27 39.5137L15.0091 37.008L15.009 37.0076C14.7454 34.5017 12.6804 32.6004 10.1973 32.6004H7.7561C7.18276 32.6004 6.71569 32.1334 6.71569 31.56V25.6136C6.71569 25.1059 6.30512 24.6954 5.79744 24.6954H2.87541C2.73233 24.6954 2.61327 24.6281 2.53794 24.5032Z" fill="black" stroke="black" stroke-width="0.7"/>
<path d="M24.6767 8.07258C23.2892 8.32133 21.5762 9.14627 20.4698 10.7229C19.3663 9.1453 17.6493 8.31916 16.2601 8.07228L16.26 8.07226C14.4057 7.74325 12.5352 8.30786 11.1351 9.61166L11.1348 9.61197C9.50101 11.1373 8.72526 13.397 8.98632 15.7932C9.42141 19.8569 12.2043 23.2862 13.7903 24.9451L13.7903 24.9451C14.8905 26.0955 16.1011 27.121 17.2385 27.8948C18.3664 28.6622 19.4561 29.2056 20.3106 29.3522L20.3122 29.3524C20.3569 29.3599 20.4102 29.3656 20.4639 29.3656C20.5128 29.3656 20.5703 29.3584 20.5904 29.3558C20.5933 29.3555 20.5955 29.3552 20.5967 29.3551L20.607 29.3539L20.6172 29.3522C21.4716 29.2056 22.5626 28.6623 23.6911 27.8949C24.8293 27.121 26.04 26.0955 27.1377 24.9448C28.724 23.2857 31.5067 19.8564 31.9415 15.7929L31.9415 15.7927C32.1973 13.3928 31.4273 11.1383 29.7934 9.61237C28.3997 8.3027 26.5317 7.73796 24.6767 8.07243L24.6767 8.07258ZM25.822 23.6777L25.8217 23.678C24.7581 24.7904 23.6609 25.6987 22.6931 26.3582C21.7637 26.9916 20.9794 27.3778 20.4709 27.5107C19.9626 27.3778 19.1784 26.9916 18.2489 26.3582C17.2811 25.6987 16.1838 24.7904 15.1201 23.678C13.6532 22.1426 11.1872 19.0813 10.8121 15.5974C10.6155 13.75 11.199 12.0617 12.3908 10.9497C13.1988 10.1981 14.1739 9.80797 15.2036 9.80797C15.4438 9.80797 15.6934 9.8311 15.9411 9.87626L15.941 9.87628L15.9446 9.87688C16.0817 9.90045 16.8251 10.0501 17.6191 10.5281C18.4075 11.0026 19.2343 11.7924 19.586 13.1028C19.6911 13.5081 20.0609 13.7858 20.4709 13.7858C20.8867 13.7858 21.2511 13.5091 21.3559 13.1026C21.7076 11.7923 22.5344 11.0025 23.3223 10.528C24.116 10.0501 24.8586 9.90039 24.9945 9.87678L24.9954 9.87663C26.2964 9.6474 27.55 10.0238 28.548 10.95C29.7398 12.0607 30.3263 13.7473 30.1297 15.5974C29.7561 19.0864 27.2933 22.1427 25.822 23.6777Z" fill="black" stroke="black" stroke-width="0.7"/>
<path d="M20.316 15.2727L19.5089 18.2892L19.2357 17.2729L19.2355 17.2723C19.1379 16.9117 18.827 16.6399 18.4496 16.5989C18.0746 16.5581 17.7125 16.7511 17.5381 17.0862L17.5378 17.0869L16.8488 18.4176H13.6488C13.1411 18.4176 12.7306 18.8282 12.7306 19.3359C12.7306 19.8436 13.1411 20.2541 13.6488 20.2541H17.4064C17.6573 20.2541 17.8948 20.1517 18.0663 19.9746L18.6264 22.071C18.7314 22.4764 19.1012 22.7541 19.5113 22.7541C19.9271 22.7541 20.2916 22.4774 20.3963 22.0709L21.2026 19.0576L21.9959 22.0232C21.9959 22.0234 21.996 22.0236 21.996 22.0237C21.996 22.0237 21.996 22.0238 21.996 22.0238C22.1001 22.4144 22.4437 22.6834 22.8398 22.7048L22.8398 22.7049L22.8469 22.7051C23.2434 22.7185 23.6111 22.4791 23.744 22.0924L24.3969 20.2574H27.2955C27.8032 20.2574 28.2138 19.8469 28.2138 19.3392C28.2138 18.8285 27.8053 18.4158 27.2955 18.4158H23.7498C23.459 18.4158 23.1948 18.5524 23.0252 18.7727L22.0859 15.2723C21.9808 14.8671 21.611 14.5895 21.201 14.5895C20.7921 14.5895 20.4213 14.8644 20.316 15.2727Z" fill="black" stroke="black" stroke-width="0.7"/>
</svg>
