<svg width="42" height="42" viewBox="0 0 42 42" fill="none" xmlns="http://www.w3.org/2000/svg">
<path d="M37.2492 7.24994C35.1789 7.2532 33.5025 8.92959 33.4993 10.9999V19.1836C32.137 18.7035 30.6201 19.0469 29.5979 20.0674L23.0438 26.6202C22.2219 27.4405 21.5334 28.3813 20.9996 29.4115C20.4658 28.3812 19.7757 27.4405 18.9554 26.6202L12.4013 20.0661C11.3792 19.0456 9.86221 18.7022 8.49993 19.1823V11.0003C8.49993 8.92838 6.8219 7.25036 4.74996 7.25036C2.67803 7.25036 1 8.92838 1 11.0003V27.2502C1 27.4422 1.04395 27.6294 1.12858 27.8019L5.10317 35.891C5.69237 37.0922 5.99832 38.4121 5.99995 39.75C5.99995 40.4401 6.55986 41 7.24994 41H34.7497C35.4398 41 35.9997 40.4401 35.9997 39.75C36.0013 38.4121 36.3073 37.0922 36.8965 35.891L40.871 27.8019C40.9557 27.6294 40.9996 27.4422 40.9996 27.2502V11.0003C40.9964 8.93001 39.32 7.25361 37.2496 7.25036L37.2492 7.24994ZM19.7494 38.4996H8.42951C8.28303 37.209 7.91681 35.9541 7.34552 34.7888L3.49952 26.9584V10.9998C3.49952 10.3097 4.05943 9.74983 4.74951 9.74983C5.43958 9.74983 5.99949 10.3097 5.99949 10.9998V22.7593C6.00763 23.7391 6.40151 24.6782 7.09648 25.3699L13.6506 31.9228C14.1389 32.4111 14.9299 32.4111 15.4182 31.9228C15.9064 31.4345 15.9064 30.6435 15.4182 30.1552L8.8653 23.6011C8.37701 23.1128 8.37701 22.3218 8.8653 21.8336C9.35359 21.3453 10.1446 21.3453 10.6329 21.8336L17.1857 28.3877C18.8312 30.025 19.7541 32.2532 19.7492 34.5759L19.7494 38.4996ZM38.4992 26.9585L34.6516 34.7888C34.0803 35.9558 33.7141 37.2107 33.5692 38.4997H22.2493V34.574C22.2428 32.2514 23.1657 30.0232 24.8128 28.3857L31.3656 21.8328C31.8458 21.3364 32.6368 21.3218 33.1332 21.8019C33.6296 22.282 33.6443 23.0731 33.1641 23.5695C33.1544 23.5793 33.143 23.5906 33.1332 23.6004L26.5803 30.1545C26.0921 30.6428 26.0921 31.4338 26.5803 31.9221C27.0686 32.4104 27.8596 32.4104 28.3479 31.9221L34.9008 25.3692C35.5958 24.6775 35.9913 23.74 35.9994 22.7586V10.9991C35.9994 10.309 36.5593 9.74913 37.2494 9.74913C37.9394 9.74913 38.4994 10.309 38.4994 10.9991L38.4992 26.9585ZM20.9994 20.9998C26.5218 20.9998 30.9993 16.5224 30.9993 10.9999C30.9993 5.47746 26.5218 1 20.9994 1C15.4769 1 10.9995 5.47746 10.9995 10.9999C11.006 16.5207 15.4786 20.9931 20.9994 20.9998ZM28.4993 10.9999C28.501 15.1405 25.1465 18.4965 21.0077 18.4998C19.162 18.5015 17.3815 17.8211 16.0061 16.5907C19.0887 16.9357 21.8686 14.7173 22.2152 11.6345C22.238 11.4229 22.2494 11.2113 22.2494 10.9997C22.2494 9.27451 23.6491 7.87477 25.3744 7.87477C27.0996 7.87477 28.4993 9.27467 28.4993 10.9999ZM20.9994 3.49998C22.8435 3.49835 24.6208 4.17868 25.9927 5.41075C22.91 5.0657 20.1302 7.28411 19.7836 10.367C19.7608 10.5769 19.7494 10.7885 19.7494 11.0001C19.7494 12.7253 18.3497 14.125 16.6244 14.125C14.8992 14.125 13.4995 12.7253 13.4995 11.0001C13.5043 6.85949 16.8588 3.50498 20.9994 3.49998Z" fill="#151517" stroke="#EEEEEE" stroke-width="0.2"/>
</svg>
