<svg width="32" height="32" viewBox="0 0 32 32" fill="none" xmlns="http://www.w3.org/2000/svg">
<path d="M25.6816 14.582L25.5484 14.5351C24.5403 14.1798 23.4177 14.4339 22.6613 15.189L25.6816 14.582ZM25.6816 14.582V14.4407M25.6816 14.582V14.4407M25.6816 14.4407V8.16675C25.684 6.64616 26.906 5.41273 28.4222 5.39189L28.4568 5.39194M25.6816 14.4407L28.4568 5.39194M6.31547 14.5811V14.4398V8.16691C6.31547 6.63366 5.07376 5.39194 3.5405 5.39194C2.00724 5.39194 0.765527 6.63366 0.765527 8.16691V20.6251C0.765527 20.7569 0.795642 20.8854 0.853882 21.0041L3.90104 27.2057L3.90107 27.2057C4.35952 28.1403 4.59756 29.1674 4.59882 30.2082L4.59882 30.2083C4.59882 30.6822 4.98332 31.0667 5.45715 31.0667H26.5403C27.0141 31.0667 27.3986 30.6822 27.3986 30.2083V30.2082C27.3999 29.1674 27.6379 28.1403 28.0964 27.2057L28.0964 27.2057L31.1435 21.0041L6.31547 14.5811ZM6.31547 14.5811L6.44871 14.5341M6.31547 14.5811L6.44871 14.5341M6.44871 14.5341C7.45685 14.1788 8.5794 14.4329 9.33579 15.1881L6.44871 14.5341ZM28.4568 5.39194C29.9889 5.39435 31.2295 6.63494 31.2319 8.16707V20.6251C31.2319 20.7569 31.2018 20.8853 31.1436 21.004L28.4568 5.39194ZM15.1401 29.3497H15.0401H6.36149H6.2722L6.26213 29.261C6.15111 28.2828 5.87357 27.3318 5.44064 26.4487L2.49207 20.4455L2.48182 20.4247V20.4015V8.16653C2.48182 7.58224 2.95586 7.10821 3.54015 7.10821C4.12444 7.10821 4.59847 7.58224 4.59847 8.16653V17.1817C4.6046 17.9065 4.89602 18.6011 5.41004 19.1127L5.4102 19.1129L10.435 24.1368L10.3643 24.2075L10.435 24.1368C10.7703 24.4721 11.3134 24.4721 11.6487 24.1368C11.984 23.8015 11.984 23.2584 11.6487 22.9231L11.7194 22.8523L11.6487 22.923L6.62487 17.8982C6.21148 17.4848 6.21148 16.8151 6.62488 16.4017C7.03829 15.9883 7.70803 15.9883 8.12144 16.4017L8.12144 16.4017L13.1451 21.4263L15.1401 29.3497ZM15.1401 29.3497L15.1401 29.2497L15.1399 26.2418M15.1401 29.3497L15.1399 26.2418M15.1399 26.2418C15.1399 26.2417 15.1399 26.2416 15.1399 26.2415M15.1399 26.2418L15.1399 26.2415M29.5149 20.4248L29.5047 20.4456L26.5549 26.4488L29.5149 20.4248ZM29.5149 20.4248V20.4015M29.5149 20.4248V20.4015M29.5149 20.4015L29.515 8.16599C29.515 7.5817 29.041 7.10766 28.4567 7.10766C27.8724 7.10766 27.3984 7.5817 27.3984 8.16599V17.1812C27.3923 17.9071 27.0997 18.6005 26.5856 19.1122L26.5854 19.1124L21.5615 24.1362C21.2262 24.4715 20.6831 24.4715 20.3478 24.1362C20.0125 23.8009 20.0125 23.2578 20.3478 22.9225L20.2771 22.8518L20.3478 22.9225L25.3717 17.8977L25.3717 17.8977L25.3718 17.8976L25.3718 17.8976L25.3719 17.8975L25.3719 17.8975L25.372 17.8974L25.372 17.8974L25.372 17.8973L25.3721 17.8973L25.3721 17.8973L25.3722 17.8972L25.3722 17.8972L25.3723 17.8971L25.3723 17.8971L25.3724 17.897L25.3724 17.897L25.3724 17.8969L25.3725 17.8969L25.3725 17.8969L25.3726 17.8968L25.3726 17.8968L25.3727 17.8967L25.3727 17.8967L25.3728 17.8966L25.3728 17.8966L25.3728 17.8965L25.3729 17.8965L25.3729 17.8965L25.373 17.8964L25.373 17.8964L25.3731 17.8963L25.3731 17.8963L25.3732 17.8962L25.3732 17.8962L25.3732 17.8961L25.3733 17.8961L25.3733 17.8961L25.3734 17.896L25.3734 17.896L25.3735 17.8959L25.3735 17.8959L25.3736 17.8958L25.3736 17.8958L25.3736 17.8957L25.3737 17.8957L25.3737 17.8956L25.3738 17.8956L25.3738 17.8956L25.3739 17.8955L25.3739 17.8955L25.374 17.8954L25.374 17.8954L25.3741 17.8953L25.3741 17.8953L25.3741 17.8952L25.3742 17.8952L25.3742 17.8952L25.3743 17.8951L25.3743 17.8951L25.3744 17.895L25.3744 17.895L25.3745 17.8949L25.3745 17.8949L25.3746 17.8948L25.3746 17.8948L25.3746 17.8947L25.3747 17.8947L25.3747 17.8947L25.3748 17.8946L25.3748 17.8946L25.3749 17.8945L25.3749 17.8945L25.375 17.8944L25.375 17.8944L25.3751 17.8943L25.3751 17.8943L25.3751 17.8942L25.3752 17.8942L25.3752 17.8941L25.3753 17.8941L25.3753 17.8941L25.3754 17.894L25.3754 17.894L25.3755 17.8939L25.3755 17.8939L25.3756 17.8938L25.3756 17.8938L25.3757 17.8937L25.3757 17.8937L25.3757 17.8936L25.3758 17.8936L25.3758 17.8936L25.3759 17.8935L25.3759 17.8935L25.376 17.8934L25.376 17.8934L25.3761 17.8933L25.3761 17.8933L25.3762 17.8932L25.3762 17.8932L25.3762 17.8931L25.3763 17.8931L25.3763 17.893L25.3764 17.893L25.3764 17.893L25.3765 17.8929L25.3765 17.8929L25.3766 17.8928L25.3766 17.8928L25.3767 17.8927L25.3767 17.8927L25.3768 17.8926L25.3768 17.8926L25.3769 17.8925L25.3769 17.8925L25.3769 17.8924L25.377 17.8924L25.377 17.8924L25.3771 17.8923L25.3771 17.8923L25.3772 17.8922L25.3772 17.8922L25.3773 17.8921L25.3773 17.8921L25.3774 17.892L25.3774 17.892L25.3775 17.8919L25.3775 17.8919L25.3775 17.8918L25.3776 17.8918L25.3776 17.8917L25.3777 17.8917L25.3777 17.8917L25.3778 17.8916L25.3778 17.8916L25.3779 17.8915L25.3779 17.8915L25.378 17.8914L25.378 17.8914L25.3781 17.8913L25.3781 17.8913L25.3782 17.8912L25.3782 17.8912L25.3783 17.8911L25.3783 17.8911L25.3783 17.891L25.3784 17.891L25.3784 17.891L25.3785 17.8909L25.3785 17.8909L25.3786 17.8908L25.3786 17.8908L25.3787 17.8907L25.3787 17.8907L25.3788 17.8906L25.3788 17.8906L25.3789 17.8905L25.3789 17.8905L25.379 17.8904L25.379 17.8904L25.379 17.8903L25.3791 17.8903L25.3791 17.8902L25.3792 17.8902L25.3792 17.8902L25.3793 17.8901L25.3793 17.8901L25.3794 17.89L25.3794 17.89L25.3795 17.8899L25.3795 17.8899L25.3796 17.8898L25.3796 17.8898L25.3797 17.8897L25.3797 17.8897L25.3798 17.8896L25.3798 17.8896L25.3798 17.8895L25.3799 17.8895L25.3799 17.8894L25.38 17.8894L25.38 17.8894L25.3801 17.8893L25.3801 17.8893L25.3802 17.8892L25.3802 17.8892L25.3803 17.8891L25.3803 17.8891L25.3804 17.889L25.3804 17.889L25.3805 17.8889L25.3805 17.8889L25.3806 17.8888L25.3806 17.8888L25.3807 17.8887L25.3807 17.8887L25.3807 17.8886L25.3808 17.8886L25.3808 17.8885L25.3809 17.8885L25.3809 17.8885L25.381 17.8884L25.381 17.8884L25.3811 17.8883L25.3811 17.8883L25.3812 17.8882L25.3812 17.8882L25.3813 17.8881L25.3813 17.8881L25.3814 17.888L25.3814 17.888L25.3815 17.8879L25.3815 17.8879L25.3816 17.8878L25.3816 17.8878L25.3816 17.8877L25.3817 17.8877L25.3817 17.8876L25.3818 17.8876L25.3818 17.8876L25.3819 17.8875L25.3819 17.8875L25.382 17.8874L25.382 17.8874L25.3821 17.8873L25.3821 17.8873L25.3822 17.8872L25.3822 17.8872L25.3823 17.8871L25.3823 17.8871L25.3824 17.887L25.3824 17.887L25.3825 17.8869L25.3825 17.8869L25.3825 17.8868L25.3826 17.8868L25.3826 17.8867L25.3827 17.8867L25.3827 17.8866L25.3828 17.8866L25.3828 17.8866L25.3829 17.8865L25.3829 17.8865L25.383 17.8864L25.383 17.8864L25.3831 17.8863L25.3831 17.8863L25.3832 17.8862L25.3832 17.8862L25.3833 17.8861L25.3833 17.8861L25.3834 17.886L25.3834 17.886L25.3835 17.8859L25.3835 17.8859L25.3835 17.8858L25.3836 17.8858L25.3836 17.8857L25.3837 17.8857L25.3837 17.8857L25.3838 17.8856L25.3838 17.8856L25.3839 17.8855L25.3839 17.8855L25.384 17.8854L25.384 17.8854L25.3841 17.8853L25.3841 17.8853L25.3842 17.8852L25.3842 17.8852L25.3843 17.8851L25.3843 17.8851L25.3844 17.885L25.3844 17.885L25.3844 17.8849L25.3845 17.8849L25.3845 17.8848L25.3846 17.8848L25.3846 17.8847L25.3847 17.8847L25.3847 17.8847L25.3848 17.8846L25.3848 17.8846L25.3849 17.8845L25.3849 17.8845L25.385 17.8844L25.385 17.8844L25.3851 17.8843L25.3851 17.8843L25.3852 17.8842L25.3852 17.8842L25.3853 17.8841L25.3853 17.8841L25.3854 17.884L25.3854 17.884L25.3854 17.8839L25.3855 17.8839L25.3855 17.8838L25.3856 17.8838L25.3856 17.8838L25.3857 17.8837L25.3857 17.8837L25.3858 17.8836L25.3858 17.8836L25.3859 17.8835L25.3859 17.8835L25.386 17.8834L25.386 17.8834L25.3861 17.8833L25.3861 17.8833L25.3862 17.8832L25.3862 17.8832L25.3863 17.8831L25.3863 17.8831L25.3863 17.883L25.3864 17.883L25.3864 17.8829L25.3865 17.8829L25.3865 17.8829L25.3866 17.8828L25.3866 17.8828L25.3867 17.8827L25.3867 17.8827L25.3868 17.8826L25.3868 17.8826L25.3869 17.8825L25.3869 17.8825L25.387 17.8824L25.387 17.8824L25.3871 17.8823L25.3871 17.8823L25.3871 17.8822L25.3872 17.8822L25.3872 17.8821L25.3873 17.8821L25.3873 17.882L25.3874 17.882L25.3874 17.882L25.3875 17.8819L25.3875 17.8819L25.3876 17.8818L25.3876 17.8818L25.3877 17.8817L25.3877 17.8817L25.3878 17.8816L25.3878 17.8816L25.3879 17.8815L25.3879 17.8815L25.388 17.8814L25.388 17.8814L25.388 17.8813L25.3881 17.8813L25.3881 17.8812L25.3882 17.8812L25.3882 17.8812L25.3883 17.8811L25.3883 17.8811L25.3884 17.881L25.3884 17.881L25.3885 17.8809L25.3885 17.8809L25.3886 17.8808L25.3886 17.8808L25.3887 17.8807L25.3887 17.8807L25.3888 17.8806L25.3888 17.8806L25.3888 17.8805L25.3889 17.8805L25.3889 17.8805L25.389 17.8804L25.389 17.8804L25.3891 17.8803L25.3891 17.8803L25.3892 17.8802L25.3892 17.8802L25.3893 17.8801L25.3893 17.8801L25.3894 17.88L25.3894 17.88L25.3895 17.8799L25.3895 17.8799L25.3895 17.8798L25.3896 17.8798L25.3896 17.8797L25.3897 17.8797L25.3897 17.8797L25.3898 17.8796L25.3898 17.8796L25.3899 17.8795L25.3899 17.8795L25.39 17.8794L25.39 17.8794L25.3901 17.8793L25.3901 17.8793L25.3901 17.8792L25.3902 17.8792L25.3902 17.8791L25.3903 17.8791L25.3903 17.8791L25.3904 17.879L25.3904 17.879L25.3905 17.8789L25.3905 17.8789L25.3906 17.8788L25.3906 17.8788L25.3907 17.8787L25.3907 17.8787L25.3908 17.8786L25.3908 17.8786L25.3908 17.8785L25.3909 17.8785L25.3909 17.8785L25.391 17.8784L25.391 17.8784L25.3911 17.8783L25.3911 17.8783L25.3912 17.8782L25.3912 17.8782L25.3913 17.8781L25.3913 17.8781L25.3913 17.878L25.3914 17.878L25.3914 17.8779L25.3915 17.8779L25.3915 17.8779L25.3916 17.8778L25.3916 17.8778L25.3917 17.8777L25.3917 17.8777L25.3918 17.8776L25.3918 17.8776L25.3919 17.8775L25.3919 17.8775L25.3919 17.8774L25.392 17.8774L25.392 17.8773L25.3921 17.8773L25.3921 17.8773L25.3922 17.8772L25.3922 17.8772L25.3923 17.8771L25.3923 17.8771L25.3924 17.877L25.3924 17.877L25.3924 17.8769L25.3925 17.8769L25.3925 17.8768L25.3926 17.8768L25.3926 17.8768L25.3927 17.8767L25.3927 17.8767L25.3928 17.8766L25.3928 17.8766L25.3929 17.8765L25.3929 17.8765L25.3929 17.8764L25.393 17.8764L25.393 17.8763L25.3931 17.8763L25.3931 17.8763L25.3932 17.8762L25.3932 17.8762L25.3933 17.8761L25.3933 17.8761L25.3934 17.876L25.3934 17.876L25.3934 17.8759L25.3935 17.8759L25.3935 17.8759L25.3936 17.8758L25.3936 17.8758L25.3937 17.8757L25.3937 17.8757L25.3938 17.8756L25.3938 17.8756L25.3938 17.8755L25.3939 17.8755L25.3939 17.8755L25.394 17.8754L25.394 17.8754L25.3941 17.8753L25.3941 17.8753L25.3942 17.8752L25.3942 17.8752L25.3943 17.8751L25.3943 17.8751L25.3943 17.875L25.3944 17.875L25.3944 17.875L25.3945 17.8749L25.3945 17.8749L25.3946 17.8748L25.3946 17.8748L25.3947 17.8747L25.3947 17.8747L25.3947 17.8746L25.3948 17.8746L25.3948 17.8746L25.3949 17.8745L25.3949 17.8745L25.395 17.8744L25.395 17.8744L25.395 17.8743L25.3951 17.8743L25.3951 17.8743L25.3952 17.8742L25.3952 17.8742L25.3953 17.8741L25.3953 17.8741L25.3954 17.874L25.3954 17.874L25.3966 17.8728C25.8032 17.4524 25.7906 16.7826 25.3705 16.3763C24.9503 15.9698 24.281 15.9822 23.8746 16.4017C23.8744 16.4019 23.8742 16.4021 23.874 16.4023L18.8515 21.4248L29.5149 20.4015ZM25.7247 29.3498H25.6353H16.9567H16.8567V29.2498V26.2403C16.8516 24.4331 17.5697 22.6992 18.8513 21.425L25.7247 29.3498ZM25.7247 29.3498L25.7347 29.261M25.7247 29.3498L25.7347 29.261M25.7347 29.261C25.8444 28.2842 26.1219 27.3333 26.5548 26.4489L25.7347 29.261ZM11.8702 12.3187L12.1813 12.3535C14.4898 12.6119 16.5714 10.9507 16.8311 8.64218C16.8482 8.48357 16.8567 8.32501 16.8567 8.16647C16.8567 6.78856 17.9746 5.67066 19.3525 5.67066C20.7304 5.67066 21.8483 6.78867 21.8483 8.16656L11.8702 12.3187ZM11.8702 12.3187L12.1035 12.5274M11.8702 12.3187L12.1035 12.5274M12.1035 12.5274C13.1763 13.4871 14.5652 14.0178 16.0049 14.0165C19.2331 14.0139 21.8496 11.3963 21.8483 8.1666L12.1035 12.5274ZM15.1399 26.2415C15.1437 24.4343 14.4256 22.7006 13.1453 21.4265L15.1399 26.2415ZM17.6365 20.2129L22.6613 15.1891L9.33585 15.1881L14.3606 20.2129C14.9823 20.8346 15.5053 21.5475 15.9098 22.3282L15.9986 22.4995L16.0873 22.3282C16.4919 21.5474 17.0136 20.8346 17.6364 20.2129L17.6365 20.2129ZM15.9983 2.31665L15.9983 2.31665C12.7687 2.32055 10.1523 4.93702 10.1484 8.16661V8.16672C10.1484 9.54463 11.2663 10.6625 12.6443 10.6625C14.0222 10.6625 15.1401 9.54463 15.1401 8.16672C15.1401 8.00813 15.1486 7.84956 15.1657 7.69223C15.4254 5.38373 17.5071 3.72257 19.8155 3.98095L20.1256 4.01566L19.8934 3.80717C18.8232 2.84609 17.4368 2.31538 15.9983 2.31665ZM23.565 8.1666C23.565 12.3452 20.1771 15.7331 15.9985 15.7332C11.8211 15.7281 8.43673 12.3439 8.4318 8.16648C8.43187 3.98788 11.8198 0.6 15.9984 0.6C20.177 0.6 23.565 3.98795 23.565 8.1666Z" fill="black" stroke="#D9D9D9" stroke-width="0.2"/>
</svg>
