<svg width="40" height="40" viewBox="0 0 40 40" fill="none" xmlns="http://www.w3.org/2000/svg">
<path d="M32.5993 18.3249L32.466 18.2779C31.14 17.8106 29.6635 18.1448 28.6686 19.1381L22.1145 25.6909L22.1145 25.691C21.2998 26.504 20.6175 27.4364 20.0884 28.4575L19.9996 28.6289L19.9108 28.4575C19.3817 27.4364 18.6977 26.504 17.8847 25.6909L11.3306 19.1369L32.5993 18.3249ZM32.5993 18.3249V18.1836M32.5993 18.3249V18.1836M32.5993 18.1836V10.0001C32.6024 7.99892 34.2115 6.3759 36.2073 6.35024L36.2073 6.35029M32.5993 18.1836L36.2073 6.35029M7.39993 18.3236V18.1823V10.0003C7.39993 7.98361 5.76667 6.35036 3.74996 6.35036C1.73325 6.35036 0.1 7.98361 0.1 10.0003V26.2502C0.1 26.4268 0.140359 26.5989 0.218329 26.7578L7.39993 18.3236ZM7.39993 18.3236L7.53317 18.2766M7.39993 18.3236L7.53317 18.2766M7.53317 18.2766C8.85917 17.8093 10.3357 18.1436 11.3306 19.1368L7.53317 18.2766ZM36.2073 6.35029L36.2495 6.35036M36.2073 6.35029L36.2495 6.35036M36.2495 6.35036C38.2647 6.35352 39.8964 7.98527 39.8996 10.0005V26.2502C39.8996 26.4267 39.8593 26.5989 39.7813 26.7578L36.2495 6.35036ZM18.8494 37.5996H18.7494H7.42951H7.34022L7.33015 37.5109C7.18496 36.2316 6.82198 34.9878 6.25577 33.8329L18.8494 37.5996ZM18.8494 37.5996L18.8494 37.4996M18.8494 37.5996L18.8494 37.4996M18.8492 33.5761C18.8541 31.2267 17.9207 28.973 16.2563 27.3168L9.70359 20.7628L9.63287 20.8336L9.70358 20.7628C9.17624 20.2355 8.32193 20.2355 7.79459 20.7628C7.26725 21.2902 7.26725 22.1445 7.79458 22.6718L14.3474 29.2259L14.4182 29.1552L14.3474 29.2259C14.7967 29.6752 14.7967 30.4028 14.3474 30.8521C13.8982 31.3013 13.1705 31.3013 12.7213 30.8521L12.6506 30.9228L12.7213 30.8521L6.16719 24.2992L6.16703 24.2991C5.49084 23.6261 5.10752 22.7123 5.09949 21.7589V9.99982C5.09949 9.25452 4.49481 8.64983 3.74951 8.64983C3.0042 8.64983 2.39952 9.25452 2.39952 9.99982V25.9584V25.9817L2.40976 26.0025L6.25573 33.8328L18.8492 33.5761ZM18.8492 33.5761L18.8494 37.4996M18.8492 33.5761L18.8494 37.4996M37.5992 25.9817L37.589 26.0026L33.7414 33.8328C33.1752 34.9895 32.8122 36.2333 32.6686 37.5109L32.6586 37.5997H32.5692H21.2493H21.1493V37.4997V33.5743C21.1428 31.2251 22.0761 28.9713 23.7421 27.315L37.5992 25.9817ZM37.5992 25.9817V25.9585L37.5994 9.99912C37.5994 9.25381 36.9947 8.64913 36.2494 8.64913C35.5041 8.64913 34.8994 9.25381 34.8994 9.99911V21.7578C34.8915 22.7128 34.5066 23.6251 33.8302 24.2984L33.8301 24.2985L27.2772 30.8514C26.828 31.3006 26.1003 31.3006 25.6511 30.8514C25.2018 30.4021 25.2018 29.6745 25.6511 29.2252L25.5803 29.1545L25.6511 29.2252L32.2039 22.6711L32.2194 22.6557L32.2348 22.6402L32.236 22.639C32.7547 22.1027 32.7387 21.2484 32.2027 20.73C31.6667 20.2115 30.8128 20.2274 30.2944 20.7627C30.2942 20.7629 30.294 20.7631 30.2938 20.7633L23.7423 27.3148L37.5992 25.9817ZM14.7061 15.4565L15.0172 15.4913C18.0449 15.8302 20.7752 13.6514 21.1158 10.6236C21.1382 10.4156 21.1494 10.2076 21.1494 9.99974C21.1494 8.21928 22.5939 6.77477 24.3744 6.77477C26.1548 6.77477 27.5993 8.21943 27.5993 9.99987L14.7061 15.4565ZM14.7061 15.4565L14.9394 15.6652M14.7061 15.4565L14.9394 15.6652M14.9394 15.6652C16.3331 16.9121 18.1375 17.6015 20.0078 17.5998C24.2017 17.5965 27.601 14.1957 27.5993 9.99991L14.9394 15.6652ZM4.19292 34.8469L0.218357 26.7579H39.7813L35.8067 34.8469L35.8067 34.847C35.2108 36.0618 34.9013 37.3969 34.8997 38.7499V38.75C34.8997 39.3849 34.3845 39.9 33.7497 39.9H6.24994C5.61509 39.9 5.09995 39.3849 5.09995 38.75V38.7499C5.09831 37.3969 4.78888 36.0618 4.19295 34.847L4.19292 34.8469ZM19.9993 2.39998H19.9993C15.8036 2.40504 12.4044 5.80423 12.3995 9.99995V10.0001C12.3995 11.7805 13.844 13.225 15.6244 13.225C17.4049 13.225 18.8494 11.7805 18.8494 10.0001C18.8494 9.79208 18.8606 9.5841 18.883 9.37774C19.2237 6.34997 21.9539 4.17123 24.9816 4.51013L25.2917 4.54484L25.0595 4.33635C23.6692 3.08778 21.8681 2.39833 19.9993 2.39998ZM29.8993 9.99991C29.8993 15.4671 25.4667 19.8997 19.9995 19.8998C14.5339 19.8932 10.1059 15.4654 10.0995 9.99979C10.0996 4.53262 14.5322 0.1 19.9994 0.1C25.4666 0.1 29.8993 4.53269 29.8993 9.99991Z" fill="#151517" stroke="#EEEEEE" stroke-width="0.2"/>
</svg>
