<svg width="73" height="42" viewBox="0 0 73 42" fill="none" xmlns="http://www.w3.org/2000/svg">
<path fill-rule="evenodd" clip-rule="evenodd" d="M9.47851 35.0774H4.2095C2.43979 35.0744 1.00308 33.6407 1 31.8679V4.2095C1.00308 2.43979 2.43979 1.00308 4.2095 1H64.382C66.1486 1 67.1691 2.42132 67.5637 3.99986L72.0064 21.663C72.0249 21.7339 72.0311 21.8048 72.0311 21.8757V31.8679C72.028 33.6407 70.5944 35.0743 68.8216 35.0774H59.8255C59.3815 38.4657 56.4957 40.9969 53.0797 40.9969C49.6667 40.9969 46.7809 38.4657 46.3369 35.0774H22.9674C22.5265 38.4657 19.6376 41 16.2215 41C12.8055 41 9.9194 38.4658 9.47851 35.0774ZM70.2738 27.1571C69.6664 27.0399 69.0374 27.2064 68.5657 27.6134C68.1248 28.0574 67.9922 28.7233 68.2327 29.2998C68.4701 29.8795 69.0343 30.2556 69.6602 30.2586H70.2737L70.2738 27.1571ZM70.2645 32.0192H69.6571H69.6602C67.8535 31.9883 66.4014 30.5147 66.4014 28.7079C66.4014 26.8981 67.8535 25.4244 69.6602 25.3967H70.2738V21.9807L65.8619 4.42568C65.6676 3.6549 65.2391 2.76079 64.3851 2.76079H4.20941C3.41091 2.76387 2.76347 3.41132 2.76039 4.21289V31.8682C2.76347 32.6667 3.41092 33.3141 4.20941 33.3203H9.47844C9.91931 29.9319 12.8051 27.3977 16.2212 27.3977C19.6373 27.3977 22.5261 29.9319 22.967 33.3203H46.3366C46.7805 29.9319 49.6663 27.4007 53.0824 27.4007C56.4954 27.4007 59.3812 29.9319 59.8251 33.3203H68.8244C69.5644 33.3172 70.1872 32.7561 70.2673 32.0162L70.2645 32.0192ZM6.83626 29.0502V28.0975C6.83626 27.6104 6.44162 27.2188 5.95448 27.2188C5.47044 27.2188 5.07578 27.6104 5.07578 28.0975V29.0502C5.07578 29.5373 5.47042 29.9289 5.95448 29.9289C6.44161 29.9289 6.83626 29.5373 6.83626 29.0502ZM6.83626 24.1943V23.2417C6.83626 22.7545 6.44162 22.3599 5.95448 22.3599C5.47044 22.3599 5.07578 22.7545 5.07578 23.2417V24.1943C5.07578 24.6784 5.47042 25.073 5.95448 25.073C6.44161 25.073 6.83626 24.6784 6.83626 24.1943ZM46.876 20.914H48.2881C48.7752 20.914 49.1699 20.5193 49.1699 20.0353C49.1699 19.5481 48.7752 19.1535 48.2881 19.1535H46.876C46.3889 19.1535 45.9973 19.5481 45.9973 20.0353C45.9973 20.5193 46.3889 20.914 46.876 20.914ZM53.0823 35.9314C53.9055 35.9314 54.6177 35.3487 54.778 34.5379C54.9414 33.7271 54.5067 32.9162 53.7451 32.6017C52.9805 32.2842 52.1019 32.5524 51.6424 33.2369C51.183 33.9244 51.2725 34.84 51.8582 35.4227C52.182 35.7495 52.6198 35.9314 53.0792 35.9314L53.0823 35.9314ZM16.221 35.9314C17.0473 35.9314 17.7595 35.3487 17.9198 34.5379C18.0832 33.7301 17.6484 32.9162 16.8869 32.6017C16.1254 32.2842 15.2437 32.5524 14.7842 33.2369C14.3248 33.9244 14.4142 34.84 15 35.4227C15.3207 35.7495 15.7616 35.9314 16.221 35.9314ZM12.657 37.7628C14.0998 39.2056 16.2673 39.6373 18.151 38.8573C20.0379 38.0772 21.2649 36.2397 21.2649 34.1987C21.2649 32.1578 20.0379 30.3202 18.151 29.5402C16.2673 28.7602 14.0998 29.1918 12.657 30.6316C10.6869 32.6017 10.6869 35.7958 12.657 37.7628ZM49.5152 37.7628C50.958 39.2056 53.1255 39.6373 55.0092 38.8573C56.893 38.0772 58.1231 36.2366 58.1231 34.1987C58.1231 32.1608 56.893 30.3202 55.0092 29.5402C53.1255 28.7602 50.958 29.1918 49.5152 30.6316C47.5451 32.6017 47.5451 35.7958 49.5152 37.7628ZM6.66325 4.73965C6.17612 4.73965 5.78455 5.1312 5.78147 5.61835V16.3011C5.78147 16.5324 5.87397 16.7574 6.04045 16.9208C6.20385 17.0873 6.42892 17.1798 6.66323 17.1798H17.346C17.5773 17.1798 17.8023 17.0873 17.9657 16.9208C18.1322 16.7574 18.2247 16.5324 18.2247 16.3011V5.61835C18.2216 5.13121 17.8301 4.73965 17.346 4.73965H6.66325ZM16.4707 6.49704H7.5425V15.4198H16.4707V6.49704ZM21.4962 4.73965C21.0121 4.73965 20.6175 5.13428 20.6175 5.62142V16.3011C20.6175 16.7851 21.0121 17.1798 21.4962 17.1798H32.1758C32.663 17.1798 33.0545 16.7851 33.0545 16.3011V5.61827C33.0545 5.13113 32.6599 4.73957 32.1758 4.73957L21.4962 4.73965ZM31.3005 6.49704L22.3746 6.50012V15.4197H31.3005V6.49704ZM36.3291 4.73965C35.845 4.73965 35.4504 5.13428 35.4504 5.62142V16.3011C35.4504 16.5323 35.5429 16.7574 35.7093 16.9208C35.8727 17.0873 36.0978 17.1797 36.329 17.1797H47.015C47.2462 17.1797 47.4713 17.0872 47.6347 16.9208C47.8012 16.7574 47.8937 16.5323 47.8937 16.3011V5.61827C47.8906 5.13113 47.499 4.73957 47.015 4.73957L36.3291 4.73965ZM46.1334 6.49704L37.2107 6.50012V15.4197H46.1334V6.49704ZM52.6664 4.73965C51.353 4.74273 50.2863 5.80643 50.2832 7.11978V16.9888C50.2832 17.1861 50.351 17.3773 50.4713 17.5315L55.916 24.453H55.9191C56.0825 24.6873 56.3507 24.826 56.6375 24.826H64.3544C65.5568 24.7613 66.5434 23.8518 66.7099 22.6586L67.5547 19.2364C67.5978 19.0915 67.6009 18.9343 67.567 18.7863L64.8045 6.91958C64.6473 5.72028 63.6546 4.80457 62.446 4.73985L52.6664 4.73965ZM62.4495 6.49704L52.6664 6.50012C52.3242 6.50012 52.0467 6.7776 52.0436 7.11983V16.6866L57.066 23.0655H64.3545C64.7244 23.0655 64.9187 22.5784 65.005 22.233L65.8097 18.9742L63.0935 7.31667C63.0133 6.97137 62.8191 6.49654 62.446 6.49654L62.4495 6.49704Z" fill="black"/>
<path d="M16.2241 35.9314H16.221M16.221 35.9314C17.0473 35.9314 17.7595 35.3487 17.9198 34.5379C18.0832 33.7301 17.6484 32.9162 16.8869 32.6017C16.1254 32.2842 15.2437 32.5524 14.7842 33.2368C14.3248 33.9244 14.4142 34.84 15 35.4227C15.3207 35.7495 15.7616 35.9314 16.221 35.9314ZM9.47852 35.0774H4.2095C2.43979 35.0744 1.00308 33.6407 1 31.8679V4.2095C1.00308 2.43979 2.43979 1.00308 4.2095 1H64.382C66.1486 1 67.1691 2.42132 67.5637 3.99986L72.0064 21.663C72.0249 21.7339 72.0311 21.8048 72.0311 21.8757V31.8679C72.028 33.6407 70.5944 35.0743 68.8216 35.0774H59.8255C59.3815 38.4657 56.4957 40.9969 53.0797 40.9969C49.6667 40.9969 46.7809 38.4657 46.3369 35.0774H22.9674C22.5265 38.4657 19.6376 41 16.2215 41C12.8055 41 9.9194 38.4658 9.47852 35.0774ZM70.2738 27.1571C69.6664 27.0399 69.0374 27.2064 68.5657 27.6134C68.1248 28.0574 67.9922 28.7233 68.2327 29.2998C68.4701 29.8795 69.0343 30.2556 69.6602 30.2586H70.2737L70.2738 27.1571ZM70.2645 32.0192H69.6571H69.6602C67.8535 31.9883 66.4014 30.5147 66.4014 28.7079C66.4014 26.8981 67.8535 25.4244 69.6602 25.3967H70.2738V21.9807L65.8619 4.42568C65.6677 3.6549 65.2391 2.76079 64.3851 2.76079H4.20941C3.41091 2.76387 2.76347 3.41132 2.76039 4.21289V31.8682C2.76347 32.6667 3.41092 33.3141 4.20941 33.3203H9.47844C9.91931 29.9319 12.8051 27.3977 16.2212 27.3977C19.6373 27.3977 22.5261 29.9319 22.967 33.3203H46.3366C46.7805 29.9319 49.6663 27.4007 53.0824 27.4007C56.4954 27.4007 59.3812 29.9319 59.8251 33.3203H68.8244C69.5644 33.3172 70.1872 32.7561 70.2673 32.0162L70.2645 32.0192ZM6.83626 29.0502V28.0975C6.83626 27.6104 6.44162 27.2188 5.95448 27.2188C5.47044 27.2188 5.07578 27.6104 5.07578 28.0975V29.0502C5.07578 29.5373 5.47042 29.9289 5.95448 29.9289C6.44161 29.9289 6.83626 29.5373 6.83626 29.0502ZM6.83626 24.1943V23.2417C6.83626 22.7545 6.44162 22.3599 5.95448 22.3599C5.47044 22.3599 5.07578 22.7545 5.07578 23.2417V24.1943C5.07578 24.6784 5.47042 25.073 5.95448 25.073C6.44161 25.073 6.83626 24.6784 6.83626 24.1943ZM46.876 20.914H48.2881C48.7752 20.914 49.1699 20.5193 49.1699 20.0353C49.1699 19.5481 48.7752 19.1535 48.2881 19.1535H46.876C46.3889 19.1535 45.9973 19.5481 45.9973 20.0353C45.9973 20.5193 46.3889 20.914 46.876 20.914ZM53.0823 35.9314C53.9055 35.9314 54.6177 35.3487 54.778 34.5379C54.9414 33.7271 54.5067 32.9162 53.7451 32.6017C52.9805 32.2842 52.1019 32.5524 51.6424 33.2368C51.183 33.9244 51.2725 34.84 51.8582 35.4227C52.182 35.7495 52.6198 35.9314 53.0792 35.9314L53.0823 35.9314ZM12.657 37.7628C14.0998 39.2056 16.2673 39.6373 18.151 38.8573C20.0379 38.0772 21.2649 36.2397 21.2649 34.1987C21.2649 32.1578 20.0379 30.3202 18.151 29.5402C16.2673 28.7602 14.0998 29.1918 12.657 30.6316C10.6869 32.6017 10.6869 35.7958 12.657 37.7628ZM49.5152 37.7628C50.958 39.2056 53.1255 39.6373 55.0092 38.8573C56.893 38.0772 58.1231 36.2366 58.1231 34.1987C58.1231 32.1608 56.893 30.3202 55.0092 29.5402C53.1255 28.7602 50.958 29.1918 49.5152 30.6316C47.5451 32.6017 47.5451 35.7958 49.5152 37.7628ZM6.66325 4.73965C6.17612 4.73965 5.78455 5.1312 5.78147 5.61835V16.3011C5.78147 16.5324 5.87397 16.7574 6.04045 16.9208C6.20385 17.0873 6.42892 17.1798 6.66323 17.1798H17.346C17.5773 17.1798 17.8023 17.0873 17.9657 16.9208C18.1322 16.7574 18.2247 16.5324 18.2247 16.3011V5.61835C18.2216 5.13121 17.8301 4.73965 17.346 4.73965H6.66325ZM16.4707 6.49704H7.5425V15.4198H16.4707V6.49704ZM21.4962 4.73965C21.0121 4.73965 20.6175 5.13428 20.6175 5.62142V16.3011C20.6175 16.7851 21.0121 17.1798 21.4962 17.1798H32.1758C32.663 17.1798 33.0545 16.7851 33.0545 16.3011V5.61827C33.0545 5.13113 32.6599 4.73957 32.1758 4.73957L21.4962 4.73965ZM31.3005 6.49704L22.3746 6.50012V15.4197H31.3005V6.49704ZM36.3291 4.73965C35.845 4.73965 35.4504 5.13428 35.4504 5.62142V16.3011C35.4504 16.5323 35.5429 16.7574 35.7093 16.9208C35.8727 17.0873 36.0978 17.1797 36.329 17.1797H47.015C47.2462 17.1797 47.4713 17.0872 47.6347 16.9208C47.8012 16.7574 47.8937 16.5323 47.8937 16.3011V5.61827C47.8906 5.13113 47.499 4.73957 47.015 4.73957L36.3291 4.73965ZM46.1334 6.49704L37.2107 6.50012V15.4197H46.1334V6.49704ZM52.6664 4.73965C51.353 4.74273 50.2863 5.80643 50.2832 7.11978V16.9888C50.2832 17.1861 50.351 17.3773 50.4713 17.5315L55.916 24.453H55.9191C56.0825 24.6873 56.3507 24.826 56.6374 24.826H64.3544C65.5568 24.7613 66.5434 23.8518 66.7099 22.6586L67.5547 19.2364C67.5978 19.0915 67.6009 18.9343 67.567 18.7863L64.8045 6.91958C64.6473 5.72028 63.6546 4.80457 62.446 4.73985L52.6664 4.73965ZM62.4495 6.49704L52.6664 6.50012C52.3242 6.50012 52.0467 6.7776 52.0436 7.11983V16.6866L57.066 23.0655H64.3545C64.7244 23.0655 64.9187 22.5784 65.005 22.233L65.8097 18.9742L63.0935 7.31667C63.0133 6.97137 62.8191 6.49654 62.446 6.49654L62.4495 6.49704Z" stroke="black" stroke-width="0.2"/>
</svg>
