<svg width="10" height="12" viewBox="0 0 10 12" fill="none" xmlns="http://www.w3.org/2000/svg">
<path d="M9.47538 1.59837V5.99997C9.47538 7.94606 8.39699 9.30512 7.25198 10.2055C6.68068 10.6547 6.10404 10.9798 5.66385 11.1943C5.44438 11.3012 5.26048 11.3799 5.13039 11.4322C5.07085 11.4561 5.02269 11.4744 4.98769 11.4874C4.95269 11.4744 4.90454 11.4561 4.845 11.4322C4.7149 11.3799 4.53101 11.3012 4.31153 11.1943C3.87134 10.9798 3.2947 10.6547 2.7234 10.2055C1.57839 9.30512 0.5 7.94606 0.5 5.99997V1.59837L4.98769 0.505819L9.47538 1.59837ZM9.63496 1.63722L9.63501 1.63723L9.63496 1.63722Z" stroke="#11404C"/>
<path fill-rule="evenodd" clip-rule="evenodd" d="M7.81759 4.75667L4.74379 7.87C4.57264 8.04333 4.29881 8.04333 4.12766 7.87L2.59418 6.30333C2.42303 6.13 2.42303 5.85 2.59418 5.67667C2.76533 5.50333 3.03916 5.50333 3.21031 5.67667L4.44257 6.93L7.20831 4.13C7.37946 3.95667 7.65329 3.95667 7.82444 4.13C7.98874 4.30333 7.98874 4.58333 7.81759 4.75667Z" fill="#11404C"/>
</svg>
