<svg width="17" height="17" viewBox="0 0 17 17" fill="none" xmlns="http://www.w3.org/2000/svg">
<mask id="path-1-outside-1_191_39327" maskUnits="userSpaceOnUse" x="0" y="0" width="17" height="17" fill="black">
<rect fill="white" width="17" height="17"/>
<path d="M15.9878 2.6583C15.9693 2.59096 15.9332 2.52976 15.8832 2.48092C15.8333 2.43209 15.7713 2.39738 15.7035 2.38034L14.8397 2.16239L14.6217 1.2985C14.6047 1.23083 14.57 1.16888 14.5213 1.11896C14.4725 1.06904 14.4114 1.03293 14.3442 1.01431C14.2769 0.995696 14.2059 0.995232 14.1384 1.01297C14.071 1.03071 14.0094 1.06602 13.96 1.11529L12.2906 2.78149C12.2422 2.82975 12.2071 2.88977 12.1888 2.95565C12.1706 3.02154 12.1697 3.09105 12.1864 3.15737L12.4075 4.03231L7.85903 8.58552C7.78489 8.65965 7.74324 8.76021 7.74324 8.86506C7.74324 8.9699 7.78489 9.07046 7.85903 9.1446C7.93317 9.21874 8.03372 9.26039 8.13857 9.26039C8.24342 9.26039 8.34397 9.21874 8.41811 9.1446L12.9697 4.5914L13.8447 4.8125C13.9107 4.82956 13.9801 4.82921 14.0459 4.8115C14.1118 4.79379 14.172 4.75931 14.2206 4.71142L15.8868 3.04207C15.936 2.99272 15.9713 2.93122 15.989 2.86381C16.0068 2.7964 16.0064 2.7255 15.9878 2.6583ZM13.821 3.99125L13.175 3.83332L13.0171 3.18737L14.0279 2.16555L14.1337 2.58407C14.1512 2.65306 14.1869 2.71604 14.2373 2.76636C14.2876 2.81668 14.3506 2.85246 14.4196 2.86993L14.8381 2.97574L13.821 3.99125ZM6.3792 8.86348C6.37962 9.32996 6.56511 9.77722 6.89497 10.1071C7.22482 10.4369 7.67208 10.6224 8.13857 10.6228C8.60491 10.6224 9.05201 10.4369 9.38161 10.107C9.71122 9.77708 9.89636 9.32982 9.89636 8.86348C9.89636 8.854 9.89636 8.83979 9.89636 8.82557C9.89427 8.72086 9.93386 8.6196 10.0064 8.54407C10.079 8.46855 10.1786 8.42494 10.2833 8.42284C10.388 8.42075 10.4893 8.46034 10.5648 8.5329C10.6403 8.60547 10.6839 8.70506 10.686 8.80978C10.686 8.82715 10.686 8.84453 10.686 8.86348C10.686 9.53925 10.4177 10.1874 9.93999 10.6654C9.46229 11.1434 8.81434 11.4121 8.13857 11.4125C7.79859 11.421 7.46036 11.3613 7.14378 11.2371C6.82721 11.1128 6.53871 10.9265 6.29526 10.689C6.05181 10.4515 5.85834 10.1678 5.72624 9.85438C5.59414 9.541 5.52609 9.20435 5.52609 8.86427C5.52609 8.52418 5.59414 8.18754 5.72624 7.87416C5.85834 7.56078 6.05181 7.277 6.29526 7.03953C6.53871 6.80207 6.82721 6.61572 7.14378 6.49147C7.46036 6.36721 7.79859 6.30756 8.13857 6.31602H8.18437C8.23622 6.31705 8.28736 6.32828 8.33488 6.34908C8.38239 6.36987 8.42534 6.39983 8.46127 6.43723C8.4972 6.47462 8.52541 6.51874 8.54429 6.56704C8.56317 6.61535 8.57235 6.6669 8.5713 6.71875C8.57113 6.77086 8.56047 6.82239 8.53997 6.8703C8.51947 6.9182 8.48954 6.96149 8.45196 6.99759C8.41439 7.03369 8.36994 7.06186 8.32125 7.08043C8.27257 7.099 8.22065 7.10759 8.16858 7.10569H8.12751C7.66309 7.1086 7.21866 7.29504 6.89115 7.62433C6.56363 7.95361 6.3796 8.39905 6.3792 8.86348ZM9.85372 5.19312C9.31919 4.94149 8.73569 4.81098 8.14489 4.81092C7.34348 4.80998 6.5598 5.04677 5.89299 5.49133C5.22619 5.93589 4.70623 6.56823 4.3989 7.30837C4.09156 8.04851 4.01066 8.86317 4.16643 9.6493C4.32221 10.4354 4.70765 11.1577 5.274 11.7247C5.84035 12.2917 6.56216 12.678 7.3481 12.8347C8.13404 12.9914 8.9488 12.9114 9.68929 12.605C10.4298 12.2985 11.0627 11.7793 11.5081 11.113C11.9534 10.4467 12.1911 9.66331 12.1911 8.8619C12.1912 8.27109 12.0607 7.68756 11.8089 7.15306C11.7645 7.05819 11.7596 6.94957 11.7953 6.85109C11.831 6.75261 11.9044 6.67234 11.9992 6.62794C12.0941 6.58354 12.2027 6.57865 12.3012 6.61434C12.3997 6.65003 12.48 6.72337 12.5244 6.81825C12.8252 7.45753 12.981 8.15538 12.9808 8.8619C12.9808 9.81929 12.6969 10.7552 12.165 11.5512C11.6331 12.3473 10.8771 12.9677 9.99258 13.3341C9.10807 13.7004 8.13478 13.7963 7.19579 13.6095C6.25679 13.4227 5.39427 12.9617 4.7173 12.2847C4.04032 11.6078 3.5793 10.7453 3.39252 9.80626C3.20574 8.86727 3.3016 7.89398 3.66798 7.00947C4.03436 6.12495 4.65479 5.36895 5.45083 4.83705C6.24687 4.30516 7.18276 4.02126 8.14015 4.02126C8.84667 4.02097 9.54453 4.17683 10.1838 4.47768C10.2787 4.52208 10.352 4.60235 10.3877 4.70083C10.4234 4.79931 10.4185 4.90794 10.3741 5.00281C10.3297 5.09768 10.2494 5.17103 10.151 5.20672C10.0525 5.24241 9.94385 5.23752 9.84898 5.19312H9.85372ZM10.8503 3.11946C10.0042 2.71903 9.07938 2.51239 8.14331 2.51458C6.88697 2.51333 5.65848 2.88476 4.61329 3.58187C3.56809 4.27897 2.75315 5.27044 2.27158 6.43082C1.79 7.5912 1.66343 8.86835 1.90788 10.1007C2.15233 11.333 2.75681 12.4651 3.64485 13.3538C4.53288 14.2425 5.66457 14.8479 6.89672 15.0932C8.12886 15.3386 9.40611 15.213 10.5668 14.7323C11.7276 14.2516 12.7197 13.4374 13.4175 12.3927C14.1154 11.348 14.4878 10.1198 14.4875 8.86348C14.4897 7.92739 14.2831 7.0026 13.8826 6.15651C13.8603 6.10964 13.8474 6.05883 13.8448 6.007C13.8421 5.95516 13.8497 5.90331 13.8671 5.8544C13.8845 5.80549 13.9113 5.76048 13.9461 5.72194C13.9808 5.68341 14.0229 5.6521 14.0697 5.6298C14.1644 5.58478 14.2731 5.5792 14.3718 5.61429C14.4208 5.63167 14.4658 5.65851 14.5043 5.69329C14.5428 5.72806 14.5741 5.77008 14.5964 5.81695C15.047 6.76866 15.2796 7.80892 15.2771 8.8619C15.277 10.4081 14.7749 11.9124 13.8463 13.1487C12.9177 14.3849 11.6129 15.2863 10.128 15.7172C8.64304 16.1481 7.05836 16.0852 5.61226 15.538C4.16615 14.9908 2.93679 13.9889 2.10906 12.683C1.28134 11.377 0.900008 9.83763 1.02241 8.29631C1.14481 6.75499 1.76434 5.29508 2.78781 4.13614C3.81128 2.9772 5.18337 2.18188 6.69771 1.8698C8.21206 1.55772 9.7868 1.74575 11.1851 2.40561C11.2339 2.42647 11.2779 2.45695 11.3147 2.49523C11.3514 2.5335 11.3801 2.57879 11.3989 2.62838C11.4177 2.67798 11.4264 2.73086 11.4243 2.78387C11.4223 2.83688 11.4096 2.88894 11.387 2.93693C11.3644 2.98492 11.3323 3.02786 11.2927 3.06319C11.2531 3.09851 11.2069 3.1255 11.1566 3.14254C11.1064 3.15958 11.0532 3.16631 11.0003 3.16235C10.9474 3.15838 10.8958 3.1438 10.8487 3.11946H10.8503Z"/>
</mask>
<path d="M15.9878 2.6583C15.9693 2.59096 15.9332 2.52976 15.8832 2.48092C15.8333 2.43209 15.7713 2.39738 15.7035 2.38034L14.8397 2.16239L14.6217 1.2985C14.6047 1.23083 14.57 1.16888 14.5213 1.11896C14.4725 1.06904 14.4114 1.03293 14.3442 1.01431C14.2769 0.995696 14.2059 0.995232 14.1384 1.01297C14.071 1.03071 14.0094 1.06602 13.96 1.11529L12.2906 2.78149C12.2422 2.82975 12.2071 2.88977 12.1888 2.95565C12.1706 3.02154 12.1697 3.09105 12.1864 3.15737L12.4075 4.03231L7.85903 8.58552C7.78489 8.65965 7.74324 8.76021 7.74324 8.86506C7.74324 8.9699 7.78489 9.07046 7.85903 9.1446C7.93317 9.21874 8.03372 9.26039 8.13857 9.26039C8.24342 9.26039 8.34397 9.21874 8.41811 9.1446L12.9697 4.5914L13.8447 4.8125C13.9107 4.82956 13.9801 4.82921 14.0459 4.8115C14.1118 4.79379 14.172 4.75931 14.2206 4.71142L15.8868 3.04207C15.936 2.99272 15.9713 2.93122 15.989 2.86381C16.0068 2.7964 16.0064 2.7255 15.9878 2.6583ZM13.821 3.99125L13.175 3.83332L13.0171 3.18737L14.0279 2.16555L14.1337 2.58407C14.1512 2.65306 14.1869 2.71604 14.2373 2.76636C14.2876 2.81668 14.3506 2.85246 14.4196 2.86993L14.8381 2.97574L13.821 3.99125ZM6.3792 8.86348C6.37962 9.32996 6.56511 9.77722 6.89497 10.1071C7.22482 10.4369 7.67208 10.6224 8.13857 10.6228C8.60491 10.6224 9.05201 10.4369 9.38161 10.107C9.71122 9.77708 9.89636 9.32982 9.89636 8.86348C9.89636 8.854 9.89636 8.83979 9.89636 8.82557C9.89427 8.72086 9.93386 8.6196 10.0064 8.54407C10.079 8.46855 10.1786 8.42494 10.2833 8.42284C10.388 8.42075 10.4893 8.46034 10.5648 8.5329C10.6403 8.60547 10.6839 8.70506 10.686 8.80978C10.686 8.82715 10.686 8.84453 10.686 8.86348C10.686 9.53925 10.4177 10.1874 9.93999 10.6654C9.46229 11.1434 8.81434 11.4121 8.13857 11.4125C7.79859 11.421 7.46036 11.3613 7.14378 11.2371C6.82721 11.1128 6.53871 10.9265 6.29526 10.689C6.05181 10.4515 5.85834 10.1678 5.72624 9.85438C5.59414 9.541 5.52609 9.20435 5.52609 8.86427C5.52609 8.52418 5.59414 8.18754 5.72624 7.87416C5.85834 7.56078 6.05181 7.277 6.29526 7.03953C6.53871 6.80207 6.82721 6.61572 7.14378 6.49147C7.46036 6.36721 7.79859 6.30756 8.13857 6.31602H8.18437C8.23622 6.31705 8.28736 6.32828 8.33488 6.34908C8.38239 6.36987 8.42534 6.39983 8.46127 6.43723C8.4972 6.47462 8.52541 6.51874 8.54429 6.56704C8.56317 6.61535 8.57235 6.6669 8.5713 6.71875C8.57113 6.77086 8.56047 6.82239 8.53997 6.8703C8.51947 6.9182 8.48954 6.96149 8.45196 6.99759C8.41439 7.03369 8.36994 7.06186 8.32125 7.08043C8.27257 7.099 8.22065 7.10759 8.16858 7.10569H8.12751C7.66309 7.1086 7.21866 7.29504 6.89115 7.62433C6.56363 7.95361 6.3796 8.39905 6.3792 8.86348ZM9.85372 5.19312C9.31919 4.94149 8.73569 4.81098 8.14489 4.81092C7.34348 4.80998 6.5598 5.04677 5.89299 5.49133C5.22619 5.93589 4.70623 6.56823 4.3989 7.30837C4.09156 8.04851 4.01066 8.86317 4.16643 9.6493C4.32221 10.4354 4.70765 11.1577 5.274 11.7247C5.84035 12.2917 6.56216 12.678 7.3481 12.8347C8.13404 12.9914 8.9488 12.9114 9.68929 12.605C10.4298 12.2985 11.0627 11.7793 11.5081 11.113C11.9534 10.4467 12.1911 9.66331 12.1911 8.8619C12.1912 8.27109 12.0607 7.68756 11.8089 7.15306C11.7645 7.05819 11.7596 6.94957 11.7953 6.85109C11.831 6.75261 11.9044 6.67234 11.9992 6.62794C12.0941 6.58354 12.2027 6.57865 12.3012 6.61434C12.3997 6.65003 12.48 6.72337 12.5244 6.81825C12.8252 7.45753 12.981 8.15538 12.9808 8.8619C12.9808 9.81929 12.6969 10.7552 12.165 11.5512C11.6331 12.3473 10.8771 12.9677 9.99258 13.3341C9.10807 13.7004 8.13478 13.7963 7.19579 13.6095C6.25679 13.4227 5.39427 12.9617 4.7173 12.2847C4.04032 11.6078 3.5793 10.7453 3.39252 9.80626C3.20574 8.86727 3.3016 7.89398 3.66798 7.00947C4.03436 6.12495 4.65479 5.36895 5.45083 4.83705C6.24687 4.30516 7.18276 4.02126 8.14015 4.02126C8.84667 4.02097 9.54453 4.17683 10.1838 4.47768C10.2787 4.52208 10.352 4.60235 10.3877 4.70083C10.4234 4.79931 10.4185 4.90794 10.3741 5.00281C10.3297 5.09768 10.2494 5.17103 10.151 5.20672C10.0525 5.24241 9.94385 5.23752 9.84898 5.19312H9.85372ZM10.8503 3.11946C10.0042 2.71903 9.07938 2.51239 8.14331 2.51458C6.88697 2.51333 5.65848 2.88476 4.61329 3.58187C3.56809 4.27897 2.75315 5.27044 2.27158 6.43082C1.79 7.5912 1.66343 8.86835 1.90788 10.1007C2.15233 11.333 2.75681 12.4651 3.64485 13.3538C4.53288 14.2425 5.66457 14.8479 6.89672 15.0932C8.12886 15.3386 9.40611 15.213 10.5668 14.7323C11.7276 14.2516 12.7197 13.4374 13.4175 12.3927C14.1154 11.348 14.4878 10.1198 14.4875 8.86348C14.4897 7.92739 14.2831 7.0026 13.8826 6.15651C13.8603 6.10964 13.8474 6.05883 13.8448 6.007C13.8421 5.95516 13.8497 5.90331 13.8671 5.8544C13.8845 5.80549 13.9113 5.76048 13.9461 5.72194C13.9808 5.68341 14.0229 5.6521 14.0697 5.6298C14.1644 5.58478 14.2731 5.5792 14.3718 5.61429C14.4208 5.63167 14.4658 5.65851 14.5043 5.69329C14.5428 5.72806 14.5741 5.77008 14.5964 5.81695C15.047 6.76866 15.2796 7.80892 15.2771 8.8619C15.277 10.4081 14.7749 11.9124 13.8463 13.1487C12.9177 14.3849 11.6129 15.2863 10.128 15.7172C8.64304 16.1481 7.05836 16.0852 5.61226 15.538C4.16615 14.9908 2.93679 13.9889 2.10906 12.683C1.28134 11.377 0.900008 9.83763 1.02241 8.29631C1.14481 6.75499 1.76434 5.29508 2.78781 4.13614C3.81128 2.9772 5.18337 2.18188 6.69771 1.8698C8.21206 1.55772 9.7868 1.74575 11.1851 2.40561C11.2339 2.42647 11.2779 2.45695 11.3147 2.49523C11.3514 2.5335 11.3801 2.57879 11.3989 2.62838C11.4177 2.67798 11.4264 2.73086 11.4243 2.78387C11.4223 2.83688 11.4096 2.88894 11.387 2.93693C11.3644 2.98492 11.3323 3.02786 11.2927 3.06319C11.2531 3.09851 11.2069 3.1255 11.1566 3.14254C11.1064 3.15958 11.0532 3.16631 11.0003 3.16235C10.9474 3.15838 10.8958 3.1438 10.8487 3.11946H10.8503Z" fill="#396773"/>
<path d="M15.9878 2.6583C15.9693 2.59096 15.9332 2.52976 15.8832 2.48092C15.8333 2.43209 15.7713 2.39738 15.7035 2.38034L14.8397 2.16239L14.6217 1.2985C14.6047 1.23083 14.57 1.16888 14.5213 1.11896C14.4725 1.06904 14.4114 1.03293 14.3442 1.01431C14.2769 0.995696 14.2059 0.995232 14.1384 1.01297C14.071 1.03071 14.0094 1.06602 13.96 1.11529L12.2906 2.78149C12.2422 2.82975 12.2071 2.88977 12.1888 2.95565C12.1706 3.02154 12.1697 3.09105 12.1864 3.15737L12.4075 4.03231L7.85903 8.58552C7.78489 8.65965 7.74324 8.76021 7.74324 8.86506C7.74324 8.9699 7.78489 9.07046 7.85903 9.1446C7.93317 9.21874 8.03372 9.26039 8.13857 9.26039C8.24342 9.26039 8.34397 9.21874 8.41811 9.1446L12.9697 4.5914L13.8447 4.8125C13.9107 4.82956 13.9801 4.82921 14.0459 4.8115C14.1118 4.79379 14.172 4.75931 14.2206 4.71142L15.8868 3.04207C15.936 2.99272 15.9713 2.93122 15.989 2.86381C16.0068 2.7964 16.0064 2.7255 15.9878 2.6583ZM13.821 3.99125L13.175 3.83332L13.0171 3.18737L14.0279 2.16555L14.1337 2.58407C14.1512 2.65306 14.1869 2.71604 14.2373 2.76636C14.2876 2.81668 14.3506 2.85246 14.4196 2.86993L14.8381 2.97574L13.821 3.99125ZM6.3792 8.86348C6.37962 9.32996 6.56511 9.77722 6.89497 10.1071C7.22482 10.4369 7.67208 10.6224 8.13857 10.6228C8.60491 10.6224 9.05201 10.4369 9.38161 10.107C9.71122 9.77708 9.89636 9.32982 9.89636 8.86348C9.89636 8.854 9.89636 8.83979 9.89636 8.82557C9.89427 8.72086 9.93386 8.6196 10.0064 8.54407C10.079 8.46855 10.1786 8.42494 10.2833 8.42284C10.388 8.42075 10.4893 8.46034 10.5648 8.5329C10.6403 8.60547 10.6839 8.70506 10.686 8.80978C10.686 8.82715 10.686 8.84453 10.686 8.86348C10.686 9.53925 10.4177 10.1874 9.93999 10.6654C9.46229 11.1434 8.81434 11.4121 8.13857 11.4125C7.79859 11.421 7.46036 11.3613 7.14378 11.2371C6.82721 11.1128 6.53871 10.9265 6.29526 10.689C6.05181 10.4515 5.85834 10.1678 5.72624 9.85438C5.59414 9.541 5.52609 9.20435 5.52609 8.86427C5.52609 8.52418 5.59414 8.18754 5.72624 7.87416C5.85834 7.56078 6.05181 7.277 6.29526 7.03953C6.53871 6.80207 6.82721 6.61572 7.14378 6.49147C7.46036 6.36721 7.79859 6.30756 8.13857 6.31602H8.18437C8.23622 6.31705 8.28736 6.32828 8.33488 6.34908C8.38239 6.36987 8.42534 6.39983 8.46127 6.43723C8.4972 6.47462 8.52541 6.51874 8.54429 6.56704C8.56317 6.61535 8.57235 6.6669 8.5713 6.71875C8.57113 6.77086 8.56047 6.82239 8.53997 6.8703C8.51947 6.9182 8.48954 6.96149 8.45196 6.99759C8.41439 7.03369 8.36994 7.06186 8.32125 7.08043C8.27257 7.099 8.22065 7.10759 8.16858 7.10569H8.12751C7.66309 7.1086 7.21866 7.29504 6.89115 7.62433C6.56363 7.95361 6.3796 8.39905 6.3792 8.86348ZM9.85372 5.19312C9.31919 4.94149 8.73569 4.81098 8.14489 4.81092C7.34348 4.80998 6.5598 5.04677 5.89299 5.49133C5.22619 5.93589 4.70623 6.56823 4.3989 7.30837C4.09156 8.04851 4.01066 8.86317 4.16643 9.6493C4.32221 10.4354 4.70765 11.1577 5.274 11.7247C5.84035 12.2917 6.56216 12.678 7.3481 12.8347C8.13404 12.9914 8.9488 12.9114 9.68929 12.605C10.4298 12.2985 11.0627 11.7793 11.5081 11.113C11.9534 10.4467 12.1911 9.66331 12.1911 8.8619C12.1912 8.27109 12.0607 7.68756 11.8089 7.15306C11.7645 7.05819 11.7596 6.94957 11.7953 6.85109C11.831 6.75261 11.9044 6.67234 11.9992 6.62794C12.0941 6.58354 12.2027 6.57865 12.3012 6.61434C12.3997 6.65003 12.48 6.72337 12.5244 6.81825C12.8252 7.45753 12.981 8.15538 12.9808 8.8619C12.9808 9.81929 12.6969 10.7552 12.165 11.5512C11.6331 12.3473 10.8771 12.9677 9.99258 13.3341C9.10807 13.7004 8.13478 13.7963 7.19579 13.6095C6.25679 13.4227 5.39427 12.9617 4.7173 12.2847C4.04032 11.6078 3.5793 10.7453 3.39252 9.80626C3.20574 8.86727 3.3016 7.89398 3.66798 7.00947C4.03436 6.12495 4.65479 5.36895 5.45083 4.83705C6.24687 4.30516 7.18276 4.02126 8.14015 4.02126C8.84667 4.02097 9.54453 4.17683 10.1838 4.47768C10.2787 4.52208 10.352 4.60235 10.3877 4.70083C10.4234 4.79931 10.4185 4.90794 10.3741 5.00281C10.3297 5.09768 10.2494 5.17103 10.151 5.20672C10.0525 5.24241 9.94385 5.23752 9.84898 5.19312H9.85372ZM10.8503 3.11946C10.0042 2.71903 9.07938 2.51239 8.14331 2.51458C6.88697 2.51333 5.65848 2.88476 4.61329 3.58187C3.56809 4.27897 2.75315 5.27044 2.27158 6.43082C1.79 7.5912 1.66343 8.86835 1.90788 10.1007C2.15233 11.333 2.75681 12.4651 3.64485 13.3538C4.53288 14.2425 5.66457 14.8479 6.89672 15.0932C8.12886 15.3386 9.40611 15.213 10.5668 14.7323C11.7276 14.2516 12.7197 13.4374 13.4175 12.3927C14.1154 11.348 14.4878 10.1198 14.4875 8.86348C14.4897 7.92739 14.2831 7.0026 13.8826 6.15651C13.8603 6.10964 13.8474 6.05883 13.8448 6.007C13.8421 5.95516 13.8497 5.90331 13.8671 5.8544C13.8845 5.80549 13.9113 5.76048 13.9461 5.72194C13.9808 5.68341 14.0229 5.6521 14.0697 5.6298C14.1644 5.58478 14.2731 5.5792 14.3718 5.61429C14.4208 5.63167 14.4658 5.65851 14.5043 5.69329C14.5428 5.72806 14.5741 5.77008 14.5964 5.81695C15.047 6.76866 15.2796 7.80892 15.2771 8.8619C15.277 10.4081 14.7749 11.9124 13.8463 13.1487C12.9177 14.3849 11.6129 15.2863 10.128 15.7172C8.64304 16.1481 7.05836 16.0852 5.61226 15.538C4.16615 14.9908 2.93679 13.9889 2.10906 12.683C1.28134 11.377 0.900008 9.83763 1.02241 8.29631C1.14481 6.75499 1.76434 5.29508 2.78781 4.13614C3.81128 2.9772 5.18337 2.18188 6.69771 1.8698C8.21206 1.55772 9.7868 1.74575 11.1851 2.40561C11.2339 2.42647 11.2779 2.45695 11.3147 2.49523C11.3514 2.5335 11.3801 2.57879 11.3989 2.62838C11.4177 2.67798 11.4264 2.73086 11.4243 2.78387C11.4223 2.83688 11.4096 2.88894 11.387 2.93693C11.3644 2.98492 11.3323 3.02786 11.2927 3.06319C11.2531 3.09851 11.2069 3.1255 11.1566 3.14254C11.1064 3.15958 11.0532 3.16631 11.0003 3.16235C10.9474 3.15838 10.8958 3.1438 10.8487 3.11946H10.8503Z" stroke="#396773" stroke-width="0.4" mask="url(#path-1-outside-1_191_39327)"/>
</svg>
