<svg width="14" height="12" viewBox="0 0 14 12" fill="none" xmlns="http://www.w3.org/2000/svg">
<path d="M11.9451 3.30665V6.35125L7.67864 6.89544V6.58849C7.67864 6.28241 7.42985 6.03292 7.12307 6.03292H6.35497C6.04831 6.03292 5.79941 6.28182 5.79941 6.58849V6.89544L1.53242 6.35118V3.30617C1.53242 3.06092 1.73213 2.8612 1.97738 2.8612H11.5001C11.7453 2.8612 11.9451 3.06084 11.9451 3.30665ZM11.5007 2.17862H8.80505V1.65953C8.80505 1.21326 8.44239 0.85 7.99552 0.85H5.48276C5.0365 0.85 4.67324 1.21266 4.67324 1.65953V2.17862H1.97758C1.35574 2.17862 0.85 2.68434 0.85 3.30619V6.65164C0.85 6.82365 0.978178 6.96817 1.14805 6.99026L1.14851 6.99032L1.29622 7.00907V10.1353C1.29622 10.6965 1.75711 11.15 2.32049 11.15H11.1589C11.7223 11.15 12.1832 10.6965 12.1832 10.1353V7.00907L12.3309 6.99032L12.3313 6.99026C12.5012 6.96818 12.6294 6.82365 12.6294 6.65164V3.30619C12.6294 2.68435 12.1237 2.17862 11.5018 2.17862H11.5007ZM5.35578 1.65954V1.65953C5.35578 1.5898 5.41297 1.53261 5.48269 1.53261H7.99545C8.06517 1.53261 8.12236 1.5898 8.12236 1.65953V2.17862H5.35572L5.35578 1.65954ZM11.5 10.1358C11.5 10.3161 11.3494 10.4679 11.1583 10.4679H2.31989C2.12876 10.4679 1.97823 10.3161 1.97823 10.1358V7.09646L5.79943 7.58382V8.25761C5.79943 8.56428 6.04833 8.81318 6.355 8.81318H7.12309C7.42976 8.81318 7.67866 8.56428 7.67866 8.25761V7.58382L11.4999 7.09646L11.5 10.1358ZM6.99607 8.13056H6.48207V6.71548H6.99607V8.13056Z" fill="#11404C" stroke="#11404C" stroke-width="0.3"/>
</svg>
