<svg width="17" height="17" viewBox="0 0 17 17" fill="none" xmlns="http://www.w3.org/2000/svg">
<path d="M11.694 11.4034L11.62 11.3362L11.694 11.4034C11.9167 11.1582 11.8988 10.7787 11.6535 10.5559L9.1 8.23448L9.09999 4.50001C9.09999 4.16852 8.83147 3.90001 8.49999 3.90001C8.16851 3.90001 7.89999 4.16852 7.89999 4.50001V8.27873C7.89999 8.58883 8.03067 8.88378 8.26018 9.09268L8.26023 9.09272L10.8465 11.4439L10.8465 11.444C11.0917 11.6667 11.4712 11.6487 11.694 11.4034ZM16.1 8.5C16.1 4.30541 12.6946 0.9 8.5 0.9C4.30541 0.9 0.9 4.30541 0.9 8.5C0.9 12.6946 4.30541 16.1 8.5 16.1C12.6946 16.1 16.1 12.6946 16.1 8.5ZM2.1 8.5C2.1 4.96771 4.96771 2.1 8.5 2.1C12.0323 2.1 14.9 4.96771 14.9 8.5C14.9 12.0323 12.0323 14.9 8.5 14.9C4.96771 14.9 2.1 12.0323 2.1 8.5Z" fill="#396773" stroke="#396773" stroke-width="0.2"/>
</svg>
