<svg width="18" height="20" viewBox="0 0 18 20" fill="none" xmlns="http://www.w3.org/2000/svg">
<path d="M7.42869 7.69051C7.4224 7.31844 7.13358 7.02813 6.7444 7.02769L6.7444 7.02767L6.74259 7.0277C6.37015 7.034 6.07349 7.34159 6.07979 7.7138L6.07979 7.71386L6.21383 15.3734L6.21383 15.3735C6.22057 15.7421 6.52133 16.0362 6.88828 16.0362H6.8883H6.88832H6.88834H6.88836H6.88838H6.8884H6.88842H6.88844H6.88846H6.88848H6.8885H6.88852H6.88854H6.88856H6.88858H6.8886H6.88862H6.88864H6.88866H6.88869H6.88871H6.88873H6.88875H6.88877H6.88879H6.88881H6.88883H6.88885H6.88887H6.88889H6.88891H6.88893H6.88895H6.88897H6.88899H6.88901H6.88903H6.88905H6.88907H6.88909H6.88911H6.88913H6.88915H6.88917H6.88919H6.88921H6.88923H6.88925H6.88927H6.88929H6.88931H6.88933H6.88935H6.88937H6.88939H6.88941H6.88943H6.88945H6.88947H6.88949H6.88951H6.88953H6.88955H6.88957H6.88959H6.88961H6.88963H6.88965H6.88967H6.88969H6.88971H6.88973H6.88975H6.88977H6.88979H6.88981H6.88984H6.88986H6.88988H6.8899H6.88992H6.88994H6.88996H6.88998H6.89H6.89002H6.89004H6.89006H6.89008H6.8901H6.89012H6.89014H6.89016H6.89018H6.8902H6.89022H6.89024H6.89026H6.89028H6.8903H6.89032H6.89034H6.89036H6.89038H6.8904H6.89042H6.89044H6.89046H6.89048H6.8905H6.89052H6.89054H6.89056H6.89058H6.8906H6.89062H6.89064H6.89066H6.89068H6.8907H6.89072H6.89074H6.89076H6.89078H6.8908H6.89082H6.89084H6.89086H6.89088H6.8909H6.89092H6.89094H6.89096H6.89098H6.891H6.89102H6.89104H6.89106H6.89108H6.8911H6.89112H6.89114H6.89116H6.89118H6.8912H6.89122H6.89124H6.89126H6.89128H6.8913H6.89132H6.89134H6.89136H6.89138H6.8914H6.89142H6.89144H6.89146H6.89148H6.8915H6.89152H6.89154H6.89156H6.89158H6.8916H6.89162H6.89164H6.89166H6.89168H6.8917H6.89172H6.89174H6.89176H6.89178H6.8918H6.89182H6.89184H6.89186H6.89188H6.8919H6.89192H6.89194H6.89196H6.89198H6.892H6.89202H6.89204H6.89206H6.89208H6.8921H6.89212H6.89214H6.89216H6.89218H6.8922H6.89222H6.89224H6.89226H6.89228H6.8923H6.89232H6.89234H6.89236H6.89238H6.8924H6.89242H6.89244H6.89246H6.89248H6.8925H6.89252H6.89254H6.89256H6.89258H6.8926H6.89261H6.89263H6.89265H6.89267H6.89269H6.89271H6.89273H6.89275H6.89277H6.89279H6.89281H6.89283H6.89285H6.89287H6.89289H6.89291H6.89293H6.89295H6.89297H6.89299H6.89301H6.89303H6.89305H6.89307H6.89309H6.89311H6.89313H6.89315H6.89317H6.89319H6.89321H6.89323H6.89325H6.89327H6.89329H6.89331H6.89333H6.89334H6.89336H6.89338H6.8934H6.89342H6.89344H6.89346H6.89348H6.8935H6.89352H6.89354H6.89356H6.89358H6.8936H6.89362H6.89364H6.89366H6.89368H6.8937H6.89372H6.89374H6.89376H6.89378H6.8938H6.89382H6.89383H6.89385H6.89387H6.89389H6.89391H6.89393H6.89395H6.89397H6.89399H6.89401H6.89403H6.89405H6.89407H6.89409H6.89411H6.89413H6.89415H6.89417H6.89419H6.8942H6.89422H6.89424H6.89426H6.89428H6.8943H6.89432H6.89434H6.89436H6.89438H6.8944H6.89442H6.89444H6.89446H6.89448H6.8945H6.89452H6.89453H6.89455H6.89457H6.89459H6.89461H6.89463H6.89465H6.89467H6.89469H6.89471H6.89473H6.89475H6.89477H6.89479H6.89481H6.89482H6.89484H6.89486H6.89488H6.8949H6.89492H6.89494H6.89496H6.89498H6.895H6.89502H6.89504H6.89506H6.89507H6.89509H6.89511H6.89513H6.89515H6.89517H6.89519H6.89521H6.89523H6.89525H6.89527H6.89529H6.8953H6.89532H6.89534H6.89536H6.89538H6.8954H6.89542H6.89544H6.89546H6.89548H6.8955H6.89551H6.89553H6.89555H6.89557H6.89559H6.89561H6.89563H6.89565H6.89567H6.89569H6.8957H6.89572H6.89574H6.89576H6.89578H6.8958H6.89582H6.89584H6.89586H6.89588H6.89589H6.89591H6.89593H6.89595H6.89597H6.89599H6.89601H6.89603H6.89605H6.89606H6.89608H6.8961H6.89612H6.89614H6.89616H6.89618H6.8962H6.89622H6.89623H6.89625H6.89627H6.89629H6.89631H6.89633H6.89635H6.89637H6.89638H6.8964H6.89642H6.89644H6.89646H6.89648H6.8965H6.89652H6.89653H6.89655H6.89657H6.89659H6.89661H6.89663H6.89665H6.89666H6.89668H6.8967H6.89672H6.89674H6.89676H6.89678H6.89679H6.89681H6.89683H6.89685H6.89687H6.89689H6.89691H6.89692H6.89694H6.89696H6.89698H6.897H6.89702H6.89704H6.89705H6.89707H6.89709H6.89711H6.89713H6.89715H6.89717H6.89718H6.8972H6.89722H6.89724H6.89726H6.89728H6.89729H6.89731H6.89733H6.89735H6.89737H6.89739H6.8974H6.89742H6.89744H6.89746H6.89748H6.8975H6.89751H6.89753H6.89755H6.89757H6.89759H6.89761H6.89762H6.89764H6.89766H6.89768H6.8977H6.89771H6.89773H6.89775H6.89777H6.89779H6.89781H6.89782H6.89784H6.89786H6.89788H6.8979H6.89791H6.89793H6.89795H6.89797H6.89799H6.898H6.89802H6.89804H6.89806H6.89808H6.8981H6.89811H6.89813H6.89815H6.89817H6.89819H6.8982H6.89822L6.89824 16.0362L6.89993 16.0362C7.27237 16.0299 7.56903 15.7223 7.56274 15.3501L7.56273 15.35L7.42869 7.69051ZM7.42869 7.69051L7.32871 7.6922M7.42869 7.69051L7.42869 7.69045L7.32871 7.6922M7.32871 7.6922L7.46275 15.3518C7.46811 15.6689 7.21535 15.9308 6.89824 15.9362H6.88828C6.57577 15.9362 6.31956 15.6857 6.31381 15.3717L6.17977 7.71211C6.17441 7.395 6.42718 7.13305 6.74428 7.12769C7.07939 7.12807 7.32335 7.37509 7.32871 7.6922Z" fill="black" stroke="black" stroke-width="0.2"/>
<path d="M11.1956 16.0362L11.1956 16.0362H11.1974H11.1974H11.1974H11.1975H11.1975H11.1975H11.1975H11.1975H11.1976H11.1976H11.1976H11.1976H11.1976H11.1977H11.1977H11.1977H11.1977H11.1977H11.1978H11.1978H11.1978H11.1978H11.1979H11.1979H11.1979H11.1979H11.1979H11.198H11.198H11.198H11.198H11.198H11.1981H11.1981H11.1981H11.1981H11.1981H11.1982H11.1982H11.1982H11.1982H11.1982H11.1983H11.1983H11.1983H11.1983H11.1983H11.1984H11.1984H11.1984H11.1984H11.1984H11.1985H11.1985H11.1985H11.1985H11.1985H11.1986H11.1986H11.1986H11.1986H11.1986H11.1987H11.1987H11.1987H11.1987H11.1987H11.1988H11.1988H11.1988H11.1988H11.1988H11.1989H11.1989H11.1989H11.1989H11.1989H11.199H11.199H11.199H11.199H11.199H11.1991H11.1991H11.1991H11.1991H11.1991H11.1992H11.1992H11.1992H11.1992H11.1992H11.1993H11.1993H11.1993H11.1993H11.1993H11.1994H11.1994H11.1994H11.1994H11.1994H11.1995H11.1995H11.1995H11.1995H11.1995H11.1996H11.1996H11.1996H11.1996H11.1996H11.1997H11.1997H11.1997H11.1997H11.1997H11.1998H11.1998H11.1998H11.1998H11.1999H11.1999H11.1999H11.1999H11.1999H11.2H11.2H11.2H11.2H11.2H11.2001H11.2001H11.2001H11.2001H11.2001H11.2002H11.2002H11.2002H11.2002H11.2002H11.2003H11.2003H11.2003H11.2003H11.2003H11.2004H11.2004H11.2004H11.2004H11.2004H11.2005H11.2005H11.2005H11.2005H11.2005H11.2006H11.2006H11.2006H11.2006H11.2006H11.2007H11.2007H11.2007H11.2007H11.2007H11.2008H11.2008H11.2008H11.2008H11.2008H11.2009H11.2009H11.2009H11.2009H11.2009H11.201H11.201H11.201H11.201H11.201H11.2011H11.2011H11.2011H11.2011H11.2011H11.2012H11.2012H11.2012H11.2012H11.2012H11.2013H11.2013H11.2013H11.2013H11.2013H11.2014H11.2014H11.2014H11.2014H11.2014H11.2015H11.2015H11.2015H11.2015H11.2015H11.2016H11.2016H11.2016H11.2016H11.2016H11.2017H11.2017H11.2017H11.2017H11.2017H11.2018H11.2018H11.2018H11.2018H11.2018H11.2019H11.2019H11.2019H11.2019H11.202H11.202H11.202H11.202H11.202H11.2021H11.2021H11.2021H11.2021H11.2021H11.2022H11.2022H11.2022H11.2022H11.2022H11.2023H11.2023H11.2023H11.2023H11.2023H11.2024H11.2024H11.2024H11.2024H11.2024H11.2025H11.2025H11.2025H11.2025H11.2025H11.2026H11.2026H11.2026H11.2026H11.2026H11.2027H11.2027H11.2027H11.2027H11.2027H11.2028H11.2028H11.2028H11.2028H11.2028H11.2029H11.2029H11.2029H11.2029H11.2029H11.203H11.203H11.203H11.203H11.203H11.2031H11.2031H11.2031H11.2031H11.2031H11.2032H11.2032H11.2032H11.2032H11.2032H11.2033H11.2033H11.2033H11.2033H11.2033H11.2034H11.2034H11.2034H11.2034H11.2034H11.2035H11.2035H11.2035H11.2035H11.2035H11.2036H11.2036H11.2036H11.2036H11.2036H11.2037H11.2037H11.2037H11.2037H11.2037H11.2038H11.2038H11.2038H11.2038H11.2038H11.2039H11.2039H11.2039H11.2039H11.204H11.204H11.204H11.204H11.204H11.2041H11.2041H11.2041H11.2041H11.2041H11.2042H11.2042H11.2042H11.2042H11.2042H11.2043H11.2043H11.2043H11.2043H11.2043H11.2044H11.2044H11.2044H11.2044H11.2044H11.2045H11.2045H11.2045H11.2045H11.2045H11.2046H11.2046H11.2046H11.2046H11.2046H11.2047H11.2047H11.2047H11.2047H11.2047H11.2048H11.2048H11.2048H11.2048H11.2048H11.2049H11.2049H11.2049H11.2049H11.2049H11.205H11.205H11.205H11.205H11.205H11.2051H11.2051H11.2051H11.2051H11.2051H11.2052H11.2052H11.2052H11.2052H11.2052H11.2053H11.2053H11.2053H11.2053H11.2053H11.2054H11.2054H11.2054H11.2054H11.2054H11.2055H11.2055H11.2055H11.2055H11.2055H11.2056H11.2056H11.2056H11.2056H11.2056H11.2057H11.2057H11.2057H11.2057H11.2057H11.2058H11.2058H11.2058H11.2058H11.2058H11.2059H11.2059H11.2059H11.2059H11.2059H11.206H11.206H11.206H11.206H11.2061H11.2061H11.2061H11.2061H11.2061H11.2062H11.2062H11.2062H11.2062H11.2062H11.2063H11.2063H11.2063H11.2063H11.2063H11.2064H11.2064H11.2064H11.2064H11.2064H11.2065H11.2065H11.2065H11.2065H11.2065H11.2066H11.2066H11.2066H11.2066H11.2066H11.2067H11.2067H11.2067H11.2067H11.2067H11.2068H11.2068H11.2068H11.2068H11.2068H11.2069H11.2069H11.2069H11.2069H11.2069H11.207H11.207H11.207H11.207H11.207H11.2071H11.2071H11.2071H11.2071H11.2071H11.2072H11.2072H11.2072H11.2072H11.2072H11.2073H11.2073H11.2073H11.2073H11.2073H11.2074H11.2074H11.2074H11.2074H11.2074H11.2075H11.2075H11.2075H11.2075H11.2075H11.2076H11.2076H11.2076H11.2076H11.2076H11.2077H11.2077H11.2077H11.2077H11.2077C11.5748 16.0362 11.875 15.7421 11.8822 15.3736L11.8822 15.3734L12.0162 7.71386L12.0162 7.7138C12.0225 7.34148 11.7258 7.03445 11.3536 7.0277L11.3536 7.02769H11.3517H11.3517H11.3517H11.3517H11.3517H11.3516H11.3516H11.3516H11.3516H11.3516H11.3515H11.3515H11.3515H11.3515H11.3515H11.3514H11.3514H11.3514H11.3514H11.3514H11.3513H11.3513H11.3513H11.3513H11.3513H11.3512H11.3512H11.3512H11.3512H11.3512H11.3511H11.3511H11.3511H11.3511H11.3511H11.351H11.351H11.351H11.351H11.351H11.3509H11.3509H11.3509H11.3509H11.3509H11.3508H11.3508H11.3508H11.3508H11.3508H11.3507H11.3507H11.3507H11.3507H11.3507H11.3506H11.3506H11.3506H11.3506H11.3506H11.3505H11.3505H11.3505H11.3505H11.3505H11.3504H11.3504H11.3504H11.3504H11.3504H11.3503H11.3503H11.3503H11.3503H11.3503H11.3502H11.3502H11.3502H11.3502H11.3502H11.3501H11.3501H11.3501H11.3501H11.3501H11.35H11.35H11.35H11.35H11.3499H11.3499H11.3499H11.3499H11.3499H11.3498H11.3498H11.3498H11.3498H11.3498H11.3497H11.3497H11.3497H11.3497H11.3497H11.3496H11.3496H11.3496H11.3496H11.3496H11.3495H11.3495H11.3495H11.3495H11.3495H11.3494H11.3494H11.3494H11.3494H11.3494H11.3493H11.3493H11.3493H11.3493H11.3493H11.3492H11.3492H11.3492H11.3492H11.3492H11.3491H11.3491H11.3491H11.3491H11.3491H11.349H11.349H11.349H11.349H11.349H11.3489H11.3489H11.3489H11.3489H11.3489H11.3488H11.3488H11.3488H11.3488H11.3488H11.3487H11.3487H11.3487H11.3487H11.3487H11.3486H11.3486H11.3486H11.3486H11.3486H11.3485H11.3485H11.3485H11.3485H11.3485H11.3484H11.3484H11.3484H11.3484H11.3484H11.3483H11.3483H11.3483H11.3483H11.3483H11.3482H11.3482H11.3482H11.3482H11.3482H11.3481H11.3481H11.3481H11.3481H11.3481H11.348H11.348H11.348H11.348H11.348H11.3479H11.3479H11.3479H11.3479H11.3478H11.3478H11.3478H11.3478H11.3478H11.3477H11.3477H11.3477H11.3477H11.3477H11.3476H11.3476H11.3476H11.3476H11.3476H11.3475H11.3475H11.3475H11.3475H11.3475H11.3474H11.3474H11.3474H11.3474H11.3474H11.3473H11.3473H11.3473H11.3473H11.3473H11.3472H11.3472H11.3472H11.3472H11.3472H11.3471H11.3471H11.3471H11.3471H11.3471H11.347H11.347H11.347H11.347H11.347H11.3469H11.3469H11.3469H11.3469H11.3469H11.3468H11.3468H11.3468H11.3468H11.3468H11.3467H11.3467H11.3467H11.3467H11.3467H11.3466H11.3466H11.3466H11.3466H11.3466H11.3465H11.3465H11.3465H11.3465H11.3465H11.3464H11.3464H11.3464H11.3464H11.3464H11.3463H11.3463H11.3463H11.3463H11.3463H11.3462H11.3462H11.3462H11.3462H11.3462H11.3461H11.3461H11.3461H11.3461H11.3461H11.346H11.346H11.346H11.346H11.346H11.3459H11.3459H11.3459H11.3459H11.3459H11.3458H11.3458H11.3458H11.3458H11.3457H11.3457H11.3457H11.3457H11.3457H11.3456H11.3456H11.3456H11.3456H11.3456H11.3455H11.3455H11.3455H11.3455H11.3455H11.3454H11.3454H11.3454H11.3454H11.3454H11.3453H11.3453H11.3453H11.3453H11.3453H11.3452H11.3452H11.3452H11.3452H11.3452H11.3451H11.3451H11.3451H11.3451H11.3451H11.345H11.345H11.345H11.345H11.345H11.3449H11.3449H11.3449H11.3449H11.3449H11.3448H11.3448H11.3448H11.3448H11.3448H11.3447H11.3447H11.3447H11.3447H11.3447H11.3446H11.3446H11.3446H11.3446H11.3446H11.3445H11.3445H11.3445H11.3445H11.3445H11.3444H11.3444H11.3444H11.3444H11.3444H11.3443H11.3443H11.3443H11.3443H11.3443H11.3442H11.3442H11.3442H11.3442H11.3442H11.3441H11.3441H11.3441H11.3441H11.3441H11.344H11.344H11.344H11.344H11.344H11.3439H11.3439H11.3439H11.3439H11.3439H11.3438H11.3438H11.3438H11.3438H11.3438H11.3437H11.3437H11.3437H11.3437H11.3436H11.3436H11.3436H11.3436H11.3436H11.3435H11.3435H11.3435H11.3435H11.3435H11.3434H11.3434H11.3434H11.3434H11.3434H11.3433H11.3433H11.3433H11.3433H11.3433H11.3432H11.3432H11.3432H11.3432H11.3432H11.3431H11.3431H11.3431H11.3431H11.3431H11.343H11.343H11.343H11.343H11.343H11.3429H11.3429H11.3429H11.3429H11.3429H11.3428H11.3428H11.3428H11.3428H11.3428H11.3427H11.3427H11.3427H11.3427H11.3427H11.3426H11.3426H11.3426H11.3426H11.3426H11.3425H11.3425H11.3425H11.3425H11.3425H11.3424H11.3424H11.3424H11.3424H11.3424H11.3423H11.3423H11.3423H11.3423H11.3423H11.3422H11.3422H11.3422H11.3422H11.3422H11.3421H11.3421H11.3421H11.3421H11.3421H11.342H11.342H11.342H11.342H11.342H11.3419H11.3419H11.3419H11.3419H11.3419H11.3418H11.3418H11.3418H11.3418H11.3418H11.3417H11.3417H11.3417H11.3417H11.3417H11.3416H11.3416H11.3416H11.3416H11.3415H11.3415H11.3415H11.3415H11.3415H11.3414H11.3414H11.3414C10.974 7.02769 10.6737 7.32222 10.667 7.69037L10.667 7.69045L10.5329 15.35L10.5329 15.3501C10.5266 15.7224 10.8234 16.0294 11.1956 16.0362Z" fill="black" stroke="black" stroke-width="0.2"/>
<path d="M15.235 16.3337C15.2611 15.962 14.9811 15.6402 14.6097 15.6139C14.2336 15.5835 13.9152 15.8695 13.8892 16.2397L13.8892 16.2397C13.8301 17.0862 13.1184 17.7498 12.2698 17.7498C11.897 17.7498 11.5953 18.052 11.5953 18.4243C11.5953 18.7966 11.897 19.0988 12.2698 19.0988C13.8243 19.0988 15.1264 17.8847 15.235 16.3337ZM15.235 16.3337L15.1352 16.3267M15.235 16.3337C15.235 16.3337 15.235 16.3337 15.235 16.3337L15.1352 16.3267M15.1352 16.3267C15.0303 17.8253 13.7718 18.9988 12.2698 18.9988C11.9523 18.9988 11.6953 18.7414 11.6953 18.4243C11.6953 18.1072 11.9523 17.8498 12.2698 17.8498C13.1709 17.8498 13.9262 17.1455 13.989 16.2467C14.0112 15.93 14.2831 15.6875 14.6021 15.7136C14.9188 15.7358 15.1574 16.01 15.1352 16.3267Z" fill="black" stroke="black" stroke-width="0.2"/>
<path d="M5.82837 19.1H12.2662C12.6386 19.1 12.9407 18.7979 12.9407 18.4255C12.9407 18.0533 12.639 17.7511 12.2662 17.7511H5.82837C5.45561 17.7511 5.15391 18.0533 5.15391 18.4255C5.15391 18.7978 5.45561 19.1 5.82837 19.1Z" fill="black" stroke="black" stroke-width="0.2"/>
<path d="M4.20837 16.2396L4.20838 16.2397C4.26753 17.0862 4.97919 17.7498 5.82782 17.7498C6.20058 17.7498 6.50228 18.052 6.50228 18.4243C6.50228 18.7966 6.20058 19.0988 5.82782 19.0988C4.27326 19.0988 2.97123 17.8847 2.86262 16.3337L4.20837 16.2396ZM4.20837 16.2396C4.18195 15.8688 3.85992 15.5835 3.48786 15.6139M4.20837 16.2396L3.48786 15.6139M3.48786 15.6139C3.1164 15.6403 2.83656 15.9625 2.86262 16.3337L3.48786 15.6139Z" fill="black" stroke="black" stroke-width="0.2"/>
<path d="M2.86472 16.3355L2.86471 16.3354L2.05012 4.68564C2.05012 4.68563 2.05012 4.68562 2.05011 4.68561C2.02406 4.31429 2.30399 3.99207 2.67553 3.96577C3.04572 3.93667 3.36986 4.22013 3.39588 4.59161L3.39588 4.59162L4.21048 16.2414L2.86472 16.3355ZM2.86472 16.3355C2.88988 16.6915 3.1857 16.9631 3.53702 16.9631C3.55236 16.9631 3.56852 16.9627 3.58539 16.9613M2.86472 16.3355L3.58539 16.9613M3.58539 16.9613C3.58564 16.9613 3.5859 16.9612 3.58616 16.9612L3.57762 16.8616L3.58539 16.9613Z" fill="black" stroke="black" stroke-width="0.2"/>
<path d="M14.7006 4.59162L14.7006 4.5916C14.7266 4.22089 15.0466 3.93667 15.421 3.96576C15.7925 3.99204 16.0725 4.31387 16.0464 4.68563M14.7006 4.59162L14.5595 16.9631C14.9105 16.9631 15.2066 16.6911 15.2318 16.3355L15.2318 16.3354L16.0464 4.68563M14.7006 4.59162L13.8861 16.2414C13.8861 16.2414 13.8861 16.2414 13.8861 16.2414C13.86 16.6131 14.1399 16.9349 14.5113 16.9613L14.7006 4.59162ZM16.0464 4.68563L15.9467 4.67864L16.0464 4.68561L16.0464 4.68563Z" fill="black" stroke="black" stroke-width="0.2"/>
<path d="M1.57447 5.31266H16.5244C16.8968 5.31266 17.1985 5.01044 17.1985 4.63819C17.1985 4.2659 16.8968 3.96372 16.524 3.96372H1.57447C1.20171 3.96372 0.9 4.2659 0.9 4.63819C0.9 5.01048 1.20171 5.31266 1.57447 5.31266Z" fill="black" stroke="black" stroke-width="0.2"/>
<path d="M11.8219 4.63837C11.8219 5.01066 12.1236 5.31283 12.4963 5.31283C12.8691 5.31283 13.1708 5.01066 13.1708 4.63837V3.10645C13.1708 2.73416 12.8691 2.43198 12.4963 2.43198C12.1236 2.43198 11.8219 2.73416 11.8219 3.10645V4.63837Z" fill="black" stroke="black" stroke-width="0.2"/>
<path d="M11.8225 3.10638C11.8225 3.47867 12.1242 3.78085 12.497 3.78085C12.8698 3.78085 13.1715 3.47867 13.1715 3.10638C13.1715 1.88997 12.1819 0.9 10.9651 0.9C10.5923 0.9 10.2906 1.20218 10.2906 1.57447C10.2906 1.94676 10.5923 2.24894 10.9651 2.24894C11.4376 2.24894 11.8225 2.63351 11.8225 3.10638Z" fill="black" stroke="black" stroke-width="0.2"/>
<path d="M7.13306 2.24894H10.9628C11.3356 2.24894 11.6373 1.94676 11.6373 1.57447C11.6373 1.20218 11.3356 0.9 10.9628 0.9H7.13306C6.7603 0.9 6.45859 1.20218 6.45859 1.57447C6.45859 1.94676 6.7603 2.24894 7.13306 2.24894Z" fill="black" stroke="black" stroke-width="0.2"/>
<path d="M4.92734 4.63837C4.92734 5.01066 5.22905 5.31283 5.60181 5.31283C5.97457 5.31283 6.27628 5.01066 6.27628 4.63837V3.10645C6.27628 2.73416 5.97457 2.43198 5.60181 2.43198C5.22905 2.43198 4.92734 2.73416 4.92734 3.10645V4.63837Z" fill="black" stroke="black" stroke-width="0.2"/>
<path d="M4.92734 3.10638C4.92734 3.47867 5.22905 3.78085 5.60181 3.78085C5.97457 3.78085 6.27628 3.47867 6.27628 3.10638C6.27628 2.63351 6.66118 2.24894 7.13373 2.24894C7.50649 2.24894 7.80819 1.94676 7.80819 1.57447C7.80819 1.20218 7.50649 0.9 7.13373 0.9C5.91691 0.9 4.92734 1.88997 4.92734 3.10638Z" fill="black" stroke="black" stroke-width="0.2"/>
</svg>
