<svg width="16" height="15" viewBox="0 0 16 15" fill="none" xmlns="http://www.w3.org/2000/svg">
<path d="M7.30448 1.19976C6.61205 1.82778 6.19338 2.90667 6.10481 3.79233C6.09676 3.90505 6.0404 3.9292 5.95183 3.85674C5.28356 3.3656 4.55893 3.02744 3.77795 2.90667C3.60081 2.88251 3.42368 2.85836 3.2546 2.83421C3.2224 2.83421 3.19824 2.802 3.19824 2.76979C3.24655 1.83583 3.57666 0.990427 4.18052 0.241644C4.27713 0.128924 4.35765 0.000100816 4.52673 0.000100816C5.52511 -0.00795062 6.54764 0.467084 7.29642 1.1273C7.31253 1.1434 7.31253 1.17561 7.29642 1.19171L7.30448 1.19976Z" fill="#11404C"/>
<path d="M11.8437 2.85826C10.8614 2.89047 9.91135 3.26888 9.14647 3.88079C9.11426 3.913 9.0579 3.90495 9.0257 3.86469C9.01764 3.85664 9.00959 3.84054 9.00959 3.82443C8.88882 2.80995 8.48625 1.93234 7.80993 1.19161C7.79383 1.16746 7.79383 1.13525 7.80993 1.11915C8.59092 0.426726 9.50073 0.0483086 10.5394 0C10.6199 0 10.7084 0.0402569 10.7648 0.096617C11.4572 0.869555 11.8356 1.77132 11.9001 2.79385C11.9001 2.82605 11.8759 2.85826 11.8437 2.85826Z" fill="#11404C"/>
<path d="M7.51139 6.15967C7.28595 5.43504 6.93169 4.87949 6.44055 4.31589C6.4164 4.28368 6.40029 4.25148 6.40834 4.21927C6.45665 3.16453 6.81092 2.25472 7.48724 1.47373C7.53555 1.42542 7.5758 1.42542 7.61606 1.47373C8.29238 2.25472 8.65469 3.17258 8.69495 4.21122C8.69495 4.24343 8.69495 4.26758 8.6708 4.29173C8.54197 4.47692 8.38095 4.62989 8.24407 4.81508C7.95422 5.23375 7.73683 5.68463 7.59191 6.15967C7.56775 6.24018 7.5436 6.24018 7.51139 6.15967Z" fill="#11404C"/>
<path d="M3.25315 3.19727C4.27568 3.25363 5.24185 3.64815 5.98259 4.34862C6.03895 4.40498 6.0631 4.4855 6.07115 4.55796C6.11141 5.25843 6.26438 5.9267 6.61865 6.50641C6.67501 6.60302 6.65891 6.61913 6.55424 6.57082C5.91817 6.25681 5.24185 6.07968 4.53333 6.04747C4.47697 6.04747 4.43671 6.02332 4.39645 5.98306C3.67987 5.21818 3.28535 4.30031 3.21289 3.24557C3.21289 3.21337 3.22899 3.19727 3.25315 3.19727Z" fill="#11404C"/>
<path d="M8.6298 6.53837C8.59759 6.55448 8.56539 6.56253 8.53318 6.57863C8.51708 6.57863 8.50903 6.57863 8.50098 6.56253V6.54642C8.83914 5.87815 9.02432 5.20183 9.04042 4.50941C9.04042 4.4611 9.06458 4.41279 9.09678 4.38059C9.88582 3.64791 10.8117 3.26144 11.8826 3.20508C11.8987 3.20508 11.9067 3.20508 11.9067 3.22923C11.8504 3.5996 11.8182 3.95386 11.7054 4.31618C11.5042 4.94419 11.1741 5.49974 10.7151 5.99088C10.6749 6.03113 10.6266 6.05529 10.5702 6.05529C9.90193 6.07139 9.25781 6.23242 8.6298 6.54642V6.53837Z" fill="#11404C"/>
<path d="M15.0986 4.71751C14.9939 5.70784 14.6155 6.54519 13.9794 7.23761C13.9553 7.26177 13.915 7.26982 13.8909 7.23761C13.1582 6.56129 12.2 6.14262 11.1936 6.0621C11.1373 6.0621 11.1292 6.03795 11.1614 5.98964C11.8055 5.2006 12.1759 4.28273 12.2323 3.25215C12.2323 3.21189 12.2725 3.17969 12.3128 3.17969C13.3675 3.2441 14.2854 3.63057 15.0664 4.34715C15.0825 4.36325 15.0905 4.3874 15.0986 4.41156C15.1066 4.50817 15.1066 4.61284 15.0986 4.70946V4.71751Z" fill="#11404C"/>
<path d="M3.90495 6.07139C2.87436 6.17606 1.98871 6.56253 1.23187 7.2308C1.19161 7.263 1.13525 7.263 1.10305 7.2308C0.426726 6.47396 0.0563601 5.56415 0 4.50136C0 4.445 0.0161031 4.38864 0.0644117 4.34838C0.83735 3.64791 1.73911 3.26144 2.77775 3.20508C2.84216 3.20508 2.87436 3.22923 2.88241 3.3017C2.93072 4.28397 3.28499 5.18573 3.93715 6.00698C3.95325 6.03113 3.95325 6.05529 3.93715 6.07139C3.93715 6.07139 3.92105 6.07944 3.913 6.07944L3.90495 6.07139Z" fill="#11404C"/>
<path d="M8.36888 5.97719C8.60939 5.40781 8.73796 4.91819 8.65603 4.88358C8.57411 4.84898 8.31272 5.28249 8.07221 5.85187C7.83169 6.42124 7.70313 6.91087 7.78506 6.94547C7.86698 6.98008 8.12837 6.54656 8.36888 5.97719Z" fill="#11404C"/>
<path d="M6.53654 4.96758C6.85055 5.37821 7.16455 5.96596 7.25312 6.50541C7.27727 6.63423 7.30143 6.76305 7.34168 6.88382C7.38999 7.04485 7.36584 7.05291 7.26117 6.92408C6.94716 6.52956 6.64121 5.95791 6.54459 5.41846C6.52044 5.28159 6.48823 5.14472 6.44798 5.00784C6.39967 4.84681 6.43187 4.83071 6.52849 4.96758H6.53654Z" fill="#11404C"/>
<path d="M8.32756 7.28587C8.24705 7.30197 8.16653 7.31807 8.08602 7.33418C8.02161 7.35028 8.01356 7.33418 8.06992 7.29392C8.69793 6.81889 9.40646 6.52098 10.1955 6.40826C10.2841 6.39216 10.2921 6.40826 10.2116 6.46462C9.60774 6.86719 9.06829 7.1651 8.32756 7.28587Z" fill="#11404C"/>
<path d="M6.16044 7.47147C6.25705 7.50368 6.25705 7.53588 6.16044 7.56809C5.71761 7.70496 5.29088 7.9143 4.88831 8.18805C4.68702 8.32492 4.50989 8.494 4.31666 8.63893C4.2925 8.65503 4.26835 8.66308 4.24419 8.66308C3.1814 8.63088 2.24744 8.26051 1.43424 7.54393C1.43424 7.54393 1.42619 7.52783 1.43424 7.51978C2.20718 6.82736 3.10894 6.45699 4.15563 6.39258C4.25225 6.39258 4.34081 6.41673 4.40522 6.47309C4.91246 6.93202 5.50022 7.27018 6.16849 7.47952L6.16044 7.47147Z" fill="#11404C"/>
<path d="M8.91237 7.48781C9.58063 7.29458 10.1845 6.94837 10.7159 6.45723C10.7803 6.40087 10.8608 6.38477 10.9494 6.38477C11.6499 6.42502 12.302 6.61021 12.8978 6.94837C13.1877 7.10939 13.4131 7.31068 13.6708 7.49586C13.6869 7.51197 13.6949 7.52807 13.6788 7.55222C13.6788 7.55222 13.6788 7.55222 13.6708 7.56028C13.4131 7.73741 13.1877 7.93869 12.9139 8.09167C12.2698 8.45398 11.6015 8.63917 10.9091 8.65527C10.8286 8.65527 10.7642 8.63917 10.7078 8.58281C10.1603 8.09167 9.56453 7.74546 8.90431 7.55222C8.81575 7.52807 8.81575 7.50392 8.90431 7.47976L8.91237 7.48781Z" fill="#11404C"/>
<path d="M6.98825 7.27046C7.02045 7.29461 7.0124 7.30266 6.98019 7.30266C6.15895 7.2302 5.57119 6.90814 4.89487 6.48142C4.80631 6.42506 4.81436 6.4009 4.91903 6.41701C5.64366 6.49752 6.33608 6.78737 6.9963 7.27851L6.98825 7.27046Z" fill="#11404C"/>
<path d="M7.01447 7.73047C7.06278 7.73047 7.07083 7.73047 7.03058 7.76268C6.41062 8.23771 5.70209 8.52756 4.89695 8.64028C4.84864 8.64028 4.84864 8.64028 4.88084 8.60808C5.4847 8.14109 6.19323 7.85124 7.01447 7.73047Z" fill="#11404C"/>
<path d="M10.2655 8.59026C10.2655 8.59026 10.2816 8.59831 10.2736 8.60636C10.2655 8.61441 10.2655 8.62246 10.2575 8.61441C9.56506 8.5661 8.92094 8.33261 8.33319 7.92199C8.24462 7.85758 8.14801 7.81732 8.05944 7.76901C7.97893 7.72875 7.98698 7.7207 8.06749 7.7207C8.63914 7.76901 9.30741 7.9703 9.79855 8.31651C9.95153 8.42118 10.1045 8.50974 10.2655 8.58221V8.59026Z" fill="#11404C"/>
<path d="M11.2465 9.17006C11.2143 9.12981 11.1902 9.08955 11.166 9.05734C11.1499 9.04124 11.158 9.00903 11.1741 8.99293C11.1741 8.99293 11.1902 8.99293 11.1982 8.99293C12.2529 8.87216 13.1467 8.47764 13.8954 7.80132C13.9196 7.77716 13.9599 7.77716 13.984 7.80132C14.6684 8.55815 15.0387 9.46797 15.1193 10.5388C15.1273 10.6676 15.071 10.7079 14.9824 10.7804C14.1853 11.4486 13.2916 11.8029 12.3093 11.8592C12.2771 11.8592 12.2529 11.8351 12.2449 11.8029C12.1885 10.8287 11.8584 9.943 11.2546 9.16201L11.2465 9.17006Z" fill="#11404C"/>
<path d="M3.74967 9.29957C3.21828 10.0242 2.92842 10.8535 2.87206 11.7875C2.87206 11.8438 2.83986 11.868 2.79155 11.8599C1.80927 11.7955 0.923615 11.4332 0.134574 10.781C0.0460085 10.7086 -0.00230001 10.62 0.00575143 10.5073C0.0621115 9.49281 0.416375 8.6152 1.06854 7.86642C1.13295 7.79396 1.20542 7.7859 1.27788 7.85032C2.06692 8.51053 2.94453 8.897 3.9268 8.98557C3.95096 8.98557 3.96706 9.00972 3.96706 9.03388C3.96706 9.04193 3.96706 9.04998 3.95096 9.05803C3.87849 9.13049 3.81408 9.21101 3.74967 9.29152V9.29957Z" fill="#11404C"/>
<path d="M7.336 8.1796C7.22328 8.91228 6.93343 9.5886 6.4584 10.2005C6.4584 10.2086 6.44229 10.2086 6.43424 10.2005C6.43424 10.2005 6.42619 10.1925 6.43424 10.1844C6.53086 9.41147 6.82876 8.70294 7.3199 8.06688C7.35211 8.01857 7.36821 8.02662 7.36016 8.08298C7.36016 8.11519 7.35211 8.14739 7.34405 8.1796H7.336Z" fill="#11404C"/>
<path d="M8.68761 10.1682C8.69566 10.1843 8.68761 10.1924 8.68761 10.2004C8.67151 10.2085 8.64735 10.2004 8.6393 10.1924C8.17232 9.58047 7.89052 8.8961 7.78585 8.13927C7.7778 8.0668 7.78585 8.05875 7.84221 8.11511C8.29309 8.71092 8.57489 9.38724 8.67956 10.136C8.67956 10.1441 8.67956 10.1602 8.69566 10.1682H8.68761Z" fill="#11404C"/>
<path d="M5.87137 10.7975C5.11454 11.4417 4.25304 11.7959 3.28686 11.8523C3.2305 11.8523 3.20635 11.8281 3.2144 11.7798C3.29491 10.7412 3.68138 9.83942 4.38186 9.07453C4.42212 9.02622 4.47042 9.01012 4.53484 9.00207C5.23531 8.98596 5.90358 8.80883 6.55575 8.46262C6.62821 8.42236 6.65236 8.43846 6.61211 8.51898C6.282 9.13089 6.09681 9.81526 6.06461 10.556C6.06461 10.6768 5.95994 10.7251 5.87943 10.7975H5.87137Z" fill="#11404C"/>
<path d="M8.50135 8.52648C8.45304 8.43792 8.47719 8.42181 8.55771 8.47012C9.17767 8.80023 9.85399 8.97736 10.5786 9.00957C10.635 9.00957 10.6833 9.03372 10.7155 9.07398C11.1986 9.58122 11.5448 10.1931 11.7461 10.9017C11.8346 11.1996 11.8427 11.4894 11.9071 11.7873C11.9152 11.8356 11.8991 11.8598 11.8427 11.8598C10.7638 11.7793 9.85399 11.3847 9.10521 10.6762C9.06495 10.644 9.04885 10.5957 9.0408 10.5393C9.01664 9.83082 8.83951 9.16255 8.50135 8.52648Z" fill="#11404C"/>
<path d="M6.43212 10.7316C6.92326 10.2163 7.27752 9.62053 7.48686 8.95227C7.52711 8.81539 7.57542 8.81539 7.61568 8.95227C7.82502 9.64469 8.19538 10.2002 8.67042 10.7397C8.69457 10.7638 8.70262 10.788 8.70262 10.8202C8.65432 11.883 8.292 12.8089 7.60763 13.5818C7.58347 13.614 7.53517 13.614 7.51101 13.5818C6.81859 12.7847 6.45627 11.8588 6.41602 10.8041C6.41602 10.7719 6.42407 10.7477 6.44822 10.7236L6.43212 10.7316Z" fill="#11404C"/>
<path d="M7.2691 13.9366C6.45591 14.6209 5.5944 15.0074 4.55577 14.9994C4.42694 14.9994 4.33838 14.9832 4.24981 14.8786C3.59765 14.0734 3.24338 13.2039 3.20312 12.2538C3.20312 12.2136 3.21923 12.1894 3.25948 12.1894C4.23371 12.1411 5.14352 11.8029 5.98087 11.1508C6.01308 11.1266 6.05333 11.1347 6.07749 11.1669C6.07749 11.1749 6.09359 11.191 6.09359 11.1991C6.19826 12.1975 6.58473 13.0751 7.27715 13.8399C7.30936 13.8721 7.30936 13.9044 7.27715 13.9366H7.2691Z" fill="#11404C"/>
<path d="M7.82573 13.9124C7.80158 13.8963 7.80158 13.8721 7.82573 13.8479C8.51011 13.0911 8.90463 12.1974 9.0254 11.1749C9.0254 11.1427 9.0576 11.1185 9.08981 11.1266C9.09786 11.1266 9.10591 11.1266 9.11396 11.1346C9.61315 11.5291 10.1607 11.819 10.7565 12.0042C11.1268 12.1169 11.5052 12.1571 11.8837 12.2055C11.9078 12.2055 11.9239 12.2296 11.9239 12.2538C11.8031 13.2843 11.5052 14.162 10.7967 14.9188C10.7645 14.959 10.7081 14.9832 10.6598 14.9832C9.61315 15.0557 8.60672 14.6128 7.83378 13.9043L7.82573 13.9124Z" fill="#11404C"/>
</svg>
