<svg width="12" height="12" viewBox="0 0 12 12" fill="none" xmlns="http://www.w3.org/2000/svg">
<path fill-rule="evenodd" clip-rule="evenodd" d="M8.3589 0.131572C8.78238 -0.0438575 9.25829 -0.0438575 9.68183 0.131572C9.8696 0.209354 10.0242 0.323596 10.1677 0.448802C10.304 0.567716 10.4582 0.721914 10.6369 0.900622L11.0994 1.36306C11.2781 1.54176 11.4323 1.69596 11.5512 1.83229C11.6764 1.97584 11.7906 2.13041 11.8684 2.3182C12.0439 2.74173 12.0439 3.2176 11.8684 3.64113C11.7906 3.82891 11.6764 3.98349 11.5512 4.12703C11.4323 4.26337 11.2781 4.41757 11.0994 4.59628L4.43814 11.2575C4.43377 11.2619 4.42929 11.2663 4.42471 11.271C4.37442 11.3214 4.31114 11.3849 4.23723 11.4389C4.14081 11.5092 4.03404 11.5642 3.92075 11.6017C3.83391 11.6305 3.74546 11.6451 3.67516 11.6567C3.66876 11.6577 3.6625 11.6588 3.65642 11.6598L2.24255 11.8955C1.99217 11.9372 1.77318 11.9737 1.59257 11.99C1.40549 12.0068 1.19816 12.0092 0.989733 11.9424C0.546745 11.8005 0.199585 11.4533 0.0576187 11.0103C-0.00916994 10.8018 -0.00684224 10.5945 0.0100335 10.4075C0.0263331 10.2268 0.0628387 10.0078 0.104582 9.75744L0.34022 8.34359C0.34124 8.33749 0.342271 8.33126 0.343326 8.32487C0.354912 8.25452 0.369495 8.16608 0.398297 8.07925C0.435863 7.96598 0.490812 7.85922 0.561161 7.76277C0.61509 7.68884 0.678583 7.62558 0.729049 7.57528C0.733652 7.57073 0.738141 7.56624 0.742508 7.56186L7.40374 0.900651C7.58241 0.721931 7.73665 0.567721 7.87297 0.448802C8.01649 0.323596 8.17107 0.209354 8.3589 0.131572ZM9.24084 1.19618C9.09968 1.13771 8.941 1.13771 8.79984 1.19618C8.77587 1.20611 8.72966 1.23064 8.63045 1.31719C8.52732 1.40716 8.40091 1.53308 8.20553 1.72849L7.81858 2.11542L9.88458 4.18142L10.2715 3.79448C10.4669 3.59908 10.5929 3.47271 10.6828 3.36958C10.7693 3.27035 10.7939 3.22413 10.8038 3.20015C10.8623 3.05898 10.8623 2.90035 10.8038 2.75918C10.7939 2.7352 10.7693 2.68898 10.6828 2.58976C10.5929 2.48662 10.4669 2.36025 10.2715 2.16485L9.83515 1.72849C9.63977 1.53308 9.51336 1.40716 9.41023 1.31719C9.31101 1.23064 9.2648 1.20611 9.24084 1.19618ZM9.06977 4.99623L7.00377 2.93024L1.55733 8.37667C1.52267 8.41135 1.50562 8.42846 1.49354 8.44131C1.49323 8.44166 1.49293 8.44195 1.49264 8.44229C1.49256 8.44269 1.49247 8.4431 1.49238 8.44356C1.48896 8.46084 1.48492 8.4847 1.47687 8.53304L1.24461 9.9266C1.1985 10.2032 1.16962 10.3789 1.1577 10.511C1.14801 10.6184 1.15439 10.6552 1.15533 10.6597C1.18383 10.7474 1.25259 10.8162 1.34028 10.8447C1.34489 10.8456 1.38167 10.852 1.48902 10.8423C1.62113 10.8304 1.79678 10.8015 2.07341 10.7554L3.46697 10.5232C3.51531 10.5151 3.53916 10.5111 3.55644 10.5076C3.55689 10.5075 3.55732 10.5074 3.55773 10.5074C3.55804 10.5071 3.55836 10.5068 3.55869 10.5065C3.57152 10.4944 3.58867 10.4774 3.62332 10.4427L9.06977 4.99623Z" fill="white"/>
</svg>
