<svg width="13" height="10" viewBox="0 0 13 10" fill="none" xmlns="http://www.w3.org/2000/svg">
<path d="M1.68464 10H10.8154C11.7444 10 12.5 9.22101 12.5 8.26324V1.73676C12.5 0.778975 11.7444 0 10.8154 0H1.68464C0.755599 0 0 0.778994 0 1.73676V8.26536C0 9.22089 0.755618 10 1.68464 10ZM10.8133 8.84616H1.68464C1.37277 8.84616 1.11921 8.58474 1.11921 8.26324V2.37829L5.55894 6.16884C5.75859 6.34011 6.00487 6.42424 6.24897 6.42424C6.49307 6.42424 6.73936 6.33935 6.93901 6.16884L11.3787 2.37829V8.26324C11.3787 8.58476 11.1252 8.84616 10.8133 8.84616ZM10.8133 1.15391C10.884 1.15391 10.951 1.16894 11.013 1.19448L6.24903 5.26137L1.4851 1.19448C1.54631 1.16969 1.61407 1.15391 1.68475 1.15391H10.8133Z" fill="#396773"/>
</svg>
