<svg width="20" height="20" viewBox="0 0 20 20" fill="none" xmlns="http://www.w3.org/2000/svg">
<path d="M12.0719 8.42975C11.9828 8.20101 11.8009 8.01915 11.5722 7.93009L7.44168 6.26046C7.1042 6.11703 6.71326 6.19296 6.45452 6.45264C6.19485 6.71138 6.11892 7.1023 6.26234 7.4398L7.93197 11.5694V11.5703C8.02103 11.799 8.20289 11.9809 8.43163 12.07L12.5612 13.7396H12.5621C12.8996 13.883 13.2905 13.8071 13.5493 13.5474C13.8089 13.2887 13.8849 12.8977 13.7415 12.5602L12.0719 8.42975ZM10.8016 10.7997C10.4781 11.1222 9.99254 11.2187 9.57068 11.0434C9.14882 10.869 8.87415 10.4566 8.87415 10C8.87415 9.54344 9.14882 9.13096 9.57068 8.95658C9.99254 8.78128 10.4781 8.87784 10.8016 9.20032C11.0172 9.41031 11.1381 9.69905 11.1381 9.99997C11.1381 10.3009 11.0172 10.5897 10.8016 10.7997ZM17.0714 2.93055C15.1964 1.05467 12.6531 0.000959969 10.001 0C7.3488 0 4.80465 1.05371 2.92959 2.92863C1.05371 4.8045 0 7.34784 0 10C0 12.6522 1.05371 15.1954 2.92959 17.0714C4.80453 18.9463 7.3488 20 10.001 20C12.6531 19.9991 15.1963 18.9454 17.0714 17.0695C18.9463 15.1945 19.999 12.6512 19.999 10C19.999 7.3488 18.9463 4.80537 17.0714 2.93055ZM15.7917 15.7898C14.2571 17.3217 12.177 18.1813 10.0084 18.1794C7.84002 18.1785 5.76078 17.316 4.22794 15.7823C2.69519 14.2486 1.83364 12.1683 1.83364 9.99995C1.83364 7.83162 2.69516 5.75137 4.22794 4.21758C5.7607 2.68388 7.84007 1.8214 10.0084 1.82046C12.1768 1.81859 14.257 2.67824 15.7917 4.21006C17.3245 5.7475 18.1851 7.82963 18.1851 9.99988C18.1851 12.1701 17.3245 14.2524 15.7917 15.7898Z" fill="#807ED5"/>
</svg>
