<svg width="10" height="14" viewBox="0 0 10 14" fill="none" xmlns="http://www.w3.org/2000/svg">
<path d="M7.63372 12.9897C8.38589 12.5588 8.97417 11.939 9.38172 11.1481C9.7922 10.3512 10 9.41322 10 8.36032L10 4.91406L0 4.91406L-1.50641e-07 8.36032C-1.96696e-07 9.41395 0.2078 10.352 0.618277 11.1481C1.02583 11.9397 1.60898 12.5595 2.35238 12.9905C3.09797 13.4221 3.98332 13.6417 4.985 13.6417C5.98668 13.6417 6.87788 13.4221 7.63372 12.9905L7.63372 12.9897ZM2.36775 10.919C1.74654 10.2978 1.43192 9.41249 1.43192 8.28642L1.43192 6.65621L8.58345 6.65622L8.58345 8.28642C8.58345 9.41249 8.26077 10.2993 7.62347 10.9205C6.98763 11.541 6.10009 11.8549 4.985 11.8549C3.86991 11.8549 2.98895 11.5402 2.36702 10.919L2.36775 10.919Z" fill="#11404C"/>
<path d="M5.85254 2.57798C5.8123 1.9275 5.58255 1.36703 5.15231 0.887042C5.14719 0.88192 5.13695 0.887042 5.13695 0.887042C4.69135 1.39264 4.4616 1.97287 4.44111 2.63358C4.44111 2.64895 4.44623 2.66358 4.45648 2.67895C4.54647 2.79895 4.65184 2.90943 4.73671 3.03455C4.9072 3.28479 5.03671 3.54966 5.12231 3.82478C5.12597 3.83575 5.13768 3.87014 5.15231 3.87014C5.16402 3.87014 5.1728 3.84599 5.17719 3.8299C5.30743 3.4143 5.51743 3.04918 5.80278 2.73383C5.83791 2.69358 5.85254 2.63871 5.85254 2.57871L5.85254 2.57798Z" fill="#11404C"/>
<path d="M4.47442 3.02933C4.46125 3.01616 4.45467 3.01957 4.45467 3.03957C4.52491 3.54005 4.7049 3.98052 4.99978 4.36539C5.01953 4.39027 5.01953 4.38515 5.01953 4.35515C4.94417 3.84443 4.76417 3.40469 4.47442 3.02933Z" fill="#11404C"/>
<path d="M4.20373 2.46197C4.20373 2.46197 4.20666 2.4627 4.21105 2.4627C4.22641 2.4627 4.24104 2.45246 4.24104 2.43782C4.29592 1.82759 4.53592 1.28175 4.94639 0.791521C4.98664 0.746156 4.98151 0.701523 4.93615 0.66128C4.4708 0.255924 3.92569 0.0356853 3.29497 0.000564162C3.22473 -0.00455767 3.16985 0.0254416 3.12522 0.0803183C2.71986 0.57055 2.4945 1.12078 2.45499 1.73174C2.44987 1.76174 2.46523 1.7815 2.50036 1.7815C3.08059 1.81662 3.59643 1.99661 4.04642 2.32661C4.0991 2.37124 4.15178 2.41587 4.20446 2.4605L4.20373 2.46197Z" fill="#11404C"/>
<path d="M6.08428 2.78657C6.06306 2.9351 6.0594 3.08729 6.03087 3.23582C5.97453 3.53289 5.87867 3.81239 5.74404 4.06702C5.73892 4.07653 5.72282 4.11019 5.7338 4.12044C5.74258 4.12849 5.76526 4.11751 5.7799 4.10946C6.1655 3.90751 6.57232 3.79776 6.9967 3.77654C7.05011 3.77288 7.09913 3.74435 7.14157 3.70191C7.57327 3.21387 7.80668 2.65486 7.8418 2.01098C7.8418 2.00366 7.83082 2 7.83082 2C7.1584 2.04244 6.58549 2.29048 6.10403 2.74266C6.09306 2.75364 6.08647 2.76754 6.08282 2.7851L6.08428 2.78657Z" fill="#11404C"/>
<path d="M5.29499 4.37246C5.60303 3.95833 5.78668 3.52005 5.84668 3.04957C5.84668 3.03055 5.83961 3.02811 5.82546 3.04225C5.52108 3.44541 5.33742 3.88443 5.27377 4.36515C5.27011 4.39734 5.27377 4.39368 5.29499 4.37246Z" fill="#11404C"/>
<path d="M5.33252 0.702303C5.30765 0.719864 5.30399 0.744741 5.32887 0.769619C5.71447 1.20497 5.95153 1.69667 6.03641 2.24836C6.04226 2.31714 6.04738 2.38592 6.05324 2.4547C6.05324 2.4547 6.0547 2.45763 6.05763 2.46055C6.0686 2.47153 6.08616 2.47446 6.09641 2.46421C6.56688 2.07129 7.12224 1.85545 7.75954 1.79911C7.81954 1.79545 7.84807 1.76033 7.84441 1.70033C7.80198 1.08498 7.57223 0.543527 7.15077 0.0730502C7.10468 0.0196369 7.04468 0.00207628 6.9737 0.00939317C6.34006 0.0693917 5.79203 0.299874 5.33179 0.703035L5.33252 0.702303Z" fill="#11404C"/>
<path d="M7.2017 3.99805C7.18633 3.99805 7.1717 4.00317 7.15633 4.01341C7.03634 4.10341 6.92585 4.20877 6.80073 4.29365C6.5505 4.46413 6.28562 4.59364 6.01051 4.67925C6.00319 4.68144 5.98636 4.6873 5.97539 4.69535L8.94824 4.69535L8.94824 4.69388C8.44264 4.24828 7.86242 4.01853 7.2017 3.99805Z" fill="#11404C"/>
<path d="M5.47981 4.57854C5.99053 4.50317 6.43028 4.32318 6.80563 4.03343C6.8188 4.02026 6.81539 4.01367 6.79539 4.01367C6.29491 4.08391 5.85444 4.26391 5.46957 4.55878C5.44469 4.57854 5.44981 4.57854 5.47981 4.57854Z" fill="#11404C"/>
<path d="M8.04841 2.05609C8.01329 2.63632 7.83329 3.15216 7.5033 3.60215C7.45867 3.65483 7.41403 3.70752 7.3694 3.7602C7.3694 3.7602 7.36867 3.76312 7.36867 3.76751C7.36867 3.78288 7.37891 3.79751 7.39355 3.79751C8.00378 3.85239 8.54962 4.09238 9.03985 4.50286C9.08521 4.54311 9.12985 4.53798 9.17009 4.49262C9.55642 4.04921 9.77373 3.53264 9.82422 2.93924L9.82422 2.78632C9.81251 2.74608 9.78763 2.71095 9.75105 2.68096C9.26082 2.2756 8.71059 2.05024 8.09963 2.01073C8.06963 2.00561 8.04987 2.02097 8.04987 2.05609L8.04841 2.05609Z" fill="#11404C"/>
<path d="M3.17618 4.05366C3.13594 4.01854 3.08106 4.00391 3.02106 4.00391C2.37498 4.04342 1.81816 4.27097 1.34037 4.69535L4.30664 4.69535C4.29859 4.68804 4.28323 4.68291 4.27225 4.67926C3.85665 4.54901 3.49154 4.33902 3.17618 4.05366Z" fill="#11404C"/>
<path d="M2.44169 2.00365C2.48413 2.67608 2.73217 3.24899 3.18436 3.73044C3.19533 3.74141 3.20923 3.748 3.22679 3.75166C3.37533 3.77288 3.52752 3.77654 3.67605 3.80507C3.97312 3.86141 4.25262 3.95726 4.50725 4.09189C4.51676 4.09702 4.55042 4.11311 4.56066 4.10214C4.56871 4.09336 4.55774 4.07068 4.54969 4.05604C4.34774 3.67044 4.23799 3.26362 4.21677 2.83924C4.21311 2.78583 4.18458 2.73681 4.14214 2.69437C3.6541 2.26267 3.09509 2.02926 2.4512 1.99414C2.44389 1.99414 2.44023 2.00512 2.44023 2.00512L2.44169 2.00365Z" fill="#11404C"/>
<path d="M3.48738 4.00559C3.89054 4.30998 4.32955 4.49363 4.81027 4.55729C4.84247 4.56095 4.83881 4.55729 4.81759 4.53607C4.40345 4.22803 3.96517 4.04437 3.49469 3.98437C3.47567 3.98437 3.47323 3.99145 3.48738 4.00559Z" fill="#11404C"/>
<path d="M2.69092 3.79269C2.7597 3.78684 2.82848 3.78172 2.89726 3.77586C2.89726 3.77586 2.90018 3.7744 2.90311 3.77147C2.91409 3.7605 2.91701 3.74294 2.90677 3.73269C2.51385 3.26222 2.298 2.70686 2.24166 2.06956C2.238 2.00956 2.20288 1.98103 2.14288 1.98469C1.52753 2.02712 0.986083 2.25688 0.515607 2.67833C0.462194 2.72442 0.444634 2.78442 0.451951 2.8554C0.511949 3.48904 0.742431 4.03708 1.14559 4.49731C1.16315 4.52219 1.18803 4.52584 1.21291 4.50097C1.64826 4.11537 2.13996 3.8783 2.69165 3.79342L2.69092 3.79269Z" fill="#11404C"/>
</svg>
