<svg width="31" height="20" viewBox="0 0 31 20" fill="none" xmlns="http://www.w3.org/2000/svg">
<path d="M15.4373 3.68821C18.9354 3.68821 21.7491 6.5019 21.7491 10C21.7491 13.4981 18.9354 16.3498 15.4373 16.3498C11.9392 16.3498 9.12548 13.4981 9.12548 10C9.12548 6.5019 11.9392 3.68821 15.4373 3.68821ZM15.4373 20C8.51711 20 3.0038 16.1217 0 10C2.96578 3.87833 8.51711 0 15.4373 0C22.3194 0 27.9088 3.87833 30.8745 10C27.9088 16.1217 22.3574 20 15.4373 20ZM28.365 10C25.8175 5.20913 20.8745 2.24335 15.4373 2.24335C10 2.24335 5.05703 5.20913 2.50951 10C5.05703 14.7909 10 17.7567 15.4373 17.7567C20.8745 17.7567 25.8175 14.7909 28.365 10ZM15.4373 5.93156C13.1939 5.93156 11.3688 7.75665 11.3688 10C11.3688 12.2433 13.1939 14.0684 15.4373 14.0684C17.6806 14.0684 19.5057 12.2814 19.5057 10C19.5057 7.75665 17.6806 5.93156 15.4373 5.93156Z" fill="#11404C"/>
</svg>
