<svg width="16" height="15" viewBox="0 0 16 15" fill="none" xmlns="http://www.w3.org/2000/svg">
<path d="M0.732026 8.231H8.56052C8.87017 9.19914 9.77947 9.90421 10.8505 9.90421C11.9215 9.90421 12.8309 9.19914 13.1405 8.231H14.9036C15.3072 8.231 15.6356 7.90258 15.6356 7.49898C15.6356 7.09538 15.3072 6.76695 14.9036 6.76695H13.1405C12.8308 5.79882 11.9215 5.09375 10.8505 5.09375C9.77947 5.09375 8.87011 5.79882 8.56052 6.76695H0.732026C0.328429 6.76695 0 7.09538 0 7.49898C0 7.90258 0.328429 8.231 0.732026 8.231ZM10.8505 6.5578C11.3693 6.5578 11.7917 6.98018 11.7917 7.49898C11.7917 8.01778 11.3693 8.44016 10.8505 8.44016C10.3317 8.44016 9.90933 8.01778 9.90933 7.49898C9.90933 6.98018 10.3317 6.5578 10.8505 6.5578Z" fill="black"/>
<path d="M0.732026 3.13725H2.4951C2.80475 4.10539 3.71405 4.81046 4.78509 4.81046C5.85613 4.81046 6.76549 4.10539 7.07507 3.13725H14.9036C15.3072 3.13725 15.6356 2.80883 15.6356 2.40523C15.6356 2.00163 15.3072 1.6732 14.9036 1.6732H7.07507C6.76543 0.705067 5.85613 0 4.78509 0C3.71405 0 2.80468 0.705067 2.4951 1.6732H0.732026C0.328429 1.6732 0 2.00163 0 2.40523C0 2.80883 0.328429 3.13725 0.732026 3.13725ZM4.78515 1.46405C5.30395 1.46405 5.72633 1.88643 5.72633 2.40523C5.72633 2.92403 5.30395 3.34641 4.78515 3.34641C4.26635 3.34641 3.84397 2.92403 3.84397 2.40523C3.84397 1.88643 4.26635 1.46405 4.78515 1.46405Z" fill="black"/>
<path d="M14.9332 11.8627H7.10242C6.79277 10.8945 5.88347 10.1895 4.81243 10.1895C3.74139 10.1895 2.83203 10.8945 2.52244 11.8627H0.75937C0.355772 11.8627 0.0273438 12.1911 0.0273438 12.5947C0.0273438 12.9983 0.355772 13.3267 0.75937 13.3267H2.52244C2.83209 14.2948 3.74139 14.9999 4.81243 14.9999C5.88347 14.9999 6.79283 14.2948 7.10242 13.3267H14.9332C15.3368 13.3267 15.6652 12.9983 15.6652 12.5947C15.6652 12.1911 15.3368 11.8627 14.9332 11.8627ZM4.81222 13.5359C4.29342 13.5359 3.87105 13.1135 3.87105 12.5947C3.87105 12.0759 4.29342 11.6535 4.81222 11.6535C5.33102 11.6535 5.7534 12.0759 5.7534 12.5947C5.7534 13.1135 5.33102 13.5359 4.81222 13.5359Z" fill="black"/>
</svg>
