<svg width="34" height="40" viewBox="0 0 34 40" fill="none" xmlns="http://www.w3.org/2000/svg">
<path fill-rule="evenodd" clip-rule="evenodd" d="M4.32324 34.7996C4.1102 34.4211 3.96563 34.0045 3.90096 33.5651L0.0376895 7.27171C-0.0992653 6.34153 0.140407 5.39427 0.701549 4.63915C1.26266 3.88399 2.10343 3.38185 3.0336 3.24487L24.8758 0.0378604C25.8078 -0.0990945 26.7551 0.138674 27.5103 0.699821C28.2654 1.26283 28.7657 2.1017 28.9027 3.03188L29.3858 6.32639L29.9488 6.32829C30.8904 6.32639 31.7939 6.70111 32.4596 7.36686C33.1235 8.03262 33.4982 8.93426 33.4982 9.87577V36.4506C33.4982 37.3922 33.1235 38.2957 32.4577 38.9614C31.7939 39.6272 30.8903 40 29.9488 40H7.87243C6.93086 40 6.02922 39.6253 5.36351 38.9614C4.69775 38.2957 4.32305 37.3921 4.32305 36.4506L4.32324 34.7996ZM27.4383 6.32615L26.9951 3.31124C26.9323 2.88706 26.7041 2.50475 26.3598 2.24793C26.0136 1.99115 25.5818 1.88272 25.1557 1.94549L3.31352 5.1525C2.88934 5.21527 2.50703 5.44543 2.25021 5.78973C1.99339 6.13402 1.885 6.56583 1.94587 6.99191L4.32355 23.1772V9.87563C4.32355 8.93406 4.69827 8.03242 5.36402 7.36672C6.02978 6.70096 6.93142 6.32625 7.87293 6.32625L27.4383 6.32615ZM6.25205 24.1894V36.4509C6.25205 36.8807 6.42324 37.2935 6.72759 37.5979C7.03003 37.9003 7.44282 38.0715 7.8727 38.0715H29.9491C30.379 38.0715 30.7918 37.9003 31.0942 37.5979C31.3985 37.2935 31.5697 36.8807 31.5697 36.4509V28.049L27.0407 24.3988C26.5595 24.0107 25.9051 23.9232 25.3402 24.1686L21.8688 25.6789C20.6057 26.2287 19.1316 25.8977 18.2242 24.861L13.8284 19.8298C13.2292 19.1431 12.1887 19.0709 11.4982 19.6663L6.25205 24.1894ZM31.5696 25.5704V9.87597C31.5696 9.44608 31.3984 9.0333 31.0959 8.73085C30.7916 8.42651 30.3788 8.25532 29.9489 8.25532H7.87254C7.44266 8.25532 7.02988 8.42651 6.72743 8.73085C6.42309 9.0352 6.25189 9.44609 6.25189 9.87597V21.6426L10.2388 18.2055C11.732 16.9177 13.9822 17.0775 15.2797 18.5612L19.6775 23.5904C20.0313 23.9955 20.6057 24.1249 21.1003 23.9099L24.5698 22.3996C25.7929 21.8689 27.2119 22.0591 28.2505 22.8961L31.5696 25.5704ZM23.122 12.3808C25.0222 12.3808 26.563 13.9235 26.563 15.8218C26.563 17.7221 25.0222 19.2628 23.122 19.2628C21.2236 19.2628 19.681 17.7221 19.6829 15.8218C19.6829 13.9235 21.2236 12.3808 23.122 12.3808ZM23.122 14.3096C22.2869 14.3096 21.6097 14.9887 21.6097 15.8218C21.6097 16.6569 22.2888 17.3341 23.122 17.3341C23.957 17.3341 24.6342 16.6569 24.6342 15.8218C24.6342 14.9868 23.957 14.3096 23.122 14.3096Z" fill="#151517"/>
</svg>
