<svg width="11" height="11" viewBox="0 0 11 11" fill="none" xmlns="http://www.w3.org/2000/svg">
<path d="M7.56493 6.84087C7.16206 6.84087 6.76663 6.89298 6.41166 7.0254C5.41485 7.394 4.97103 7.92272 4.77198 8.3068C5.01945 8.25092 5.2797 8.19974 5.54739 8.15466C5.62456 8.07343 5.71077 7.99549 5.8087 7.92224C6.03222 7.75272 6.3095 7.6067 6.63096 7.48743C6.89121 7.39117 7.20519 7.34234 7.5655 7.34234C8.36592 7.34234 9.2233 7.57994 9.81132 7.78325C9.49573 8.07156 9.10828 8.42138 8.65539 8.73269C8.12265 9.09847 7.62665 9.32386 7.13969 9.42199C6.99865 9.45017 6.85922 9.46519 6.7251 9.46519C6.30147 9.46519 5.90764 9.32104 5.55586 9.03649C5.47763 8.97357 5.40951 8.90924 5.3515 8.85008C5.95236 8.73879 6.61175 8.65474 7.28492 8.60873C7.40999 8.60075 7.50313 8.50355 7.49408 8.3932C7.48397 8.28285 7.37487 8.20068 7.2498 8.20866C6.60264 8.2528 5.94326 8.33497 5.32755 8.44484C5.09817 8.48569 4.87465 8.53077 4.66018 8.58007C4.62133 8.58899 4.58407 8.59791 4.54576 8.6073C4.24027 8.67962 3.9779 8.75475 3.75331 8.82846C3.84645 8.7214 3.93852 8.61199 4.02792 8.50071C4.47763 7.94288 4.87625 7.33387 5.21686 6.68356C5.24187 6.6366 5.26582 6.59058 5.28977 6.54316C5.76183 6.4469 7.08695 6.04825 7.64473 4.56072C8.32913 2.73372 6.19606 0 6.19606 0C5.88153 0.513687 4.13539 2.11442 3.82775 3.94191C3.63723 5.07165 4.17634 5.81026 4.61433 6.20886C4.70055 6.04171 4.78251 5.87125 4.86181 5.69893C4.83679 5.67075 4.81178 5.64305 4.78783 5.61159C4.42115 5.15894 4.28703 4.62177 4.38921 4.0137C4.5957 2.78868 5.55046 1.63074 6.16037 0.910467C6.31844 1.1598 6.49779 1.46829 6.66329 1.80778C7.18644 2.87977 7.33971 3.77615 7.10502 4.40206C6.9757 4.74671 6.78943 5.04723 6.551 5.29656C6.36154 5.4947 6.13642 5.66234 5.88363 5.79428C5.77666 5.85016 5.67341 5.89523 5.57708 5.93139C5.92886 5.12517 6.19816 4.26449 6.3807 3.36199C6.40252 3.25258 6.32056 3.14882 6.19655 3.12956C6.07255 3.11031 5.95494 3.18262 5.93311 3.29203C5.74578 4.21939 5.46425 5.10125 5.09277 5.92153C5.01879 6.08587 4.94056 6.24786 4.85914 6.40752C4.84317 6.43851 4.82721 6.4695 4.81018 6.50049C4.40145 7.28371 3.90544 8.00403 3.33753 8.644C3.28431 8.7041 3.23056 8.76233 3.1784 8.81914C3.07036 8.93512 2.96499 9.04265 2.8628 9.14266C2.86493 9.09336 2.86759 9.04265 2.86972 8.98959C2.87451 8.83229 2.87558 8.6548 2.86759 8.46369C2.85748 8.22141 2.8346 7.98381 2.79947 7.75561C3.06877 7.48796 3.57382 6.79913 3.28537 5.57592C2.90165 3.94701 0.305059 3.07179 0.305059 3.07179C0.321026 3.57656 -0.37828 5.25665 0.289093 6.73903C0.705805 7.66358 1.51847 7.88192 2.07251 7.91527C2.04963 7.75092 2.01929 7.57953 1.97831 7.40345C1.82716 7.3842 1.65792 7.34523 1.49454 7.2701C1.3583 7.20718 1.23696 7.12265 1.13104 7.02077C1.00385 6.89633 0.897415 6.74045 0.814389 6.55591C0.389693 5.61352 0.603104 4.54246 0.755316 3.81846C0.930415 3.90251 1.1268 4.00582 1.32743 4.1279C1.69092 4.34811 1.99161 4.58148 2.22099 4.82189C2.48868 5.10127 2.65792 5.39006 2.72604 5.6793C2.79735 5.98075 2.81811 6.2653 2.78618 6.52355C2.76329 6.7109 2.71327 6.8851 2.63876 7.0424C2.52541 6.65597 2.36947 6.30098 2.17682 5.98779C2.11668 5.89059 1.97938 5.85444 1.86921 5.9075C1.75905 5.96056 1.71806 6.0817 1.7782 6.1789C2.02355 6.57567 2.17682 7.00813 2.27208 7.41894C2.312 7.59033 2.34127 7.75749 2.36309 7.91666C2.39023 8.11623 2.40513 8.30452 2.41205 8.47074C2.41684 8.57169 2.41897 8.66889 2.41897 8.7614C2.41897 9.16098 2.38385 9.46761 2.36575 9.59579C2.25133 9.69299 2.14648 9.7761 2.05708 9.84419C1.89157 9.9705 1.75533 10.0635 1.65846 10.1254C1.5632 10.1874 1.50838 10.2175 1.50731 10.2175C1.40034 10.2766 1.36895 10.3997 1.4344 10.4931C1.47751 10.5541 1.55149 10.5875 1.62759 10.5875C1.7037 10.5875 1.71062 10.5776 1.74787 10.5574C1.77501 10.5424 2.26464 10.2691 2.92882 9.66669C3.2476 9.41125 3.90754 9.16661 4.74303 8.97363C5.00541 9.29996 5.66747 9.96345 6.72659 9.96345C7.78566 9.96345 7.07624 9.94655 7.26677 9.90851C9.02988 9.554 10.3354 7.90396 10.816 7.62977C10.816 7.62977 9.13111 6.84046 7.56636 6.84046L7.56493 6.84087Z" fill="#396773"/>
</svg>
