<svg width="13" height="17" viewBox="0 0 13 17" fill="none" xmlns="http://www.w3.org/2000/svg">
<path d="M5.15112 15.4245L5.15107 15.4245L5.1538 15.4283C5.49903 15.9066 6.05309 16.2 6.63097 16.2C7.22027 16.2 7.77971 15.9086 8.09718 15.4225C8.90293 14.2493 9.98578 12.5981 10.8681 10.9656C11.3095 10.1489 11.7027 9.33342 11.9859 8.58233C12.2679 7.83465 12.4469 7.13548 12.4469 6.55628C12.4469 3.38258 9.83352 0.8 6.63097 0.8C3.42823 0.8 0.815661 3.38194 0.8 6.55529V6.55628C0.8 7.13548 0.979055 7.83465 1.26102 8.58233C1.54427 9.33342 1.93742 10.1489 2.37881 10.9656C3.26166 12.599 4.34522 14.2512 5.15112 15.4245ZM7.34872 14.8914L7.34862 14.8914L7.34488 14.8972C7.19886 15.1252 6.92521 15.2643 6.64669 15.2643C6.3723 15.2643 6.10899 15.1286 5.94466 14.8915C5.31205 13.9754 4.26034 12.3935 3.36759 10.7813C2.92114 9.97508 2.51646 9.16485 2.2239 8.42882C1.92946 7.68806 1.75648 7.0415 1.75648 6.55628C1.75648 3.89803 3.93893 1.73571 6.63097 1.73571C9.32218 1.73571 11.5061 3.89747 11.5369 6.55743C11.5366 7.04253 11.3637 7.68865 11.0695 8.42882C10.7769 9.16485 10.3723 9.97508 9.9258 10.7813C9.03305 12.3935 7.98135 13.9754 7.34872 14.8914ZM3.72362 6.55566C3.72362 8.15342 5.03784 9.43423 6.63097 9.43423C8.22256 9.43423 9.53832 8.17055 9.53832 6.57128C9.53832 4.97352 8.2241 3.6927 6.63097 3.6927C5.03938 3.6927 3.72362 4.95639 3.72362 6.55566ZM4.66509 6.57128C4.66509 5.50529 5.5483 4.62842 6.63097 4.62842C7.71364 4.62842 8.59685 5.50529 8.59685 6.57128C8.59685 7.63726 7.71364 8.51413 6.63097 8.51413C5.5483 8.51413 4.66509 7.63726 4.66509 6.57128Z" fill="#396773" stroke="#396773" stroke-width="0.4"/>
</svg>
