<svg width="9" height="12" viewBox="0 0 9 12" fill="none" xmlns="http://www.w3.org/2000/svg">
<path d="M3.68132 10.6532L3.68127 10.6533L3.68397 10.657C3.92349 10.9925 4.30913 11.2 4.71408 11.2C5.12538 11.2 5.51609 10.9947 5.7383 10.6512C6.27024 9.8684 6.98572 8.76571 7.56915 7.67464C7.86108 7.12871 8.12184 6.5822 8.31005 6.07776C8.49702 5.57666 8.61827 5.1019 8.61827 4.70418C8.61827 2.55291 6.86536 0.8 4.71408 0.8C2.56263 0.8 0.810502 2.55247 0.800002 4.70321H0.8V4.70418C0.8 5.1019 0.921248 5.57666 1.10821 6.07776C1.29643 6.5822 1.55719 7.12871 1.84912 7.67464C2.43304 8.76663 3.14924 9.87026 3.68132 10.6532ZM5.13091 10.2239L5.13081 10.2238L5.12711 10.2297C5.04404 10.3607 4.88619 10.4429 4.72445 10.4429C4.56702 10.4429 4.41421 10.3642 4.31799 10.2239C3.90126 9.61398 3.20895 8.56144 2.62161 7.48938C2.32787 6.95321 2.06237 6.41574 1.8708 5.9286C1.67739 5.4368 1.56704 5.01509 1.56704 4.70418C1.56704 2.9675 2.9774 1.55714 4.71408 1.55714C6.44997 1.55714 7.86175 2.96694 7.88186 4.7053C7.88159 5.01609 7.77128 5.43739 7.5781 5.9286C7.38653 6.41574 7.12103 6.95321 6.82729 7.48938C6.23996 8.56144 5.54765 9.61398 5.13091 10.2239ZM2.72837 4.70378C2.72837 5.80467 3.6246 6.68949 4.71408 6.68949C5.80203 6.68949 6.6998 5.8166 6.6998 4.71418C6.6998 3.61329 5.80357 2.72847 4.71408 2.72847C3.62613 2.72847 2.72837 3.60136 2.72837 4.70378ZM3.48551 4.71418C3.48551 4.03901 4.03891 3.48561 4.71408 3.48561C5.38926 3.48561 5.94265 4.03901 5.94265 4.71418C5.94265 5.38936 5.38926 5.94276 4.71408 5.94276C4.03891 5.94276 3.48551 5.38936 3.48551 4.71418Z" fill="#396773" stroke="#396773" stroke-width="0.4"/>
</svg>
