<svg width="11" height="14" viewBox="0 0 11 14" fill="none" xmlns="http://www.w3.org/2000/svg">
<path d="M2.4658 11.5342L2.46582 11.5342L2.46474 11.5332C2.11265 11.2013 1.9041 10.7027 1.9041 10.1816V8.49513C1.9041 8.2323 1.68988 8.01807 1.42705 8.01807C1.16423 8.01807 0.95 8.23229 0.95 8.49513V10.1816C0.95 10.9635 1.27588 11.7026 1.79705 12.2238C2.31947 12.7462 3.03616 13.05 3.81836 13.05H7.14979C7.932 13.05 8.64955 12.7453 9.1711 12.2238C9.69226 11.7026 10.0182 10.9644 10.0182 10.1816V3.81836C10.0182 3.03647 9.69227 2.29738 9.1711 1.77621C8.64868 1.2538 7.93199 0.95 7.14979 0.95H3.81836C3.03615 0.95 2.31861 1.25466 1.79705 1.77621C1.27589 2.29737 0.95 3.03561 0.95 3.81836V5.50487C0.95 5.7677 1.16423 5.98192 1.42705 5.98192C1.68988 5.98192 1.9041 5.76771 1.9041 5.50487V3.81836C1.9041 3.29819 2.11209 2.81952 2.4658 2.46581C2.81952 2.11209 3.29818 1.9041 3.81836 1.9041H7.14979C7.66997 1.9041 8.14863 2.11209 8.50235 2.46581C8.85606 2.81952 9.06405 3.29819 9.06405 3.81836V10.1816C9.06405 10.7027 8.8555 11.2013 8.50341 11.5332L8.50339 11.5331L8.50235 11.5342C8.14863 11.8879 7.66997 12.0959 7.14979 12.0959H3.81836C3.29818 12.0959 2.81952 11.8879 2.4658 11.5342Z" fill="#11404C" stroke="#11404C" stroke-width="0.1"/>
<path d="M7.93249 6.62318L7.93254 6.62313L7.93055 6.62134L5.41166 4.35856C5.21918 4.1681 4.90878 4.19228 4.74162 4.38372C4.57699 4.57227 4.57332 4.8818 4.76766 5.05195L6.38021 6.52356H1.42705C1.16423 6.52356 0.95 6.73778 0.95 7.00061C0.95 7.26343 1.16422 7.47766 1.42705 7.47766H6.38021L4.76766 8.94927C4.57332 9.11941 4.57699 9.42895 4.74162 9.61749C4.90866 9.8088 5.21911 9.83409 5.41171 9.64262L7.93055 7.37969L7.93061 7.37976L7.93266 7.37768C8.02508 7.28435 8.09644 7.14466 8.09644 7.00052C8.09644 6.85649 8.02517 6.71586 7.93249 6.62318Z" fill="#11404C" stroke="#11404C" stroke-width="0.1"/>
</svg>
