<svg width="15" height="15" viewBox="0 0 15 15" fill="none" xmlns="http://www.w3.org/2000/svg">
<g clip-path="url(#clip0_1519_24141)">
<path d="M10.125 9.68457V8.93457H9.375H5.625C5.52066 8.93457 5.4375 8.85141 5.4375 8.74707V6.87207C5.4375 6.76773 5.52066 6.68457 5.625 6.68457H9.375H10.125V5.93457V4.11523C10.125 3.9816 10.2345 3.87207 10.3682 3.87207C10.4302 3.87207 10.4937 3.89672 10.5437 3.94519L14.1386 7.5401C14.2087 7.61023 14.25 7.70944 14.25 7.80957C14.25 7.9097 14.2087 8.00891 14.1386 8.07904L10.541 11.6767C10.4962 11.7215 10.4359 11.7471 10.3682 11.7471C10.2345 11.7471 10.125 11.6375 10.125 11.5039V9.68457ZM4.67032 13.6095L4.67891 13.6097H4.6875C4.71177 13.6097 4.73389 13.6098 4.75409 13.6101C4.73344 13.6178 4.71101 13.6221 4.6875 13.6221H2.8125C2.58664 13.6221 2.36923 13.5857 2.1658 13.5185C2.27054 13.5439 2.37883 13.5587 2.48961 13.5595L4.67032 13.6095ZM1.79527 2.26522C1.63035 2.37525 1.47113 2.50299 1.32677 2.63688C1.30827 2.65405 1.28982 2.67148 1.27147 2.68917C1.42124 2.52089 1.59813 2.37728 1.79527 2.26522Z" stroke="#151517" stroke-width="1.5"/>
</g>
<defs>
<clipPath id="clip0_1519_24141">
<rect width="15" height="15" fill="white"/>
</clipPath>
</defs>
</svg>
