<svg width="17" height="17" viewBox="0 0 17 17" fill="none" xmlns="http://www.w3.org/2000/svg">
<path d="M14.282 3.57884H13.9548V2.60761H13.9548L13.9547 2.60417C13.9214 1.63372 13.1096 0.872494 12.1393 0.900762H2.71545C1.7452 0.872501 0.933402 1.63372 0.900059 2.60417L0.9 2.60417V2.60761V9.03499C0.9 9.97734 1.6645 10.7418 2.60685 10.7418H3.04246V11.7981H3.04242L3.04251 11.8012C3.0723 12.7757 3.88334 13.5425 4.85772 13.5177H7.07397V13.5177L7.07649 13.5176C7.27824 13.5125 7.46674 13.6159 7.57021 13.7886L8.48382 15.4686L8.51222 15.5209H8.51583C8.74396 15.8805 9.14135 16.1 9.56992 16.1C10.0183 16.1 10.4317 15.8598 10.6543 15.4705L10.6543 15.4705L10.6554 15.4686L11.5699 13.7868L11.5739 13.7794C11.6792 13.6121 11.8646 13.5126 12.0627 13.5176L12.0627 13.5177H12.0652H14.282C15.2563 13.5425 16.0674 12.7757 16.0972 11.8012L16.0972 11.8012V11.7981V5.2977H16.0973L16.0972 5.29464C16.0674 4.32078 15.2563 3.55403 14.282 3.57884ZM2.70715 2.17176L2.70714 2.17199H2.71397H12.1408V2.17223L12.1476 2.17176C12.416 2.15343 12.6509 2.3475 12.6835 2.61345V3.57884H4.85773C3.88337 3.55402 3.07231 4.32082 3.04251 5.29468L3.04246 5.29467V5.29773V9.47065L2.60686 9.47061C2.36614 9.47061 2.17123 9.2757 2.17123 9.03499V2.61345C2.20389 2.3475 2.43881 2.15343 2.70715 2.17176ZM14.2904 12.2467L14.2904 12.2464H14.2833H12.0659C11.3987 12.2375 10.7807 12.5945 10.4536 13.1758L10.4529 13.1769L9.56762 14.8002L8.68496 13.1771L8.65656 13.1248H8.65391C8.32049 12.573 7.71857 12.2377 7.07127 12.2464H4.85647V12.2462L4.84935 12.2467C4.57696 12.2661 4.33918 12.0649 4.31374 11.7936V5.30216C4.33919 5.03137 4.57703 4.82976 4.84915 4.84975L4.84913 4.85002H4.85647H14.2833V4.85029L14.2906 4.84975C14.5627 4.82976 14.8006 5.03138 14.826 5.30216L14.826 11.7936C14.8006 12.0649 14.5628 12.2661 14.2904 12.2467ZM13.2332 7.8778C13.3525 7.75852 13.4192 7.59645 13.4192 7.42815C13.4192 7.25985 13.3525 7.09777 13.2332 6.97848C13.1139 6.85919 12.9519 6.79253 12.7835 6.79253H6.35616C6.005 6.79253 5.72055 7.07698 5.72055 7.42814C5.72055 7.7793 6.005 8.06376 6.35616 8.06376H12.7835C12.9519 8.06376 13.1139 7.99709 13.2332 7.8778ZM13.2332 10.0203C13.3525 9.90098 13.4192 9.73892 13.4192 9.57061C13.4192 9.40231 13.3525 9.24023 13.2332 9.12095C13.1139 9.00165 12.9519 8.93499 12.7835 8.93499H6.35616C6.005 8.93499 5.72055 9.21944 5.72055 9.5706C5.72055 9.92177 6.005 10.2062 6.35616 10.2062H12.7835C12.9519 10.2062 13.1139 10.1395 13.2332 10.0203Z" fill="black" stroke="black" stroke-width="0.2"/>
</svg>
