<svg width="25" height="22" viewBox="0 0 25 22" fill="none" xmlns="http://www.w3.org/2000/svg">
<path d="M22.9401 5.61329V11.7465L14.3073 12.8477V12.177C14.3073 11.5924 13.832 11.1158 13.2461 11.1158H11.7099C11.1242 11.1158 10.6488 11.5912 10.6488 12.177V12.8477L2.01483 11.7464V5.61234C2.01483 5.09423 2.43665 4.67241 2.95477 4.67241H22.0002C22.5182 4.67241 22.9401 5.0941 22.9401 5.61329ZM22.0014 3.40723H16.5601V2.31905C16.5601 1.45412 15.8571 0.75 14.991 0.75H9.96553C9.1006 0.75 8.39648 1.45296 8.39648 2.31905V3.40723H2.95516C1.73909 3.40723 0.75 4.39629 0.75 5.61239V12.3033C0.75 12.622 0.987543 12.89 1.30255 12.9309L1.30331 12.931L1.64244 12.9741V19.2706C1.64244 20.3649 2.54132 21.25 3.64097 21.25H21.3178C22.4175 21.25 23.3163 20.3649 23.3163 19.2706V12.9741L23.6555 12.931L23.6562 12.9309C23.9712 12.89 24.2088 12.622 24.2088 12.3033V5.61239C24.2088 4.39632 23.2197 3.40723 22.0036 3.40723H22.0014ZM9.66156 2.31908V2.31905C9.66156 2.15199 9.79832 2.01523 9.96538 2.01523H14.9909C15.158 2.01523 15.2947 2.15199 15.2947 2.31905V3.40723H9.66144L9.66156 2.31908ZM22.0499 19.2716C22.0499 19.6607 21.7255 19.9857 21.3166 19.9857H3.63977C3.23084 19.9857 2.90646 19.6607 2.90646 19.2716V13.1361L10.6489 14.1236V15.5152C10.6489 16.1009 11.1243 16.5764 11.71 16.5764H13.2462C13.8319 16.5764 14.3073 16.1009 14.3073 15.5152V14.1236L22.0497 13.1361L22.0499 19.2716ZM13.0421 15.3111H11.9141V12.381H13.0421V15.3111Z" fill="#396773" stroke="#396773" stroke-width="0.5"/>
</svg>
