<svg width="10" height="10" viewBox="0 0 10 10" fill="none" xmlns="http://www.w3.org/2000/svg">
<circle cx="5" cy="5" r="5" fill="#11404C"/>
<path d="M4.852 7.042C4.464 7.042 4.106 6.952 3.778 6.772C3.454 6.588 3.196 6.334 3.004 6.01C2.816 5.682 2.722 5.314 2.722 4.906C2.722 4.498 2.816 4.132 3.004 3.808C3.196 3.484 3.454 3.232 3.778 3.052C4.106 2.868 4.464 2.776 4.852 2.776C5.244 2.776 5.602 2.868 5.926 3.052C6.254 3.232 6.512 3.484 6.7 3.808C6.888 4.132 6.982 4.498 6.982 4.906C6.982 5.314 6.888 5.682 6.7 6.01C6.512 6.334 6.254 6.588 5.926 6.772C5.602 6.952 5.244 7.042 4.852 7.042ZM4.852 6.448C5.128 6.448 5.374 6.386 5.59 6.262C5.806 6.134 5.974 5.954 6.094 5.722C6.218 5.486 6.28 5.214 6.28 4.906C6.28 4.598 6.218 4.328 6.094 4.096C5.974 3.864 5.806 3.686 5.59 3.562C5.374 3.438 5.128 3.376 4.852 3.376C4.576 3.376 4.33 3.438 4.114 3.562C3.898 3.686 3.728 3.864 3.604 4.096C3.484 4.328 3.424 4.598 3.424 4.906C3.424 5.214 3.484 5.486 3.604 5.722C3.728 5.954 3.898 6.134 4.114 6.262C4.33 6.386 4.576 6.448 4.852 6.448Z" fill="white"/>
</svg>
