<svg width="40" height="55" viewBox="0 0 40 55" fill="none" xmlns="http://www.w3.org/2000/svg">
<path d="M30.5349 51.9589C33.5436 50.235 35.8967 47.7561 37.5269 44.5922C39.1688 41.405 40 37.6529 40 33.4413L40 19.6562L0 19.6562L-6.21788e-07 33.4413C-8.11888e-07 37.6558 0.831199 41.4079 2.47311 44.5922C4.10332 47.759 6.43594 50.2379 9.40953 51.9618C12.3919 53.6886 15.9333 54.5666 19.94 54.5666C23.9467 54.5666 27.5115 53.6886 30.5349 51.9618L30.5349 51.9589ZM9.47099 43.6761C6.98617 41.1913 5.72766 37.65 5.72766 33.1457L5.72766 26.6249L34.3338 26.6249L34.3338 33.1457C34.3338 37.65 33.0431 41.1972 30.4939 43.682C27.9505 46.1639 24.4004 47.4195 19.94 47.4195C15.4796 47.4195 11.9558 46.161 9.46806 43.6761L9.47099 43.6761Z" fill="white"/>
<path d="M23.4116 10.31C23.2506 7.70806 22.3316 5.46617 20.6107 3.54621C20.5902 3.52573 20.5493 3.54621 20.5493 3.54621C18.7669 5.5686 17.8479 7.88952 17.7659 10.5324C17.7659 10.5938 17.7864 10.6524 17.8274 10.7138C18.1874 11.1938 18.6088 11.6358 18.9483 12.1362C19.6302 13.1372 20.1483 14.1967 20.4907 15.2971C20.5054 15.341 20.5522 15.4786 20.6107 15.4786C20.6575 15.4786 20.6927 15.382 20.7102 15.3176C21.2312 13.6552 22.0712 12.1948 23.2126 10.9334C23.3531 10.7724 23.4116 10.5529 23.4116 10.3129L23.4116 10.31Z" fill="white"/>
<path d="M17.8977 12.1154C17.845 12.0627 17.8187 12.0763 17.8187 12.1563C18.0996 14.1582 18.8196 15.9201 19.9991 17.4596C20.0781 17.5591 20.0781 17.5386 20.0781 17.4186C19.7767 15.3758 19.0567 13.6168 17.8977 12.1154Z" fill="white"/>
<path d="M16.8164 9.84787C16.8164 9.84787 16.8281 9.8508 16.8456 9.8508C16.9071 9.8508 16.9656 9.80982 16.9656 9.75129C17.1852 7.31037 18.1451 5.12701 19.787 3.16608C19.948 2.98462 19.9275 2.80609 19.7461 2.64512C17.8846 1.0237 15.7042 0.142741 13.1813 0.00225666C12.9004 -0.0182307 12.6809 0.101766 12.5023 0.321273C10.8809 2.2822 9.97947 4.48312 9.82143 6.92697C9.80094 7.04696 9.8624 7.12599 10.0029 7.12599C12.3238 7.26647 14.3872 7.98645 16.1871 9.30642C16.3979 9.48495 16.6086 9.66349 16.8193 9.84202L16.8164 9.84787Z" fill="white"/>
<path d="M24.3396 11.1443C24.2547 11.7384 24.24 12.3472 24.1259 12.9413C23.9005 14.1296 23.5171 15.2476 22.9786 16.2661C22.9581 16.3042 22.8937 16.4388 22.9376 16.4798C22.9728 16.512 23.0635 16.4681 23.122 16.4359C24.6644 15.6281 26.2917 15.1891 27.9892 15.1042C28.2029 15.0896 28.399 14.9754 28.5687 14.8057C30.2955 12.8535 31.2291 10.6175 31.3696 8.04195C31.3696 8.01268 31.3257 7.99805 31.3257 7.99805C28.636 8.1678 26.3444 9.15997 24.4186 10.9687C24.3747 11.0126 24.3483 11.0682 24.3337 11.1385L24.3396 11.1443Z" fill="white"/>
<path d="M21.1785 17.4879C22.4106 15.8314 23.1453 14.0782 23.3853 12.1963C23.3853 12.1202 23.357 12.1105 23.3004 12.1671C22.0828 13.7797 21.3482 15.5358 21.0936 17.4586C21.079 17.5874 21.0936 17.5728 21.1785 17.4879Z" fill="white"/>
<path d="M21.3316 2.80921C21.2321 2.87945 21.2174 2.97896 21.3169 3.07847C22.8593 4.8199 23.8076 6.78668 24.1471 8.99345C24.1705 9.26857 24.191 9.54368 24.2144 9.8188C24.2144 9.8188 24.2203 9.83051 24.232 9.84221C24.2759 9.88611 24.3461 9.89782 24.3871 9.85685C26.269 8.28518 28.4904 7.42178 31.0396 7.19642C31.2796 7.18179 31.3938 7.04131 31.3791 6.80131C31.2094 4.33991 30.2904 2.17411 28.6046 0.292201C28.4202 0.0785475 28.1802 0.00830512 27.8963 0.0375727C25.3617 0.277567 23.1696 1.1995 21.3286 2.81214L21.3316 2.80921Z" fill="white"/>
<path d="M28.8053 15.9902C28.7439 15.9902 28.6853 16.0107 28.6239 16.0517C28.1439 16.4117 27.7019 16.8331 27.2015 17.1726C26.2005 17.8546 25.141 18.3726 24.0406 18.715C24.0113 18.7238 23.944 18.7472 23.9001 18.7794L35.7915 18.7794L35.7915 18.7736C33.7691 16.9912 31.4482 16.0722 28.8053 15.9902Z" fill="white"/>
<path d="M21.9207 18.3122C23.9636 18.0107 25.7226 17.2908 27.224 16.1318C27.2767 16.0791 27.263 16.0527 27.183 16.0527C25.1811 16.3337 23.4192 17.0537 21.8797 18.2332C21.7802 18.3122 21.8007 18.3122 21.9207 18.3122Z" fill="white"/>
<path d="M32.1936 8.22437C32.0531 10.5453 31.3332 12.6087 30.0132 14.4086C29.8347 14.6193 29.6561 14.8301 29.4776 15.0408C29.4776 15.0408 29.4747 15.0525 29.4747 15.0701C29.4747 15.1315 29.5157 15.1901 29.5742 15.1901C32.0151 15.4096 34.1985 16.3695 36.1594 18.0114C36.3408 18.1724 36.5194 18.1519 36.6804 17.9705C38.2257 16.1969 39.0949 14.1306 39.2969 11.757L39.2969 11.1453C39.25 10.9843 39.1505 10.8438 39.0042 10.7238C37.0433 9.1024 34.8423 8.20095 32.3985 8.04291C32.2785 8.02242 32.1995 8.08388 32.1995 8.22437L32.1936 8.22437Z" fill="white"/>
<path d="M12.7023 16.2127C12.5413 16.0722 12.3218 16.0137 12.0818 16.0137C9.49748 16.1717 7.27022 17.0819 5.35904 18.7795L17.2241 18.7795C17.1919 18.7502 17.1305 18.7297 17.0866 18.7151C15.4242 18.1941 13.9637 17.3541 12.7023 16.2127Z" fill="white"/>
<path d="M9.76823 8.0107C9.93798 10.7004 10.9301 12.992 12.7389 14.9179C12.7828 14.9618 12.8384 14.9881 12.9086 15.0027C13.5028 15.0876 14.1115 15.1022 14.7057 15.2164C15.8939 15.4417 17.012 15.8251 18.0305 16.3637C18.0685 16.3842 18.2031 16.4485 18.2441 16.4046C18.2763 16.3695 18.2324 16.2788 18.2002 16.2203C17.3924 14.6779 16.9534 13.0506 16.8685 11.3531C16.8539 11.1394 16.7398 10.9433 16.57 10.7736C14.6179 9.04678 12.3818 8.11314 9.80628 7.97266C9.77701 7.97266 9.76238 8.01656 9.76238 8.01656L9.76823 8.0107Z" fill="white"/>
<path d="M13.952 16.0204C15.5646 17.238 17.3207 17.9726 19.2435 18.2272C19.3723 18.2418 19.3577 18.2272 19.2728 18.1423C17.6163 16.9102 15.8631 16.1755 13.9812 15.9355C13.9051 15.9355 13.8954 15.9638 13.952 16.0204Z" fill="white"/>
<path d="M10.7622 15.1708C11.0373 15.1474 11.3124 15.1269 11.5876 15.1035C11.5876 15.1035 11.5993 15.0976 11.611 15.0859C11.6549 15.042 11.6666 14.9717 11.6256 14.9308C10.0539 13.0489 9.19055 10.8275 8.96519 8.27825C8.95055 8.03826 8.81007 7.92411 8.57007 7.93875C6.10867 8.1085 3.94287 9.0275 2.06096 10.7133C1.84731 10.8977 1.77707 11.1377 1.80634 11.4216C2.04633 13.9562 2.96826 16.1483 4.5809 17.9892C4.65114 18.0887 4.75066 18.1034 4.85016 18.0039C6.59159 16.4615 8.55837 15.5132 10.7651 15.1737L10.7622 15.1708Z" fill="white"/>
</svg>
