<svg width="12" height="12" viewBox="0 0 12 12" fill="none" xmlns="http://www.w3.org/2000/svg">
<path d="M4.22056 1.48089C4.07018 1.11762 3.67371 0.924272 3.29482 1.02778L1.57615 1.49651C1.23632 1.59026 1 1.89884 1 2.25039C1 7.0822 4.9178 11 9.74962 11C10.1012 11 10.4097 10.7637 10.5035 10.4239L10.9722 8.70518C11.0757 8.32629 10.8824 7.92982 10.5191 7.77944L8.6442 6.99822C8.32585 6.86542 7.95673 6.95721 7.73994 7.22478L6.95091 8.18762C5.57597 7.53726 4.46274 6.42403 3.81238 5.04909L4.77523 4.26202C5.04279 4.04328 5.13458 3.6761 5.00178 3.35776L4.22056 1.48284V1.48089Z" stroke="#396773" stroke-width="1.2"/>
</svg>
