<svg width="13" height="14" viewBox="0 0 13 14" fill="none" xmlns="http://www.w3.org/2000/svg">
<path d="M6.53049 10.9153C6.48059 10.9153 6.43218 10.8989 6.3927 10.8684L6.33161 10.9475L6.33152 10.9475L5.76284 10.5086L2.43109 12.449H10.629L7.29798 10.5101L7.20468 10.4558L6.66828 10.8698C6.62844 10.8996 6.58002 10.916 6.53049 10.9153ZM6.53049 10.9153L6.52899 11.0153C6.52925 11.0153 6.5295 11.0153 6.52976 11.0153C6.53 11.0153 6.53025 11.0153 6.53049 11.0153V10.9153ZM12.0614 6.37391L12.0671 6.36832C12.0855 6.38701 12.1013 6.40737 12.1143 6.42889M12.0614 6.37391L12.1607 12.7747C12.1607 12.9543 12.015 13.1 11.8354 13.1H11.8218V13.1434L11.7473 13.1H1.22557C1.06122 13.1 0.925271 12.978 0.90335 12.8197C0.900905 12.8023 0.89989 12.7849 0.900262 12.7675V6.6092C0.901197 6.63238 0.9046 6.65541 0.910417 6.67789C0.904094 6.65318 0.900708 6.62787 0.900262 6.60252C0.89995 6.58481 0.901074 6.56707 0.903631 6.54951M12.0614 6.37391L12.0671 6.36832L12.0604 6.36154M12.0614 6.37391L0.968349 6.39734M12.1143 6.42889C12.1438 6.47785 12.1607 6.53519 12.1607 6.59648V6.60639C12.1625 6.54503 12.1471 6.48324 12.1143 6.42889ZM12.1143 6.42889C12.0993 6.4041 12.0812 6.38145 12.0604 6.36154M12.0604 6.36154L10.6067 4.88936M12.0604 6.36154C12.0019 6.30557 11.9227 6.27117 11.8354 6.27117C11.8338 6.27117 11.8322 6.27118 11.8306 6.27121L10.6067 5.03169V4.88936M10.6067 4.88936V2.70223C10.6067 2.52262 10.461 2.37692 10.2814 2.37692H8.12562M10.6067 4.88936L10.513 4.79453C10.5109 4.79241 10.5088 4.79032 10.5067 4.78826V2.70223C10.5067 2.57785 10.4057 2.47692 10.2814 2.47692H8.22454C8.22318 2.47556 8.2218 2.4742 8.22041 2.47285L8.12562 2.37692M8.12562 2.37692L6.76176 0.996702L6.76176 0.996701L6.76134 0.996279L6.7604 0.995348L6.75947 0.994417L6.75947 0.994416L6.75902 0.99397C6.63119 0.867743 6.42524 0.868705 6.29883 0.996729L4.93602 2.37692M8.12562 2.37692H7.98504L6.69063 1.06699L6.68876 1.06513C6.60013 0.977613 6.4575 0.978358 6.36998 1.06699L5.07656 2.37692H4.93602M4.93602 2.37692H2.77999C2.60038 2.37692 2.45469 2.52262 2.45469 2.70223V4.88861M4.93602 2.37692L4.84019 2.47399L4.83974 2.47444L4.83725 2.47692H2.77999C2.65561 2.47692 2.55469 2.57785 2.55469 2.70223V4.78753C2.55242 4.7897 2.55017 4.7919 2.54795 4.79415C2.54795 4.79415 2.54795 4.79415 2.54795 4.79416L2.45469 4.88861M2.45469 4.88861L1.00483 6.35687M2.45469 4.88861V5.03093L1.23058 6.27058C1.14878 6.26934 1.06738 6.2989 1.00483 6.35687M1.00483 6.35687C0.991641 6.3691 0.979288 6.38259 0.967946 6.39733L0.968114 6.39745M1.00483 6.35687L0.993904 6.36794L0.993904 6.36794L0.993752 6.36809C0.98458 6.37742 0.976082 6.38717 0.968259 6.39727M0.968114 6.39745C0.944044 6.42857 0.926374 6.46304 0.915103 6.49908M0.968114 6.39745C0.968162 6.39739 0.96821 6.39733 0.968259 6.39727M0.968114 6.39745L0.968205 6.39752C0.944899 6.42762 0.926756 6.46192 0.915103 6.49908M0.915103 6.49908C0.909994 6.51538 0.906132 6.53222 0.903631 6.54951M0.915103 6.49908C0.909931 6.51562 0.906108 6.53248 0.903631 6.54951M0.903631 6.54951C0.901411 6.56484 0.900262 6.58053 0.900262 6.59648L0.968259 6.39727M0.968259 6.39727L0.968349 6.39734M0.968349 6.39734C0.976272 6.38712 0.98479 6.37739 0.993851 6.36819C0.993902 6.36814 0.993952 6.36809 0.994003 6.36804M1.16237 12.6659L1.35087 12.5562V12.649H1.45087H1.69028L1.28874 12.8829C1.28866 12.8829 1.28857 12.883 1.28849 12.883C1.22856 12.9175 1.15202 12.8971 1.11725 12.8373C1.10775 12.8209 1.10235 12.8033 1.10074 12.7857C1.10042 12.7821 1.10026 12.7784 1.10026 12.7747V12.7711C1.10135 12.729 1.12352 12.6886 1.16237 12.6659ZM1.65674 12.9L2.08769 12.649H10.9725L11.4037 12.9H1.65674ZM7.37559 10.3238L7.59013 10.1582L7.68343 10.2125L7.37559 10.3238ZM7.76103 10.0263L10.2328 8.11813C10.2485 8.12047 10.2646 8.12168 10.281 8.12168C10.3537 8.12168 10.4208 8.09782 10.475 8.05753L7.76103 10.0263ZM10.6047 7.831L11.5101 7.13208V7.25841L10.6047 7.831ZM11.7101 6.97769L11.7869 6.91844C11.8452 6.92714 11.9055 6.92001 11.9607 6.89702V6.91055L11.7101 6.97769ZM11.9607 12.4709L11.7101 12.325L11.9607 12.4709Z" fill="#11404C" stroke="#396773" stroke-width="0.2"/>
</svg>
