<svg width="21" height="20" viewBox="0 0 21 20" fill="none" xmlns="http://www.w3.org/2000/svg">
<path d="M20.5887 7.43108C20.4124 7.04382 20.0489 6.76968 19.6188 6.70784L20.5887 7.43108ZM20.5887 7.43108L20.6318 7.56365C20.7803 8.0209 20.6556 8.52068 20.3111 8.85596L20.5887 7.43108ZM4.65359 12.7556L4.63082 12.8859L3.68955 18.2762C3.60703 18.7501 3.80002 19.226 4.18925 19.5093C4.58163 19.7928 5.09547 19.8275 5.5167 19.6039L5.51691 19.6038L10.3533 17.0428L10.4703 16.9809L10.5873 17.0428L15.4237 19.6038L15.4252 19.6046C15.607 19.7025 15.809 19.75 16.0134 19.75C16.2724 19.75 16.5317 19.6701 16.7539 19.5095L4.65359 12.7556ZM4.65359 12.7556L4.55859 12.6634M4.65359 12.7556L4.55859 12.6634M4.55859 12.6634L0.632624 8.85621C0.632551 8.85614 0.632478 8.85607 0.632405 8.856C0.28803 8.52089 0.163309 8.02146 0.311431 7.56439M4.55859 12.6634L0.311431 7.56439M14.0706 11.4137C13.7725 11.7049 13.6342 12.1223 13.7071 12.5337L13.7072 12.5343L14.2556 15.6804L14.3433 16.1833L13.8922 15.9443L11.0713 14.449L11.0698 14.4482C10.888 14.3503 10.686 14.3028 10.4817 14.3028C10.2802 14.3028 10.0796 14.3518 9.89105 14.4495C9.89076 14.4497 9.89047 14.4498 9.89018 14.45L7.07113 15.9443L6.62011 16.1833L6.70776 15.6804L7.25605 12.5348C7.25606 12.5347 7.25606 12.5347 7.25607 12.5347C7.32665 12.125 7.19051 11.7072 6.89244 11.4134C6.89221 11.4132 6.89198 11.413 6.89175 11.4128L4.60069 9.19237L4.23421 8.83719L4.73947 8.76534L7.89952 8.31593L14.0706 11.4137ZM14.0706 11.4137C14.0707 11.4136 14.0708 11.4136 14.0709 11.4135L16.3627 9.19237L16.7291 8.83719L16.2239 8.76534L13.0638 8.31592L14.0706 11.4137ZM10.4817 4.301L10.7062 4.759L12.1107 7.62456C12.1107 7.62465 12.1108 7.62475 12.1108 7.62484C12.295 7.99764 12.6512 8.25697 13.0637 8.3159L10.4817 4.301ZM10.4817 4.301L10.2572 4.759M10.4817 4.301L10.2572 4.759M10.2572 4.759L8.85266 7.62455C8.8526 7.62467 8.85254 7.62479 8.85248 7.62491M10.2572 4.759L8.85248 7.62491M0.311431 7.56439C0.462915 7.10847 0.857094 6.77628 1.33309 6.70784L0.311431 7.56439ZM8.85248 7.62491C8.66831 7.99764 8.31212 8.25693 7.89968 8.3159L8.85248 7.62491ZM14.203 5.93617L19.6186 6.7078L1.33335 6.7078L6.74897 5.93617L6.87995 5.91751L6.93819 5.79871L9.34647 0.885965L9.34658 0.885755C9.5477 0.474507 9.99611 0.25 10.476 0.25C10.9558 0.25 11.4042 0.474507 11.6054 0.885758L11.6055 0.885965L14.0137 5.79871L14.072 5.91751L14.203 5.93617ZM20.3108 8.85621L16.3849 12.6634L16.2899 12.7556L16.3126 12.8859L17.2539 18.2763L17.254 18.2764C17.3364 18.7474 17.1434 19.2259 16.7544 19.5091L20.3108 8.85621Z" fill="#396773" stroke="white" stroke-width="0.5"/>
</svg>
