<svg width="23" height="22" viewBox="0 0 23 22" fill="none" xmlns="http://www.w3.org/2000/svg">
<path d="M21.878 8.48644C21.7 7.93807 21.2251 7.54233 20.6541 7.46034L15.2382 6.68867L12.8299 1.77592C12.324 0.741359 10.628 0.741359 10.122 1.77592L7.71371 6.68867L2.29783 7.46034C1.72685 7.54231 1.2548 7.94087 1.07389 8.48644C0.895817 9.03481 1.04563 9.63403 1.45832 10.0354L5.38455 13.8429L4.44326 19.2333C4.34433 19.8015 4.57611 20.3724 5.04251 20.7117C5.51173 21.0509 6.12794 21.0933 6.6339 20.8247L11.4703 18.2638L16.3067 20.8247C16.5272 20.9435 16.7703 21 17.0134 21C17.3243 21 17.6352 20.9039 17.901 20.7117C18.3674 20.3725 18.5991 19.7987 18.5002 19.2333L17.5589 13.8429L21.4852 10.0354C21.8978 9.63404 22.0477 9.0348 21.8696 8.48644H21.878ZM14.8962 12.2346C14.5401 12.5823 14.3733 13.0826 14.4609 13.5773L15.0093 16.7234L12.1883 15.2281C11.9679 15.1094 11.7248 15.0528 11.4817 15.0528C11.2386 15.0528 10.9983 15.1122 10.775 15.2281L7.95405 16.7234L8.50241 13.5773C8.58722 13.0854 8.42327 12.5851 8.06711 12.2346L5.77467 10.0128L8.93488 9.56341C9.42954 9.49275 9.85634 9.18182 10.0768 8.73523L11.4817 5.86903L12.8865 8.73523C13.107 9.18184 13.5338 9.49279 14.0285 9.56341L17.1887 10.0128L14.8962 12.2346Z" fill="#396773" stroke="white" stroke-width="0.5"/>
</svg>
