<svg width="40" height="40" viewBox="0 0 40 40" fill="none" xmlns="http://www.w3.org/2000/svg">
<rect width="40" height="40" rx="20" fill="#807ED5"/>
<path fill-rule="evenodd" clip-rule="evenodd" d="M22.5072 23.4092C21.2895 24.4235 19.7241 25.0352 18.0176 25.0352C14.1443 25.0352 11 21.8909 11 18.0176C11 14.1435 14.1443 11 18.0176 11C21.8909 11 25.0352 14.1435 25.0352 18.0176C25.0352 19.7241 24.4235 21.2895 23.4092 22.5072L28.9953 28.0925C29.2441 28.3413 29.2441 28.7456 28.9953 28.9952C28.7457 29.244 28.3414 29.244 28.0925 28.9952L22.5072 23.4092ZM18.0176 12.276C14.8486 12.276 12.2759 14.8486 12.2759 18.0176C12.2759 21.1866 14.8486 23.7593 18.0176 23.7593C21.1866 23.7593 23.7592 21.1866 23.7592 18.0176C23.7592 14.8486 21.1866 12.276 18.0176 12.276Z" fill="white" stroke="white" stroke-width="0.7"/>
</svg>
