<svg width="31" height="32" viewBox="0 0 31 32" fill="none" xmlns="http://www.w3.org/2000/svg">
<mask id="path-1-outside-1_1519_24655" maskUnits="userSpaceOnUse" x="0" y="0" width="31" height="32" fill="black">
<rect fill="white" width="31" height="32"/>
<path d="M18.1919 31H13.2254C12.3499 31 11.5104 30.6522 10.8914 30.0332C10.2724 29.4142 9.92459 28.5746 9.92459 27.6992C9.92778 27.5241 9.88361 27.3514 9.79672 27.1994C9.70984 27.0474 9.58348 26.9216 9.43102 26.8355C9.28263 26.744 9.11175 26.6956 8.93745 26.6956C8.76314 26.6956 8.59227 26.744 8.44387 26.8355C8.06854 27.0567 7.6528 27.2006 7.22105 27.2589C6.78931 27.3172 6.35027 27.2886 5.92973 27.1748C5.08606 26.9413 4.36671 26.3879 3.92459 25.6324L1.4413 21.329C1.00478 20.572 0.886292 19.6727 1.11182 18.8284C1.33735 17.9841 1.88849 17.2637 2.64439 16.8252C2.79973 16.7411 2.9292 16.6162 3.01888 16.464C3.10857 16.3118 3.15507 16.1381 3.15338 15.9614C3.15544 15.7886 3.11064 15.6185 3.02373 15.4691C2.93682 15.3197 2.81106 15.1967 2.65981 15.1131C1.90024 14.6742 1.34554 13.9522 1.11716 13.1051C0.888781 12.2581 1.00533 11.3551 1.4413 10.5938L3.92459 6.29049C4.36671 5.53494 5.08606 4.98159 5.92973 4.74807C6.35277 4.64516 6.79226 4.629 7.22171 4.70058C7.65116 4.77215 8.06166 4.92997 8.42845 5.16452C8.58022 5.26151 8.75532 5.31582 8.93533 5.32174C9.11535 5.32766 9.29364 5.28498 9.45146 5.19818C9.60928 5.11138 9.7408 4.98367 9.8322 4.82847C9.9236 4.67327 9.9715 4.49631 9.97086 4.3162C9.96883 3.88144 10.0527 3.45056 10.2177 3.04831C10.3826 2.64606 10.6255 2.28036 10.9322 1.97222C11.2389 1.66408 11.6034 1.41957 12.0049 1.25272C12.4064 1.08588 12.8369 0.999995 13.2716 1H18.2382C19.1136 1 19.9532 1.34776 20.5722 1.96677C21.1912 2.58579 21.539 3.42535 21.539 4.30077C21.5358 4.47586 21.58 4.64856 21.6669 4.8006C21.7537 4.95264 21.8801 5.07838 22.0326 5.16452C22.181 5.25596 22.3518 5.30438 22.5261 5.30438C22.7004 5.30438 22.8713 5.25596 23.0197 5.16452C23.395 4.94333 23.8108 4.79937 24.2425 4.7411C24.6743 4.68283 25.1133 4.71142 25.5338 4.82519C26.3775 5.05872 27.0969 5.61206 27.539 6.36761L30.0223 10.6709C30.4588 11.428 30.5773 12.3273 30.3518 13.1716C30.1262 14.0159 29.5751 14.7363 28.8192 15.1748C28.6639 15.2589 28.5344 15.3838 28.4447 15.536C28.355 15.6882 28.3085 15.8619 28.3102 16.0386C28.3081 16.2114 28.3529 16.3815 28.4398 16.5309C28.5268 16.6802 28.6525 16.8033 28.8038 16.8869C29.5633 17.3258 30.118 18.0478 30.3464 18.8949C30.5748 19.7419 30.4582 20.6449 30.0223 21.4062L27.539 25.7095C27.0969 26.4651 26.3775 27.0184 25.5338 27.2519C25.1159 27.3662 24.6793 27.395 24.2499 27.3367C23.8206 27.2784 23.4074 27.1342 23.0351 26.9126C22.8834 26.8156 22.7083 26.7613 22.5282 26.7554C22.3482 26.7495 22.1699 26.7921 22.0121 26.8789C21.8543 26.9657 21.7228 27.0935 21.6314 27.2487C21.54 27.4039 21.4921 27.5808 21.4927 27.7609C21.4765 28.6256 21.1217 29.4494 20.5044 30.0551C19.8871 30.6609 19.0568 31.0002 18.1919 31ZM8.93745 24.383C9.51722 24.3853 10.0863 24.5395 10.5878 24.8303C11.091 25.1172 11.5089 25.5325 11.7989 26.0339C12.0889 26.5352 12.2405 27.1046 12.2382 27.6838C12.2382 27.9471 12.3417 28.1997 12.5264 28.3873C12.7111 28.5749 12.9621 28.6823 13.2254 28.6864H18.1919C18.4538 28.6864 18.7048 28.5824 18.89 28.3972C19.0751 28.2121 19.1791 27.961 19.1791 27.6992C19.1757 27.1178 19.3267 26.5458 19.6166 26.0418C19.9066 25.5377 20.3251 25.1197 20.8295 24.8303C21.3291 24.5345 21.8992 24.3783 22.4799 24.3783C23.0606 24.3783 23.6306 24.5345 24.1302 24.8303C24.2425 24.8968 24.3668 24.9404 24.496 24.9585C24.6252 24.9767 24.7567 24.969 24.8829 24.936C25.0091 24.903 25.1275 24.8454 25.2313 24.7663C25.3351 24.6873 25.4222 24.5885 25.4876 24.4756L28.048 20.1722C28.1141 20.0612 28.1574 19.938 28.1754 19.81C28.1933 19.682 28.1855 19.5517 28.1525 19.4268C28.1195 19.3018 28.0618 19.1847 27.983 19.0823C27.9041 18.9799 27.8056 18.8942 27.6932 18.8303C27.1902 18.541 26.7724 18.1241 26.4818 17.6218C26.1913 17.1195 26.0383 16.5494 26.0383 15.9692C26.0383 15.3889 26.1913 14.8188 26.4818 14.3165C26.7724 13.8142 27.1902 13.3973 27.6932 13.108C27.8061 13.0426 27.9049 12.9555 27.984 12.8517C28.063 12.7479 28.1207 12.6295 28.1537 12.5033C28.1867 12.3771 28.1943 12.2456 28.1762 12.1164C28.158 11.9872 28.1145 11.8629 28.048 11.7506L25.4876 7.4473C25.3554 7.22019 25.1394 7.05403 24.886 6.98458C24.7617 6.95189 24.6321 6.9446 24.5049 6.96315C24.3776 6.9817 24.2555 7.02571 24.1457 7.09254C23.6431 7.38093 23.0737 7.53259 22.4943 7.53244C21.9149 7.53228 21.3456 7.3803 20.8432 7.09165C20.3408 6.803 19.9228 6.38774 19.6308 5.88725C19.3388 5.38675 19.1831 4.81849 19.1791 4.23907C19.1791 3.97583 19.0756 3.72313 18.8909 3.53555C18.7062 3.34797 18.4552 3.24055 18.1919 3.2365H13.2254C12.9636 3.2365 12.7125 3.34051 12.5273 3.52563C12.3422 3.71076 12.2382 3.96184 12.2382 4.22365C12.2416 4.80512 12.0906 5.37708 11.8007 5.88111C11.5107 6.38514 11.0922 6.80318 10.5878 7.09254C10.0882 7.38842 9.51814 7.54454 8.93745 7.54454C8.35675 7.54454 7.78673 7.38842 7.28706 7.09254C7.17481 7.02607 7.0505 6.9825 6.92132 6.96435C6.79213 6.94621 6.66063 6.95386 6.53441 6.98684C6.40819 7.01983 6.28977 7.07751 6.18598 7.15654C6.08219 7.23558 5.9951 7.3344 5.92973 7.4473L3.44644 11.7506C3.38032 11.8617 3.33702 11.9848 3.31907 12.1128C3.30113 12.2409 3.3089 12.3712 3.34193 12.4961C3.37497 12.6211 3.43261 12.7382 3.51147 12.8406C3.59033 12.943 3.68883 13.0287 3.8012 13.0925C4.30422 13.3819 4.72206 13.7987 5.01261 14.3011C5.30316 14.8034 5.45615 15.3734 5.45615 15.9537C5.45615 16.534 5.30316 17.1041 5.01261 17.6064C4.72206 18.1087 4.30422 18.5256 3.8012 18.8149C3.68701 18.879 3.58672 18.9651 3.50614 19.0683C3.42557 19.1715 3.36634 19.2897 3.33189 19.4161C3.29744 19.5424 3.28846 19.6743 3.30548 19.8041C3.3225 19.9339 3.36517 20.0591 3.43102 20.1722L5.91431 24.4756C6.04644 24.7027 6.26245 24.8688 6.51585 24.9383C6.64018 24.971 6.76982 24.9783 6.89703 24.9597C7.02424 24.9412 7.1464 24.8972 7.25621 24.8303C7.7685 24.5383 8.34778 24.3842 8.93745 24.383Z"/>
</mask>
<path d="M18.1919 31H13.2254C12.3499 31 11.5104 30.6522 10.8914 30.0332C10.2724 29.4142 9.92459 28.5746 9.92459 27.6992C9.92778 27.5241 9.88361 27.3514 9.79672 27.1994C9.70984 27.0474 9.58348 26.9216 9.43102 26.8355C9.28263 26.744 9.11175 26.6956 8.93745 26.6956C8.76314 26.6956 8.59227 26.744 8.44387 26.8355C8.06854 27.0567 7.6528 27.2006 7.22105 27.2589C6.78931 27.3172 6.35027 27.2886 5.92973 27.1748C5.08606 26.9413 4.36671 26.3879 3.92459 25.6324L1.4413 21.329C1.00478 20.572 0.886292 19.6727 1.11182 18.8284C1.33735 17.9841 1.88849 17.2637 2.64439 16.8252C2.79973 16.7411 2.9292 16.6162 3.01888 16.464C3.10857 16.3118 3.15507 16.1381 3.15338 15.9614C3.15544 15.7886 3.11064 15.6185 3.02373 15.4691C2.93682 15.3197 2.81106 15.1967 2.65981 15.1131C1.90024 14.6742 1.34554 13.9522 1.11716 13.1051C0.888781 12.2581 1.00533 11.3551 1.4413 10.5938L3.92459 6.29049C4.36671 5.53494 5.08606 4.98159 5.92973 4.74807C6.35277 4.64516 6.79226 4.629 7.22171 4.70058C7.65116 4.77215 8.06166 4.92997 8.42845 5.16452C8.58022 5.26151 8.75532 5.31582 8.93533 5.32174C9.11535 5.32766 9.29364 5.28498 9.45146 5.19818C9.60928 5.11138 9.7408 4.98367 9.8322 4.82847C9.9236 4.67327 9.9715 4.49631 9.97086 4.3162C9.96883 3.88144 10.0527 3.45056 10.2177 3.04831C10.3826 2.64606 10.6255 2.28036 10.9322 1.97222C11.2389 1.66408 11.6034 1.41957 12.0049 1.25272C12.4064 1.08588 12.8369 0.999995 13.2716 1H18.2382C19.1136 1 19.9532 1.34776 20.5722 1.96677C21.1912 2.58579 21.539 3.42535 21.539 4.30077C21.5358 4.47586 21.58 4.64856 21.6669 4.8006C21.7537 4.95264 21.8801 5.07838 22.0326 5.16452C22.181 5.25596 22.3518 5.30438 22.5261 5.30438C22.7004 5.30438 22.8713 5.25596 23.0197 5.16452C23.395 4.94333 23.8108 4.79937 24.2425 4.7411C24.6743 4.68283 25.1133 4.71142 25.5338 4.82519C26.3775 5.05872 27.0969 5.61206 27.539 6.36761L30.0223 10.6709C30.4588 11.428 30.5773 12.3273 30.3518 13.1716C30.1262 14.0159 29.5751 14.7363 28.8192 15.1748C28.6639 15.2589 28.5344 15.3838 28.4447 15.536C28.355 15.6882 28.3085 15.8619 28.3102 16.0386C28.3081 16.2114 28.3529 16.3815 28.4398 16.5309C28.5268 16.6802 28.6525 16.8033 28.8038 16.8869C29.5633 17.3258 30.118 18.0478 30.3464 18.8949C30.5748 19.7419 30.4582 20.6449 30.0223 21.4062L27.539 25.7095C27.0969 26.4651 26.3775 27.0184 25.5338 27.2519C25.1159 27.3662 24.6793 27.395 24.2499 27.3367C23.8206 27.2784 23.4074 27.1342 23.0351 26.9126C22.8834 26.8156 22.7083 26.7613 22.5282 26.7554C22.3482 26.7495 22.1699 26.7921 22.0121 26.8789C21.8543 26.9657 21.7228 27.0935 21.6314 27.2487C21.54 27.4039 21.4921 27.5808 21.4927 27.7609C21.4765 28.6256 21.1217 29.4494 20.5044 30.0551C19.8871 30.6609 19.0568 31.0002 18.1919 31ZM8.93745 24.383C9.51722 24.3853 10.0863 24.5395 10.5878 24.8303C11.091 25.1172 11.5089 25.5325 11.7989 26.0339C12.0889 26.5352 12.2405 27.1046 12.2382 27.6838C12.2382 27.9471 12.3417 28.1997 12.5264 28.3873C12.7111 28.5749 12.9621 28.6823 13.2254 28.6864H18.1919C18.4538 28.6864 18.7048 28.5824 18.89 28.3972C19.0751 28.2121 19.1791 27.961 19.1791 27.6992C19.1757 27.1178 19.3267 26.5458 19.6166 26.0418C19.9066 25.5377 20.3251 25.1197 20.8295 24.8303C21.3291 24.5345 21.8992 24.3783 22.4799 24.3783C23.0606 24.3783 23.6306 24.5345 24.1302 24.8303C24.2425 24.8968 24.3668 24.9404 24.496 24.9585C24.6252 24.9767 24.7567 24.969 24.8829 24.936C25.0091 24.903 25.1275 24.8454 25.2313 24.7663C25.3351 24.6873 25.4222 24.5885 25.4876 24.4756L28.048 20.1722C28.1141 20.0612 28.1574 19.938 28.1754 19.81C28.1933 19.682 28.1855 19.5517 28.1525 19.4268C28.1195 19.3018 28.0618 19.1847 27.983 19.0823C27.9041 18.9799 27.8056 18.8942 27.6932 18.8303C27.1902 18.541 26.7724 18.1241 26.4818 17.6218C26.1913 17.1195 26.0383 16.5494 26.0383 15.9692C26.0383 15.3889 26.1913 14.8188 26.4818 14.3165C26.7724 13.8142 27.1902 13.3973 27.6932 13.108C27.8061 13.0426 27.9049 12.9555 27.984 12.8517C28.063 12.7479 28.1207 12.6295 28.1537 12.5033C28.1867 12.3771 28.1943 12.2456 28.1762 12.1164C28.158 11.9872 28.1145 11.8629 28.048 11.7506L25.4876 7.4473C25.3554 7.22019 25.1394 7.05403 24.886 6.98458C24.7617 6.95189 24.6321 6.9446 24.5049 6.96315C24.3776 6.9817 24.2555 7.02571 24.1457 7.09254C23.6431 7.38093 23.0737 7.53259 22.4943 7.53244C21.9149 7.53228 21.3456 7.3803 20.8432 7.09165C20.3408 6.803 19.9228 6.38774 19.6308 5.88725C19.3388 5.38675 19.1831 4.81849 19.1791 4.23907C19.1791 3.97583 19.0756 3.72313 18.8909 3.53555C18.7062 3.34797 18.4552 3.24055 18.1919 3.2365H13.2254C12.9636 3.2365 12.7125 3.34051 12.5273 3.52563C12.3422 3.71076 12.2382 3.96184 12.2382 4.22365C12.2416 4.80512 12.0906 5.37708 11.8007 5.88111C11.5107 6.38514 11.0922 6.80318 10.5878 7.09254C10.0882 7.38842 9.51814 7.54454 8.93745 7.54454C8.35675 7.54454 7.78673 7.38842 7.28706 7.09254C7.17481 7.02607 7.0505 6.9825 6.92132 6.96435C6.79213 6.94621 6.66063 6.95386 6.53441 6.98684C6.40819 7.01983 6.28977 7.07751 6.18598 7.15654C6.08219 7.23558 5.9951 7.3344 5.92973 7.4473L3.44644 11.7506C3.38032 11.8617 3.33702 11.9848 3.31907 12.1128C3.30113 12.2409 3.3089 12.3712 3.34193 12.4961C3.37497 12.6211 3.43261 12.7382 3.51147 12.8406C3.59033 12.943 3.68883 13.0287 3.8012 13.0925C4.30422 13.3819 4.72206 13.7987 5.01261 14.3011C5.30316 14.8034 5.45615 15.3734 5.45615 15.9537C5.45615 16.534 5.30316 17.1041 5.01261 17.6064C4.72206 18.1087 4.30422 18.5256 3.8012 18.8149C3.68701 18.879 3.58672 18.9651 3.50614 19.0683C3.42557 19.1715 3.36634 19.2897 3.33189 19.4161C3.29744 19.5424 3.28846 19.6743 3.30548 19.8041C3.3225 19.9339 3.36517 20.0591 3.43102 20.1722L5.91431 24.4756C6.04644 24.7027 6.26245 24.8688 6.51585 24.9383C6.64018 24.971 6.76982 24.9783 6.89703 24.9597C7.02424 24.9412 7.1464 24.8972 7.25621 24.8303C7.7685 24.5383 8.34778 24.3842 8.93745 24.383Z" fill="black"/>
<path d="M18.1919 31H13.2254C12.3499 31 11.5104 30.6522 10.8914 30.0332C10.2724 29.4142 9.92459 28.5746 9.92459 27.6992C9.92778 27.5241 9.88361 27.3514 9.79672 27.1994C9.70984 27.0474 9.58348 26.9216 9.43102 26.8355C9.28263 26.744 9.11175 26.6956 8.93745 26.6956C8.76314 26.6956 8.59227 26.744 8.44387 26.8355C8.06854 27.0567 7.6528 27.2006 7.22105 27.2589C6.78931 27.3172 6.35027 27.2886 5.92973 27.1748C5.08606 26.9413 4.36671 26.3879 3.92459 25.6324L1.4413 21.329C1.00478 20.572 0.886292 19.6727 1.11182 18.8284C1.33735 17.9841 1.88849 17.2637 2.64439 16.8252C2.79973 16.7411 2.9292 16.6162 3.01888 16.464C3.10857 16.3118 3.15507 16.1381 3.15338 15.9614C3.15544 15.7886 3.11064 15.6185 3.02373 15.4691C2.93682 15.3197 2.81106 15.1967 2.65981 15.1131C1.90024 14.6742 1.34554 13.9522 1.11716 13.1051C0.888781 12.2581 1.00533 11.3551 1.4413 10.5938L3.92459 6.29049C4.36671 5.53494 5.08606 4.98159 5.92973 4.74807C6.35277 4.64516 6.79226 4.629 7.22171 4.70058C7.65116 4.77215 8.06166 4.92997 8.42845 5.16452C8.58022 5.26151 8.75532 5.31582 8.93533 5.32174C9.11535 5.32766 9.29364 5.28498 9.45146 5.19818C9.60928 5.11138 9.7408 4.98367 9.8322 4.82847C9.9236 4.67327 9.9715 4.49631 9.97086 4.3162C9.96883 3.88144 10.0527 3.45056 10.2177 3.04831C10.3826 2.64606 10.6255 2.28036 10.9322 1.97222C11.2389 1.66408 11.6034 1.41957 12.0049 1.25272C12.4064 1.08588 12.8369 0.999995 13.2716 1H18.2382C19.1136 1 19.9532 1.34776 20.5722 1.96677C21.1912 2.58579 21.539 3.42535 21.539 4.30077C21.5358 4.47586 21.58 4.64856 21.6669 4.8006C21.7537 4.95264 21.8801 5.07838 22.0326 5.16452C22.181 5.25596 22.3518 5.30438 22.5261 5.30438C22.7004 5.30438 22.8713 5.25596 23.0197 5.16452C23.395 4.94333 23.8108 4.79937 24.2425 4.7411C24.6743 4.68283 25.1133 4.71142 25.5338 4.82519C26.3775 5.05872 27.0969 5.61206 27.539 6.36761L30.0223 10.6709C30.4588 11.428 30.5773 12.3273 30.3518 13.1716C30.1262 14.0159 29.5751 14.7363 28.8192 15.1748C28.6639 15.2589 28.5344 15.3838 28.4447 15.536C28.355 15.6882 28.3085 15.8619 28.3102 16.0386C28.3081 16.2114 28.3529 16.3815 28.4398 16.5309C28.5268 16.6802 28.6525 16.8033 28.8038 16.8869C29.5633 17.3258 30.118 18.0478 30.3464 18.8949C30.5748 19.7419 30.4582 20.6449 30.0223 21.4062L27.539 25.7095C27.0969 26.4651 26.3775 27.0184 25.5338 27.2519C25.1159 27.3662 24.6793 27.395 24.2499 27.3367C23.8206 27.2784 23.4074 27.1342 23.0351 26.9126C22.8834 26.8156 22.7083 26.7613 22.5282 26.7554C22.3482 26.7495 22.1699 26.7921 22.0121 26.8789C21.8543 26.9657 21.7228 27.0935 21.6314 27.2487C21.54 27.4039 21.4921 27.5808 21.4927 27.7609C21.4765 28.6256 21.1217 29.4494 20.5044 30.0551C19.8871 30.6609 19.0568 31.0002 18.1919 31ZM8.93745 24.383C9.51722 24.3853 10.0863 24.5395 10.5878 24.8303C11.091 25.1172 11.5089 25.5325 11.7989 26.0339C12.0889 26.5352 12.2405 27.1046 12.2382 27.6838C12.2382 27.9471 12.3417 28.1997 12.5264 28.3873C12.7111 28.5749 12.9621 28.6823 13.2254 28.6864H18.1919C18.4538 28.6864 18.7048 28.5824 18.89 28.3972C19.0751 28.2121 19.1791 27.961 19.1791 27.6992C19.1757 27.1178 19.3267 26.5458 19.6166 26.0418C19.9066 25.5377 20.3251 25.1197 20.8295 24.8303C21.3291 24.5345 21.8992 24.3783 22.4799 24.3783C23.0606 24.3783 23.6306 24.5345 24.1302 24.8303C24.2425 24.8968 24.3668 24.9404 24.496 24.9585C24.6252 24.9767 24.7567 24.969 24.8829 24.936C25.0091 24.903 25.1275 24.8454 25.2313 24.7663C25.3351 24.6873 25.4222 24.5885 25.4876 24.4756L28.048 20.1722C28.1141 20.0612 28.1574 19.938 28.1754 19.81C28.1933 19.682 28.1855 19.5517 28.1525 19.4268C28.1195 19.3018 28.0618 19.1847 27.983 19.0823C27.9041 18.9799 27.8056 18.8942 27.6932 18.8303C27.1902 18.541 26.7724 18.1241 26.4818 17.6218C26.1913 17.1195 26.0383 16.5494 26.0383 15.9692C26.0383 15.3889 26.1913 14.8188 26.4818 14.3165C26.7724 13.8142 27.1902 13.3973 27.6932 13.108C27.8061 13.0426 27.9049 12.9555 27.984 12.8517C28.063 12.7479 28.1207 12.6295 28.1537 12.5033C28.1867 12.3771 28.1943 12.2456 28.1762 12.1164C28.158 11.9872 28.1145 11.8629 28.048 11.7506L25.4876 7.4473C25.3554 7.22019 25.1394 7.05403 24.886 6.98458C24.7617 6.95189 24.6321 6.9446 24.5049 6.96315C24.3776 6.9817 24.2555 7.02571 24.1457 7.09254C23.6431 7.38093 23.0737 7.53259 22.4943 7.53244C21.9149 7.53228 21.3456 7.3803 20.8432 7.09165C20.3408 6.803 19.9228 6.38774 19.6308 5.88725C19.3388 5.38675 19.1831 4.81849 19.1791 4.23907C19.1791 3.97583 19.0756 3.72313 18.8909 3.53555C18.7062 3.34797 18.4552 3.24055 18.1919 3.2365H13.2254C12.9636 3.2365 12.7125 3.34051 12.5273 3.52563C12.3422 3.71076 12.2382 3.96184 12.2382 4.22365C12.2416 4.80512 12.0906 5.37708 11.8007 5.88111C11.5107 6.38514 11.0922 6.80318 10.5878 7.09254C10.0882 7.38842 9.51814 7.54454 8.93745 7.54454C8.35675 7.54454 7.78673 7.38842 7.28706 7.09254C7.17481 7.02607 7.0505 6.9825 6.92132 6.96435C6.79213 6.94621 6.66063 6.95386 6.53441 6.98684C6.40819 7.01983 6.28977 7.07751 6.18598 7.15654C6.08219 7.23558 5.9951 7.3344 5.92973 7.4473L3.44644 11.7506C3.38032 11.8617 3.33702 11.9848 3.31907 12.1128C3.30113 12.2409 3.3089 12.3712 3.34193 12.4961C3.37497 12.6211 3.43261 12.7382 3.51147 12.8406C3.59033 12.943 3.68883 13.0287 3.8012 13.0925C4.30422 13.3819 4.72206 13.7987 5.01261 14.3011C5.30316 14.8034 5.45615 15.3734 5.45615 15.9537C5.45615 16.534 5.30316 17.1041 5.01261 17.6064C4.72206 18.1087 4.30422 18.5256 3.8012 18.8149C3.68701 18.879 3.58672 18.9651 3.50614 19.0683C3.42557 19.1715 3.36634 19.2897 3.33189 19.4161C3.29744 19.5424 3.28846 19.6743 3.30548 19.8041C3.3225 19.9339 3.36517 20.0591 3.43102 20.1722L5.91431 24.4756C6.04644 24.7027 6.26245 24.8688 6.51585 24.9383C6.64018 24.971 6.76982 24.9783 6.89703 24.9597C7.02424 24.9412 7.1464 24.8972 7.25621 24.8303C7.7685 24.5383 8.34778 24.3842 8.93745 24.383Z" stroke="black" stroke-width="0.8" mask="url(#path-1-outside-1_1519_24655)"/>
<path d="M12.3892 20.9432C13.3733 21.6008 14.5302 21.9517 15.7138 21.9517C17.3008 21.9517 18.8229 21.3213 19.9451 20.199C21.0674 19.0768 21.6978 17.5547 21.6978 15.9677C21.6978 14.7841 21.3469 13.6272 20.6893 12.6431C20.0318 11.659 19.0972 10.892 18.0038 10.4391C16.9103 9.98619 15.7071 9.86768 14.5463 10.0986C13.3855 10.3295 12.3193 10.8994 11.4824 11.7363C10.6455 12.5732 10.0756 13.6394 9.84467 14.8002C9.61378 15.961 9.73228 17.1642 10.1852 18.2577C10.6381 19.3511 11.4051 20.2857 12.3892 20.9432ZM13.8968 13.2484C14.4346 12.889 15.0669 12.6972 15.7138 12.6972C16.5811 12.6972 17.413 13.0418 18.0263 13.6551C18.6396 14.2684 18.9842 15.1003 18.9842 15.9677C18.9842 16.6145 18.7924 17.2468 18.433 17.7846C18.0737 18.3224 17.5629 18.7416 16.9653 18.9891C16.3677 19.2367 15.7101 19.3014 15.0757 19.1753C14.4413 19.0491 13.8586 18.7376 13.4012 18.2802C12.9438 17.8228 12.6323 17.2401 12.5062 16.6057C12.38 15.9713 12.4447 15.3137 12.6923 14.7161C12.9398 14.1185 13.359 13.6077 13.8968 13.2484Z" fill="black" stroke="black" stroke-width="0.4"/>
</svg>
