<svg width="20" height="22" viewBox="0 0 20 22" fill="none" xmlns="http://www.w3.org/2000/svg">
<path d="M19.4327 16.6891C19.4327 13.7966 17.2574 11.4069 14.4576 11.0616C15.5069 9.98326 16.1578 8.51174 16.1578 6.89077C16.1578 3.58712 13.4709 0.9 10.1671 0.9C6.86326 0.9 4.1763 3.58696 4.1763 6.89077C4.1763 8.51192 4.82733 9.98207 5.87666 11.0616C3.10758 11.4029 0.951726 13.7416 0.902307 16.5891H0.9V16.6891V18.5C0.9 19.9334 2.06664 21.1 3.49999 21.1H16.8327C18.266 21.1 19.4327 19.9334 19.4327 18.5V16.6891ZM6.04357 6.89077C6.04357 4.61635 7.89409 2.76719 10.1671 2.76719C12.4416 2.76719 14.2907 4.61771 14.2907 6.89077C14.2907 9.16518 12.4402 11.0143 10.1671 11.0143C7.89273 11.0143 6.04357 9.16382 6.04357 6.89077ZM2.76703 16.6891C2.76703 14.5896 4.47539 12.8813 6.57325 12.8813H13.7592C15.8586 12.8813 17.5654 14.5896 17.5654 16.6891V18.5C17.5654 18.9041 17.2368 19.2328 16.8326 19.2328H3.4999C3.09578 19.2328 2.76711 18.9041 2.76711 18.5L2.76703 16.6891Z" fill="#396773" stroke="#396773" stroke-width="0.2"/>
</svg>
