<svg width="15" height="15" viewBox="0 0 15 15" fill="none" xmlns="http://www.w3.org/2000/svg">
<path d="M7.5 0L9.50909 2.64963L12.8033 2.1967L12.3504 5.49091L15 7.5L12.3504 9.50909L12.8033 12.8033L9.50909 12.3504L7.5 15L5.49091 12.3504L2.1967 12.8033L2.64963 9.50909L0 7.5L2.64963 5.49091L2.1967 2.1967L5.49091 2.64963L7.5 0Z" fill="white"/>
<path fill-rule="evenodd" clip-rule="evenodd" d="M10.0153 6.17009L6.72193 9.5058C6.53856 9.69152 6.24516 9.69152 6.06179 9.5058L4.41878 7.82723C4.23541 7.64152 4.23541 7.34152 4.41878 7.1558C4.60215 6.97009 4.89555 6.97009 5.07892 7.1558L6.3992 8.49866L9.36249 5.49866C9.54586 5.31295 9.83926 5.31295 10.0226 5.49866C10.1987 5.68437 10.1987 5.98437 10.0153 6.17009Z" fill="#396773"/>
</svg>
