<svg width="10" height="12" viewBox="0 0 10 12" fill="none" xmlns="http://www.w3.org/2000/svg">
<path fill-rule="evenodd" clip-rule="evenodd" d="M9.97538 1.42856V5.99997C9.97538 10.3122 5.16842 11.9556 5.08158 11.9848C5.02084 12.0051 4.95454 12.0051 4.89381 11.9848C4.80696 11.9556 0 10.3122 0 5.99997V1.42856C0 1.29742 0.0915388 1.18314 0.222099 1.15142L4.9164 0.00857138C4.96334 -0.00285713 5.01204 -0.00285713 5.05898 0.00857138L9.75328 1.15142C9.88384 1.18314 9.97538 1.29742 9.97538 1.42856Z" fill="#11404C"/>
<path fill-rule="evenodd" clip-rule="evenodd" d="M7.81759 4.75667L4.74379 7.87C4.57264 8.04333 4.29881 8.04333 4.12766 7.87L2.59418 6.30333C2.42303 6.13 2.42303 5.85 2.59418 5.67667C2.76533 5.50333 3.03916 5.50333 3.21031 5.67667L4.44257 6.93L7.20831 4.13C7.37946 3.95667 7.65329 3.95667 7.82444 4.13C7.98874 4.30333 7.98874 4.58333 7.81759 4.75667Z" fill="white"/>
</svg>
