<svg width="17" height="17" viewBox="0 0 17 17" fill="none" xmlns="http://www.w3.org/2000/svg">
<path d="M8.00882 5.45268V8.00817H5.47251C5.50881 7.00414 5.65553 6.05592 5.88519 5.2188C6.56712 5.3503 7.27902 5.42843 8.00882 5.45268ZM8.99118 11.5474V8.9919H11.5275C11.4912 9.99593 11.3445 10.9441 11.1148 11.7813C10.4329 11.6498 9.72098 11.5716 8.99118 11.5474ZM12.9293 3.65756C12.5751 3.81106 12.1886 3.94549 11.7733 4.06027C11.5279 3.41547 11.23 2.84905 10.8879 2.38266C11.6473 2.6803 12.3371 3.11547 12.9293 3.65756ZM6.11206 2.38053C5.76989 2.8473 5.47194 3.41528 5.22654 4.05835C4.81068 3.94529 4.42463 3.81033 4.0704 3.6556C4.66156 3.11401 5.35254 2.67826 6.11206 2.38053ZM4.92299 4.99292C4.67551 5.90023 4.52214 6.92042 4.48779 8.00882H1.95185C2.05159 6.65492 2.56437 5.41438 3.36463 4.41191C3.83567 4.64113 4.35674 4.83632 4.92299 4.99292ZM4.07068 13.3425C4.42487 13.189 4.81135 13.0545 5.22664 12.9398C5.47204 13.5846 5.76995 14.151 6.11207 14.6174C5.35272 14.3197 4.66286 13.8846 4.07068 13.3425ZM10.8879 14.6195C11.2301 14.1527 11.528 13.5848 11.7734 12.9417C12.1893 13.0547 12.5754 13.1897 12.9296 13.3444C12.3384 13.886 11.6474 14.3218 10.8879 14.6195ZM12.077 12.0071C12.3245 11.0998 12.4778 10.0796 12.5122 8.99121H15.0481C14.9484 10.3451 14.4356 11.5857 13.6354 12.5881C13.1643 12.3589 12.6432 12.1637 12.077 12.0071ZM8.5 0.95C4.33768 0.95 0.95 4.33768 0.95 8.5C0.95 12.6623 4.33768 16.05 8.5 16.05C12.6623 16.05 16.05 12.6623 16.05 8.5C16.05 4.33768 12.6623 0.95 8.5 0.95ZM15.0488 8.00896L12.5121 8.00883C12.4759 6.92053 12.3245 5.90162 12.0771 4.99312C12.6447 4.83479 13.166 4.64137 13.6361 4.41208C14.4363 5.41433 14.9471 6.65494 15.0488 8.00896ZM8.00882 2.02313V4.46533C7.38544 4.44305 6.78074 4.38047 6.19868 4.2742C6.66334 3.10345 7.30431 2.28688 8.00882 2.02313ZM5.47238 8.99052H8.00882V11.5467C7.27726 11.571 6.56659 11.6491 5.88526 11.7806C5.65549 10.9433 5.50869 9.99485 5.47238 8.99052ZM6.19867 12.726C6.78148 12.6215 7.38735 12.5571 8.00882 12.5347V14.977C7.30428 14.7138 6.6615 13.8967 6.19867 12.726ZM8.99118 14.9769V12.5347C9.61456 12.557 10.2193 12.6196 10.8013 12.7259C10.3367 13.8966 9.69569 14.7132 8.99118 14.9769ZM11.5276 8.00955H8.99118V5.45333C9.72274 5.4291 10.4334 5.35096 11.1147 5.21948C11.3445 6.0568 11.4913 7.00522 11.5276 8.00955ZM8.99118 4.46532V2.02311C9.69572 2.28631 10.3385 3.10341 10.8013 4.27403C10.2185 4.37861 9.61265 4.44295 8.99118 4.46532ZM4.48787 8.99117C4.52411 10.0795 4.67553 11.0984 4.92295 12.0069C4.35535 12.1652 3.83402 12.3586 3.36388 12.5879C2.56374 11.5857 2.05288 10.3451 1.95121 8.99104L4.48787 8.99117Z" fill="#396773" stroke="#396773" stroke-width="0.1"/>
</svg>
